<svg width="99" height="27" viewBox="0 0 99 27" fill="none" xmlns="http://www.w3.org/2000/svg">
    <path d="M0.952409 20.4357L0.260372 20.4117L0 23.6698L0.123334 23.6766C0.64065 23.7075 1.04148 23.7075 1.39778 23.7075C6.26261 23.7075 10.6409 22.4022 14.406 19.8259C18.9625 16.7083 21.9088 12.0285 21.9088 7.90363C21.9088 3.1039 18.0238 0 12.0147 0C11.011 0 9.84956 0.0342612 7.68094 0.424818L7.56104 0.445372L8.1503 3.64519L8.27363 3.61779C8.534 3.56297 8.76354 3.51844 8.97252 3.4876L9.20206 3.45334L9.10956 3.66575C6.94437 8.66419 4.70723 13.8339 1.75065 20.3672L1.71639 20.4425H1.63417C1.18537 20.4425 1.16139 20.4425 0.955836 20.4323L0.952409 20.4357ZM5.56714 19.8499C7.79743 14.8069 10.0243 9.7228 12.7856 3.37455L12.8198 3.29232H12.9089C16.6637 3.4739 18.6508 5.06696 18.6508 7.9002C18.6508 11.0144 16.2698 14.6424 12.58 17.1468C10.4971 18.5788 8.24965 19.521 5.71103 20.0246L5.46779 20.0725L5.56714 19.8464V19.8499Z"
          fill="white"/>
    <path d="M39.9544 4.04818C36.2852 4.17152 33.8185 4.20235 32.1227 4.20235L30.6735 7.53236C32.1227 7.47069 33.6952 7.37819 36.0385 7.25486L36.2235 10.3382C33.0169 10.4924 31.2902 10.5849 29.3477 10.6774L25.0927 20.5749C27.7752 20.4824 31.4752 20.2974 33.6335 20.2049L33.6952 23.2882C29.4093 23.4732 25.1852 23.6582 20.221 23.9049L20.0977 20.8216C20.4368 20.8216 20.961 20.7907 21.6393 20.7599L25.9252 10.7699H25.2777L25.216 7.68652C25.771 7.68652 26.696 7.65569 27.251 7.65569L28.7927 4.10985H28.1143L28.2377 0.995676C29.286 1.08818 30.3343 1.11901 32.1227 1.11901C33.8185 1.11901 36.1619 1.08818 39.831 0.964844L39.9544 4.04818Z"
          fill="white"/>
    <path d="M57.6246 10.4949C52.8454 20.6699 52.0437 23.0441 50.9029 26.2508L48.0971 25.295C48.4671 24.1233 49.3612 21.9649 49.8237 20.6083C47.9429 22.3658 45.9695 23.8766 43.472 23.8766C40.9745 23.8766 37.6445 21.9958 37.6445 16.9083C37.6445 12.6841 39.8954 8.86075 42.4854 6.27074C46.9871 1.76906 52.3212 0.289062 57.4704 0.289062V3.3724C51.8896 3.3724 47.7887 5.31491 44.7054 8.42908C42.4545 10.7416 40.7279 13.9483 40.7279 16.9083C40.7279 19.3441 41.8687 20.7933 43.472 20.7933C45.877 20.7933 48.9604 18.5424 52.6912 13.7941C52.9379 13.2391 53.2771 12.5608 53.6162 11.8208C50.3479 12.3449 48.2821 12.5608 46.1237 12.7458L45.877 9.66242C48.9912 9.47742 53.5546 8.73741 56.2371 8.30575L57.6246 10.4949Z"
          fill="white"/>
    <path d="M75.9973 4.04818C72.3282 4.17152 69.8615 4.20235 68.1657 4.20235L66.7165 7.53236C68.1657 7.47069 69.7382 7.37819 72.0815 7.25486L72.2665 10.3382C69.0598 10.4924 67.3331 10.5849 65.3906 10.6774L61.1356 20.5749C63.8181 20.4824 67.5182 20.2974 69.6765 20.2049L69.7382 23.2882C65.4523 23.4732 61.2281 23.6582 56.264 23.9049L56.1406 20.8216C56.4798 20.8216 57.004 20.7907 57.6823 20.7599L61.9681 10.7699H61.3206L61.259 7.68652C61.814 7.68652 62.739 7.65569 63.294 7.65569L64.8356 4.10985H64.1573L64.2806 0.995676C65.329 1.08818 66.3773 1.11901 68.1657 1.11901C69.8615 1.11901 72.2048 1.08818 75.874 0.964844L75.9973 4.04818Z"
          fill="white"/>
    <path d="M88.166 18.7024L88.1214 18.8017L88.0872 18.699C87.426 16.7462 86.8641 14.5296 86.1995 11.8334C84.9353 6.68078 84.5756 4.77596 84.2844 1.7166L81.1394 1.58984C80.8242 3.09383 79.5018 6.91375 75.0275 16.5577C74.6883 17.2909 74.3252 18.0652 73.9723 18.8154C73.3043 20.2372 72.6122 21.7069 72.0195 23.0567L74.9316 24.3243C75.5414 22.906 76.3944 21.0731 77.4702 18.7606L77.8745 17.8904C78.1691 17.2566 78.4432 16.6708 78.6967 16.1295C80.4096 12.4638 81.1942 10.7919 82.0712 8.55477L82.1226 8.42801L82.1534 8.56162C82.3282 9.30162 82.4858 9.96282 82.6262 10.5658C83.1127 12.6213 83.4347 13.9814 83.8116 15.3929C84.0035 16.1158 84.2741 17.0408 84.5859 18.1131C85.0929 19.8501 85.7198 22.0084 86.2098 23.9852L89.2383 24.2421C91.0369 19.9494 92.6299 16.4618 95.1138 11.388C96.7753 7.99977 98.0052 4.87874 98.6116 3.07327L95.6345 2.05919C95.0761 3.7242 94.2333 5.8243 91.9722 10.5795C90.6258 13.3956 88.9916 16.8901 88.166 18.7092V18.7024Z"
          fill="white"/>
</svg>
