<svg width="58" height="54" viewBox="0 0 58 54" fill="none" xmlns="http://www.w3.org/2000/svg">
    <path d="M50.7182 9.41289C50.6802 9.38294 46.8425 6.49366 42.5855 8.33665C41.5631 8.77992 39.4686 9.98595 38.4083 12.7255L36.8528 11.5434C37.7454 9.93603 38.0609 8.09305 37.7414 6.26204C37.392 4.26131 36.2758 2.48422 34.6824 1.38402C33.0071 0.227909 30.8367 -0.30522 28.7022 0.17799C26.7474 0.619269 25.0861 1.86723 24.2754 3.27293C22.7539 5.91461 23.6344 9.05547 24.1516 10.4232L23.9659 10.557C19.4213 13.8656 15.6675 17.1762 12.7103 20.0755C12.301 19.4645 11.9456 18.9094 11.7658 18.5699L10.1146 19.3966C10.3622 19.8678 10.8394 20.7044 11.3206 21.4652C10.5958 22.204 9.93085 22.9088 9.32384 23.5697C8.45127 22.7311 7.37902 21.7168 6.82393 21.2475L5.61392 22.6632C6.13906 23.1085 7.17137 24.1767 8.03396 25.0034C5.86351 27.4754 4.71338 29.0887 4.60156 29.2445L5.3783 30.764C5.39826 30.764 5.73971 30.768 6.3527 30.768C7.58069 30.768 9.89492 30.754 12.8541 30.6681C12.928 31.8961 12.9719 33.2859 12.888 34.2922L14.6811 34.4559C14.7749 33.3557 14.8588 31.8901 14.7829 30.6042C15.5916 30.5743 16.4322 30.5403 17.3048 30.4984C18.413 32.4253 19.8606 34.434 19.9445 34.5638L21.436 33.5554C21.0147 32.9025 20.226 31.6505 19.4733 30.3866C22.3585 30.2229 25.4415 30.127 28.5664 29.7796C45.6205 27.8787 53.1142 24.646 54.0507 19.5623C54.8055 15.463 53.5276 11.5754 50.7182 9.41488V9.41289ZM52.1558 19.2129C51.427 23.1704 42.9928 26.2014 28.4047 27.7449C24.9623 28.1083 21.5299 28.3539 18.403 28.5157C18.1055 27.9646 17.8639 27.4833 17.7281 27.1379L15.935 27.8428C16.0229 28.0644 16.1427 28.328 16.2845 28.6155C15.7234 28.6395 15.1723 28.6614 14.6412 28.6814C14.5892 28.1103 14.5493 27.7309 14.5433 27.679L12.6265 27.8887C12.6265 27.9007 12.6624 28.2281 12.7103 28.7433C12.5027 28.7493 12.301 28.7553 12.0993 28.7593C12.0773 28.0923 11.9536 27.4274 11.7279 26.8044C11.4883 26.1375 11.1309 25.5126 10.6836 24.9595C11.2247 24.3684 11.8158 23.7435 12.4507 23.0885C12.7922 23.5697 13.0378 23.9092 13.0677 23.9511L14.6292 22.819C14.4415 22.5594 14.152 22.156 13.8305 21.6988C16.7757 18.7856 20.5455 15.431 25.102 12.1165L25.5214 11.811L25.1819 10.9104L26.2242 10.7567L25.8708 9.86016C25.5573 9.06346 24.7366 6.37785 25.9267 4.31123C26.4638 3.37876 27.6958 2.52815 29.1115 2.20867C30.7228 1.84526 32.3542 2.12481 33.5862 2.97542C34.7583 3.78409 35.5789 5.10393 35.8405 6.59749C36.124 8.22483 35.7486 9.86415 34.7822 11.2179L34.9819 12.5458L37.8811 14.7522C37.8432 15.0077 37.8133 15.2713 37.7933 15.5469L37.7214 16.5073L39.4606 16.6491L39.5325 15.6886C39.798 12.0865 42.1062 10.6469 43.3482 10.1097C46.527 8.734 49.5101 10.9224 49.5401 10.9444C52.2097 12.997 52.641 16.5632 52.1518 19.2149L52.1558 19.2129Z"
          fill="white"/>
    <path d="M27.0231 14.5256C26.7336 14.4038 26.3363 14.2141 26.0427 14.0703L25.4537 14.292C25.282 14.6893 25.0304 15.2644 24.8887 15.5559C24.8627 15.6078 24.8327 15.6717 24.8008 15.7356L24.9545 16.2667C25.29 16.4105 25.7772 16.6181 25.9928 16.714C26.1346 16.7779 26.4221 16.9097 26.6657 17.0235L27.2627 16.8138C27.3746 16.5562 27.5143 16.2368 27.5962 16.0511C27.6461 15.9373 27.744 15.7336 27.8418 15.5339L27.6142 14.7692C27.4005 14.6813 27.1669 14.5875 27.0231 14.5256Z"
          fill="white"/>
    <path d="M31.9452 18.486C31.6397 18.45 31.2184 18.3801 30.897 18.3242L30.3718 18.7096C30.3139 19.1648 30.2281 19.7958 30.1721 20.1173C30.1622 20.1732 30.4337 20.7822 30.4337 20.7822C30.7951 20.8261 31.3183 20.892 31.5539 20.926C31.7076 20.9479 32.0191 20.9959 32.2847 21.0358L32.7999 20.6764C32.8378 20.3649 32.8837 19.9635 32.9177 19.7519C32.9516 19.5402 32.9796 19.3985 33.0215 19.1589L32.688 18.5678C32.4324 18.5399 32.1249 18.5079 31.9432 18.486H31.9452Z"
          fill="white"/>
    <path d="M0.555098 49.6449L0.151754 49.6309L0 51.5298L0.0718795 51.5338C0.373387 51.5518 0.606999 51.5518 0.814659 51.5518C3.65002 51.5518 6.20184 50.791 8.39626 49.2895C11.0519 47.4725 12.7691 44.7449 12.7691 42.3408C12.7691 39.5434 10.5048 37.7344 7.00254 37.7344C6.4175 37.7344 5.74062 37.7543 4.47669 37.982L4.40678 37.994L4.75024 39.8589L4.82212 39.8429C4.97387 39.811 5.10764 39.785 5.22944 39.7671L5.36323 39.7471L5.30931 39.8709C4.04737 42.7841 2.74351 45.7972 1.02033 49.605L1.00037 49.6489H0.952446C0.690874 49.6489 0.676901 49.6489 0.557097 49.6429L0.555098 49.6449ZM3.2427 49.3035C4.54257 46.3643 5.84044 43.4011 7.44981 39.7012L7.46979 39.6532H7.52171C9.71013 39.7591 10.8682 40.6875 10.8682 42.3388C10.8682 44.1539 9.48049 46.2684 7.33001 47.728C6.11599 48.5627 4.80615 49.1118 3.32657 49.4053L3.18478 49.4332L3.2427 49.3015V49.3035Z"
          fill="white"/>
    <path d="M23.284 40.0978C21.1455 40.1697 19.7079 40.1877 18.7195 40.1877L17.8749 42.1285C18.7195 42.0926 19.636 42.0387 21.0017 41.9668L21.1096 43.7638C19.2406 43.8537 18.2343 43.9076 17.1021 43.9615L14.6222 49.7301C16.1856 49.6762 18.3421 49.5684 19.6 49.5144L19.636 51.3115C17.1381 51.4193 14.6761 51.5272 11.7828 51.6709L11.7109 49.8739C11.9086 49.8739 12.2141 49.8559 12.6095 49.8379L15.1074 44.0154H14.73L14.694 42.2184C15.0175 42.2184 15.5566 42.2004 15.8801 42.2004L16.7787 40.1338H16.3833L16.4552 38.3188C17.0662 38.3727 17.6772 38.3906 18.7195 38.3906C19.7079 38.3906 21.0736 38.3727 23.2121 38.3008L23.284 40.0978Z"
          fill="white"/>
    <path d="M33.5824 43.8545C30.797 49.7848 30.3298 51.1686 29.6649 53.0375L28.0295 52.4804C28.2452 51.7975 28.7663 50.5396 29.0359 49.7489C27.9397 50.7732 26.7896 51.6538 25.3339 51.6538C23.8783 51.6538 21.9375 50.5576 21.9375 47.5924C21.9375 45.1304 23.2494 42.9021 24.7589 41.3925C27.3826 38.7688 30.4915 37.9062 33.4926 37.9062V39.7033C30.2399 39.7033 27.8498 40.8355 26.0528 42.6505C24.7409 43.9983 23.7346 45.8672 23.7346 47.5924C23.7346 49.0121 24.3995 49.8567 25.3339 49.8567C26.7357 49.8567 28.5327 48.5449 30.7072 45.7774C30.8509 45.4539 31.0486 45.0586 31.2463 44.6273C29.3414 44.9328 28.1374 45.0586 26.8794 45.1664L26.7357 43.3693C28.5507 43.2615 31.2103 42.8302 32.7738 42.5786L33.5824 43.8545Z"
          fill="white"/>
    <path d="M44.2918 40.0978C42.1533 40.1697 40.7157 40.1877 39.7273 40.1877L38.8827 42.1285C39.7273 42.0926 40.6438 42.0387 42.0096 41.9668L42.1174 43.7638C40.2484 43.8537 39.2421 43.9076 38.1099 43.9615L35.63 49.7301C37.1934 49.6762 39.3499 49.5684 40.6079 49.5144L40.6438 51.3115C38.1459 51.4193 35.6839 51.5272 32.7906 51.6709L32.7188 49.8739C32.9164 49.8739 33.2219 49.8559 33.6173 49.8379L36.1152 44.0154H35.7378L35.7019 42.2184C36.0253 42.2184 36.5645 42.2004 36.8879 42.2004L37.7865 40.1338H37.3911L37.463 38.3188C38.074 38.3727 38.685 38.3906 39.7273 38.3906C40.7157 38.3906 42.0814 38.3727 44.2199 38.3008L44.2918 40.0978Z"
          fill="white"/>
    <path d="M51.3872 48.6417L51.3612 48.6996L51.3413 48.6397C50.9559 47.5015 50.6284 46.2096 50.2411 44.6382C49.5043 41.6351 49.2946 40.5249 49.1249 38.7418L47.2919 38.668C47.1082 39.5445 46.3374 41.7709 43.7297 47.3917C43.532 47.819 43.3204 48.2703 43.1147 48.7076C42.7254 49.5362 42.322 50.3928 41.9766 51.1795L43.6738 51.9183C44.0292 51.0917 44.5264 50.0234 45.1534 48.6756L45.389 48.1684C45.5607 47.799 45.7204 47.4576 45.8682 47.1421C46.8666 45.0056 47.3238 44.0312 47.835 42.7273L47.8649 42.6535L47.8829 42.7313C47.9847 43.1626 48.0766 43.548 48.1584 43.8994C48.442 45.0975 48.6297 45.8902 48.8493 46.7128C48.9611 47.1341 49.1189 47.6732 49.3006 48.2982C49.5961 49.3106 49.9615 50.5685 50.247 51.7206L52.0122 51.8704C53.0604 49.3685 53.9889 47.3358 55.4366 44.3786C56.405 42.4039 57.1218 40.5848 57.4752 39.5326L55.7401 38.9415C55.4146 39.9119 54.9234 41.1359 53.6055 43.9074C52.8208 45.5487 51.8684 47.5854 51.3872 48.6457V48.6417Z"
          fill="white"/>
</svg>
