<svg width="26" height="26" viewBox="0 0 26 26" fill="none" xmlns="http://www.w3.org/2000/svg">
    <path d="M12.5726 0C9.15838 0 8.7299 0.014929 7.38893 0.0759534C6.05059 0.13724 5.13705 0.349123 4.33771 0.660007C3.51087 0.981106 2.80948 1.41063 2.11071 2.10967C1.41142 2.80844 0.981891 3.50982 0.659745 4.3364C0.348075 5.13601 0.13593 6.0498 0.0756911 7.38763C0.0157143 8.72859 0 9.15734 0 12.5716C0 15.9858 0.0151909 16.413 0.0759534 17.7539C0.137502 19.0923 0.349385 20.0058 0.660007 20.8052C0.981367 21.632 1.4109 22.3334 2.10993 23.0322C2.80843 23.7314 3.50982 24.162 4.33614 24.4831C5.13601 24.794 6.0498 25.0059 7.38789 25.0672C8.72885 25.1282 9.15707 25.1431 12.571 25.1431C15.9855 25.1431 16.4127 25.1282 17.7537 25.0672C19.092 25.0059 20.0066 24.794 20.8065 24.4831C21.633 24.162 22.3334 23.7314 23.0319 23.0322C23.7312 22.3334 24.1607 21.632 24.4828 20.8054C24.7919 20.0058 25.004 19.092 25.0669 17.7542C25.1271 16.4132 25.1429 15.9858 25.1429 12.5716C25.1429 9.15734 25.1271 8.72886 25.0669 7.38789C25.004 6.04954 24.7919 5.13601 24.4828 4.33667C24.1607 3.50982 23.7312 2.80844 23.0319 2.10967C22.3326 1.41037 21.6333 0.980844 20.8057 0.660007C20.0042 0.349123 19.0902 0.13724 17.7518 0.0759534C16.4109 0.014929 15.984 0 12.5687 0H12.5726ZM11.4448 2.2655C11.7796 2.26498 12.153 2.2655 12.5726 2.2655C15.9292 2.2655 16.3271 2.27755 17.6526 2.33779C18.8783 2.39384 19.5435 2.59865 19.9867 2.77072C20.5734 2.99858 20.9916 3.27096 21.4314 3.71097C21.8714 4.15097 22.1438 4.57003 22.3721 5.1567C22.5442 5.59932 22.7493 6.26457 22.8051 7.4903C22.8653 8.81555 22.8784 9.21365 22.8784 12.5687C22.8784 15.9237 22.8653 16.3218 22.8051 17.6471C22.749 18.8728 22.5442 19.538 22.3721 19.9807C22.1443 20.5673 21.8714 20.9851 21.4314 21.4248C20.9914 21.8648 20.5736 22.1372 19.9867 22.3651C19.5441 22.5379 18.8783 22.7422 17.6526 22.7983C16.3273 22.8585 15.9292 22.8716 12.5726 22.8716C9.21574 22.8716 8.8179 22.8585 7.49265 22.7983C6.26692 22.7417 5.60168 22.5369 5.15827 22.3648C4.5716 22.137 4.15254 21.8646 3.71254 21.4246C3.27253 20.9846 3.00015 20.5666 2.77177 19.9796C2.59969 19.537 2.39462 18.8718 2.33883 17.646C2.2786 16.3208 2.26655 15.9227 2.26655 12.5655C2.26655 9.20841 2.2786 8.81241 2.33883 7.48715C2.39488 6.26143 2.59969 5.59618 2.77177 5.15303C2.99963 4.56636 3.27253 4.14731 3.71254 3.7073C4.15254 3.2673 4.5716 2.99491 5.15827 2.76653C5.60142 2.59367 6.26692 2.38938 7.49265 2.33307C8.65238 2.28069 9.10181 2.26498 11.4448 2.26236V2.2655ZM19.2832 4.3529C18.4503 4.3529 17.7746 5.02784 17.7746 5.86097C17.7746 6.69383 18.4503 7.36956 19.2832 7.36956C20.1161 7.36956 20.7918 6.69383 20.7918 5.86097C20.7918 5.0281 20.1161 4.35238 19.2832 4.35238V4.3529ZM12.5726 6.11554C9.00726 6.11554 6.11659 9.00622 6.11659 12.5716C6.11659 16.1369 9.00726 19.0263 12.5726 19.0263C16.138 19.0263 19.0276 16.1369 19.0276 12.5716C19.0276 9.00622 16.138 6.11554 12.5726 6.11554ZM12.5726 8.38104C14.8868 8.38104 16.7631 10.2571 16.7631 12.5716C16.7631 14.8858 14.8868 16.7621 12.5726 16.7621C10.2581 16.7621 8.38209 14.8858 8.38209 12.5716C8.38209 10.2571 10.2581 8.38104 12.5726 8.38104Z"
          fill="white"/>
</svg>
