<svg width="26" height="26" viewBox="0 0 26 26" fill="none" xmlns="http://www.w3.org/2000/svg">
    <g clip-path="url(#clip0_743_5493)">
        <path d="M12.6819 25.1429C10.1399 25.1429 8.97096 24.8296 7.02905 23.784C5.34654 22.8782 3.89598 21.6658 3.11952 19.9257C0.337345 13.6924 1.18256 4.3699 7.12821 1.2717C10.1473 -0.30126 14.9364 -0.47411 18.0037 1.08525C20.9459 2.58106 22.3695 4.91467 23.547 7.90876L21.1434 8.59546C20.0334 4.56278 17.3588 2.32859 13.0175 2.32859C11.3018 2.32859 9.74495 2.50094 8.43658 3.14957C5.30698 4.70027 4.02457 8.33804 3.89846 12.0228C3.80672 14.7004 4.23946 17.4032 5.43433 19.3478C6.80106 21.5719 9.64109 22.9784 12.3033 22.9784C14.7969 22.9784 16.8034 22.5449 18.3509 21.0934C20.4582 19.1163 20.8974 15.9637 18.2112 14.0416C17.3838 21.1033 7.80799 20.7004 7.80799 15.0876C7.80799 13.9222 8.26126 12.9051 9.16755 12.0366C10.9675 10.3119 13.6758 10.8215 15.9344 10.7874C15.6963 9.72134 14.79 8.17682 13.0504 8.17682C11.7099 8.17682 10.5548 8.51386 9.93388 9.55195L8.06269 8.33804C8.85523 6.8499 10.4532 5.87264 12.9047 5.87264C15.3563 5.87264 17.7562 7.47676 18.154 10.5188L18.2769 11.4583C19.6627 12.0174 20.6602 13.0604 21.3529 14.1113C23.3002 17.0664 22.2265 20.857 19.4456 23.2136C17.9283 24.4994 15.6733 25.1426 12.6822 25.1426L12.6819 25.1429ZM10.0422 15.0401C10.0422 16.1964 11.269 17.0612 12.4567 17.0612C13.7816 17.0612 14.6926 16.6875 15.1894 15.9402C15.6862 15.193 15.9347 14.2929 15.9347 13.2404C14.5736 12.8945 12.2057 12.6464 10.9507 13.4771C10.3597 13.8683 10.0424 14.3665 10.0424 15.0401H10.0422Z"
              fill="white"/>
    </g>
    <defs>
        <clipPath id="clip0_743_5493">
            <rect width="25.1429" height="25.1429" fill="white"/>
        </clipPath>
    </defs>
</svg>
