<svg width="21" height="25" viewBox="0 0 21 25" fill="none" xmlns="http://www.w3.org/2000/svg">
    <path d="M21 10.2438C18.8925 10.2926 16.9255 9.60964 15.2395 8.34137V17.073C15.2395 20.39 13.2725 23.3168 10.2751 24.4875C7.3246 25.6582 3.95259 24.7802 1.89191 22.2924C-0.2156 19.7559 -0.590269 16.1949 0.908405 13.2681C2.40708 10.3901 5.49809 8.78039 8.68278 9.21941V13.6096C7.23094 13.1218 5.63859 13.6584 4.74876 14.9267C3.90575 16.2437 3.90575 17.951 4.79559 19.2193C5.68543 20.4876 7.27777 21.0241 8.68278 20.5363C10.1346 20.0485 11.1181 18.6339 11.1181 17.073V0H15.2395C15.2395 0.390239 15.2395 0.731699 15.3331 1.12194C15.6141 2.73168 16.504 4.14629 17.8622 5.02433C18.752 5.65847 19.876 5.99993 21 5.99993V10.2438Z"
          fill="white"/>
</svg>
