<svg width="590" height="176" viewBox="0 0 590 176" fill="none" xmlns="http://www.w3.org/2000/svg">
    <path d="M588.344 137.609H349.235L284.578 173.917L284.128 174.17L283.618 174.093L102.845 146.627L23.5771 159.091L22.1533 159.314L21.873 157.902L1.87305 57.4023L1.67188 56.3926L2.54102 55.8418L87.041 2.3418L87.8916 1.80371L88.7119 2.38672L153.713 48.5322L238.609 35.1279L238.812 35.0957L239.018 35.1191L354.557 48.5654L421.646 13.2822L422.158 13.0117L422.719 13.1572L587.219 55.6572L588.344 55.9473V137.609Z"
          fill="#28ACFF" stroke="white" stroke-width="3"/>
    <path d="M568.148 72.3502C564.881 79.8325 559.717 92.6894 555.713 103.228C552.973 110.394 550.338 118.403 549.389 121.776L539.273 118.825C540.959 113.029 543.699 104.914 545.806 99.434C547.071 96.1671 550.443 87.4202 554.553 77.8302L554.448 77.7248C548.441 83.4155 542.645 87.9471 537.903 93.3217C533.16 98.6963 529.788 104.598 526.732 111.764C525.678 114.293 524.519 116.928 523.676 119.773L513.664 116.401C515.35 111.869 517.142 107.338 518.617 103.439C520.198 99.2232 525.256 87.7363 527.786 81.3079C529.788 76.2494 532.423 69.6102 533.266 66.3432L543.593 68.8725C543.277 70.4532 540.326 77.4086 539.062 80.6755C544.647 75.0902 550.443 69.0832 557.504 64.4463C561.403 61.9171 564.881 61.9171 566.778 63.7086C568.991 65.7109 569.623 68.8725 568.148 72.3502Z"
          fill="#1F1D1D"/>
    <path d="M518.461 75.7266C518.461 85.5274 512.876 99.2274 506.553 109.239C499.913 119.777 493.379 124.836 487.056 124.836C478.942 124.836 474.516 117.775 474.516 109.239C474.516 95.1174 489.164 61.0781 506.553 61.0781C511.506 61.0781 518.461 64.2397 518.461 75.7266ZM507.923 75.7266C507.923 72.3543 507.079 71.6166 506.553 71.6166C503.918 71.6166 500.019 74.5674 495.382 81.6281C489.902 89.9535 485.054 101.651 485.054 109.239C485.054 113.349 486.319 114.297 487.056 114.297C488.637 114.297 492.115 112.295 497.7 103.548C503.075 95.2227 507.923 82.7874 507.923 75.7266Z"
          fill="#1F1D1D"/>
    <path d="M476.676 75.7266C476.676 85.5274 471.09 99.2274 464.767 109.239C458.128 119.777 451.594 124.836 445.271 124.836C437.157 124.836 432.73 117.775 432.73 109.239C432.73 95.1174 447.379 61.0781 464.767 61.0781C469.72 61.0781 476.676 64.2397 476.676 75.7266ZM466.137 75.7266C466.137 72.3543 465.294 71.6166 464.767 71.6166C462.133 71.6166 458.234 74.5674 453.597 81.6281C448.117 89.9535 443.269 101.651 443.269 109.239C443.269 113.349 444.534 114.297 445.271 114.297C446.852 114.297 450.33 112.295 455.915 103.548C461.29 95.2227 466.137 82.7874 466.137 75.7266Z"
          fill="#1F1D1D"/>
    <path d="M434.117 57.6C434.222 59.4969 432.852 65.6092 430.744 69.1923L421.26 64.45C423.157 61.183 423.367 59.1807 423.367 57.7053C423.367 56.8623 421.892 56.4407 417.571 56.4407C409.457 56.4407 400.815 59.1807 394.176 63.08C389.012 66.1361 387.221 69.0869 387.221 70.8784C387.221 72.143 391.014 73.6184 392.279 74.1453C399.551 76.9907 407.771 78.3607 415.991 80.9953C422.314 82.9976 427.161 87.6346 427.161 95.1169C427.161 104.391 420.311 111.768 409.035 117.88C398.918 123.36 385.218 126.627 378.79 126.627C366.565 126.627 360.137 119.671 360.137 111.346C360.137 103.231 365.301 96.4869 371.729 91.1123L378.474 99.3323C374.469 102.705 370.675 106.815 370.675 111.346C370.675 113.77 372.045 116.088 378.79 116.088C383.743 116.088 395.019 113.559 403.977 108.606C413.04 103.548 416.623 99.0161 416.623 95.1169C416.623 91.7446 413.356 91.1123 407.138 89.4261C395.124 86.1592 387.537 83.9461 383.954 81.9438C380.16 79.8361 376.682 76.4638 376.682 70.8784C376.682 64.2392 381.319 58.443 388.696 54.0169C396.6 49.2746 407.56 45.7969 418.52 45.7969C426.213 45.7969 433.59 47.5884 434.117 57.6Z"
          fill="#1F1D1D"/>
    <path d="M332.884 69.8309L338.785 72.7817C330.354 89.1163 327.509 96.4932 322.45 111.142C319.605 119.256 316.127 128.214 314.23 132.746C310.753 140.966 301.795 151.082 292.627 151.082C289.254 151.082 287.463 150.766 285.46 150.239L288.411 140.122C289.36 140.439 289.676 140.544 291.362 140.544C296.42 140.544 301.374 136.329 305.694 125.896C306.959 122.839 310.647 113.987 311.596 111.352C306.959 117.254 300.53 123.788 294.734 123.788C288.833 123.788 284.828 120.099 284.828 111.247C284.828 88.0624 311.385 70.9901 330.46 63.5078L332.884 69.8309ZM324.769 77.8401C317.287 81.634 310.858 86.0601 306.221 90.5917C297.263 99.3386 295.472 106.821 295.472 109.877C295.472 111.563 295.577 112.828 296.42 112.722C300.109 112.406 303.692 108.823 310.647 100.076C316.127 93.2263 320.554 85.9547 324.769 77.8401Z"
          fill="#1F1D1D"/>
    <path d="M289.968 72.3502C286.701 79.8325 281.537 92.6894 277.533 103.228C274.793 110.394 272.158 118.403 271.21 121.776L261.093 118.825C262.779 113.029 265.519 104.914 267.627 99.434C268.891 96.1671 272.264 87.4202 276.374 77.8302L276.268 77.7248C270.261 83.4155 264.465 87.9471 259.723 93.3217C254.981 98.6963 251.608 104.598 248.552 111.764C247.498 114.293 246.339 116.928 245.496 119.773L235.484 116.401C237.171 111.869 238.962 107.338 240.437 103.439C242.018 99.2232 247.077 87.7363 249.606 81.3079C251.608 76.2494 254.243 69.6102 255.086 66.3432L265.414 68.8725C265.097 70.4532 262.147 77.4086 260.882 80.6755C266.467 75.0902 272.264 69.0832 279.324 64.4463C283.224 61.9171 286.701 61.9171 288.598 63.7086C290.811 65.7109 291.444 68.8725 289.968 72.3502Z"
          fill="#1F1D1D"/>
    <path d="M241.166 49.9141L250.651 54.3402L247.7 60.8741L238.215 56.4479L241.166 49.9141ZM233.368 68.0402L242.852 72.6771C236.213 86.2718 227.466 108.403 224.515 118.414L214.398 115.463C217.349 105.452 227.15 81.0025 233.368 68.0402Z"
          fill="#1F1D1D"/>
    <path d="M218.33 72.042C218.33 73.8335 217.486 75.7305 216.854 76.6789C211.901 84.372 199.993 115.039 197.674 122.943L187.557 120.203C191.035 108.294 197.042 95.1212 201.784 83.4235L201.573 83.3181C190.086 91.9597 183.869 97.4397 178.178 106.714C176.281 111.561 174.49 116.198 173.12 119.992L163.003 117.147C164.056 112.299 165.743 107.662 168.061 103.447C168.904 101.339 173.33 90.5897 176.492 83.2128L176.386 83.1074C163.319 94.3835 157.417 100.496 152.148 109.032C150.778 112.404 149.303 115.987 146.879 121.573L136.867 118.306C137.71 114.512 139.607 108.927 143.19 103.236C147.3 93.4351 154.361 77.1005 159.103 65.9297L168.799 70.1451C166.796 74.782 163.424 81.3158 162.265 83.9505C167.64 78.5758 174.7 72.1474 180.391 68.6697C182.499 67.4051 184.817 66.6674 186.925 66.6674C189.981 66.6674 192.405 68.1428 192.616 71.0935C192.721 72.6743 189.665 78.7866 186.82 83.9505C193.248 78.3651 199.993 72.8851 206.526 68.6697C208.529 67.4051 210.215 66.7728 211.796 66.7728C214.536 66.7728 218.33 68.6697 218.33 72.042Z"
          fill="#1F1D1D"/>
    <path d="M142.719 75.7266C142.719 85.5274 137.133 99.2274 130.81 109.239C124.171 119.777 117.637 124.836 111.314 124.836C103.2 124.836 98.7734 117.775 98.7734 109.239C98.7734 95.1174 113.422 61.0781 130.81 61.0781C135.763 61.0781 142.719 64.2397 142.719 75.7266ZM132.18 75.7266C132.18 72.3543 131.337 71.6166 130.81 71.6166C128.176 71.6166 124.277 74.5674 119.64 81.6281C114.16 89.9535 109.312 101.651 109.312 109.239C109.312 113.349 110.577 114.297 111.314 114.297C112.895 114.297 116.373 112.295 121.958 103.548C127.333 95.2227 132.18 82.7874 132.18 75.7266Z"
          fill="#1F1D1D"/>
    <path d="M110.267 45.374L106.684 55.2801C105.524 54.8586 104.892 54.6478 102.679 54.6478C96.4613 54.6478 86.0282 59.1794 75.8059 69.1909C64.8459 79.9401 58.5228 92.5863 58.5228 102.282C58.5228 109.869 62.0005 113.874 66.6375 113.874C69.9044 113.874 75.8059 111.45 82.129 104.179L90.1382 111.134C82.129 120.408 73.2767 124.412 66.6375 124.412C52.7267 124.412 47.9844 111.977 47.9844 102.282C47.9844 89.3194 56.2044 73.6171 68.429 61.814C80.4428 50.1163 93.089 44.1094 102.679 44.1094C106.789 44.1094 107.737 44.5309 110.267 45.374Z"
          fill="#1F1D1D"/>
</svg>
