<svg width="18" height="18" viewBox="0 0 18 18" fill="none" xmlns="http://www.w3.org/2000/svg">
    <path d="M17.5419 16.2411C16.6419 15.3411 13.9019 12.6011 12.6119 11.3111C13.3619 10.1811 13.8619 8.73109 13.8819 7.40109C13.8719 7.29109 13.8119 7.20109 13.7319 7.13109C14.0719 7.06109 14.0419 6.67109 14.0219 6.25109C13.8419 4.39109 13.0419 2.77109 11.6119 1.61109C10.2019 0.441091 8.34192 -0.118909 6.58192 0.0210909C4.81192 0.131091 3.14192 0.961091 1.97192 2.20109C0.79192 3.43109 0.10192 5.07109 0.0119198 6.74109C-0.0880802 8.48109 0.44192 10.2811 1.57192 11.6711C2.69192 13.0711 4.41192 14.0511 6.27192 14.2211C8.02192 14.4111 9.90192 13.9211 11.2519 12.7811C12.6619 14.1911 15.6719 17.2011 16.1219 17.6511C16.5219 18.0511 17.9319 16.6311 17.5319 16.2411H17.5419ZM5.95192 12.8711C4.47192 12.6211 3.17192 11.6911 2.35192 10.5411C1.53192 9.39109 1.19192 7.98109 1.33192 6.62109C1.61192 3.64109 3.78192 1.43109 6.67192 1.26109C8.08192 1.16109 9.58192 1.61109 10.7219 2.58109C11.8719 3.54109 12.6919 5.15109 12.7819 6.68109C12.7819 6.85109 12.8819 6.99109 13.0319 7.10109C12.8419 7.15109 12.6919 7.26109 12.6919 7.44109C12.6819 8.97109 11.6819 10.8211 10.4519 11.7611C9.23192 12.7311 7.43192 13.1311 5.95192 12.8711Z"
          fill="#1C1917"/>
</svg>
