<svg width="151" height="172" viewBox="0 0 151 172" fill="none" xmlns="http://www.w3.org/2000/svg">
<path d="M84.3511 109.462L75.2363 119.426L90.4919 133.381L99.6066 123.417L84.3511 109.462Z" fill="white"/>
<path d="M98.3608 124.004C95.6746 126.983 92.8355 130.007 90.0028 132.948L90.9512 132.906C85.9829 128.135 81.1707 123.218 76.1006 118.511L76.1801 120.303L76.6066 119.841C79.522 116.684 82.3196 113.428 85.0886 110.15L83.6915 110.213C86.1454 112.263 88.596 114.309 91.0499 116.359C93.5293 118.441 96.012 120.579 98.4182 122.74C99.4812 123.679 101.152 123.657 100.083 122.604C97.6638 120.252 95.1431 117.896 92.5841 115.605C90.0252 113.31 87.4376 111.085 84.8914 108.902L84.8532 108.867C84.5317 108.593 84.0511 108.628 83.7742 108.95C80.9829 112.212 78.1757 115.458 75.2794 118.632L74.8561 119.096C74.6619 119.309 74.6747 119.641 74.8879 119.838C79.9358 124.472 84.7831 129.437 89.8437 134.119C90.2319 134.479 90.843 134.456 91.2027 134.065L91.2091 134.058C92.7304 132.413 94.2233 130.717 95.6269 129.011C97.0305 127.308 98.3417 125.611 99.5544 124.004C100.121 123.24 99.026 123.285 98.3608 124.007V124.004Z" fill="#FF7A1C"/>
<path d="M131.988 61.3797C131.887 60.6986 130.33 58.0124 132.498 57.2294C133.64 56.8156 134.885 57.7577 135.524 59.0658C137.033 62.134 139.064 73.7129 138.494 79.1205C138.061 83.2071 134.146 88.325 134.146 88.325L125.142 86.5522C124.869 84.6617 128.529 80.4732 128.156 74.8842C127.867 70.5429 124.34 64.3142 123.898 62.4682C123.735 61.7967 124.146 60.9501 124.512 60.6127C125.231 59.9475 126.377 59.4637 127.459 60.4281C128.207 61.0933 127.997 61.176 127.997 61.176" fill="white"/>
<path d="M132.401 60.2837C132.261 59.9273 132.14 59.5835 132.077 59.2557C132.013 58.9311 132.01 58.6255 132.083 58.4059C132.153 58.1895 132.299 58.0303 132.554 57.8967C132.688 57.8298 132.802 57.7725 132.923 57.763C133.044 57.7407 133.175 57.7439 133.308 57.7725C133.852 57.8744 134.409 58.3677 134.779 58.9469C135.141 59.5198 135.387 60.2805 135.616 61.0189C136.061 62.518 136.386 64.0712 136.663 65.6276C136.937 67.1871 137.144 68.7594 137.309 70.3317C137.475 71.904 137.583 73.4827 137.615 75.0486C137.63 75.4401 137.627 75.8315 137.621 76.2198V76.8023L137.589 77.3784L137.56 77.9545L137.503 78.5178C137.481 78.7024 137.471 78.8966 137.439 79.0716L137.341 79.5872C137.022 80.9749 136.389 82.3689 135.648 83.7057C135.278 84.3741 134.877 85.0361 134.454 85.6822C134.034 86.3219 133.582 86.9808 133.14 87.56L134.387 87.089C133.897 86.9903 133.407 86.8885 132.917 86.7898C130.406 86.2869 127.891 85.8222 125.374 85.3798L126.328 86.3824C126.316 86.3506 126.319 86.1501 126.379 85.9209C126.433 85.6886 126.523 85.4212 126.621 85.1475C126.828 84.5969 127.073 84.0176 127.318 83.4224C127.808 82.2384 128.273 80.9876 128.591 79.6891C128.913 78.3905 129.082 77.0315 129.034 75.6788C129.015 75.0072 128.929 74.3197 128.795 73.6609C128.725 73.3331 128.661 73.0052 128.566 72.6902C128.48 72.3719 128.394 72.0536 128.289 71.7449C127.49 69.2591 126.363 66.9643 125.291 64.6727C125.023 64.0998 124.759 63.527 124.536 62.9604C124.479 62.8172 124.425 62.6772 124.387 62.5435C124.368 62.4798 124.339 62.4003 124.326 62.3462C124.314 62.2984 124.307 62.2443 124.304 62.187C124.291 61.961 124.352 61.6969 124.454 61.455C124.505 61.334 124.568 61.2131 124.642 61.1081C124.677 61.0539 124.715 61.0062 124.753 60.9648C124.785 60.9298 124.836 60.8821 124.89 60.8375C125.097 60.6529 125.332 60.5065 125.574 60.4079C126.064 60.2042 126.573 60.2615 127.003 60.5734C127.076 60.6243 127.143 60.6752 127.213 60.7134C127.286 60.7643 127.36 60.8057 127.426 60.8407C127.563 60.9107 127.691 60.9521 127.812 60.9807C127.929 61.0157 128.044 61.0126 128.159 61.0953C128.213 61.1367 128.257 61.229 128.241 61.334C128.235 61.3849 128.222 61.4327 128.203 61.4741C128.2 61.5091 128.146 61.5632 128.162 61.5823C128.162 61.6109 128.248 61.6046 128.289 61.6046C128.349 61.595 128.416 61.5759 128.49 61.5218C128.642 61.4136 128.741 61.2004 128.766 61.0317C128.817 60.6975 128.773 60.4906 128.728 60.2901C128.681 60.096 128.601 59.9177 128.49 59.7458C128.432 59.6567 128.372 59.5772 128.295 59.4944C128.197 59.3989 128.092 59.2971 127.958 59.2048C127.563 58.9247 127.051 58.6987 126.503 58.6382C125.959 58.5714 125.412 58.6669 124.963 58.8483C124.511 59.0297 124.126 59.278 123.798 59.5612L123.677 59.6694C123.639 59.7044 123.569 59.7745 123.518 59.8286C123.419 59.9368 123.337 60.0418 123.267 60.1469C123.123 60.3537 123.012 60.5574 122.92 60.7738C122.738 61.2035 122.605 61.6682 122.62 62.2443C122.627 62.3907 122.643 62.5403 122.678 62.6963C122.694 62.7854 122.706 62.8108 122.722 62.865L122.767 63.0082C122.796 63.1036 122.827 63.2055 122.856 63.2914L122.951 63.5365C123.203 64.189 123.47 64.7651 123.738 65.3475C124.804 67.6518 125.88 69.8957 126.615 72.2127C126.714 72.5024 126.787 72.7888 126.866 73.0784C126.952 73.3681 127.006 73.6545 127.07 73.9441C127.185 74.5202 127.258 75.0868 127.274 75.6756C127.315 76.8468 127.166 78.0372 126.873 79.2085C126.583 80.3829 126.153 81.5351 125.673 82.6936C125.434 83.2761 125.179 83.8585 124.947 84.4759C124.832 84.7879 124.721 85.1061 124.632 85.453C124.549 85.8 124.476 86.1819 124.536 86.6402V86.6466C124.571 86.9076 124.775 87.1081 125.02 87.1495C127.538 87.5951 130.055 88.0565 132.567 88.5467C133.057 88.6453 133.547 88.7408 134.04 88.8395H134.047C134.247 88.8809 134.444 88.7981 134.562 88.6422C135.542 87.3277 136.421 85.9782 137.21 84.5428C137.993 83.1105 138.69 81.5987 139.066 79.9214L139.18 79.2816C139.215 79.0684 139.225 78.8647 139.247 78.6547L139.305 78.0308L139.33 77.4134L139.355 76.7959V76.1816C139.359 75.7711 139.356 75.3605 139.34 74.9531C139.295 73.3203 139.168 71.6971 138.98 70.0834C138.792 68.4698 138.557 66.8625 138.248 65.268C137.933 63.6734 137.57 62.0883 137.054 60.5097C136.774 59.7204 136.529 58.9279 135.972 58.1035C135.698 57.7121 135.371 57.3524 134.973 57.05C134.578 56.7477 134.098 56.4994 133.541 56.4071C133.264 56.3689 132.968 56.3594 132.684 56.4198C132.541 56.4389 132.404 56.493 132.271 56.5376C132.147 56.5917 132.032 56.6553 131.914 56.7158C131.796 56.7699 131.685 56.8559 131.574 56.945C131.462 57.0309 131.354 57.12 131.265 57.241C131.173 57.3556 131.077 57.4638 131.017 57.5975C130.953 57.7279 130.88 57.8553 130.851 57.9921C130.692 58.5332 130.746 59.0329 130.842 59.4721C130.943 59.9145 131.103 60.306 131.268 60.6816C131.523 61.2258 131.876 61.3563 132.169 61.3563C132.242 61.35 132.309 61.3181 132.363 61.2608C132.417 61.2067 132.459 61.0953 132.481 61.0094C132.525 60.8057 132.503 60.567 132.395 60.2901L132.401 60.2837Z" fill="#FF7A1C"/>
<path d="M128.483 62.4905C128.171 61.8762 127.531 59.5528 128.495 58.6712C129.091 58.1269 130.265 57.8501 131.108 58.3466" fill="white"/>
<path d="M129.116 62.1103C128.919 61.9798 128.801 61.7157 128.763 61.4674C128.721 61.2128 128.747 60.9423 128.817 60.6908C128.938 60.1848 129.253 59.7423 129.342 59.6469C129.348 59.6214 129.358 59.631 129.355 59.6182C129.355 59.615 129.355 59.6087 129.348 59.6023C129.348 59.6023 129.348 59.6023 129.342 59.5991C129.313 59.5927 129.326 59.5291 129.355 59.4654C129.406 59.3317 129.514 59.1599 129.66 59.0039C129.807 58.848 129.994 58.7079 130.204 58.6347C130.414 58.5615 130.647 58.5584 130.832 58.6538C130.908 58.692 131.834 57.2948 131.592 57.1643C131.175 56.951 130.717 56.8906 130.306 56.9351C129.896 56.9797 129.527 57.1229 129.199 57.3044C128.874 57.489 128.588 57.7149 128.336 57.9727C128.085 58.2178 127.84 58.5775 127.706 58.8957C127.55 59.2331 127.439 59.5577 127.33 59.8888C127.222 60.2229 127.146 60.5571 127.124 60.8913C127.079 61.5534 127.254 62.2185 128.031 62.61C128.174 62.6864 129.18 62.139 129.113 62.1071L129.116 62.1103Z" fill="#FF7A1C"/>
<path d="M122.741 97.5058C117.951 94.1957 123.435 82.7155 126.261 80.9013C128.129 79.7014 137.843 86.0765 137.238 87.6997C135.014 93.6642 127.738 100.956 122.744 97.5026L122.741 97.5058Z" fill="white"/>
<path d="M122.791 96.6052C122.451 96.3283 122.177 95.9655 121.961 95.5549C121.744 95.1443 121.623 94.6701 121.534 94.1895C121.385 93.2124 121.442 92.1748 121.636 91.1627C122.018 89.1289 122.845 87.1651 123.88 85.3668C124.399 84.4725 124.984 83.61 125.634 82.8588C125.955 82.4864 126.302 82.1363 126.63 81.9008L126.744 81.8308C126.773 81.8117 126.849 81.764 126.802 81.799C126.76 81.8276 126.77 81.8212 126.814 81.8212C126.91 81.8244 127.098 81.8467 127.295 81.9008C127.699 82.0027 128.154 82.1841 128.6 82.3878C129.049 82.5947 129.501 82.827 129.946 83.0721C130.84 83.5686 131.719 84.1224 132.575 84.7017C133.387 85.2555 134.186 85.8347 134.905 86.4458C135.261 86.7482 135.605 87.0665 135.857 87.3624C135.981 87.5025 136.079 87.6584 136.092 87.6744C136.105 87.6807 136.063 87.6234 136.105 87.4006C136.111 87.372 136.121 87.3465 136.13 87.3179L136.14 87.2988V87.3084L136.13 87.3306L136.102 87.4134L136.044 87.5821C135.417 89.3772 134.443 91.1213 133.288 92.7159C132.12 94.3009 130.726 95.7649 129.068 96.8121C128.237 97.3277 127.336 97.7351 126.394 97.9006C125.923 97.9834 125.446 98.012 124.978 97.9515C124.742 97.9388 124.513 97.8688 124.284 97.8179C124.061 97.7415 123.835 97.6746 123.625 97.5632C123.393 97.4646 123.189 97.4455 122.989 97.5092C122.791 97.5728 122.61 97.7065 122.492 97.8783C122.374 98.0502 122.317 98.2602 122.374 98.4798C122.429 98.6963 122.588 98.9318 122.906 99.0719C123.192 99.2215 123.501 99.3201 123.81 99.422C124.122 99.4984 124.44 99.5843 124.758 99.6097C125.398 99.6957 126.035 99.6607 126.639 99.562C127.855 99.3615 128.934 98.8745 129.902 98.2953C130.872 97.7128 131.722 97.0094 132.508 96.2583C133.291 95.504 134.001 94.6924 134.644 93.8362C135.92 92.1207 136.993 90.2651 137.722 88.2505L137.788 88.0627C137.811 87.9863 137.827 87.9831 137.874 87.7826C137.932 87.4643 137.859 87.2383 137.792 87.0601C137.645 86.7068 137.464 86.4713 137.279 86.2453C136.91 85.8061 136.512 85.4432 136.108 85.0963C135.296 84.4057 134.447 83.7977 133.578 83.2153C132.671 82.6106 131.744 82.0345 130.777 81.5061C130.293 81.242 129.8 80.9905 129.287 80.7614C128.772 80.5354 128.243 80.3222 127.648 80.1821C127.349 80.1121 127.031 80.058 126.649 80.0803C126.455 80.0962 126.241 80.1312 126.006 80.2426C125.955 80.2681 125.872 80.3094 125.85 80.3285L125.748 80.3986L125.541 80.5386C125.032 80.9269 124.637 81.3534 124.265 81.7958C123.527 82.6806 122.912 83.6227 122.365 84.6062C121.286 86.5699 120.455 88.6833 120.115 90.9494C119.946 92.0761 119.927 93.2569 120.159 94.4282C120.296 95.0106 120.477 95.5899 120.786 96.1246C121.095 96.653 121.493 97.1336 121.98 97.49C122.721 97.9706 123.294 96.9649 122.795 96.618L122.791 96.6052Z" fill="#FF7A1C"/>
<path d="M130.058 152.1C129.705 154.857 132.376 160.204 130.724 162.747C129.699 164.325 124.396 165.557 122.518 165.42C117.292 165.038 108.034 161.359 105.834 159.214C104.685 158.093 105.634 154.061 106.694 152.858C107.626 151.801 110.745 151.591 112.143 151.406C113.613 151.212 118.079 151.387 118.079 151.387" fill="white"/>
<path d="M129.295 152.735C129.336 153.39 129.454 153.992 129.581 154.581C129.708 155.17 129.855 155.739 129.992 156.309C130.265 157.442 130.526 158.562 130.625 159.667C130.676 160.217 130.673 160.758 130.593 161.261C130.546 161.51 130.488 161.748 130.399 161.965C130.307 162.169 130.189 162.394 130.062 162.503C129.788 162.786 129.304 163.05 128.824 163.26C128.337 163.48 127.802 163.639 127.274 163.795C126.204 164.085 125.09 164.295 124.002 164.39C123.731 164.419 123.461 164.428 123.203 164.431C123.079 164.428 122.942 164.438 122.83 164.425C122.713 164.412 122.617 164.416 122.471 164.387L121.662 164.263L120.848 164.094C119.762 163.849 118.671 163.556 117.592 163.209C116.51 162.875 115.434 162.5 114.361 162.105C112.327 161.354 110.297 160.552 108.413 159.597C107.951 159.352 107.496 159.1 107.089 158.833C106.974 158.769 106.901 158.699 106.808 158.632L106.573 158.454C106.547 158.454 106.468 158.346 106.414 158.177C106.299 157.84 106.261 157.35 106.277 156.866C106.296 156.376 106.363 155.867 106.468 155.37C106.576 154.874 106.719 154.38 106.91 153.938C107.006 153.718 107.117 153.511 107.225 153.362C107.324 153.244 107.442 153.12 107.649 153.008C108.031 152.779 108.533 152.611 109.04 152.474C109.549 152.337 110.08 152.232 110.618 152.14C111.156 152.047 111.707 151.971 112.261 151.882C112.767 151.809 113.324 151.78 113.871 151.758C114.969 151.719 116.077 151.726 117.184 151.758C118.362 151.796 118.435 150.125 117.232 150.087C116.109 150.055 114.991 150.045 113.849 150.08C113.27 150.103 112.716 150.122 112.057 150.208L110.402 150.453C109.835 150.545 109.259 150.653 108.674 150.8C108.088 150.956 107.493 151.124 106.856 151.471C106.551 151.63 106.191 151.895 105.901 152.238C105.65 152.557 105.494 152.856 105.354 153.152C105.083 153.74 104.908 154.323 104.768 154.912C104.631 155.501 104.542 156.096 104.507 156.71C104.482 157.324 104.491 157.951 104.682 158.636C104.781 158.973 104.937 159.345 105.258 159.676L105.319 159.737L105.367 159.775L105.459 159.848L105.644 159.995C105.768 160.09 105.889 160.198 106.016 160.272C106.512 160.609 107.015 160.892 107.521 161.163C109.552 162.21 111.637 163.025 113.747 163.792C114.848 164.186 115.956 164.568 117.086 164.909C118.209 165.265 119.355 165.564 120.523 165.822L121.408 165.997L122.312 166.125C122.455 166.15 122.633 166.157 122.802 166.166C122.977 166.179 123.126 166.166 123.289 166.166C123.607 166.157 123.916 166.141 124.221 166.106C125.444 165.985 126.628 165.74 127.808 165.399C128.397 165.214 128.983 165.023 129.568 164.747C129.715 164.686 129.861 164.6 130.008 164.527L130.227 164.409L130.447 164.269C130.593 164.174 130.74 164.088 130.889 163.954C131.036 163.83 131.182 163.718 131.329 163.531C131.402 163.445 131.472 163.356 131.538 163.27L131.688 163.015C131.78 162.843 131.863 162.668 131.924 162.49C132.061 162.133 132.127 161.78 132.175 161.436C132.258 160.746 132.229 160.093 132.153 159.473C131.997 158.228 131.672 157.082 131.344 155.972C131.023 154.861 130.651 153.782 130.488 152.719C130.434 152.356 130.16 152.127 129.871 152.073C129.588 152.019 129.269 152.235 129.295 152.732V152.735Z" fill="#FF7A1C"/>
<path d="M117.774 157.251C117.421 160.008 120.091 165.355 118.439 167.898C117.415 169.476 112.112 170.708 110.234 170.571C105.008 170.189 95.7495 166.51 93.5502 164.365C92.4012 163.244 93.3497 159.212 94.4096 158.009C95.3421 156.952 98.4613 156.742 99.8585 156.557C101.329 156.363 105.794 156.538 105.794 156.538" fill="white"/>
<path d="M117.01 157.887C117.051 158.543 117.169 159.144 117.296 159.733C117.423 160.322 117.57 160.892 117.707 161.461C117.98 162.594 118.241 163.715 118.34 164.819C118.391 165.37 118.388 165.911 118.308 166.414C118.26 166.662 118.203 166.901 118.114 167.117C118.022 167.321 117.904 167.547 117.777 167.655C117.503 167.938 117.019 168.202 116.538 168.412C116.052 168.632 115.517 168.791 114.988 168.947C113.919 169.237 112.805 169.45 111.717 169.542C111.446 169.571 111.176 169.581 110.918 169.584C110.794 169.581 110.657 169.59 110.545 169.577C110.428 169.565 110.332 169.568 110.186 169.539L109.377 169.415L108.562 169.246C107.477 169.001 106.385 168.709 105.306 168.362C104.224 168.027 103.149 167.652 102.076 167.257C100.042 166.506 98.0116 165.704 96.1274 164.749C95.6659 164.504 95.2108 164.253 94.8034 163.985C94.6888 163.922 94.6156 163.852 94.5233 163.785L94.2879 163.607C94.2624 163.607 94.1828 163.498 94.1287 163.33C94.0142 162.992 93.9759 162.502 93.9918 162.018C94.0109 161.528 94.0778 161.019 94.1828 160.522C94.291 160.026 94.4341 159.533 94.6251 159.09C94.7206 158.871 94.8321 158.664 94.9403 158.514C95.0389 158.396 95.1567 158.272 95.3636 158.161C95.7455 157.932 96.2485 157.763 96.7545 157.626C97.2638 157.489 97.7953 157.384 98.3332 157.292C98.871 157.2 99.4216 157.123 99.9754 157.034C100.481 156.961 101.038 156.932 101.586 156.91C102.684 156.872 103.792 156.878 104.899 156.91C106.077 156.948 106.15 155.277 104.947 155.239C103.823 155.207 102.706 155.198 101.564 155.233C100.984 155.255 100.431 155.274 99.7718 155.36L98.1167 155.605C97.5501 155.697 96.974 155.806 96.3884 155.952C95.8027 156.108 95.2076 156.277 94.571 156.624C94.2655 156.783 93.9058 157.047 93.6162 157.391C93.3648 157.709 93.2089 158.008 93.0688 158.304C92.7983 158.893 92.6232 159.475 92.4831 160.064C92.3463 160.653 92.2572 161.248 92.2222 161.862C92.1967 162.477 92.2062 163.104 92.3972 163.788C92.4958 164.125 92.6518 164.498 92.9733 164.832L93.0337 164.892L93.0816 164.931L93.1739 165.004L93.3584 165.15C93.4825 165.246 93.6036 165.354 93.7309 165.427C94.2274 165.764 94.7303 166.048 95.2363 166.318C97.2669 167.365 99.3515 168.18 101.462 168.947C102.563 169.342 103.671 169.724 104.797 170.064C105.921 170.421 107.067 170.72 108.235 170.978L109.119 171.153L110.023 171.28C110.167 171.306 110.345 171.312 110.514 171.322C110.689 171.334 110.838 171.322 111.001 171.322C111.319 171.312 111.628 171.296 111.933 171.261C113.155 171.14 114.339 170.895 115.52 170.555C116.109 170.37 116.694 170.179 117.28 169.902C117.427 169.842 117.573 169.756 117.719 169.682L117.939 169.565L118.159 169.425C118.305 169.329 118.451 169.243 118.601 169.11C118.747 168.985 118.894 168.874 119.04 168.686C119.113 168.6 119.183 168.511 119.25 168.425L119.4 168.171C119.492 167.999 119.575 167.824 119.635 167.645C119.772 167.289 119.839 166.936 119.887 166.592C119.97 165.901 119.941 165.249 119.865 164.628C119.709 163.384 119.384 162.238 119.056 161.127C118.735 160.016 118.362 158.937 118.2 157.874C118.146 157.512 117.872 157.282 117.583 157.228C117.299 157.174 116.981 157.391 117.006 157.887H117.01Z" fill="#FF7A1C"/>
<path d="M113.164 129.495C113.103 132.595 113.017 136.207 112.903 141.911C112.769 148.572 113.791 152.853 113.791 152.853C113.791 152.853 117.199 154.413 121.923 154.441C127.928 154.48 131.073 152.669 131.073 152.669C131.073 152.669 130.78 144.174 130.672 140.364C130.475 133.397 131.356 113.587 131.356 113.587" fill="white"/>
<path d="M112.412 130.379C112.472 134.15 112.418 137.906 112.297 141.655C112.231 143.543 112.243 145.443 112.329 147.34C112.377 148.288 112.444 149.237 112.539 150.185C112.641 151.14 112.749 152.066 112.94 153.056C112.991 153.314 113.16 153.521 113.38 153.626L113.424 153.648C113.809 153.829 114.147 153.963 114.506 154.1C114.863 154.233 115.219 154.361 115.582 154.472C116.305 154.701 117.037 154.892 117.775 155.055C119.255 155.367 120.779 155.554 122.301 155.57C123.809 155.599 125.334 155.507 126.849 155.268C128.37 155.01 129.86 154.647 131.362 153.95C131.47 153.899 131.553 153.858 131.703 153.775C132.123 153.543 132.352 153.104 132.339 152.655V152.626C132.244 149.472 132.091 146.324 131.906 143.177C131.817 141.601 131.706 140.029 131.649 138.479C131.588 136.916 131.556 135.344 131.528 133.771C131.426 127.479 131.432 121.174 131.693 114.875C131.766 113.185 130.095 113.109 130.025 114.805C129.764 121.11 129.71 127.419 129.774 133.74C129.793 135.321 129.815 136.9 129.87 138.488C129.917 140.083 130.022 141.658 130.108 143.231C130.283 146.382 130.436 149.533 130.544 152.687L130.805 152.216C130.748 152.247 130.659 152.292 130.579 152.33C129.341 152.916 127.95 153.272 126.563 153.511C125.165 153.737 123.743 153.826 122.317 153.804C120.897 153.794 119.494 153.626 118.109 153.339C117.418 153.19 116.737 153.015 116.066 152.804C115.732 152.703 115.397 152.588 115.073 152.467C114.754 152.346 114.411 152.209 114.137 152.082L114.611 152.658C114.446 151.802 114.318 150.863 114.217 149.953C114.115 149.036 114.042 148.113 113.981 147.19C113.87 145.341 113.832 143.498 113.857 141.639C113.895 137.884 113.832 134.134 113.596 130.407C113.523 129.246 112.383 129.147 112.403 130.385L112.412 130.379Z" fill="#FF7A1C"/>
<path d="M101.455 119.987C101.395 123.087 101.283 138.922 101.169 144.625C101.035 151.287 102.031 156.78 102.031 156.78C102.031 156.78 105.44 158.34 110.163 158.368C116.169 158.407 119.314 156.596 119.314 156.596C119.314 156.596 118.438 139.065 119.314 133.244" fill="white"/>
<path d="M100.71 120.847C100.872 126.872 100.713 132.856 100.477 138.836L100.29 143.321C100.226 144.804 100.146 146.344 100.153 147.859C100.153 149.381 100.204 150.902 100.305 152.42C100.414 153.948 100.557 155.444 100.802 157C100.866 157.408 101.13 157.736 101.477 157.898L101.509 157.914C101.792 158.044 102.005 158.127 102.253 158.222C102.492 158.315 102.731 158.397 102.973 158.48C103.453 158.636 103.934 158.783 104.424 158.904C105.694 159.228 106.992 159.438 108.297 159.543L109.278 159.597C109.605 159.597 109.933 159.61 110.258 159.604L111.229 159.575L112.2 159.508C113.492 159.397 114.778 159.2 116.044 158.875C116.678 158.713 117.305 158.522 117.925 158.299C118.234 158.184 118.543 158.063 118.851 157.926C119.004 157.856 119.157 157.79 119.313 157.71C119.472 157.63 119.609 157.56 119.803 157.449L119.832 157.433C120.153 157.248 120.322 156.898 120.293 156.548C119.994 152.885 119.727 149.202 119.552 145.526C119.469 143.687 119.399 141.847 119.393 140.007C119.386 138.171 119.405 136.325 119.568 134.508C119.755 132.926 118.11 132.601 117.903 134.355C117.734 136.261 117.712 138.12 117.712 139.985C117.712 141.847 117.772 143.699 117.846 145.552C118.002 149.257 118.24 152.942 118.52 156.637L118.918 155.909C118.836 155.96 118.696 156.033 118.571 156.093C118.444 156.157 118.314 156.217 118.18 156.275C117.913 156.392 117.639 156.501 117.362 156.602C116.805 156.803 116.232 156.978 115.653 157.124C114.491 157.42 113.291 157.602 112.085 157.707C110.876 157.809 109.656 157.831 108.453 157.742C107.247 157.65 106.044 157.459 104.866 157.163C103.975 156.937 103.065 156.65 102.256 156.294L102.562 156.685C102.113 153.776 101.926 150.781 101.913 147.812C101.9 146.319 101.97 144.852 102.024 143.34L102.171 138.833C102.336 132.824 102.358 126.818 101.91 120.869C101.824 119.74 100.684 119.644 100.716 120.847H100.71Z" fill="#FF7A1C"/>
<path d="M127.493 78.8745C129.915 89.9696 134.183 115.931 132.21 118.354C126.863 124.913 113.887 127.727 110.503 127.93C108.886 128.029 105.134 127.778 100.872 124.729C96.8493 121.851 101.27 103.783 104.017 84.3998" fill="white"/>
<path d="M127.047 80.291C128.148 84.9633 129.026 89.6865 129.774 94.4129C130.513 99.1425 131.127 103.888 131.519 108.637C131.7 111.002 131.859 113.398 131.757 115.696C131.725 116.259 131.678 116.839 131.566 117.31C131.553 117.37 131.541 117.428 131.522 117.475C131.506 117.526 131.493 117.58 131.474 117.615L131.452 117.676L131.433 117.708C131.42 117.743 131.417 117.72 131.426 117.72C131.254 117.908 131.06 118.131 130.872 118.325C130.093 119.121 129.211 119.837 128.272 120.48C126.388 121.769 124.287 122.787 122.123 123.65C119.952 124.506 117.705 125.206 115.423 125.766C114.338 126.031 113.246 126.269 112.161 126.451C111.62 126.54 111.075 126.623 110.569 126.664C110.076 126.708 109.573 126.702 109.058 126.664C106.992 126.502 104.933 125.805 103.058 124.77L102.361 124.363C102.132 124.223 101.909 124.07 101.68 123.924L101.518 123.815C101.489 123.793 101.464 123.774 101.432 123.752C101.378 123.701 101.32 123.65 101.263 123.583C101.152 123.449 101.047 123.281 100.948 123.09C100.566 122.291 100.394 121.202 100.305 120.133C100.14 117.959 100.27 115.687 100.445 113.433C100.824 108.914 101.47 104.381 102.119 99.8555C102.794 95.3296 103.472 90.8005 104.147 86.2715C104.497 83.8494 102.842 83.6234 102.495 86.0264L100.445 99.5754C99.7766 104.105 99.1083 108.643 98.6978 113.245C98.51 115.55 98.3572 117.867 98.5259 120.235C98.6277 121.416 98.771 122.625 99.3152 123.831C99.4584 124.13 99.6335 124.426 99.8594 124.703C99.9708 124.843 100.101 124.974 100.238 125.098L100.461 125.27L100.649 125.394C100.897 125.556 101.139 125.722 101.393 125.878L102.157 126.33C104.223 127.479 106.518 128.274 108.905 128.465C109.5 128.513 110.105 128.52 110.709 128.465C111.308 128.415 111.884 128.325 112.457 128.23C113.606 128.036 114.736 127.784 115.859 127.507C118.199 126.925 120.509 126.202 122.769 125.308C125.022 124.407 127.234 123.335 129.275 121.934C130.293 121.231 131.267 120.445 132.145 119.535C132.365 119.309 132.572 119.067 132.785 118.831C132.954 118.618 133.062 118.395 133.122 118.217C133.161 118.121 133.189 118.032 133.212 117.943C133.237 117.854 133.259 117.768 133.279 117.682C133.428 117.004 133.466 116.384 133.501 115.753C133.594 113.264 133.415 110.852 133.212 108.433C132.779 103.605 132.104 98.8243 131.283 94.0852C130.452 89.3492 129.466 84.6546 128.218 80.0428C127.772 78.4227 126.633 78.5628 127.05 80.2878L127.047 80.291Z" fill="#FF7A1C"/>
<path d="M91.2603 122.857C90.9197 123.414 89.5861 124.538 90.3404 126.065C90.6937 126.922 92.1483 127.673 93.2686 126.871C95.4997 125.273 106.172 105.594 106.172 105.594L96.9097 101.915C92.7021 108.85 84.1372 120.063 83.7966 120.62C83.4561 121.177 83.4561 122.033 83.6471 122.463C84.0259 123.306 84.8438 124.149 86.1424 123.71C87.0399 123.405 86.8872 123.255 86.8872 123.255" fill="white"/>
<path d="M90.1973 123.052C89.9936 123.345 89.7866 123.676 89.6434 124.065C89.497 124.447 89.4174 124.892 89.4588 125.331C89.4906 125.774 89.6688 126.178 89.8502 126.518C90.0889 126.926 90.4168 127.203 90.7701 127.419C91.1234 127.632 91.5244 127.766 91.9445 127.808C92.3646 127.849 92.8102 127.779 93.2049 127.597C93.5964 127.426 93.9338 127.104 94.1502 126.849C94.3858 126.582 94.5958 126.318 94.7963 126.051C95.5983 124.981 96.3081 123.893 97.0306 122.804C97.7435 121.713 98.447 120.618 99.144 119.52C101.926 115.124 104.657 110.713 107.251 106.184C107.578 105.611 107.381 104.879 106.805 104.551C106.763 104.529 106.722 104.506 106.681 104.491L106.627 104.468C105.382 103.946 104.135 103.431 102.877 102.925C101.047 102.189 99.2077 101.483 97.3649 100.792L97.3234 100.776C96.7727 100.569 96.1649 100.799 95.8753 101.292C93.5805 105.21 91.0789 109.09 88.5391 112.922C87.2659 114.838 85.9674 116.741 84.6465 118.628L83.6502 120.048L83.5198 120.239C83.4753 120.312 83.4307 120.363 83.3862 120.452C83.2971 120.618 83.2334 120.783 83.1888 120.952C83.1029 121.289 83.0773 121.62 83.106 121.961C83.1219 122.129 83.1506 122.301 83.211 122.483C83.281 122.683 83.3511 122.801 83.4339 122.951C83.5994 123.234 83.8094 123.498 84.0735 123.721C84.3377 123.94 84.6592 124.119 85.0125 124.189C85.3626 124.265 85.7254 124.24 86.05 124.157C86.2665 124.1 86.4161 124.017 86.5402 123.918C86.6643 123.82 86.7566 123.702 86.8044 123.581C86.8553 123.466 86.8553 123.317 86.7789 123.272C86.8266 123.298 86.849 123.291 86.8554 123.291C86.8554 123.291 86.8617 123.291 86.8681 123.285L86.5879 123.501V123.508V123.517V123.533C86.5911 123.555 86.588 123.571 86.5784 123.581C86.5689 123.59 86.553 123.594 86.5307 123.587L86.5116 123.581L86.502 123.574H86.4956L86.8648 123.285C86.8648 123.285 86.8553 123.294 86.8521 123.294C86.8457 123.294 86.8267 123.301 86.7758 123.275C86.744 123.263 86.7217 123.24 86.6771 123.208C86.6421 123.177 86.5911 123.129 86.5402 123.068C86.4988 123.014 86.4225 122.928 86.3652 122.842C86.3143 122.766 86.2634 122.686 86.2061 122.604C86.1583 122.54 86.0755 122.511 85.9705 122.505C85.9164 122.505 85.8591 122.505 85.7891 122.515C85.7127 122.53 85.6936 122.521 85.6427 122.54C85.5154 122.572 85.4294 122.569 85.3658 122.559C85.3021 122.55 85.2417 122.518 85.1525 122.448C85.0666 122.378 84.9679 122.266 84.882 122.12C84.8597 122.082 84.8374 122.047 84.8215 122.009L84.8057 121.98L84.7993 121.964C84.6688 122.018 85.0888 121.827 84.5064 122.088L84.5446 122.069C84.5923 122.047 84.6433 122.024 84.6942 122.009L84.7706 121.983L84.8024 121.97C84.8024 121.97 84.7833 121.903 84.7769 121.84C84.761 121.706 84.777 121.534 84.8057 121.413C84.8184 121.353 84.8374 121.308 84.8501 121.283V121.273L84.8725 121.245L84.9138 121.187L84.9521 121.127L85.0125 121.041L86.0023 119.64C87.3359 117.759 88.6504 115.859 89.9458 113.943C92.527 110.105 95.0668 106.241 97.4221 102.231L96.6996 102.473C98.5456 103.163 100.385 103.867 102.219 104.592C103.473 105.089 104.723 105.598 105.974 106.12L105.691 105.337C103.135 109.838 100.398 114.281 97.6862 118.698C97.0051 119.796 96.324 120.898 95.646 121.996C94.9617 123.081 94.2808 124.182 93.5647 125.188C93.4755 125.312 93.3863 125.443 93.2972 125.554C93.2081 125.669 93.1158 125.796 93.0299 125.891L92.8994 126.044C92.8643 126.079 92.8325 126.108 92.8007 126.143C92.737 126.207 92.6638 126.254 92.5874 126.293C92.4379 126.372 92.266 126.41 92.0687 126.404C91.8745 126.397 91.6613 126.334 91.4704 126.235C91.2826 126.137 91.1044 125.993 91.0184 125.863C90.8848 125.63 90.786 125.449 90.751 125.229C90.6682 124.806 90.8401 124.294 91.1616 123.778C91.2857 123.571 91.343 123.361 91.3335 123.177C91.3239 122.992 91.2316 122.849 91.1075 122.772C90.8529 122.635 90.5664 122.569 90.2067 123.062L90.1973 123.052Z" fill="#FF7A1C"/>
<path d="M88.4026 120.855C87.9029 121.275 86.3784 123.503 87.0054 124.181C87.3586 125.037 88.2435 125.55 89.1601 125.425L89.6375 125.362" fill="white"/>
<path d="M87.8397 120.378C87.6487 120.744 87.5151 120.989 87.3082 121.237C87.1109 121.479 86.8818 121.695 86.6431 121.931C86.4044 122.166 86.1591 122.415 85.9459 122.746C85.8409 122.911 85.7455 123.099 85.6755 123.338C85.6118 123.576 85.5609 123.875 85.6564 124.28C85.7105 124.477 85.7995 124.69 85.9523 124.888C85.9905 124.935 86.0287 124.983 86.0701 125.028H86.0733V125.034C86.2898 125.371 85.7805 124.576 85.8346 124.658L85.841 124.671L85.8505 124.69L85.8696 124.728L85.9523 124.875C86.0732 125.063 86.2165 125.234 86.382 125.381C86.713 125.67 87.114 125.858 87.5087 125.944C87.9065 126.03 88.2948 126.027 88.6512 125.973C88.8295 125.947 88.9982 125.906 89.1605 125.865C89.3133 125.823 89.4343 125.788 89.5744 125.772C89.7208 125.753 89.4979 124.098 89.3515 124.117C89.2847 124.127 89.2146 124.14 89.1478 124.152L89.046 124.175C89.011 124.184 88.976 124.194 88.9728 124.197C88.9219 124.222 88.8645 124.254 88.804 124.283C88.6799 124.343 88.5239 124.394 88.3457 124.404C88.1643 124.417 87.967 124.372 87.7951 124.27C87.7092 124.219 87.6329 124.152 87.566 124.073L87.5214 124.009L87.5119 123.993L87.5056 123.984V123.977C87.5374 124.006 87.2382 123.739 87.3656 123.85C87.3687 123.847 87.3718 123.844 87.375 123.844C87.4069 123.825 87.3972 123.831 87.3909 123.818C87.3622 123.742 87.4545 123.503 87.6105 123.318C87.7632 123.124 87.9574 122.94 88.1325 122.749C88.4921 122.367 88.7564 121.943 88.6609 121.24C88.6291 121.135 87.9448 120.215 87.8366 120.378H87.8397Z" fill="#FF7A1C"/>
<path d="M104.969 109.779C103.381 110.183 95.488 104.257 95.5039 102.16C95.5326 98.4964 102.261 89.0658 107.07 92.134C113.187 96.0361 106.793 109.315 104.969 109.779Z" fill="white"/>
<path d="M104.588 109.032C104.209 108.972 103.738 108.778 103.302 108.571C102.86 108.358 102.424 108.112 101.997 107.848C101.144 107.317 100.326 106.718 99.5498 106.075C98.7764 105.429 98.038 104.739 97.3919 103.997C97.0705 103.628 96.7712 103.243 96.5453 102.858C96.4275 102.667 96.3511 102.479 96.3002 102.323C96.2938 102.288 96.2874 102.256 96.2811 102.224C96.2811 102.199 96.2874 102.189 96.2811 102.173C96.2779 102.173 96.281 102.142 96.2842 102.119L96.2938 102.046L96.3097 101.896C96.3765 101.483 96.5293 101.04 96.7075 100.611C96.8857 100.178 97.1022 99.7481 97.3441 99.328C97.8183 98.4878 98.3816 97.6857 98.9959 96.9346C99.607 96.1802 100.272 95.4768 100.982 94.8498C101.689 94.2196 102.446 93.6786 103.216 93.2935C103.948 92.9338 104.687 92.7333 105.336 92.8065C105.661 92.8415 105.979 92.9147 106.285 93.0866C106.441 93.1439 106.596 93.2807 106.756 93.3762C106.918 93.4749 107.042 93.6181 107.195 93.7327C108.302 94.7703 108.777 96.5653 108.786 98.3986C108.802 100.245 108.442 102.154 107.866 103.981C107.573 104.898 107.227 105.799 106.81 106.664C106.596 107.094 106.377 107.524 106.125 107.925C105.877 108.326 105.61 108.727 105.304 109.051C105.221 109.131 105.17 109.22 105.135 109.309C105.1 109.389 105.085 109.484 105.075 109.586C105.059 109.761 105.024 110.006 105.075 110.207C105.123 110.407 105.291 110.585 105.657 110.576C105.794 110.582 105.944 110.554 106.113 110.48C106.256 110.417 106.386 110.324 106.52 110.194C106.956 109.723 107.249 109.277 107.539 108.816C107.825 108.357 108.067 107.896 108.302 107.431C108.761 106.496 109.139 105.541 109.464 104.564C110.101 102.613 110.524 100.579 110.543 98.4782C110.546 97.431 110.441 96.3616 110.132 95.3209C109.827 94.2865 109.302 93.268 108.503 92.485C108.095 92.1031 107.669 91.7657 107.173 91.5047C106.682 91.2278 106.119 91.0687 105.562 91.0051C104.999 90.935 104.438 90.9987 103.913 91.1228C103.379 91.2406 102.888 91.4506 102.417 91.6798C101.44 92.1763 100.572 92.8224 99.779 93.5354C98.9833 94.2483 98.2543 95.0312 97.5891 95.8651C96.9239 96.699 96.3129 97.5839 95.7909 98.5387C95.5267 99.0129 95.2881 99.5062 95.0844 100.031C94.8807 100.557 94.7023 101.101 94.6196 101.725L94.5974 101.967L94.5879 102.087V102.151V102.243C94.5974 102.361 94.6038 102.501 94.6292 102.597C94.6547 102.695 94.6802 102.794 94.7088 102.893C94.8361 103.236 94.9889 103.532 95.1512 103.781C95.4759 104.293 95.8355 104.72 96.2079 105.124C96.9526 105.929 97.7579 106.632 98.6013 107.282C99.4447 107.928 100.326 108.513 101.256 109.023C101.724 109.277 102.201 109.513 102.701 109.717C103.204 109.917 103.71 110.105 104.308 110.184C104.518 110.21 104.719 110.137 104.83 110.013C104.948 109.879 104.954 109.726 104.919 109.586C104.884 109.446 104.82 109.306 104.801 109.207C104.77 109.105 104.722 109.042 104.588 109.023V109.032Z" fill="#FF7A1C"/>
<path d="M102.162 64.1481C103.817 63.2474 105.793 63.8044 107.572 63.4384C109.269 63.0914 110.736 61.8024 112.42 61.4109C112.643 61.36 112.264 59.7304 112.041 59.7845C110.361 60.176 108.846 61.2836 107.165 61.691C105.415 62.1175 103.384 61.4905 101.891 62.9864C101.761 63.1169 102.009 64.2309 102.162 64.1481Z" fill="#FF7A1C"/>
<path d="M98.1467 64.5164C97.4306 65.5826 95.9092 65.398 94.8939 66.0091C93.9263 66.5884 93.4934 67.9729 92.5545 68.5903C92.4304 68.6731 93.3471 70.0703 93.4712 69.9875C94.4102 69.3701 94.948 68.1415 95.8805 67.5082C96.8513 66.8493 98.4395 67.088 98.8024 65.5126C98.8342 65.3725 98.2136 64.4145 98.1467 64.5164Z" fill="#FF7A1C"/>
<path d="M126.58 69.9147C122.375 66.3022 99.555 60.9838 97.5117 61.7317C96.3245 62.1678 96.6299 66.5473 97.8808 71.4265C99.7713 78.7946 101.808 83.1359 101.808 83.1359C104.813 89.3582 111.045 90.3799 116.5 90.0871C126.952 89.5237 134.04 76.3216 126.58 69.9147Z" fill="white"/>
<path d="M126.062 68.6533C125.111 68.1122 124.146 67.708 123.179 67.3197C122.211 66.9346 121.237 66.5845 120.26 66.2535C118.309 65.5883 116.345 64.9899 114.375 64.417C112.405 63.8441 110.432 63.3062 108.446 62.797C106.46 62.2878 104.467 61.8103 102.449 61.3934C101.437 61.1897 100.425 60.9987 99.3748 60.8619C99.1107 60.83 98.8433 60.8014 98.5664 60.7791L98.1398 60.7568C97.9807 60.7568 97.8216 60.7632 97.6529 60.7727C97.4174 60.8205 97.2137 60.8237 96.9018 61.0146C96.6313 61.1865 96.4753 61.3934 96.3479 61.5843C96.122 61.9599 96.0361 62.2846 95.9597 62.5933C95.8261 63.2044 95.7974 63.7614 95.7815 64.312C95.7751 64.8594 95.7941 65.3973 95.8323 65.9288C95.9087 66.9919 96.052 68.0326 96.227 69.067C96.4053 70.0983 96.6217 71.1295 96.87 72.1352C97.1119 73.141 97.3696 74.1435 97.6529 75.1397C98.2099 77.1353 98.8464 79.115 99.5848 81.0692C99.7598 81.5339 99.9444 81.9986 100.135 82.4601L100.428 83.154L100.584 83.5041C100.61 83.5614 100.638 83.625 100.673 83.695L100.769 83.8733L101.157 84.5798C101.224 84.6976 101.284 84.8154 101.354 84.9299L101.58 85.2641L102.039 85.9293C102.201 86.1426 102.386 86.3463 102.558 86.5531C103.952 88.2209 105.858 89.4081 107.838 90.1369C109.837 90.8308 111.908 91.1141 113.933 91.1236C114.442 91.1395 114.945 91.1109 115.448 91.1013L116.199 91.0536L116.574 91.0281L116.963 90.9836C118.003 90.8817 119.022 90.6334 119.999 90.2929C120.492 90.1338 120.963 89.9173 121.434 89.7105C121.893 89.4749 122.354 89.249 122.787 88.9689C123.662 88.4342 124.487 87.8231 125.228 87.1261C125.973 86.4322 126.657 85.6811 127.262 84.8663C127.86 84.0483 128.383 83.1794 128.819 82.266C129.684 80.4422 130.171 78.418 130.101 76.3842C130.037 74.3504 129.28 72.3325 127.972 70.7698C127.794 70.5661 127.619 70.4006 127.45 70.286C127.272 70.1778 127.103 70.111 126.953 70.0792C126.654 70.0123 126.428 70.0855 126.291 70.2446C126.155 70.4038 126.107 70.6457 126.171 70.9194C126.202 71.0562 126.26 71.2027 126.352 71.3491C126.435 71.5051 126.54 71.6737 126.686 71.8392C127.749 73.1187 128.367 74.726 128.421 76.432C128.478 78.1347 128.067 79.8948 127.297 81.5085C125.77 84.7422 122.899 87.4284 119.464 88.6219C118.608 88.9179 117.717 89.1344 116.81 89.2203L116.469 89.2617L116.116 89.284L115.406 89.3254C114.935 89.3349 114.461 89.3603 113.99 89.3444C112.103 89.3317 110.228 89.0612 108.471 88.4533C106.736 87.8104 105.126 86.8078 103.929 85.3851C103.78 85.2069 103.624 85.0382 103.484 84.8536L103.089 84.2807L102.892 83.9942C102.828 83.8956 102.777 83.7905 102.72 83.6887L102.382 83.0776C102.166 82.6797 101.985 82.2182 101.797 81.779C101.612 81.3334 101.434 80.8846 101.259 80.4327C100.54 78.5485 99.9127 76.6229 99.3621 74.6687C99.0852 73.6948 98.8273 72.7113 98.5886 71.7246C98.3436 70.7412 98.1335 69.7577 97.9584 68.7647C97.7866 67.7748 97.6497 66.7786 97.5765 65.7888C97.5414 65.2954 97.5193 64.8021 97.5256 64.3183C97.5352 63.8409 97.567 63.3572 97.6593 62.953C97.7038 62.7556 97.7738 62.571 97.8279 62.4914C97.8406 62.4851 97.8534 62.4564 97.8534 62.4628C97.8502 62.4596 97.8662 62.4723 97.8375 62.4469C97.8216 62.4278 97.7993 62.4023 97.7929 62.396C97.7707 62.3737 97.7515 62.3482 97.7356 62.3196C97.7229 62.3132 97.6688 62.1668 97.8121 62.5042C97.828 62.5042 97.8439 62.5042 97.8567 62.4978L98.1462 62.4914L98.4868 62.5105C98.7224 62.5296 98.961 62.5519 99.2061 62.5837C100.183 62.7079 101.179 62.8893 102.172 63.0802C104.158 63.4749 106.141 63.93 108.118 64.4106C110.094 64.8881 112.061 65.3941 114.019 65.9225C115.976 66.4508 117.924 66.9951 119.846 67.5934C120.808 67.8894 121.762 68.1981 122.701 68.5387C123.637 68.8792 124.573 69.2326 125.435 69.6781C125.734 69.8373 126.002 69.9041 126.209 69.9232C126.422 69.9359 126.6 69.8818 126.699 69.7768C126.797 69.6686 126.82 69.5063 126.724 69.3057C126.677 69.2071 126.597 69.0893 126.489 68.9811C126.377 68.8761 126.234 68.771 126.059 68.666L126.062 68.6533Z" fill="#FF7A1C"/>
<path d="M117.976 71.4467C117.635 69.9572 118.25 63.2384 125.147 63.1206C131.461 63.0124 135.357 71.9718 128.995 77.4494" fill="white"/>
<path d="M118.654 71.0256C118.546 70.4781 118.558 69.8352 118.654 69.2305C118.746 68.6194 118.924 68.0242 119.179 67.4704C119.685 66.3596 120.525 65.4366 121.544 64.9019C122.565 64.3609 123.73 64.1794 124.908 64.2272C125.494 64.2463 126.009 64.3226 126.525 64.4881C127.034 64.6505 127.518 64.8796 127.973 65.1661C129.704 66.2355 131.041 68.1834 131.382 70.4304C131.461 70.9906 131.48 71.5635 131.433 72.1427C131.372 72.7156 131.248 73.2917 131.057 73.8519C130.653 74.9595 129.985 76.0002 129.093 76.8214C128.632 77.2479 129.676 78.556 130.239 78.0372C131.27 77.0856 132.092 75.8666 132.613 74.533C132.862 73.8614 133.034 73.1644 133.129 72.461C133.212 71.7544 133.212 71.0447 133.135 70.3508C132.804 67.5691 131.235 65.0483 128.912 63.6383C128.307 63.2691 127.658 62.9731 126.967 62.7694C126.283 62.5657 125.545 62.4766 124.835 62.4703C123.434 62.4385 121.929 62.7058 120.611 63.4792C119.294 64.2431 118.278 65.5066 117.756 66.8784C117.489 67.5659 117.33 68.2788 117.276 68.995C117.225 69.7111 117.266 70.4272 117.463 71.137C117.54 71.3979 117.88 71.4743 118.161 71.4043C118.447 71.3311 118.695 71.2133 118.654 71.0287V71.0256Z" fill="#FF7A1C"/>
<path d="M105.338 86.4953C103.785 86.247 102.267 85.5754 100.965 84.4678C97.3015 81.3551 97.7756 75.0723 101.678 72.5738C106.945 69.2033 112.404 73.5127 112.9 74.3562" fill="white"/>
<path d="M105.14 85.7147C103.956 85.6065 102.804 85.1322 101.852 84.4065C101.62 84.2219 101.378 84.0341 101.187 83.8145C100.99 83.6013 100.78 83.4008 100.627 83.1525L100.379 82.7992C100.305 82.6751 100.245 82.5414 100.178 82.4173C100.114 82.2868 100.041 82.1659 99.9871 82.0322L99.844 81.628C99.478 80.5458 99.3984 79.3809 99.5862 78.2829C99.7708 77.1848 100.181 76.1536 100.761 75.2752C101.031 74.8519 101.356 74.4763 101.706 74.1262C101.878 73.9448 102.085 73.8111 102.269 73.6424C102.473 73.4928 102.696 73.3305 102.922 73.2C103.816 72.643 104.831 72.277 105.926 72.1656C107.018 72.051 108.176 72.1879 109.284 72.5539C110.379 72.9231 111.471 73.496 112.301 74.279C112.409 74.384 112.549 74.3872 112.718 74.349C112.884 74.3076 113.094 74.2471 113.275 74.1453C113.457 74.0434 113.6 73.8716 113.628 73.6456C113.67 73.4451 113.619 73.2287 113.473 73.0854C112.919 72.5539 112.368 72.1815 111.776 71.8346C111.187 71.4972 110.573 71.214 109.937 70.9848C108.663 70.5329 107.288 70.3132 105.926 70.4087C104.564 70.4978 103.24 70.9243 102.104 71.5959C101.814 71.755 101.547 71.9428 101.276 72.1338C101.022 72.3502 100.741 72.538 100.509 72.7735C100.035 73.2382 99.6021 73.7442 99.2551 74.3012C98.5199 75.4534 98.0297 76.7615 97.8324 78.1397C97.6319 79.5146 97.7688 80.9692 98.2876 82.3186L98.4944 82.8215C98.574 82.9838 98.6662 83.1398 98.7553 83.3021C98.8476 83.4581 98.9305 83.6236 99.0355 83.7732L99.3697 84.2092C99.5829 84.5116 99.8599 84.7534 100.124 85.0081C100.388 85.2722 100.672 85.4664 100.964 85.6701C102.139 86.4563 103.536 86.905 104.905 86.8923C105.395 86.8827 105.566 85.7528 105.14 85.721V85.7147Z" fill="#FF7A1C"/>
<path d="M97.66 67.2735C97.66 67.2735 98.599 64.3931 100.55 63.4606C102.689 62.4357 105.483 62.6203 105.483 62.6203C105.483 62.6203 99.0574 60.5611 97.5105 61.7355C96.4061 62.5726 97.66 67.2767 97.66 67.2767V67.2735Z" fill="#FF7A1C"/>
<path d="M98.437 67.2863C98.6152 66.5574 98.9398 65.8413 99.3854 65.2557C99.605 64.9597 99.8565 64.6923 100.133 64.4854C100.267 64.3709 100.417 64.2945 100.56 64.2054C100.713 64.1385 100.846 64.0685 101.028 64.0144C101.712 63.7789 102.46 63.6898 103.205 63.6643C103.58 63.6547 103.956 63.6611 104.328 63.6802C104.516 63.6897 104.701 63.7025 104.885 63.7216C105.064 63.7375 105.267 63.7598 105.407 63.7821C106.034 63.8839 106.623 63.4606 106.725 62.8368C106.814 62.2925 106.508 61.7769 106.015 61.5828L105.837 61.5127C105.114 61.2263 104.414 60.9908 103.679 60.7998C102.734 60.5547 101.757 60.3956 100.748 60.3415C100.242 60.316 99.726 60.3128 99.1913 60.3606C98.924 60.3829 98.6502 60.4211 98.3638 60.4847C98.0837 60.5452 97.7783 60.6375 97.4632 60.7934C97.304 60.873 97.1448 60.978 96.9761 61.1276C96.782 61.3091 96.6674 61.5064 96.591 61.6846C96.4446 62.0443 96.4224 62.3434 96.4097 62.6235C96.3969 63.1837 96.47 63.6802 96.5528 64.1672C96.7247 65.1411 96.9634 66.0641 97.1799 66.9998C97.2085 67.124 97.3357 67.194 97.5012 67.2163C97.584 67.229 97.6795 67.229 97.7782 67.2163C97.8005 67.2099 97.8291 67.2194 97.8514 67.1972C97.8641 67.1494 97.845 67.0762 97.8068 67.0253C97.7272 66.9266 97.6699 66.8884 97.6731 66.8343C97.6731 66.7929 97.7272 66.6943 97.9723 66.7611C98.0932 66.7961 98.2333 66.9235 98.2969 67.0571C98.316 67.1049 98.3161 67.0794 98.3257 67.0826L98.3448 67.0762L98.3798 67.0635C98.4721 67.0253 98.5547 66.9807 98.6216 66.933C98.7584 66.8375 98.838 66.7293 98.8126 66.6115C98.6089 65.7426 98.3957 64.8642 98.2525 64.0208C98.1825 63.6038 98.1315 63.1837 98.1283 62.84C98.1283 62.6713 98.1474 62.5185 98.1505 62.4708C98.141 62.4548 98.1792 62.4707 98.071 62.4071C98.036 62.3848 97.9914 62.3371 97.9723 62.3244C97.9532 62.3084 97.9342 62.2893 97.9151 62.2671L97.9024 62.2479C97.9819 62.3498 97.721 62.0061 98.0806 62.4803L98.087 62.4739C98.087 62.4739 98.0933 62.4644 98.0965 62.458C98.0965 62.4453 98.1315 62.4325 98.1474 62.4135C98.3416 62.2798 98.7649 62.1811 99.1818 62.1461C99.6051 62.1047 100.057 62.1047 100.512 62.1302C101.422 62.1811 102.345 62.3243 103.249 62.544C103.943 62.7126 104.64 62.9418 105.299 63.1996L105.522 62.0188C104.65 61.9233 103.819 61.8979 102.95 61.9488C102.088 62.0124 101.206 62.1525 100.347 62.5089C100.14 62.5822 99.8979 62.719 99.6751 62.8431C99.4682 62.9863 99.255 63.1296 99.0831 63.2983C98.7139 63.6229 98.4212 63.9953 98.1793 64.3804C97.6923 65.1538 97.4217 65.9941 97.323 66.8598C97.3134 66.9553 97.3741 67.0508 97.4695 67.1367C97.495 67.159 97.5205 67.1781 97.5491 67.1972C97.5618 67.2099 97.5776 67.2131 97.5999 67.2131C97.619 67.2131 97.6382 67.2258 97.6509 67.2417C97.7018 67.3086 97.6605 67.4009 97.6573 67.4709C97.6541 67.5345 97.6605 67.6395 97.861 67.6173C97.9565 67.6045 98.0869 67.5027 98.1442 67.4072C98.176 67.4072 98.2046 67.4104 98.2301 67.4072C98.3383 67.4072 98.4179 67.369 98.437 67.2895V67.2863Z" fill="#FF7A1C"/>
<path d="M88.7331 64.8912C90.2767 64.2737 91.9158 65.1458 93.5009 65.0757C95.0095 65.0089 96.4418 63.9809 97.9472 63.8695C98.1478 63.8536 98.0236 62.189 97.8231 62.2017C96.3208 62.3131 94.8726 63.1565 93.3703 63.2838C91.8044 63.4175 90.1271 62.4691 88.6471 63.6976C88.5166 63.8058 88.593 64.9453 88.7362 64.888L88.7331 64.8912Z" fill="#FF7A1C"/>
<path d="M100.483 62.8659C100.989 61.7838 102.447 61.8538 103.306 61.1918C104.124 60.5616 104.318 59.1962 105.105 58.5342C105.21 58.445 104.134 57.1688 104.029 57.2579C103.243 57.9199 102.928 59.1452 102.148 59.82C101.336 60.5234 99.8116 60.412 99.713 61.9556C99.7034 62.0925 100.435 62.9678 100.483 62.8691V62.8659Z" fill="#FF7A1C"/>
<path d="M121.143 132.813C122.455 134.105 124.702 135.378 127.082 135.678C132.328 136.333 135.17 133.924 136.554 132.533C139.075 130 139.83 127.406 142.481 124.433C144.801 121.829 147.697 121.072 149.505 120.143C149.505 120.143 144.903 119.614 141.427 122.746C136.405 126.931 135.256 132.794 127.643 131.48C123.546 130.773 123.295 127.784 121.424 127.469C120.704 127.348 119.364 128.198 119.313 129.443C119.259 130.687 120.392 132.072 121.143 132.813Z" fill="white"/>
<path d="M121.321 133.95C122.572 134.877 123.957 135.548 125.433 135.959C126.166 136.169 126.945 136.287 127.687 136.331C128.059 136.376 128.438 136.363 128.814 136.379C129.189 136.379 129.568 136.36 129.947 136.331C130.701 136.264 131.452 136.127 132.19 135.927C132.923 135.71 133.639 135.427 134.313 135.068C135.676 134.348 136.847 133.342 137.856 132.228C138.877 131.111 139.705 129.854 140.498 128.67C141.293 127.483 142.095 126.359 143.034 125.36C143.928 124.364 144.969 123.603 146.156 122.983C146.748 122.671 147.369 122.397 148.018 122.13C148.671 121.859 149.349 121.601 150.078 121.248C150.689 120.952 150.943 120.214 150.647 119.602C150.456 119.211 150.087 118.966 149.686 118.918H149.654C149.444 118.89 149.307 118.883 149.142 118.874C148.986 118.867 148.827 118.861 148.674 118.861C148.365 118.861 148.057 118.87 147.751 118.89C147.137 118.931 146.529 119.02 145.924 119.141C145.106 119.316 144.304 119.577 143.528 119.918C142.751 120.255 142.022 120.713 141.338 121.216C140.679 121.764 140.109 122.257 139.539 122.836C138.976 123.403 138.457 123.998 137.964 124.596C136.977 125.793 136.105 127.018 135.163 128.084C134.221 129.148 133.187 130.029 131.933 130.484C130.688 130.949 129.259 131 127.836 130.815C127.146 130.717 126.477 130.554 125.863 130.262C125.249 129.975 124.701 129.561 124.195 129.055C123.941 128.804 123.696 128.53 123.428 128.247C123.167 127.967 122.874 127.668 122.505 127.416C122.327 127.286 122.108 127.187 121.891 127.104L121.547 127.018C121.42 126.993 121.261 126.99 121.14 127.006C120.627 127.072 120.239 127.298 119.892 127.572C119.548 127.849 119.265 128.209 119.087 128.629C118.909 129.052 118.874 129.545 118.953 129.972C119.122 130.831 119.564 131.525 120.039 132.152C120.567 132.824 121.178 132.795 121.461 132.499C121.754 132.193 121.776 131.662 121.363 131.13C120.974 130.634 120.672 130.08 120.605 129.695C120.577 129.498 120.586 129.421 120.627 129.291C120.678 129.167 120.787 129.014 120.933 128.89C121.006 128.826 121.086 128.778 121.159 128.737C121.229 128.696 121.299 128.696 121.296 128.67C121.28 128.587 121.289 128.479 121.286 128.403C121.286 128.365 121.286 128.323 121.293 128.282L121.305 128.221C121.27 128.422 121.385 127.747 121.229 128.67L121.235 128.673C121.264 128.686 121.296 128.692 121.328 128.692C121.391 128.721 121.455 128.734 121.541 128.801C121.71 128.909 121.926 129.106 122.165 129.374C122.403 129.628 122.668 129.927 122.96 130.223C123.546 130.818 124.269 131.391 125.071 131.78C125.873 132.174 126.722 132.391 127.55 132.518C129.138 132.741 130.86 132.725 132.474 132.155C133.276 131.878 134.027 131.455 134.686 130.962C135.348 130.465 135.93 129.902 136.455 129.319C137.506 128.148 138.381 126.92 139.329 125.777C139.8 125.204 140.287 124.653 140.803 124.132C141.312 123.613 141.882 123.119 142.426 122.664C142.999 122.247 143.601 121.859 144.256 121.573C144.912 121.283 145.596 121.057 146.3 120.901C146.822 120.796 147.35 120.713 147.881 120.678C148.407 120.643 148.967 120.64 149.454 120.691L149.269 119.669C148.034 120.261 146.621 120.729 145.303 121.445C144.641 121.799 143.995 122.203 143.387 122.664C142.779 123.123 142.213 123.67 141.713 124.224C140.698 125.325 139.832 126.563 139.033 127.776C138.235 128.995 137.474 130.157 136.564 131.165C135.656 132.181 134.638 133.069 133.495 133.686C132.923 133.998 132.321 134.246 131.697 134.444C131.073 134.635 130.424 134.752 129.765 134.835C129.103 134.896 128.435 134.927 127.76 134.886C127.073 134.87 126.446 134.787 125.79 134.631C124.495 134.326 123.221 133.778 122.082 133.027C121.649 132.738 121.239 132.754 121.019 132.957C120.806 133.151 120.822 133.572 121.331 133.957L121.321 133.95Z" fill="#FF7A1C"/>
<path d="M28.9104 64.3981C27.5991 65.6903 25.3521 66.9634 22.9714 67.2626C17.7262 67.9182 14.884 65.5089 13.4995 64.118C10.9787 61.5845 10.2244 58.9906 7.57314 56.0179C5.2529 53.4144 2.35664 52.6568 0.548828 51.7275C0.548828 51.7275 5.15107 51.1991 8.62665 54.331C13.6491 58.5163 14.7981 64.379 22.4112 63.0645C26.5075 62.3579 26.7589 59.3693 28.6304 59.0542C29.3497 58.9333 30.6896 59.7831 30.7405 61.0275C30.7946 62.272 29.6616 63.6565 28.9104 64.3981Z" fill="white"/>
<path d="M27.8125 64.3941C26.8036 65.2757 25.5719 65.9569 24.2797 66.3611C23.6272 66.568 22.9748 66.6825 22.2777 66.7303C21.934 66.7748 21.5903 66.7621 21.2465 66.778C20.9028 66.778 20.5591 66.7589 20.2185 66.7303C19.5374 66.6634 18.869 66.5298 18.2197 66.3388C17.5768 66.1319 16.9561 65.8614 16.3705 65.524C15.2056 64.8525 14.1999 63.904 13.3373 62.8409C12.4716 61.7811 11.7778 60.578 11.0521 59.324C10.3264 58.0731 9.53392 56.7841 8.56954 55.6161C8.09531 55.0272 7.53829 54.4289 6.93993 53.926C6.33838 53.4136 5.69228 52.9648 5.02708 52.5701C4.36188 52.1755 3.67445 51.8349 3.00607 51.523C2.33769 51.2143 1.67887 50.9278 1.11552 50.6318L0.692192 52.9648C0.75903 52.9616 0.902257 52.9553 1.01365 52.9521C1.1346 52.9521 1.25551 52.9521 1.37964 52.9521C1.6279 52.9553 1.87618 52.9712 2.12444 52.9903C2.62413 53.0348 3.11743 53.1144 3.60758 53.2162C4.26641 53.3626 4.90296 53.5695 5.51405 53.8305C6.12833 54.0852 6.68854 54.4321 7.22961 54.8013C7.74203 55.2055 8.33405 55.6797 8.84011 56.1571C9.3589 56.6409 9.86178 57.1565 10.3551 57.6976C11.3481 58.7733 12.2998 59.9573 13.4328 61.0777C13.9994 61.6346 14.6232 62.1725 15.3234 62.6309C16.0204 63.0892 16.7938 63.4648 17.6086 63.6939C19.2445 64.1618 20.9186 64.0663 22.4559 63.7576C23.2452 63.5889 24.0409 63.3375 24.7666 62.9332C25.4955 62.5354 26.1321 61.9816 26.6572 61.3896C26.9246 61.0968 27.1632 60.7944 27.3988 60.5175C27.6343 60.2342 27.8666 59.9828 28.1149 59.7982C28.2358 59.6996 28.3632 59.6422 28.4937 59.5818C28.5605 59.5627 28.6273 59.5436 28.6942 59.5213C28.7515 59.5086 28.7833 59.5054 28.8469 59.5086C29.0888 59.5245 29.3944 59.6613 29.6394 59.8491C29.8877 60.0369 30.0914 60.2852 30.2155 60.5525C30.3333 60.8263 30.3652 61.1127 30.3174 61.4278C30.2092 62.0612 29.84 62.6945 29.4071 63.2579C28.9424 63.8531 28.936 64.4069 29.2289 64.7156C29.5121 65.0116 30.1487 65.018 30.7279 64.2827C30.9953 63.939 31.2436 63.5666 31.4632 63.1496C31.6796 62.7327 31.8706 62.2648 31.9661 61.711C32.0074 61.4278 32.0329 61.135 31.9947 60.8135C31.9693 60.492 31.8738 60.1833 31.756 59.8969C31.5046 59.3303 31.1258 58.8816 30.6834 58.5378C30.2283 58.2004 29.7509 57.9236 29.0124 57.8376C28.9106 57.8313 28.8247 57.8217 28.7101 57.8281L28.5414 57.844C28.4841 57.8504 28.4237 57.8567 28.3918 57.8663C28.2391 57.9045 28.0863 57.9458 27.9367 57.9936C27.6534 58.105 27.3701 58.2482 27.1569 58.4137C26.7081 58.7383 26.3962 59.0885 26.1416 59.3876C25.8774 59.6964 25.6546 59.9733 25.4286 60.2215C24.9799 60.718 24.5215 61.1159 23.9805 61.4151C23.4426 61.7174 22.8315 61.9148 22.1759 62.058C20.8041 62.3285 19.4228 62.389 18.1529 62.0262C16.8798 61.6792 15.7499 60.8612 14.725 59.8491C13.697 58.8306 12.7517 57.653 11.7204 56.52C11.2048 55.9534 10.6702 55.3933 10.1037 54.8649C9.53394 54.327 8.94828 53.8528 8.31809 53.3595C7.66244 52.9043 6.97814 52.4906 6.24611 52.185C5.51725 51.8763 4.7598 51.6344 3.98957 51.4689C3.41986 51.3543 2.84691 51.262 2.26765 51.2175C1.68202 51.1761 1.12183 51.1538 0.494823 51.2047C0.198825 51.227 -0.0207234 51.488 0.00155599 51.784C0.0174698 51.975 0.132018 52.1341 0.287974 52.2168L0.307089 52.2264C0.978653 52.5733 1.64703 52.8566 2.29313 53.1558C2.93923 53.4518 3.5662 53.7637 4.16138 54.1201C5.3581 54.8235 6.40211 55.6956 7.25191 56.7746C8.14308 57.8504 8.87509 59.0344 9.60713 60.2693C10.3328 61.5042 11.103 62.8091 12.0961 63.9835C12.5926 64.5723 13.1209 65.123 13.7129 65.6354C14.3017 66.1478 14.951 66.6061 15.648 66.9817C16.3419 67.3605 17.0834 67.6565 17.8409 67.8761C18.6016 68.0893 19.3782 68.2071 20.1548 68.2644C20.9282 68.2994 21.7016 68.2867 22.4591 68.188L23.0256 68.1148C23.2166 68.0862 23.4108 68.0447 23.6017 68.0066C23.9805 67.9174 24.3561 67.8156 24.7189 67.6851C26.1734 67.1727 27.4848 66.3706 28.5733 65.3394C28.9934 64.932 28.987 64.4864 28.7897 64.2795C28.5828 64.0663 28.2263 64.0536 27.8253 64.41L27.8125 64.3941Z" fill="#FF7A1C"/>
<path d="M30.6362 83.3613C30.6362 83.3613 25.6806 91.3183 25.9416 93.1675C26.3967 96.4171 32.9691 104.718 34.7101 106.271C36.6006 107.961 42.8166 108.617 44.3985 108.158C44.9905 107.986 46.8142 104.38 46.7728 102.878C46.706 100.542 42.1991 86.8879 42.1991 86.8879" fill="white"/>
<path d="M29.6602 83.5473C28.4826 85.753 27.27 87.9109 26.2005 90.1929C25.9364 90.769 25.6849 91.3514 25.4812 91.9912C25.3889 92.3222 25.2839 92.6405 25.2903 93.1083C25.2935 93.1656 25.2903 93.2356 25.3031 93.2802L25.3285 93.4107L25.3826 93.6717C25.4208 93.8436 25.4494 94.0281 25.5099 94.1777C25.9173 95.4572 26.5029 96.5775 27.1108 97.6851C28.3489 99.8781 29.7271 101.96 31.2198 103.977C31.5953 104.48 31.9805 104.98 32.3752 105.473C32.7826 105.97 33.1741 106.45 33.6706 106.953L33.8583 107.144C33.9156 107.205 34.0143 107.278 34.0938 107.342C34.2593 107.469 34.4312 107.615 34.5935 107.701C34.7559 107.797 34.9246 107.902 35.0869 107.988L35.5739 108.217C36.2231 108.494 36.866 108.71 37.5089 108.873C38.7343 109.188 39.9565 109.379 41.1978 109.468C41.8184 109.515 42.4454 109.528 43.0883 109.509C43.4161 109.49 43.744 109.474 44.1068 109.417C44.1895 109.407 44.2914 109.388 44.3965 109.363L44.7052 109.29L44.7275 109.283L44.7975 109.258C44.8421 109.242 44.8898 109.223 44.9312 109.2C44.9694 109.181 45.0299 109.153 45.049 109.137L45.1222 109.089C45.1667 109.057 45.224 109.016 45.2558 108.99L45.3481 108.911C45.4627 108.803 45.5359 108.717 45.6028 108.634C45.8637 108.306 46.0228 108.026 46.1852 107.736C46.3443 107.45 46.4844 107.163 46.6149 106.877C46.879 106.304 47.105 105.722 47.2991 105.114C47.4869 104.496 47.6651 103.898 47.697 103.109C47.697 103.013 47.697 102.886 47.6874 102.803L47.6493 102.539C47.6206 102.367 47.6015 102.176 47.5601 102.033C47.4837 101.734 47.4201 101.419 47.3342 101.132C46.6785 98.8119 45.8892 96.5998 45.1285 94.3624C44.3615 92.1312 43.5944 89.9033 42.8655 87.6626C42.4741 86.4659 40.889 86.991 41.2773 88.1782C41.9998 90.4093 42.7541 92.6309 43.5021 94.8525C44.2405 97.0709 45.0107 99.302 45.6218 101.511C45.7045 101.791 45.7555 102.052 45.8223 102.326C45.8605 102.469 45.8669 102.574 45.8892 102.692L45.9178 102.867C45.9274 102.93 45.9273 102.956 45.9273 103.01C45.9273 103.424 45.7841 103.984 45.6186 104.503C45.4499 105.028 45.2431 105.556 45.0075 106.065C44.7752 106.565 44.5015 107.093 44.2214 107.466C44.1896 107.51 44.1546 107.549 44.1355 107.568L44.1227 107.58C44.1386 107.599 44.1673 107.641 44.1895 107.673C44.2118 107.708 44.231 107.743 44.2501 107.778C44.2692 107.813 44.2819 107.825 44.2978 107.854C44.3105 107.88 44.3201 107.905 44.3296 107.934L44.3359 107.956C44.2818 107.775 44.4633 108.395 44.2182 107.552H44.2087C44.0941 107.574 44.0018 107.615 43.8681 107.628C43.6135 107.669 43.3366 107.685 43.0597 107.704C42.4996 107.72 41.9266 107.711 41.3537 107.666C40.2079 107.59 39.0622 107.412 37.9546 107.135C37.3753 106.995 36.8119 106.804 36.2804 106.581L35.8921 106.4C35.7648 106.336 35.6534 106.26 35.5324 106.193C35.4051 106.129 35.316 106.04 35.211 105.964C35.1601 105.922 35.1091 105.89 35.0582 105.839L34.9086 105.687C34.5044 105.279 34.1098 104.805 33.7246 104.337C33.3427 103.863 32.9671 103.382 32.5979 102.892C31.1339 100.932 29.7621 98.8819 28.5527 96.7908C27.9607 95.75 27.3941 94.6679 27.0536 93.6462C26.9963 93.5126 26.9963 93.4075 26.9613 93.2866L26.9199 93.1115L26.9103 93.0669L26.904 93.0447V93.0383C26.9899 93.0256 26.7799 93.0511 26.8117 93.0479L26.8626 93.0383C26.9135 93.0319 26.9008 93.0319 26.9008 93.0288V93.0224V93.0129C26.8944 92.9206 26.9485 92.6437 27.0185 92.4018C27.1681 91.8893 27.3846 91.3356 27.6169 90.7913C28.5622 88.5984 29.6666 86.3991 30.6787 84.1711C31.0384 83.3914 30.1026 82.7357 29.6571 83.5537L29.6602 83.5473Z" fill="#FF7A1C"/>
<path d="M26.1012 97.0048C26.1012 97.0048 25.3245 106.346 26.4003 107.874C28.2909 110.557 37.9251 114.94 40.1849 115.532C42.6388 116.171 48.4664 113.918 49.6663 112.788C50.1151 112.365 50.0928 108.326 49.3671 107.008C48.2404 104.962 38.0015 94.8691 38.0015 94.8691" fill="white"/>
<path d="M25.3232 97.6197C25.2819 100.121 25.1896 102.594 25.2787 105.112C25.3074 105.742 25.3488 106.376 25.4602 107.038C25.5302 107.375 25.5811 107.706 25.8007 108.12C25.8293 108.167 25.8611 108.231 25.8898 108.266L25.9725 108.371L26.1381 108.578C26.2495 108.712 26.3609 108.864 26.4818 108.973C27.4303 109.924 28.4615 110.653 29.5054 111.363C31.6061 112.751 33.7863 113.973 36.0333 115.087C36.5967 115.364 37.1663 115.631 37.7456 115.889C38.3344 116.143 38.9009 116.392 39.5725 116.614L39.8271 116.697C39.9067 116.726 40.0276 116.742 40.1263 116.764C40.33 116.802 40.5528 116.853 40.7343 116.856C40.9252 116.869 41.1194 116.885 41.304 116.885L41.845 116.866C42.5484 116.818 43.2199 116.713 43.8661 116.564C45.101 116.284 46.2755 115.898 47.4181 115.408C47.991 115.166 48.5543 114.893 49.1209 114.584C49.4041 114.418 49.6873 114.253 49.9865 114.036C50.0565 113.992 50.1361 113.928 50.2188 113.855L50.4576 113.648L50.4767 113.632L50.5276 113.578C50.5595 113.543 50.5912 113.505 50.6231 113.467C50.6485 113.432 50.6868 113.381 50.6995 113.359L50.744 113.282C50.7694 113.234 50.8014 113.171 50.8173 113.133L50.8618 113.018C50.9159 112.872 50.9414 112.76 50.9605 112.655C51.0432 112.245 51.0559 111.923 51.0686 111.589C51.0782 111.261 51.0719 110.943 51.0591 110.628C51.0305 109.998 50.9701 109.377 50.865 108.747C50.7505 108.113 50.6358 107.496 50.3048 106.78C50.2634 106.694 50.2062 106.579 50.1553 106.512L49.9992 106.293C49.8974 106.153 49.7893 105.99 49.6906 105.885C49.4869 105.653 49.2863 105.402 49.0794 105.188C47.4371 103.422 45.7248 101.818 44.0252 100.172C42.3256 98.5364 40.626 96.9068 38.9551 95.2454C38.0607 94.3606 36.8895 95.5509 37.7775 96.4294C39.4389 98.0844 41.1257 99.7172 42.8031 101.353C44.474 102.989 46.1768 104.622 47.73 106.312C47.9305 106.522 48.096 106.732 48.2806 106.945C48.3793 107.057 48.4333 107.143 48.5097 107.241L48.618 107.384C48.6562 107.435 48.6657 107.458 48.6912 107.505C48.879 107.875 49.0094 108.438 49.0985 108.973C49.1876 109.517 49.245 110.08 49.2673 110.644C49.2896 111.194 49.2864 111.786 49.2068 112.248C49.1973 112.302 49.1844 112.353 49.1781 112.378V112.397H49.175C49.1972 112.407 49.2418 112.429 49.2736 112.448C49.3087 112.467 49.3436 112.49 49.3754 112.515C49.4073 112.537 49.4264 112.544 49.4519 112.56C49.4742 112.576 49.4964 112.595 49.5155 112.614L49.5315 112.63C49.401 112.493 49.8433 112.964 49.2418 112.324L49.2322 112.33C49.1399 112.401 49.0763 112.477 48.9617 112.553C48.7549 112.706 48.5161 112.846 48.2774 112.989C47.7841 113.26 47.2716 113.511 46.7433 113.734C45.6898 114.189 44.5885 114.555 43.4746 114.813C42.8953 114.953 42.3097 115.039 41.7336 115.084L41.304 115.1C41.1639 115.1 41.0271 115.084 40.8902 115.077C40.747 115.077 40.626 115.042 40.5019 115.02C40.4383 115.007 40.3778 115.001 40.3109 114.979L40.1073 114.912C39.5598 114.733 38.9933 114.492 38.4395 114.253C37.8825 114.005 37.3286 113.747 36.778 113.479C34.5819 112.404 32.4241 111.207 30.3935 109.899C29.3909 109.243 28.3915 108.54 27.6213 107.785C27.5099 107.693 27.4621 107.598 27.3762 107.509L27.2584 107.372L27.2297 107.337L27.2139 107.321H27.2107C27.2807 107.264 27.1057 107.384 27.1343 107.365L27.1756 107.334C27.217 107.305 27.2043 107.308 27.2043 107.308L27.2011 107.295C27.1534 107.216 27.0738 106.945 27.0261 106.697C26.9242 106.172 26.867 105.58 26.8224 104.991C26.6633 102.607 26.6409 100.147 26.5232 97.7057C26.4881 96.8495 25.3551 96.6904 25.3328 97.6197H25.3232Z" fill="#FF7A1C"/>
<path d="M49.4822 60.5948C49.7241 67.7592 50.975 77.3615 49.7592 81.7729C48.7025 85.6049 46.7101 93.3963 44.5522 94.0233C42.4898 94.6249 36.0383 93.6923 35.0198 90.5796C31.0891 78.5583 31.4742 53.5576 31.4742 53.5576" fill="white"/>
<path d="M48.7894 61.5557C49.0695 65.0217 49.3972 68.4496 49.55 71.8742C49.6264 73.5834 49.6647 75.2925 49.6042 76.9858C49.5947 77.4091 49.5691 77.8292 49.5341 78.2493C49.5119 78.6695 49.461 79.0832 49.4132 79.4938C49.3782 79.9107 49.2796 80.3054 49.2191 80.7096C49.1746 80.9069 49.1203 81.0947 49.0726 81.2889L48.9994 81.5785L48.904 81.8872C48.4043 83.5327 47.9078 85.1655 47.3508 86.7664C46.7938 88.3578 46.1923 89.9555 45.438 91.3591C45.247 91.7029 45.0496 92.0403 44.8364 92.3203C44.6327 92.6004 44.3876 92.8391 44.2698 92.8869C44.238 92.9092 44.2317 92.8964 44.2285 92.9028C44.1839 92.9123 44.1139 92.9314 44.0375 92.941C43.8911 92.9665 43.7129 92.9792 43.5347 92.9919C43.175 93.011 42.7867 92.9983 42.3984 92.9696C40.8484 92.8391 39.2347 92.4572 37.9266 91.792C37.3123 91.4737 36.7744 91.0791 36.472 90.6589L36.3671 90.503C36.3416 90.4489 36.313 90.398 36.2843 90.347C36.2652 90.2929 36.2429 90.2452 36.2206 90.1879L36.1379 89.9014L35.7973 88.762C35.6891 88.3801 35.5523 88.0109 35.4663 87.6162L35.1831 86.4481L34.8966 85.2801L34.6547 84.0929C33.9991 80.9292 33.4994 77.7051 33.1079 74.465C32.3154 67.9849 31.857 61.4348 31.8634 54.8814C31.873 53.1373 30.202 53.1054 30.1925 54.8751C30.1861 61.4729 30.5999 68.0581 31.3574 74.6178C31.733 77.896 32.2199 81.1679 32.8787 84.4144L33.1206 85.6333L33.4135 86.8428L33.7062 88.0522C33.7954 88.4564 33.9386 88.8511 34.05 89.2521L34.4096 90.4489L34.4987 90.7481L34.6324 91.0886L34.8011 91.4101L34.9985 91.7092C35.565 92.4795 36.3288 92.9887 37.099 93.3897C38.7318 94.1982 40.4792 94.5928 42.2616 94.7424C42.7103 94.7742 43.1622 94.787 43.6237 94.7647C43.8561 94.7488 44.0885 94.7329 44.3335 94.6883C44.4545 94.6724 44.5786 94.6406 44.7059 94.6088C44.8491 94.5578 45.0178 94.5037 45.1355 94.4273C45.6511 94.1281 45.9694 93.7399 46.2559 93.3611C46.536 92.9792 46.7683 92.5845 46.9847 92.1866C47.8314 90.5921 48.4297 88.9466 48.9994 87.2947C49.5627 85.6429 50.0562 83.9719 50.5399 82.3201L50.629 82.0082L50.7118 81.6676C50.7659 81.4385 50.8296 81.2093 50.871 80.9833C50.9378 80.5345 51.0332 80.0762 51.0682 79.6338C51.1159 79.1851 51.1605 78.7395 51.1796 78.2971L51.2147 77.6319L51.2273 76.9699C51.2591 75.2098 51.1859 73.4688 51.0682 71.7405C50.8326 68.2872 50.3966 64.8881 49.9669 61.5112C49.8205 60.3272 48.6747 60.2762 48.7734 61.5621L48.7894 61.5557Z" fill="#FF7A1C"/>
<path d="M38.0724 96.6236C37.1303 96.2385 36.4811 95.7833 36.2901 95.2741C35.7204 93.74 37.7701 85.7194 37.4263 81.6614C37.3531 80.802 36.567 79.0069 35.4785 76.8809" fill="white"/>
<path d="M38.1516 95.8592C37.7633 95.7574 37.3941 95.5983 37.1299 95.3946C36.9962 95.2959 36.9039 95.1813 36.8625 95.0954C36.8275 95.0222 36.8021 94.8567 36.7989 94.6657C36.7989 93.8859 36.9867 93.0139 37.1872 92.1768C37.6041 90.4867 38.1452 88.7903 38.3966 87.0175C38.6258 85.3243 38.6162 83.5801 38.2916 81.785L38.2598 81.6163L38.2152 81.4126C38.1802 81.279 38.142 81.1549 38.0975 81.0403C38.0147 80.8079 37.916 80.6042 37.8205 80.3974C37.6264 79.9931 37.4163 79.6144 37.2063 79.2356C36.7862 78.4845 36.3692 77.7525 35.9873 76.9981C35.7836 76.5939 34.2972 77.361 34.4946 77.7525C34.8638 78.4845 35.2616 79.2006 35.6436 79.9072C36.0128 80.6074 36.4234 81.3363 36.5348 81.8996C36.8085 83.4337 36.8085 85.1428 36.6111 86.7852C36.3979 88.5134 35.8536 90.2035 35.494 91.9603C35.4049 92.4027 35.3284 92.8451 35.2807 93.3035C35.2361 93.765 35.2044 94.2265 35.2585 94.758C35.2744 94.8949 35.2935 95.0317 35.3317 95.1909C35.3412 95.2322 35.3475 95.2641 35.3603 95.3086L35.408 95.4486C35.4367 95.5409 35.478 95.6301 35.529 95.7224C35.7263 96.0693 35.9777 96.2889 36.2196 96.448C36.7066 96.7631 37.1904 96.8841 37.6678 96.9478C38.0115 96.9891 38.4348 95.9261 38.1516 95.856V95.8592Z" fill="#FF7A1C"/>
<path d="M39.1795 72.8724C39.8192 79.8745 42.7411 96.1989 41.3597 97.4816C38.0401 100.566 24.6407 101.444 23.3039 99.1334C21.2892 95.6483 19.5801 58.4131 19.5801 58.4131" fill="white"/>
<path d="M38.5457 73.8948C39.0581 77.4149 39.6055 80.8842 40.0415 84.3693C40.2612 86.1103 40.4617 87.8513 40.624 89.5922C40.78 91.33 40.9168 93.0773 40.9232 94.7833C40.9232 95.2066 40.9105 95.6299 40.8787 96.031C40.8596 96.2283 40.8373 96.4256 40.8055 96.5975C40.7895 96.6834 40.7705 96.7598 40.7482 96.8267L40.7195 96.903C40.7195 96.903 40.7036 96.9412 40.7068 96.9158C40.71 96.9062 40.7068 96.9158 40.7227 96.8903C40.7323 96.8712 40.7609 96.8457 40.764 96.8425L40.6591 96.9221C40.589 96.973 40.5285 97.0304 40.449 97.0781C40.293 97.1768 40.1434 97.2786 39.9652 97.3645C39.631 97.5491 39.2554 97.7019 38.8799 97.8483C37.349 98.4117 35.6621 98.73 33.9816 98.9464C32.2948 99.1565 30.5855 99.2583 28.8987 99.2233C28.0584 99.2042 27.2214 99.1533 26.4194 99.045C26.0247 98.9846 25.63 98.9209 25.2799 98.8223C24.9298 98.7363 24.5892 98.6026 24.4428 98.4976C24.3982 98.4721 24.411 98.4626 24.3824 98.453C24.376 98.4403 24.4206 98.4881 24.4047 98.4881C24.3887 98.4371 24.3665 98.3862 24.3442 98.3385C24.3315 98.3098 24.3219 98.3003 24.3092 98.2589L24.271 98.1348C24.1628 97.8229 24.08 97.4314 23.9877 97.0558C23.8286 96.2729 23.6822 95.474 23.5549 94.656C23.2971 93.0296 23.0774 91.3777 22.8642 89.7227C22.4472 86.4126 22.0621 83.0898 21.7057 79.7607C20.9927 73.1023 20.3753 66.428 20.0411 59.7315C19.9552 57.946 18.2874 58.0223 18.3733 59.8142C18.7075 66.5171 19.2804 73.2042 19.9552 79.888C20.2957 83.2299 20.6617 86.5686 21.0723 89.9073C21.2824 91.5783 21.502 93.246 21.7661 94.917C21.8966 95.7509 22.0494 96.588 22.2212 97.425C22.3231 97.8483 22.4154 98.2653 22.5618 98.6981C22.6127 98.905 22.7401 99.1501 22.8419 99.3729C22.9215 99.4938 23.0233 99.637 23.1252 99.7325C23.2302 99.8185 23.3384 99.9235 23.4498 99.9871C23.9081 100.283 24.3665 100.423 24.8184 100.544C25.2736 100.668 25.7223 100.738 26.1743 100.805C27.075 100.926 27.9694 100.977 28.8669 100.993C30.6588 101.022 32.4444 100.91 34.2235 100.681C36.0027 100.439 37.7818 100.108 39.5324 99.4493C39.9684 99.2774 40.4044 99.096 40.8341 98.8509C41.0505 98.7395 41.2605 98.5963 41.4738 98.4562C41.5788 98.3862 41.6807 98.2971 41.7858 98.2143L41.9417 98.087C41.9958 98.0329 42.0499 97.9725 42.0977 97.912C42.1422 97.8547 42.1676 97.8101 42.1995 97.756C42.3141 97.5555 42.365 97.3964 42.4064 97.25C42.4478 97.1035 42.4764 96.9667 42.4987 96.8362C42.5465 96.5752 42.5655 96.3333 42.5846 96.0914C42.6164 95.614 42.6228 95.1525 42.6196 94.6974C42.591 92.8768 42.4287 91.1104 42.2409 89.344C42.0499 87.5807 41.8144 85.8334 41.5534 84.0924C41.0346 80.6105 40.3821 77.1699 39.7265 73.7548C39.5068 72.5581 38.3611 72.5676 38.5393 73.8821L38.5457 73.8948Z" fill="#FF7A1C"/>
<path d="M57.9775 48.8149C58.4263 49.2191 59.9095 49.8652 59.6421 51.4215C59.5562 52.2745 58.4709 53.2898 57.2551 52.9079C56.9845 52.822 55.9628 52.0135 54.2409 50.82C49.9251 47.8218 36.3506 34.6738 36.3506 34.6738L45.2209 30.3325C50.7908 35.3836 63.5664 44.4449 64.0152 44.8523C64.4639 45.2565 64.6931 46.0172 64.6326 46.4501C64.518 47.2999 64.0153 48.2643 62.7453 48.2165C61.8669 48.1847 61.9655 48.0096 61.9655 48.0096" fill="white"/>
<path d="M58.1943 49.8881C58.4425 50.0632 58.6526 50.2382 58.7895 50.4292C58.9263 50.6201 58.9996 50.8143 59.0123 51.0467C59.0219 51.1039 59.0123 51.1644 59.0123 51.2249V51.2694L59.0091 51.2917V51.3044V51.3108L59.0027 51.3586C58.9995 51.3777 58.9963 51.3999 58.9963 51.419C58.9772 51.505 58.9454 51.6068 58.8882 51.7087C58.7736 51.9092 58.5889 52.0969 58.382 52.2147C58.1719 52.3325 57.946 52.3993 57.7168 52.3834C57.6596 52.3739 57.6022 52.3802 57.545 52.3611L57.459 52.342C57.4113 52.3293 57.4909 52.3579 57.4432 52.3357C57.354 52.2911 57.2012 52.1861 57.0675 52.0969C56.5106 51.7118 55.9409 51.2917 55.3744 50.8843L54.5213 50.2732L53.7129 49.6589C53.1846 49.2197 52.6499 48.7901 52.1343 48.3286C51.0903 47.4247 50.0782 46.4762 49.0693 45.5245C45.0495 41.702 41.176 37.7076 37.223 33.7833L36.9048 35.7885C37.8373 35.3429 38.7731 34.8973 39.7088 34.4517C41.7394 33.4682 43.7541 32.4497 45.7592 31.4153L44.4224 31.2276C46.243 32.7903 48.124 34.2066 50.0241 35.5975C51.9242 36.9852 53.8498 38.3283 55.7786 39.6619L61.568 43.6531L63.0066 44.6556L63.3631 44.9071L63.5414 45.0344L63.6942 45.1458C63.866 45.2763 63.9902 45.4672 64.092 45.69C64.1875 45.9065 64.2479 46.1643 64.2415 46.3552C64.2415 46.3902 64.2288 46.4634 64.2193 46.5239C64.2066 46.5844 64.197 46.6481 64.178 46.7085C64.1493 46.8295 64.1046 46.9441 64.0569 47.0555C63.9582 47.2719 63.8151 47.4565 63.6432 47.587C63.4681 47.7143 63.2581 47.7907 63.0258 47.813C62.8762 47.8289 62.7265 47.848 62.5833 47.883C62.4464 47.918 62.3319 47.9689 62.2301 48.0262C62.125 48.0803 62.0454 48.1599 61.9085 48.1726C61.8417 48.179 61.7462 48.1408 61.6889 48.0485C61.6603 48.0039 61.6412 47.9593 61.6285 47.9148C61.6094 47.883 61.6157 47.8098 61.5902 47.8002C61.5711 47.7779 61.5108 47.8384 61.479 47.867C61.4376 47.9116 61.3994 47.9753 61.3803 48.0644C61.3357 48.2554 61.4057 48.4813 61.4885 48.6182C61.6667 48.9015 61.8162 49.0192 61.969 49.1433C62.1249 49.2579 62.2873 49.3439 62.4655 49.4043C62.5642 49.433 62.6374 49.4584 62.7647 49.4712C62.8983 49.4807 63.032 49.4934 63.1944 49.4712C63.6686 49.4266 64.197 49.2484 64.6299 48.9269C65.0596 48.6055 65.3682 48.179 65.5623 47.7652C65.6578 47.5583 65.7342 47.3483 65.7883 47.1414C65.8169 47.0364 65.8361 46.9345 65.8584 46.8295C65.8743 46.7149 65.8934 46.6576 65.9061 46.4635C65.9252 46.1452 65.887 45.9128 65.8393 45.6837C65.7883 45.4577 65.7215 45.2476 65.6355 45.0439C65.5464 44.8402 65.4414 44.6366 65.3045 44.4392C65.2345 44.3406 65.1613 44.2419 65.0722 44.1432C65.0308 44.0955 64.9831 44.0446 64.9321 43.9968L64.859 43.9268L64.7985 43.8791L64.5567 43.6912L64.3721 43.5576L64.0092 43.2966L62.5706 42.2845L56.8225 38.271C54.9096 36.9279 53.0032 35.5784 51.1253 34.1939C49.2507 32.8062 47.392 31.393 45.6383 29.8844L45.616 29.8653C45.4314 29.7062 45.1704 29.6839 44.9667 29.7889C42.9616 30.8233 40.9469 31.8418 38.9227 32.8348C37.9965 33.29 37.0639 33.7387 36.125 34.1843C35.8577 34.3116 35.7431 34.6331 35.8704 34.9004C35.899 34.9577 35.934 35.0087 35.9754 35.0501L35.9849 35.0596C39.9506 38.968 43.8559 42.9879 47.9744 46.8008C49.0088 47.7525 50.0497 48.6914 51.135 49.5953C51.6697 50.0536 52.2329 50.4897 52.7963 50.9289L53.6812 51.5655L54.5404 52.1447C55.1165 52.533 55.6735 52.9181 56.2846 53.3128L56.5297 53.4656C56.6188 53.5165 56.7047 53.5706 56.8702 53.6438C56.9211 53.666 57.0007 53.6947 57.0293 53.7011L57.1216 53.7233L57.3063 53.7615C57.4304 53.7806 57.5609 53.7902 57.685 53.7965C58.1974 53.7997 58.6939 53.6438 59.0981 53.386C59.496 53.1218 59.827 52.7813 60.0498 52.3548C60.1644 52.1447 60.2472 51.906 60.2854 51.645L60.298 51.5463L60.3044 51.4954V51.4827C60.3044 51.4827 60.2949 51.5591 60.3013 51.5177V51.4954L60.314 51.3267C60.3236 51.2153 60.3235 51.1039 60.3108 50.9862C60.2789 50.5278 60.0976 50.0695 59.8302 49.7226C59.5661 49.3725 59.2415 49.1274 58.9264 48.9269C58.6813 48.7742 58.4649 48.7391 58.2898 48.755C58.1148 48.7773 57.9652 48.841 57.8601 48.946C57.7551 49.0447 57.7296 49.2165 57.7964 49.3916C57.8632 49.5698 58.0033 49.7353 58.207 49.8754L58.1943 49.8881Z" fill="#FF7A1C"/>
<path d="M59.9854 46.2798C60.5392 46.5217 62.4839 48.0971 62.1051 48.8674C62.0192 49.7204 61.3667 50.4078 60.5201 50.5415L60.0809 50.6115" fill="white"/>
<path d="M59.7202 46.9717C59.8061 46.9431 59.9365 46.9813 60.0415 47.029C60.1498 47.0799 60.2516 47.1499 60.3407 47.2391C60.5189 47.4109 60.6559 47.6337 60.7546 47.8661C60.8532 48.0984 60.9231 48.3435 60.9454 48.5377C60.9581 48.5886 60.955 48.6299 60.955 48.6681C60.955 48.7063 60.9581 48.7445 60.9454 48.7572C60.9358 48.7732 60.9392 48.7986 60.9137 48.77C60.9073 48.7604 60.9009 48.7509 60.8977 48.7413C60.8945 48.7286 60.8786 48.6809 60.8786 48.649C60.8786 48.6108 60.885 48.5918 60.8882 48.5408C60.8914 48.4867 60.9073 48.4326 60.9295 48.3817C60.9423 48.3562 60.955 48.3339 60.9709 48.3116C61.0823 47.9234 60.8213 48.8336 60.8467 48.7413V48.7477V48.7572C60.8467 48.7572 60.8532 48.7795 60.8563 48.7922C60.8691 48.8368 60.8882 48.8909 60.9073 48.9514C60.9455 49.0692 60.9804 49.2347 60.9581 49.4129C60.939 49.5911 60.8658 49.7853 60.7258 49.9317C60.659 50.0049 60.573 50.0654 60.4807 50.1099C60.3789 50.1545 60.2389 50.1895 60.118 50.2086C59.9843 50.2309 60.2421 51.8795 60.3789 51.8604C60.4426 51.8509 60.503 51.8382 60.5667 51.8223L60.7768 51.7649C60.9805 51.7077 61.1778 51.6249 61.356 51.5135C61.7156 51.2971 62.0021 50.9884 62.2027 50.6573C62.4063 50.3263 62.5209 49.9667 62.5814 49.6229C62.6132 49.4511 62.6292 49.2792 62.6387 49.1137V48.9896L62.6418 48.9578V48.9418V48.9355V48.9291C62.6546 48.8877 62.5433 49.276 62.591 49.1105L62.6196 49.0087C62.6387 48.9419 62.6546 48.875 62.6673 48.8114C62.6769 48.7477 62.6706 48.6936 62.6706 48.6331C62.6706 48.5726 62.6706 48.5058 62.6578 48.4549L62.626 48.3021C62.6069 48.1939 62.5782 48.1112 62.5528 48.022C62.5273 47.9297 62.4986 47.8502 62.47 47.7674C62.4413 47.6847 62.4127 47.6019 62.3809 47.5287C62.26 47.2136 62.12 46.924 61.9481 46.6598C61.598 46.1442 61.1173 45.7527 60.2548 45.9087C60.0861 45.9341 59.6756 47.0035 59.7202 46.9749V46.9717Z" fill="#FF7A1C"/>
<path d="M43.8929 26.4986C43.8929 26.4986 51.2705 55.6559 50.2361 60.1245C49.2749 64.2812 35.2262 68.597 29.4463 68.6034C26.5436 68.6034 21.9732 67.8045 19.7198 65.166C16.3906 61.2735 20.7701 23.5386 20.7701 23.5386" fill="white"/>
<path d="M43.4796 27.8682C44.6986 32.2795 45.7776 36.7195 46.7356 41.1754C47.684 45.6281 48.5466 50.1062 49.1195 54.5876C49.2596 55.7047 49.3709 56.8251 49.4218 57.9231C49.4377 58.2 49.441 58.4673 49.4378 58.7347C49.4474 59.0084 49.4186 59.2503 49.4027 59.5017C49.3709 59.7245 49.3391 59.9378 49.269 60.0874C49.199 60.2529 49.0973 60.4311 48.9604 60.6062C48.4098 61.3159 47.5217 61.9493 46.6051 62.484C45.6757 63.0251 44.6827 63.4961 43.6642 63.9258C41.6241 64.7756 39.4885 65.4599 37.3306 66.0296C35.1758 66.5866 32.9669 67.0576 30.8122 67.2582C28.8261 67.4523 26.7415 67.2263 24.8031 66.7075C23.8356 66.4466 22.9158 66.0742 22.101 65.5936C21.6872 65.358 21.3276 65.0748 20.9838 64.7788L20.7515 64.5401L20.6337 64.4223C20.5987 64.3841 20.6051 64.3809 20.5828 64.3587C20.5191 64.2759 20.43 64.104 20.3568 63.9035C20.0513 63.0823 19.8889 62.0161 19.7648 60.9849C19.647 59.941 19.5706 58.8748 19.5165 57.8022C19.4147 55.657 19.3956 53.4927 19.4116 51.3284C19.4498 46.9966 19.628 42.6522 19.889 38.3141C20.1563 33.976 20.5128 29.6378 20.9806 25.3093C21.2353 23.0049 19.5771 22.8076 19.3192 25.1279C18.8482 29.466 18.4822 33.8136 18.1957 38.1708C17.9156 42.528 17.712 46.8916 17.6547 51.2679C17.6292 53.4577 17.6388 55.6474 17.7342 57.8467C17.7852 58.948 17.8584 60.0492 17.9793 61.1536C18.1162 62.2612 18.2562 63.3656 18.6604 64.5114C18.7654 64.7979 18.896 65.0907 19.106 65.3899C19.1601 65.4599 19.2205 65.549 19.2715 65.6031L19.4275 65.7655L19.7394 66.0869C20.185 66.4784 20.6496 66.8412 21.1525 67.1308C22.1487 67.726 23.2181 68.1493 24.3034 68.4453C26.4773 69.0278 28.7307 69.2665 30.9777 69.0469C33.2916 68.8209 35.5418 68.3339 37.7729 67.7515C40.0009 67.1595 42.2033 66.4497 44.3517 65.549C45.4243 65.0939 46.4842 64.591 47.5122 63.9863C48.5307 63.372 49.5491 62.6941 50.3766 61.6215C50.5803 61.3509 50.7649 61.0422 50.9018 60.6921C51.0482 60.3261 51.0929 59.976 51.1343 59.6386C51.1533 59.3235 51.1788 58.9989 51.1692 58.7029C51.1692 58.3973 51.1628 58.095 51.1437 57.8022C51.0801 56.6182 50.956 55.4628 50.8032 54.3138C50.1762 49.7275 49.2564 45.227 48.2252 40.7712C47.1844 36.3153 45.9972 31.9135 44.6414 27.5849C44.1608 26.0636 43.0277 26.2418 43.4828 27.8714L43.4796 27.8682Z" fill="#FF7A1C"/>
<path d="M62.7689 36.3819L50.666 53.1445L61.6149 61.0498L73.7178 44.2872L62.7689 36.3819Z" fill="white"/>
<path d="M60.872 59.8185C57.6033 57.4919 54.2709 55.0221 51.0245 52.5459L51.1742 53.4816C55.3404 47.9977 59.6721 42.6475 63.7619 37.0681L61.9923 37.3546L62.4985 37.7238C65.9709 40.2541 69.5292 42.6571 73.1034 45.0314L72.8805 43.6501C71.1268 46.3236 69.3763 48.9971 67.6226 51.6675C65.8434 54.3697 64.0038 57.0814 62.1323 59.723C61.3239 60.8879 61.5372 62.5462 62.4602 61.3622C64.5163 58.6887 66.566 55.9133 68.5488 53.1061C70.5317 50.2989 72.4445 47.4726 74.3192 44.6908L74.3479 44.6495C74.5834 44.2994 74.491 43.8251 74.1409 43.5896C70.5794 41.193 67.0307 38.7773 63.5456 36.2693L63.0363 35.9C62.8008 35.7314 62.4729 35.7823 62.3042 36.0178C58.2812 41.5654 53.9113 46.9538 49.8437 52.5205C49.5318 52.9502 49.6242 53.5517 50.0538 53.8636L50.0633 53.87C51.8711 55.1908 53.7331 56.4798 55.5854 57.6766C57.4378 58.8765 59.2742 59.9809 61.012 60.9993C61.8363 61.4768 61.6646 60.3914 60.8689 59.8154L60.872 59.8185Z" fill="#FF7A1C"/>
<path d="M51.4352 37.4998C52.2754 35.8766 43.2491 13.7882 43.2491 13.7882C44.7705 12.5469 46.1136 10.5036 46.1708 8.33932C46.2791 4.33858 43.0645 1.02852 39.0606 0.952132C35.0567 0.875745 31.7562 3.82935 31.6798 7.83327C31.6607 8.81993 32.0458 10.1249 32.0458 10.1249C28.6179 9.89887 25.8934 12.095 25.8934 12.095C25.1423 8.96316 22.3542 6.60471 18.9805 6.54105C14.9766 6.46466 12.128 9.64742 12.0516 13.6513C11.7429 29.788 51.4288 37.503 51.4288 37.503L51.4352 37.4998Z" fill="white"/>
<path d="M52.0438 35.8797C51.7955 34.8739 51.4868 33.9223 51.1749 32.9738C50.8598 32.0254 50.5287 31.0896 50.1913 30.1571C49.5166 28.2888 48.8228 26.4364 48.1226 24.5904C46.719 20.8952 45.2994 17.2159 43.8577 13.543L43.6635 14.3005C44.7616 13.4125 45.6559 12.2986 46.2575 11C46.5535 10.3507 46.7668 9.65049 46.8654 8.92164C46.8941 8.74022 46.8972 8.55562 46.9163 8.37102V7.82997L46.91 7.55944L46.8813 7.28887L46.8208 6.75101C46.5726 5.32831 45.9551 3.95654 44.9971 2.85849C44.7711 2.57204 44.4975 2.33012 44.2396 2.0755C44.1028 1.95455 43.9564 1.84635 43.8163 1.72859L43.6031 1.55671L43.3739 1.40713C42.7756 0.980635 42.1008 0.681473 41.4133 0.430034C40.0129 -0.0282846 38.5043 -0.130152 37.0625 0.172211C35.6112 0.449112 34.233 1.14617 33.119 2.15192C32.562 2.65798 32.0878 3.25315 31.6836 3.89289C31.308 4.54854 30.9898 5.24873 30.8052 5.98395C30.7447 6.16536 30.7224 6.35315 30.6842 6.53775C30.6556 6.72553 30.6015 6.91013 30.5951 7.09792L30.5474 7.66446C30.5251 7.84269 30.5346 8.07823 30.5442 8.26919C30.5951 9.0617 30.7288 9.72371 30.9197 10.4558L32.1292 8.94075C30.8625 8.85482 29.5925 9.02668 28.4244 9.41498C27.8388 9.60595 27.2691 9.83827 26.7249 10.1152C26.4543 10.2552 26.1838 10.4016 25.9228 10.564C25.7923 10.6435 25.6618 10.7263 25.5313 10.8154C25.3945 10.9077 25.2831 10.9841 25.1176 11.1146L27.1195 11.7957C26.7281 10.1279 25.8177 8.59062 24.5415 7.44483C23.4052 6.40088 21.9603 5.70707 20.4453 5.41107C19.6846 5.27103 18.9144 5.24872 18.1441 5.29964C17.3739 5.38876 16.6036 5.54475 15.878 5.8503C14.4235 6.44229 13.1758 7.49578 12.3388 8.7848C11.9218 9.42772 11.5781 10.1184 11.3585 10.844C11.228 11.2005 11.1643 11.5729 11.0752 11.9389L10.9956 12.4959L10.9574 12.7728L10.9415 13.0529L10.916 13.6099L10.9319 14.1605C10.9319 14.5265 10.9956 14.8893 11.0306 15.2522C11.1548 15.9715 11.3107 16.6876 11.5653 17.3623C12.0427 18.7309 12.7907 19.9595 13.6309 21.0671C15.3464 23.2759 17.4949 24.9851 19.726 26.4619C21.9698 27.9323 24.3378 29.1513 26.7472 30.243C29.1597 31.3315 31.6231 32.28 34.1121 33.1457C39.0931 34.8675 44.1664 36.2648 49.2938 37.4424C49.9781 37.5984 50.516 37.6047 50.8916 37.5252C51.0794 37.4838 51.2258 37.4202 51.3308 37.3438C51.3785 37.3024 51.3467 37.2546 51.3244 37.2196C51.299 37.1846 51.264 37.1496 51.2417 37.1051C51.2195 37.0573 51.2067 36.9969 51.2417 36.9205C51.2608 36.8823 51.2894 36.8441 51.3372 36.8154C51.3594 36.7995 51.3881 36.7868 51.4167 36.7772C51.4326 36.7709 51.4454 36.7677 51.4613 36.7645C51.4613 36.7582 51.455 36.7518 51.4518 36.7454C51.3882 36.634 51.28 36.5163 51.1272 36.4049C50.8217 36.1821 50.3378 35.972 49.6662 35.8192C44.612 34.6575 39.5928 33.2666 34.7009 31.5575C32.2565 30.7013 29.8408 29.7592 27.4919 28.6898C25.1462 27.6204 22.8546 26.4269 20.719 25.0169C18.5929 23.6069 16.5909 21.9837 15.06 20.0072C14.3089 19.0174 13.6596 17.9448 13.2586 16.7863C13.039 16.2134 12.9117 15.615 12.8066 15.0135C12.7812 14.7111 12.7239 14.4087 12.7239 14.1032L12.708 13.6449L12.7303 13.1929L12.7398 12.967L12.7716 12.7441L12.8352 12.2954C12.9084 12.0026 12.9562 11.7034 13.0613 11.4201C13.2331 10.8409 13.5068 10.2998 13.8283 9.7969C14.4808 8.79114 15.4324 7.98909 16.54 7.53395C17.0938 7.29843 17.6858 7.18068 18.2842 7.10747C18.8889 7.07246 19.5 7.08202 20.0983 7.19341C21.2887 7.42576 22.4281 7.96365 23.3288 8.78798C24.3346 9.68871 25.0603 10.9013 25.369 12.219C25.4358 12.5054 25.7223 12.6837 26.0087 12.6137C26.082 12.5978 26.1488 12.5659 26.206 12.5214L26.2252 12.5086C26.6071 12.2222 27.075 11.9357 27.5333 11.7034C27.998 11.4678 28.4818 11.2673 28.9751 11.1082C29.9586 10.7804 30.9929 10.6499 32.0018 10.7135C32.3265 10.7358 32.6098 10.4876 32.6321 10.1629C32.6353 10.0961 32.6321 10.0356 32.613 9.97515L32.6066 9.95603C32.4507 9.37677 32.3297 8.7434 32.2947 8.16732C32.2724 7.89042 32.317 7.59443 32.3392 7.29525C32.3424 7.14566 32.387 7.00243 32.4093 6.85602C32.4411 6.7128 32.4506 6.56321 32.5016 6.42317C32.648 5.85027 32.8931 5.30921 33.1827 4.79678C33.501 4.30345 33.8638 3.83558 34.2999 3.44092C36.0281 1.84317 38.673 1.33391 40.8627 2.0755C41.4038 2.27283 41.9417 2.50518 42.4096 2.84256L42.5909 2.96032L42.7596 3.09401L43.097 3.36454C43.2975 3.57142 43.5204 3.756 43.6954 3.98516C44.4593 4.84769 44.9398 5.92668 45.1435 7.04383L45.1913 7.46713L45.2167 7.6772V7.89042L45.2263 8.31694C45.2135 8.4538 45.2104 8.58745 45.1913 8.72431C45.1213 9.26538 44.9622 9.80645 44.7298 10.3252C44.2588 11.3596 43.514 12.3113 42.626 13.037C42.2886 13.3139 42.1868 13.7658 42.3395 14.1509C43.8163 17.827 45.2868 21.4936 46.7572 25.1506C47.486 26.9807 48.2149 28.8076 48.9215 30.6345C49.6185 32.4614 50.3378 34.2947 50.8661 36.1343C50.9871 36.5831 51.1239 36.9045 51.2512 37.1241C51.3149 37.2355 51.3722 37.3183 51.4295 37.3979C51.4963 37.4647 51.4837 37.6079 51.5059 37.6748C51.5187 37.7098 51.541 37.7352 51.5982 37.7321C51.6492 37.7321 51.7477 37.6843 51.8273 37.5665C51.8719 37.4902 51.8815 37.4934 51.9038 37.4615C51.9229 37.4361 51.9451 37.4074 51.9642 37.3724C52.0024 37.3024 52.031 37.2419 52.0597 37.1528C52.1583 36.8313 52.1583 36.408 52.0342 35.8829L52.0438 35.8797Z" fill="#FF7A1C"/>
<path d="M42.8002 32.672C41.8135 33.8878 40.0407 33.8369 38.7613 34.5912C37.5423 35.3073 36.8452 36.8383 35.6517 37.5926C35.4926 37.6944 36.3869 39.1044 36.546 39.0057C37.7395 38.2514 38.5384 36.8764 39.7224 36.1094C40.9573 35.3073 42.797 35.4092 43.4399 33.6809C43.4972 33.5282 42.8925 32.5606 42.8002 32.672Z" fill="#FF7A1C"/>
<path d="M45.809 35.0245C45.5958 36.3899 44.1031 36.9978 43.4156 38.0863C42.7631 39.1239 42.9478 40.6421 42.3335 41.7019C42.2507 41.842 43.6988 42.679 43.7784 42.539C44.3895 41.4791 44.3673 40.0533 44.9688 38.9839C45.5927 37.8699 47.1713 37.2779 46.8403 35.6197C46.8116 35.4732 45.825 34.8972 45.8059 35.0213L45.809 35.0245Z" fill="#FF7A1C"/>
<path d="M51.6802 35.6548C52.5268 34.9005 53.7649 35.5816 54.7579 35.3524C55.7032 35.136 56.3876 33.9902 57.3201 33.7292C57.4442 33.6942 56.9954 32.0837 56.8713 32.1187C55.9387 32.3797 55.2035 33.3473 54.2741 33.621C53.3065 33.9075 52.0272 33.1563 51.3588 34.5026C51.3015 34.6204 51.6006 35.7217 51.6802 35.6516V35.6548Z" fill="#FF7A1C"/>
<path d="M53.6273 27.0638C52.9621 27.9931 51.5966 27.6017 50.6704 28.0473C49.7888 28.4706 49.3687 29.7437 48.5093 30.2084C48.3948 30.2688 49.1873 31.7393 49.3019 31.6788C50.1613 31.2141 50.6705 30.1065 51.5235 29.6291C52.4115 29.1326 53.8341 29.5782 54.1937 28.1141C54.2255 27.9868 53.6877 26.9778 53.6273 27.0638Z" fill="#FF7A1C"/>
<path d="M41.9658 18.228L40.1123 18.7612L40.6456 20.6148L42.4991 20.0815L41.9658 18.228Z" fill="#FF7A1C"/>
<path d="M43.1374 20.2515C42.9846 19.825 42.8827 19.459 42.8254 19.0866C42.7649 18.7174 42.7427 18.3354 42.7204 17.9312C42.7045 17.632 42.4563 17.4029 42.1635 17.4029H41.7656C41.0972 17.4029 40.4066 17.3233 39.7764 17.4602C39.1366 17.6002 38.7324 18.2336 38.8724 18.8733V18.8829L38.9075 19.0293L38.9233 19.0993C39.0729 19.7009 39.4581 20.2356 39.8496 20.7671L40.1679 21.2031C40.3365 21.4323 40.6516 21.4895 40.8903 21.3431C41.2405 21.1267 41.5556 20.9039 41.8484 20.713C42.1444 20.5188 42.4181 20.3629 42.7332 20.2419C42.9114 20.1592 41.4154 19.4048 41.3104 19.3667C41.0972 19.3253 40.9572 19.3094 40.8267 19.3571C40.6994 19.4017 40.5752 19.5131 40.4066 19.6563L41.5365 20.2801C41.1864 19.7359 40.8299 19.1948 40.6485 18.6028L40.6293 18.536L40.2697 19.1852C40.8872 19.0197 41.581 19.0993 42.2335 19.0324L41.0972 18.4023C41.0972 18.6155 41.1482 18.7715 41.3073 18.9465C41.4633 19.1247 41.7306 19.338 42.0775 19.7072C42.208 19.8345 43.1946 20.4233 43.1405 20.2515H43.1374Z" fill="#FF7A1C"/>
<path d="M32.3453 21.534L32.3086 23.4624L34.237 23.4991L34.2737 21.5707L32.3453 21.534Z" fill="#FF7A1C"/>
<path d="M34.8533 23.9641C34.831 23.5121 34.8437 23.1302 34.8978 22.7579C34.9488 22.3855 35.0411 22.0162 35.1365 21.6248C35.2066 21.3351 35.0411 21.0423 34.7578 20.9532L34.3759 20.8354C33.7362 20.6381 33.0996 20.358 32.4567 20.3039C31.8042 20.2498 31.2313 20.7368 31.1772 21.3892V21.3988L31.1645 21.5484L31.1581 21.6184C31.1231 22.239 31.3363 22.8629 31.5528 23.4835L31.7278 23.9928C31.8201 24.2633 32.1066 24.4097 32.3771 24.3429C32.775 24.241 33.141 24.1201 33.4783 24.0214C33.8157 23.9227 34.1277 23.8559 34.4618 23.8336C34.656 23.8082 33.4497 22.6464 33.3605 22.5796C33.1696 22.4777 33.0391 22.4205 32.9022 22.4268C32.7654 22.4332 32.6158 22.5 32.4121 22.5892L33.3065 23.5185C33.1314 22.8947 32.95 22.274 32.9532 21.6534V21.5834L32.4216 22.099C33.0614 22.1213 33.7011 22.4045 34.344 22.5318L33.4433 21.5961C33.3828 21.803 33.3829 21.9653 33.4847 22.1786C33.5802 22.395 33.7743 22.6783 33.9971 23.1334C34.083 23.2957 34.8533 24.1487 34.8533 23.9673V23.9641Z" fill="#FF7A1C"/>
<path d="M44.2559 34.9676C44.2559 34.9676 44.3609 33.7327 46.487 32.17C48.6131 30.6072 49.8002 30.9605 49.8002 30.9605L51.4362 37.5043L44.2559 34.9708V34.9676Z" fill="#FF7A1C"/>
<path d="M45.0087 34.952C45.0278 34.7546 45.1169 34.516 45.2347 34.2963C45.3556 34.0736 45.5147 33.8635 45.6866 33.6598C46.0431 33.2619 46.476 32.915 46.9439 32.6222C47.4086 32.3294 47.9019 32.1002 48.3889 31.9634C48.6308 31.8965 48.8726 31.852 49.0953 31.8424C49.2036 31.8424 49.3118 31.8424 49.4009 31.8552C49.4486 31.8615 49.4869 31.8711 49.5219 31.8806C49.5347 31.887 49.5537 31.8902 49.56 31.8965C49.56 31.8965 49.6014 31.9156 49.5187 31.8965L48.8439 31.1932C49.0094 32.4344 49.1845 33.6789 49.471 34.8947C49.7001 35.8686 50.0089 36.8234 50.3526 37.7655L51.8007 36.4479C50.7186 36.1996 49.5792 36.0055 48.4047 35.7636C47.2303 35.5217 46.024 35.2257 44.9037 34.8533C44.4867 34.7228 43.0609 35.5981 43.5256 35.7986C44.7382 36.3078 46.0526 36.7534 47.3576 37.1322C48.6657 37.5109 49.9611 37.8228 51.2024 38.1443L51.3202 38.1761C51.6671 38.2652 52.0203 38.0584 52.1126 37.7115C52.1476 37.581 52.1381 37.4536 52.0968 37.3359C51.7657 36.3874 51.4603 35.4358 51.212 34.465C50.9065 33.2619 50.7217 32.0175 50.534 30.773C50.4958 30.5152 50.3081 30.3147 50.0726 30.2447L50.0088 30.2256C49.8815 30.1874 49.8528 30.1842 49.786 30.1715L49.6206 30.146C49.5188 30.1333 49.4169 30.1269 49.3182 30.1237C49.1209 30.1173 48.9363 30.1301 48.7548 30.1524C48.392 30.1969 48.0515 30.2861 47.73 30.4006C47.0839 30.6266 46.5047 30.9512 45.989 31.3332C45.4766 31.7119 45.0024 32.1607 44.6109 32.6954C44.2321 33.2397 43.917 33.8635 43.8661 34.5923C43.8597 34.691 43.9298 34.7896 44.038 34.8597C44.0921 34.8947 44.1558 34.9265 44.2258 34.9456C44.299 34.9838 44.3595 34.9074 44.4104 34.8629C44.439 34.8406 44.474 34.8247 44.5218 34.8374C44.5663 34.847 44.6268 34.8979 44.6522 34.9902C44.7159 35.0284 44.7795 35.0093 44.8305 35.0188C44.9355 35.0188 45.0024 35.0061 45.0055 34.952H45.0087Z" fill="#FF7A1C"/>
<path d="M14.3225 11.1147C14.2461 10.5164 14.4753 8.88998 12.9475 8.48896C12.1328 8.21524 10.9519 8.82316 10.605 10.0517C10.2485 11.3184 10.5796 20.6312 11.3116 25.2717C12.3333 31.7423 15.6306 37.8755 15.6306 37.8755L23.247 31.5895C22.445 29.0974 21.3787 25.6473 20.7453 22.0953C19.5454 15.3828 21.5792 9.62839 20.7326 7.21903C20.5321 6.64932 19.9528 6.12099 19.5327 5.99686C18.7115 5.75179 17.623 5.80907 17.1424 6.9867C16.8114 7.7983 17.0088 7.78239 17.0088 7.78239" fill="white"/>
<path d="M15.001 10.2034C14.9468 9.79598 14.8482 9.34085 14.584 8.90482C14.3294 8.46559 13.8838 8.10913 13.4319 7.95317L13.2632 7.89905L13.1772 7.8736L13.1359 7.86086L13.1136 7.85449C13.1963 7.87995 13.1295 7.86086 13.1454 7.86404H13.1327C12.999 7.82267 12.8654 7.79403 12.7349 7.78766C12.4707 7.76856 12.2192 7.79402 11.9837 7.86086C11.519 7.99135 11.1148 8.23959 10.7933 8.56105C10.4719 8.88251 10.2268 9.27401 10.0868 9.69732C10.0072 9.90102 9.97858 10.1429 9.94676 10.3498C9.93403 10.5375 9.91171 10.7317 9.90534 10.9163C9.86715 11.6547 9.87037 12.3709 9.86719 13.0902C9.8831 15.961 9.97535 18.8064 10.1377 21.6709C10.2268 23.1 10.3286 24.5354 10.5419 25.9867C10.752 27.4349 11.0607 28.864 11.4395 30.2707C11.8214 31.6775 12.2733 33.062 12.7858 34.4242C13.0467 35.1053 13.3141 35.7801 13.6038 36.4516C13.8966 37.1264 14.1894 37.7757 14.5363 38.4632C14.8386 39.0615 15.5706 39.3002 16.169 38.9979C16.2454 38.9597 16.3155 38.9151 16.3791 38.8642L16.4173 38.8324C17.2607 38.1513 18.1042 37.467 18.9508 36.7827C20.6568 35.3854 22.3436 33.9627 24.0146 32.5241L24.0527 32.4923C24.4251 32.1708 24.5461 31.6616 24.3965 31.2224C23.6103 28.9435 22.8528 26.6774 22.229 24.3762C21.9203 23.2304 21.6338 22.0624 21.4365 20.9198C21.2487 19.7676 21.1214 18.5963 21.0833 17.4123C21.0451 16.2284 21.0673 15.0348 21.1342 13.8381C21.1978 12.6382 21.3092 11.4351 21.376 10.2066C21.4079 9.59228 21.4238 8.96845 21.3792 8.32872C21.3729 8.16958 21.3379 8.00406 21.3188 7.84174C21.3029 7.67942 21.2615 7.51394 21.2105 7.34844L21.1405 7.10017C21.1119 7.01424 21.0705 6.92195 21.0259 6.8392C20.94 6.6737 20.835 6.52409 20.7236 6.38724C20.4912 6.11352 20.2335 5.88435 19.8865 5.70612C19.8038 5.66474 19.6892 5.6202 19.6032 5.6011C19.5205 5.57882 19.4377 5.55652 19.3518 5.54061C19.1831 5.5056 19.0081 5.48652 18.8298 5.48334C18.4765 5.47697 18.1009 5.54062 17.7604 5.71568C17.4166 5.88436 17.1398 6.17401 16.9552 6.48592C16.8279 6.6928 16.7833 6.89328 16.7706 7.04924C16.7579 7.21474 16.7801 7.36752 16.8342 7.48846C16.8852 7.60622 16.9838 7.71763 17.0825 7.69535C17.0348 7.71126 17.0093 7.73673 17.0093 7.73991C17.0093 7.74309 17.0093 7.74629 17.0061 7.75266V7.75903L17.0252 7.39937L17.022 7.39619L17.0061 7.38663C16.987 7.3739 16.9743 7.36117 16.9743 7.34844C16.9743 7.33571 16.9838 7.31979 17.0061 7.30706L17.0252 7.2975H17.0316V7.29432L17.0061 7.75903V7.75266C17.0061 7.74311 17.0061 7.74309 17.0093 7.73991C17.0125 7.73355 17.0252 7.71444 17.0921 7.69216C17.1175 7.6858 17.1748 7.6699 17.2289 7.6699C17.2957 7.66353 17.3657 7.66035 17.458 7.66671C17.6172 7.66353 18.0214 7.73675 17.9609 7.72084C18.0405 7.71447 18.1233 7.6667 18.206 7.57759C18.2442 7.54258 18.2919 7.45985 18.3174 7.44075C18.346 7.41211 18.3652 7.3739 18.3875 7.34844C18.4479 7.25614 18.4766 7.22429 18.5243 7.20519C18.5689 7.17973 18.6547 7.15111 18.7948 7.15429C18.8616 7.15429 18.9413 7.16064 19.024 7.17656C19.0654 7.18292 19.1067 7.19246 19.1481 7.20519H19.164L19.1672 7.20838C19.0622 7.56803 19.3168 6.71823 19.2881 6.81372L19.2786 6.85191C19.2627 6.90283 19.2436 6.95379 19.2245 7.00471L19.1609 7.15748L19.1449 7.19567C19.1863 7.2084 19.3423 7.32616 19.4282 7.43438C19.476 7.48849 19.5141 7.54577 19.5364 7.58714C19.5491 7.60942 19.5523 7.6158 19.5619 7.64127L19.5969 7.77492L19.6383 7.90861C19.6542 7.95317 19.6542 8.02001 19.6638 8.07412C19.6765 8.19188 19.7019 8.29372 19.7083 8.42421C19.7433 8.93027 19.7305 9.49361 19.6987 10.0761C19.6351 11.2378 19.5109 12.4568 19.4377 13.6853C19.3613 14.9139 19.3263 16.1583 19.355 17.4092C19.3868 18.66 19.5078 19.9108 19.7019 21.1521C19.9088 22.4029 20.1921 23.5869 20.504 24.7805C21.1278 27.158 21.8949 29.4782 22.6842 31.7794L22.8719 31.1364C21.201 32.5719 19.5173 33.9978 17.8177 35.4045C16.9838 36.0952 16.1404 36.7827 15.2937 37.467L16.1181 37.6293C14.8768 35.1372 13.8743 32.4668 13.1263 29.771C12.7571 28.4183 12.458 27.0498 12.2511 25.678C12.041 24.3094 11.9296 22.9026 11.8246 21.4958C11.6272 18.6791 11.4872 15.8401 11.3949 13.036C11.3758 12.3358 11.3599 11.6356 11.3663 10.9641L11.3854 10.4866C11.3981 10.3784 11.4013 10.267 11.4395 10.1492C11.5063 9.92327 11.6241 9.71642 11.78 9.54137C11.936 9.3695 12.1365 9.23262 12.337 9.1626C12.4389 9.12441 12.5375 9.1117 12.6234 9.10852C12.6457 9.10852 12.668 9.10533 12.6871 9.10852H12.7157L12.7317 9.1117H12.738C12.6999 9.10215 12.7921 9.12759 12.7858 9.12441H12.7921C12.8494 9.14032 12.9099 9.15305 12.9704 9.16579C13.1964 9.23262 13.365 9.34722 13.5114 9.53818C13.6578 9.72915 13.7533 10.0124 13.8138 10.3243C13.8615 10.5662 13.9539 10.7699 14.0812 10.9099C14.2053 11.0532 14.3676 11.1137 14.5108 11.0946C14.6572 11.0723 14.7909 11.0182 14.8864 10.8877C14.9787 10.7604 15.0423 10.5407 15.001 10.2066V10.2034Z" fill="#FF7A1C"/>
<path d="M17.4204 10.2622C17.43 9.65752 17.5509 7.80195 16.2905 7.29907C15.4758 7.02535 14.5814 7.33408 14.1103 8.0502L13.8652 8.4226" fill="white"/>
<path d="M18.155 10.2056C17.9195 9.66449 18.0436 9.11071 18.0786 8.43915C18.0913 8.10178 18.085 7.72302 17.9354 7.31562C17.7921 6.91459 17.4739 6.49444 17.0442 6.25255C16.9933 6.22391 16.9423 6.19844 16.8882 6.17298L16.8087 6.13798L16.7673 6.12209H16.7578L16.6909 6.09341H16.6878L16.6686 6.08708C16.5668 6.06162 16.465 6.03613 16.3631 6.02659C16.1562 6.00112 15.9462 6.01069 15.7425 6.0457C15.3383 6.11572 14.969 6.30349 14.6762 6.54219C14.3802 6.77772 14.1575 7.06737 13.9888 7.35381C13.9028 7.49386 13.8328 7.64025 13.766 7.78029C13.7087 7.90761 13.6578 8.01266 13.5877 8.12087C13.5145 8.23227 14.9117 9.14887 14.9849 9.03747C15.0486 8.94199 15.1218 8.80513 15.1536 8.72238C15.1632 8.67782 15.1664 8.62054 15.1791 8.56643C15.1982 8.44867 15.2364 8.30863 15.3255 8.17495C15.4115 8.04128 15.5451 7.91396 15.7106 7.84712C15.7934 7.81211 15.8825 7.79303 15.9716 7.78985C16.0162 7.78667 16.0607 7.79623 16.1085 7.79941H16.118C16.118 7.79941 16.1435 7.80895 16.0925 7.78985H16.0957L16.1085 7.79622L16.1371 7.80574L16.1944 7.82804C16.3472 7.90443 16.4268 8.07311 16.449 8.25452C16.4713 8.43912 16.4395 8.64281 16.4267 8.84014C16.3949 9.24435 16.4204 9.63585 16.9615 10.1737C17.057 10.2692 18.1996 10.2915 18.155 10.196V10.2056Z" fill="#FF7A1C"/>
<path d="M25.7799 44.8364C30.8564 41.9878 26.4642 30.0461 23.8225 27.9773C22.0751 26.6087 11.8076 32.0512 12.2627 33.7254C13.9241 39.8713 20.487 47.8091 25.7831 44.8364H25.7799Z" fill="white"/>
<path d="M26.7127 45.0945C27.2029 44.6744 27.5848 44.1588 27.8776 43.6177C28.1736 43.0735 28.3423 42.4974 28.4792 41.9277C28.7179 40.7819 28.7465 39.6424 28.6669 38.5285C28.5046 36.2973 27.989 34.1394 27.2538 32.042C26.8782 30.9949 26.439 29.9668 25.863 28.9579C25.5702 28.455 25.2518 27.9585 24.7903 27.4652L24.5962 27.2806C24.523 27.2169 24.4975 27.1723 24.3384 27.0673C24.0742 26.8891 23.826 26.8095 23.6032 26.7586C23.1703 26.6663 22.8138 26.6695 22.4828 26.6886C21.824 26.7363 21.2448 26.8636 20.6782 27.01C20.1149 27.1596 19.5738 27.341 19.0391 27.5384C17.976 27.933 16.9576 28.4009 15.9645 28.9324C15.0192 29.4417 14.1058 30.0019 13.221 30.6734C12.7786 31.014 12.3425 31.3736 11.9129 31.8447C11.6996 32.0897 11.4736 32.3412 11.2636 32.7868C11.1681 33.0128 11.0408 33.3215 11.0917 33.8021C11.1012 33.8625 11.1108 33.923 11.1236 33.9803L11.1331 34.0248V34.0376L11.1459 34.063L11.1776 34.1617L11.2413 34.359C11.5882 35.4094 12.0434 36.3992 12.5622 37.3413C13.081 38.2834 13.6698 39.1809 14.3127 40.0339C14.9556 40.8869 15.6622 41.6858 16.4292 42.4305C17.1962 43.1689 18.0174 43.8628 18.9277 44.4357C19.8348 45.0086 20.8214 45.4924 21.8972 45.7279C22.4319 45.8456 22.9857 45.9125 23.5427 45.8743C23.8196 45.8743 24.0965 45.817 24.3702 45.7756C24.6407 45.7056 24.9113 45.6483 25.1691 45.5433C25.4523 45.451 25.6019 45.2441 25.656 45.0436C25.7101 44.8431 25.6656 44.6298 25.5637 44.4484C25.4619 44.267 25.3028 44.111 25.1341 44.0187C24.9622 43.9264 24.784 43.9137 24.593 43.971C24.418 44.0474 24.2301 44.0824 24.0487 44.1333C23.8609 44.1556 23.6764 44.2034 23.4823 44.2002C23.1003 44.2288 22.7024 44.1811 22.3014 44.0951C21.4962 43.9233 20.6782 43.535 19.9017 43.0385C18.3453 42.0327 16.9512 40.6132 15.7703 39.0441C14.5991 37.4654 13.5966 35.7149 12.9728 33.8466L12.9154 33.6716L12.8868 33.5825L12.8804 33.5602V33.5538C13.0841 33.4965 12.5972 33.6238 12.6481 33.6111H12.6577C12.6577 33.6111 12.6799 33.6047 12.6895 33.6047C12.7022 33.6047 12.7691 33.5984 12.8009 33.6047C12.8136 33.6079 12.8614 33.6079 12.8804 33.6143C12.8804 33.6143 12.8868 33.5824 12.8996 33.5506C12.9505 33.4265 13.0777 33.2451 13.2273 33.0796C13.5297 32.7422 13.9053 32.4207 14.2968 32.1216C15.0829 31.52 15.9454 30.9853 16.827 30.5015C17.7501 29.9987 18.7112 29.5531 19.6947 29.1839C20.6687 28.821 21.6999 28.5028 22.6483 28.4327C22.8775 28.4168 23.1034 28.4295 23.2562 28.4677C23.3294 28.4868 23.3804 28.5155 23.3868 28.525C23.3868 28.525 23.39 28.525 23.3995 28.5155C23.3836 28.5441 23.4027 28.5314 23.4027 28.5409L23.4568 28.5951L23.5681 28.7033C23.8705 29.0279 24.1506 29.4481 24.4021 29.8809C24.9081 30.7562 25.3282 31.711 25.6879 32.6817C26.404 34.6296 26.9228 36.6602 27.1424 38.6685C27.2538 39.6711 27.2602 40.6673 27.1233 41.6158C27.0374 42.0805 26.9324 42.5451 26.7446 42.9716C26.5536 43.3918 26.3149 43.7928 25.9839 44.1365C25.5224 44.563 25.9171 45.6738 26.7159 45.0786L26.7127 45.0945Z" fill="#FF7A1C"/>
</svg>
