<svg width="384" height="363" viewBox="0 0 384 363" fill="none" xmlns="http://www.w3.org/2000/svg">
<rect width="384" height="363" rx="181.5" fill="#FF7A1C"/>
<path d="M61.2207 142V118.744H72.2727C77.4567 118.744 80.0127 121.12 80.0127 124.684C80.0127 126.808 79.1847 128.428 76.8087 129.616V129.868C79.2567 130.804 80.4087 132.712 80.4087 135.268C80.4087 139.624 77.4567 142 72.0927 142H61.2207ZM71.6967 123.136H66.3327V128.14H71.6607C74.1447 128.14 75.0087 127.24 75.0087 125.62C75.0087 124.036 74.1447 123.136 71.6967 123.136ZM71.7687 132.208H66.3327V137.608H71.7687C74.2167 137.608 75.2967 136.6 75.2967 134.872C75.2967 133.108 74.2167 132.208 71.7687 132.208ZM90.2482 142.288C86.4322 142.288 83.6962 140.2 83.6962 134.8V123.856H88.7362V134.008C88.7362 136.6 89.5642 137.86 91.5082 137.86C93.4522 137.86 94.8922 136.456 94.8922 133.684V123.856H99.9322V133.828C99.9322 136.492 100.184 139.84 100.508 142H95.4682C95.3242 141.28 95.2522 140.74 95.1802 139.804H94.9282C93.9562 141.388 92.2642 142.288 90.2482 142.288ZM107.094 115.36C108.894 115.36 110.19 116.512 110.19 118.348C110.19 120.076 108.894 121.264 107.094 121.264C105.258 121.264 104.034 120.076 104.034 118.348C104.034 116.512 105.258 115.36 107.094 115.36ZM104.574 142V123.856H109.614V142H104.574ZM119.274 142H114.234V116.224H119.274V142ZM131.538 142.36C127.038 142.36 124.554 140.164 124.554 135.592V127.924H121.71V123.856H124.554V119.464H129.594V123.856H135.606V127.924H129.594V135.268C129.594 137.464 130.782 138.112 132.546 138.112C133.59 138.112 134.562 137.86 135.39 137.5H135.606V141.604C134.598 142.072 133.122 142.36 131.538 142.36ZM146.83 142V127.924H143.986V123.856H146.83V123.028C146.83 118.312 149.566 115.864 153.562 115.864C154.606 115.864 155.722 115.972 156.55 116.26V120.472H156.334C155.83 120.292 155.146 120.184 154.534 120.184C152.626 120.184 151.87 120.976 151.87 122.92V123.856H156.442V127.924H151.87V142H146.83ZM166.765 142.504C160.969 142.504 157.873 138.868 157.873 132.856C157.873 127.096 161.257 123.352 166.909 123.352C172.705 123.352 175.801 126.952 175.801 132.856C175.801 138.796 172.489 142.504 166.765 142.504ZM166.837 138.256C169.501 138.256 170.725 136.096 170.725 132.856C170.725 129.688 169.501 127.6 166.837 127.6C164.173 127.6 162.949 129.688 162.949 132.856C162.949 136.096 164.173 138.256 166.837 138.256ZM179.337 142V132.028C179.337 129.364 179.085 126.016 178.761 123.856H183.801C183.909 124.54 184.017 125.296 184.125 126.664H184.377C185.169 124.576 186.681 123.568 188.985 123.568C189.597 123.568 190.281 123.64 190.713 123.748V128.608H190.461C189.849 128.5 189.057 128.428 188.337 128.428C185.817 128.428 184.377 129.94 184.377 132.82V142H179.337ZM207.987 142.36C203.487 142.36 201.003 140.164 201.003 135.592V127.924H198.159V123.856H201.003V119.464H206.043V123.856H212.055V127.924H206.043V135.268C206.043 137.464 207.231 138.112 208.995 138.112C210.039 138.112 211.011 137.86 211.839 137.5H212.055V141.604C211.047 142.072 209.571 142.36 207.987 142.36ZM215.697 142V116.224H220.737V125.692H220.989C221.997 124.324 223.545 123.568 225.381 123.568C229.197 123.568 231.933 125.656 231.933 131.056V142H226.893V131.848C226.893 129.256 226.065 127.996 224.121 127.996C222.177 127.996 220.737 129.4 220.737 132.172V142H215.697ZM245.18 142.36C238.988 142.36 235.28 139.084 235.28 133C235.28 127.42 238.34 123.496 243.704 123.496C248.996 123.496 251.48 126.412 251.48 131.596C251.48 133 251.372 134.224 251.264 134.764H240.32C240.68 137.212 242.732 138.256 245.612 138.256C247.124 138.256 248.564 138.04 250.4 137.248H250.616V141.316C249.248 141.964 247.304 142.36 245.18 142.36ZM243.668 127.6C241.796 127.6 240.536 129.112 240.284 131.38H246.584C246.584 131.2 246.584 131.02 246.584 130.84C246.584 128.644 245.36 127.6 243.668 127.6ZM272.216 142.36C264.8 142.36 260.48 138.004 260.48 130.516C260.48 123.1 265.016 118.384 272.216 118.384C274.376 118.384 276.716 118.78 278.12 119.536V124.288H277.904C276.356 123.46 274.664 123.028 272.54 123.028C268.328 123.028 265.808 125.836 265.808 130.372C265.808 134.98 268.328 137.752 272.54 137.752C274.628 137.752 276.356 137.32 277.904 136.492H278.12V141.208C276.716 141.964 274.376 142.36 272.216 142.36ZM284.875 115.36C286.675 115.36 287.971 116.512 287.971 118.348C287.971 120.076 286.675 121.264 284.875 121.264C283.039 121.264 281.815 120.076 281.815 118.348C281.815 116.512 283.039 115.36 284.875 115.36ZM282.355 142V123.856H287.395V142H282.355ZM299.659 142.36C295.159 142.36 292.675 140.164 292.675 135.592V127.924H289.831V123.856H292.675V119.464H297.715V123.856H303.727V127.924H297.715V135.268C297.715 137.464 298.903 138.112 300.667 138.112C301.711 138.112 302.683 137.86 303.511 137.5H303.727V141.604C302.719 142.072 301.243 142.36 299.659 142.36ZM310.281 149.632L312.801 143.008L305.565 123.856H311.037L315.825 137.248H316.077L317.085 132.712L320.109 123.856H325.293L315.609 149.632H310.281Z" fill="white"/>
<path d="M59.2052 192L55.0772 176.496H58.0052L61.2212 189.408H61.3412L61.8932 185.88L64.1732 176.736H67.9652L71.0852 189.408H71.2052L71.8772 185.88L74.2052 176.496H76.8932L72.7892 192H69.0932L66.0212 179.616H65.9252L62.9012 192H59.2052ZM83.9126 192.24C80.0006 192.24 77.7206 190.104 77.7206 186.12C77.7206 182.376 79.7126 179.832 83.0726 179.832C86.3606 179.832 88.0166 181.728 88.0166 185.088C88.0166 185.856 87.9446 186.576 87.8966 186.96H80.3606C80.5286 189.048 81.9446 190.056 84.1046 190.056C85.1366 190.056 86.1446 189.864 87.3926 189.24H87.4886V191.472C86.6006 191.952 85.3286 192.24 83.9126 192.24ZM83.0486 182.016C81.5846 182.016 80.5766 183.216 80.3846 185.088H85.4246C85.4246 184.968 85.4246 184.872 85.4246 184.752C85.4246 182.928 84.5126 182.016 83.0486 182.016ZM99.6083 192.216C96.6323 192.216 94.7363 190.056 94.7363 186.264C94.7363 182.304 96.8483 179.88 100.424 179.88C101.144 179.88 101.744 179.904 102.656 180.12V174.984H105.296V186.84C105.296 188.544 105.464 190.584 105.68 192H103.04C102.944 191.472 102.872 190.944 102.824 190.32H102.704C102.08 191.496 101.024 192.216 99.6083 192.216ZM100.04 189.96C101.6 189.96 102.656 188.784 102.656 186.816V182.448C101.96 182.184 101.288 182.112 100.616 182.112C98.4563 182.112 97.4003 183.672 97.4003 186.24C97.4003 188.664 98.3363 189.96 100.04 189.96ZM114.499 192.24C110.587 192.24 108.307 190.104 108.307 186.12C108.307 182.376 110.299 179.832 113.659 179.832C116.947 179.832 118.603 181.728 118.603 185.088C118.603 185.856 118.531 186.576 118.483 186.96H110.947C111.115 189.048 112.531 190.056 114.691 190.056C115.723 190.056 116.731 189.864 117.979 189.24H118.075V191.472C117.187 191.952 115.915 192.24 114.499 192.24ZM113.635 182.016C112.171 182.016 111.163 183.216 110.971 185.088H116.011C116.011 184.968 116.011 184.872 116.011 184.752C116.011 182.928 115.099 182.016 113.635 182.016ZM125.789 192.24C123.965 192.24 122.045 191.784 121.157 191.208V188.88H121.253C122.261 189.528 124.229 190.008 125.741 190.008C127.277 190.008 127.997 189.456 127.997 188.664C127.997 187.848 127.421 187.536 125.141 187.032C122.381 186.408 121.181 185.496 121.181 183.432C121.181 181.272 122.933 179.832 125.909 179.832C127.589 179.832 129.197 180.192 130.061 180.672V183.048H129.941C128.957 182.448 127.325 182.064 125.933 182.064C124.541 182.064 123.797 182.616 123.797 183.36C123.797 184.104 124.373 184.416 126.605 184.92C129.485 185.568 130.637 186.552 130.637 188.592C130.637 190.848 129.005 192.24 125.789 192.24ZM134.911 174.84C135.919 174.84 136.639 175.488 136.639 176.496C136.639 177.456 135.919 178.128 134.911 178.128C133.879 178.128 133.207 177.456 133.207 176.496C133.207 175.488 133.903 174.84 134.911 174.84ZM133.591 192V180.072H136.231V192H133.591ZM144.142 197.328C142.438 197.328 140.83 196.92 139.822 196.464V194.136H139.942C141.046 194.688 142.654 195.096 143.95 195.096C146.062 195.096 147.094 194.208 147.094 191.592V190.392H146.974C146.422 191.544 145.438 192.216 144.046 192.216C141.07 192.216 139.174 190.056 139.174 186.264C139.174 182.304 141.358 179.88 144.862 179.88C145.582 179.88 146.182 179.904 147.118 180.072H149.734V191.496C149.734 195.192 148.27 197.328 144.142 197.328ZM144.478 189.96C146.038 189.96 147.094 188.784 147.094 186.816V182.376C146.398 182.184 145.678 182.112 145.054 182.112C142.966 182.112 141.838 183.552 141.838 186.24C141.838 188.664 142.774 189.96 144.478 189.96ZM153.537 192V185.256C153.537 183.552 153.369 181.488 153.153 180.072H155.793C155.913 180.624 155.961 181.104 156.009 181.752H156.153C156.801 180.552 157.977 179.88 159.465 179.88C161.961 179.88 163.761 181.248 163.761 184.728V192H161.097V185.136C161.097 183.144 160.377 182.184 158.841 182.184C157.305 182.184 156.177 183.36 156.177 185.304V192H153.537ZM172.633 192V182.256H170.665V180.072H172.633V179.328C172.633 176.28 174.361 174.744 176.905 174.744C177.649 174.744 178.393 174.864 178.921 175.08V177.336H178.825C178.393 177.144 177.841 177.024 177.289 177.024C175.969 177.024 175.273 177.648 175.273 179.28V180.072H178.849V182.256H175.273V192H172.633ZM185.807 192.312C182.087 192.312 180.143 189.912 180.143 186C180.143 182.184 182.279 179.76 185.855 179.76C189.551 179.76 191.519 182.136 191.519 186C191.519 189.912 189.407 192.312 185.807 192.312ZM185.831 190.08C187.871 190.08 188.831 188.472 188.831 186C188.831 183.6 187.871 182.016 185.831 182.016C183.767 182.016 182.807 183.576 182.807 186C182.807 188.472 183.791 190.08 185.831 190.08ZM194.529 192V185.256C194.529 183.552 194.361 181.488 194.145 180.072H196.785C196.881 180.6 196.953 181.176 197.025 182.016H197.145C197.721 180.6 198.777 179.88 200.385 179.88C200.889 179.88 201.441 179.952 201.801 180.096V182.64H201.681C201.225 182.472 200.625 182.4 200.073 182.4C198.225 182.4 197.169 183.6 197.169 185.592V192H194.529ZM208.85 192V185.256C208.85 183.552 208.682 181.488 208.466 180.072H211.106C211.202 180.6 211.274 181.176 211.346 182.016H211.466C212.042 180.6 213.098 179.88 214.706 179.88C215.21 179.88 215.762 179.952 216.122 180.096V182.64H216.002C215.546 182.472 214.946 182.4 214.394 182.4C212.546 182.4 211.49 183.6 211.49 185.592V192H208.85ZM223.811 192.24C219.899 192.24 217.619 190.104 217.619 186.12C217.619 182.376 219.611 179.832 222.971 179.832C226.259 179.832 227.915 181.728 227.915 185.088C227.915 185.856 227.843 186.576 227.795 186.96H220.259C220.427 189.048 221.843 190.056 224.003 190.056C225.035 190.056 226.043 189.864 227.291 189.24H227.387V191.472C226.499 191.952 225.227 192.24 223.811 192.24ZM222.947 182.016C221.483 182.016 220.475 183.216 220.283 185.088H225.323C225.323 184.968 225.323 184.872 225.323 184.752C225.323 182.928 224.411 182.016 222.947 182.016ZM234.526 192.216C231.886 192.216 230.278 190.8 230.278 188.448C230.278 186.024 232.126 184.584 235.198 184.584C236.23 184.584 237.286 184.728 238.15 184.92C238.15 184.776 238.15 184.656 238.15 184.536C238.15 182.808 237.238 182.136 235.078 182.136C233.806 182.136 232.318 182.424 231.286 182.832H231.166V180.504C232.102 180.144 233.662 179.88 235.126 179.88C239.014 179.88 240.742 181.128 240.742 184.44C240.742 185.472 240.67 186.528 240.67 187.44C240.67 189.096 240.886 191.16 241.03 192H238.414C238.294 191.448 238.222 190.944 238.174 190.248H238.054C237.334 191.544 236.062 192.216 234.526 192.216ZM232.846 188.376C232.846 189.456 233.614 190.128 235.006 190.128C236.83 190.128 238.102 189.072 238.102 187.176C238.102 187.08 238.102 186.96 238.102 186.888C237.286 186.672 236.374 186.528 235.438 186.528C233.734 186.528 232.846 187.152 232.846 188.376ZM247.043 192H244.403V174.984H247.043V192ZM255.208 192V174.984H257.848V181.536H257.968C258.64 180.48 259.768 179.88 261.136 179.88C263.632 179.88 265.432 181.248 265.432 184.728V192H262.768V185.136C262.768 183.144 262.048 182.184 260.512 182.184C258.976 182.184 257.848 183.36 257.848 185.304V192H255.208ZM273.283 192.216C270.787 192.216 268.987 190.824 268.987 187.344V180.072H271.651V186.96C271.651 188.928 272.371 189.888 273.907 189.888C275.443 189.888 276.571 188.712 276.571 186.768V180.072H279.211V186.84C279.211 188.544 279.379 190.584 279.595 192H276.955C276.835 191.472 276.787 190.992 276.739 190.32H276.595C275.947 191.52 274.771 192.216 273.283 192.216ZM283.053 192V185.256C283.053 183.552 282.885 181.488 282.669 180.072H285.309C285.429 180.624 285.477 181.104 285.525 181.752H285.669C286.317 180.552 287.493 179.88 288.981 179.88C290.613 179.88 291.957 180.48 292.701 181.944H292.797C293.589 180.528 294.885 179.88 296.397 179.88C298.893 179.88 300.693 181.248 300.693 184.728V192H298.029V185.136C298.029 183.144 297.309 182.184 295.773 182.184C294.333 182.184 293.277 183.36 293.277 185.304V192H290.613V185.136C290.613 183.144 289.893 182.184 288.357 182.184C286.821 182.184 285.693 183.36 285.693 185.304V192H283.053ZM307.956 192.216C305.316 192.216 303.708 190.8 303.708 188.448C303.708 186.024 305.556 184.584 308.628 184.584C309.66 184.584 310.716 184.728 311.58 184.92C311.58 184.776 311.58 184.656 311.58 184.536C311.58 182.808 310.668 182.136 308.508 182.136C307.236 182.136 305.748 182.424 304.716 182.832H304.596V180.504C305.532 180.144 307.092 179.88 308.556 179.88C312.444 179.88 314.172 181.128 314.172 184.44C314.172 185.472 314.1 186.528 314.1 187.44C314.1 189.096 314.316 191.16 314.46 192H311.844C311.724 191.448 311.652 190.944 311.604 190.248H311.484C310.764 191.544 309.492 192.216 307.956 192.216ZM306.276 188.376C306.276 189.456 307.044 190.128 308.436 190.128C310.26 190.128 311.532 189.072 311.532 187.176C311.532 187.08 311.532 186.96 311.532 186.888C310.716 186.672 309.804 186.528 308.868 186.528C307.164 186.528 306.276 187.152 306.276 188.376ZM317.881 192V185.256C317.881 183.552 317.713 181.488 317.497 180.072H320.137C320.257 180.624 320.305 181.104 320.353 181.752H320.497C321.145 180.552 322.321 179.88 323.809 179.88C326.305 179.88 328.105 181.248 328.105 184.728V192H325.441V185.136C325.441 183.144 324.721 182.184 323.185 182.184C321.649 182.184 320.521 183.36 320.521 185.304V192H317.881ZM48.8205 221.168C45.0525 221.168 42.8925 218.912 42.8925 215.12C42.8925 211.328 45.2445 208.904 48.8925 208.904C50.0445 208.904 51.0285 209.072 51.6765 209.312V211.616H51.5805C50.9325 211.352 50.1405 211.184 49.1565 211.184C46.8525 211.184 45.5565 212.696 45.5565 215.048C45.5565 217.472 46.8285 218.936 49.1565 218.936C50.1165 218.936 50.9085 218.72 51.5805 218.408H51.6765V220.664C50.9805 221 49.9485 221.168 48.8205 221.168ZM59.4549 221.312C55.7349 221.312 53.7909 218.912 53.7909 215C53.7909 211.184 55.9269 208.76 59.5029 208.76C63.1989 208.76 65.1669 211.136 65.1669 215C65.1669 218.912 63.0549 221.312 59.4549 221.312ZM59.4789 219.08C61.5189 219.08 62.4789 217.472 62.4789 215C62.4789 212.6 61.5189 211.016 59.4789 211.016C57.4149 211.016 56.4549 212.576 56.4549 215C56.4549 217.472 57.4389 219.08 59.4789 219.08ZM68.1778 221V214.256C68.1778 212.552 68.0098 210.488 67.7938 209.072H70.4338C70.5538 209.624 70.6018 210.104 70.6498 210.752H70.7938C71.4418 209.552 72.6178 208.88 74.1058 208.88C76.6018 208.88 78.4018 210.248 78.4018 213.728V221H75.7378V214.136C75.7378 212.144 75.0178 211.184 73.4818 211.184C71.9458 211.184 70.8178 212.36 70.8178 214.304V221H68.1778ZM82.0997 221V214.256C82.0997 212.552 81.9317 210.488 81.7157 209.072H84.3557C84.4757 209.624 84.5237 210.104 84.5717 210.752H84.7157C85.3637 209.552 86.5397 208.88 88.0277 208.88C90.5237 208.88 92.3237 210.248 92.3237 213.728V221H89.6597V214.136C89.6597 212.144 88.9397 211.184 87.4037 211.184C85.8677 211.184 84.7397 212.36 84.7397 214.304V221H82.0997ZM101.374 221.24C97.4616 221.24 95.1816 219.104 95.1816 215.12C95.1816 211.376 97.1736 208.832 100.534 208.832C103.822 208.832 105.478 210.728 105.478 214.088C105.478 214.856 105.406 215.576 105.358 215.96H97.8216C97.9896 218.048 99.4056 219.056 101.566 219.056C102.598 219.056 103.606 218.864 104.854 218.24H104.95V220.472C104.062 220.952 102.79 221.24 101.374 221.24ZM100.51 211.016C99.0456 211.016 98.0376 212.216 97.8456 214.088H102.886C102.886 213.968 102.886 213.872 102.886 213.752C102.886 211.928 101.974 211.016 100.51 211.016ZM113.649 221.168C109.881 221.168 107.721 218.912 107.721 215.12C107.721 211.328 110.073 208.904 113.721 208.904C114.873 208.904 115.857 209.072 116.505 209.312V211.616H116.409C115.761 211.352 114.969 211.184 113.985 211.184C111.681 211.184 110.385 212.696 110.385 215.048C110.385 217.472 111.657 218.936 113.985 218.936C114.945 218.936 115.737 218.72 116.409 218.408H116.505V220.664C115.809 221 114.777 221.168 113.649 221.168ZM124.757 221.24C121.925 221.24 120.365 219.848 120.365 216.944V211.256H118.397V209.072H120.365V206.144H123.005V209.072H127.445V211.256H123.005V216.728C123.005 218.36 123.797 219.008 125.237 219.008C126.029 219.008 126.749 218.744 127.373 218.408H127.469V220.64C126.773 221.024 125.789 221.24 124.757 221.24ZM131.84 203.84C132.848 203.84 133.568 204.488 133.568 205.496C133.568 206.456 132.848 207.128 131.84 207.128C130.808 207.128 130.136 206.456 130.136 205.496C130.136 204.488 130.832 203.84 131.84 203.84ZM130.52 221V209.072H133.16V221H130.52ZM141.767 221.312C138.047 221.312 136.103 218.912 136.103 215C136.103 211.184 138.239 208.76 141.815 208.76C145.511 208.76 147.479 211.136 147.479 215C147.479 218.912 145.367 221.312 141.767 221.312ZM141.791 219.08C143.831 219.08 144.791 217.472 144.791 215C144.791 212.6 143.831 211.016 141.791 211.016C139.727 211.016 138.767 212.576 138.767 215C138.767 217.472 139.751 219.08 141.791 219.08ZM150.49 221V214.256C150.49 212.552 150.322 210.488 150.106 209.072H152.746C152.866 209.624 152.914 210.104 152.962 210.752H153.106C153.754 209.552 154.93 208.88 156.418 208.88C158.914 208.88 160.714 210.248 160.714 213.728V221H158.05V214.136C158.05 212.144 157.33 211.184 155.794 211.184C154.258 211.184 153.13 212.36 153.13 214.304V221H150.49ZM172.37 221.216C169.73 221.216 168.122 219.8 168.122 217.448C168.122 215.024 169.97 213.584 173.042 213.584C174.074 213.584 175.13 213.728 175.994 213.92C175.994 213.776 175.994 213.656 175.994 213.536C175.994 211.808 175.082 211.136 172.922 211.136C171.65 211.136 170.162 211.424 169.13 211.832H169.01V209.504C169.946 209.144 171.506 208.88 172.97 208.88C176.858 208.88 178.586 210.128 178.586 213.44C178.586 214.472 178.514 215.528 178.514 216.44C178.514 218.096 178.73 220.16 178.874 221H176.258C176.138 220.448 176.066 219.944 176.018 219.248H175.898C175.178 220.544 173.906 221.216 172.37 221.216ZM170.69 217.376C170.69 218.456 171.458 219.128 172.85 219.128C174.674 219.128 175.946 218.072 175.946 216.176C175.946 216.08 175.946 215.96 175.946 215.888C175.13 215.672 174.218 215.528 173.282 215.528C171.578 215.528 170.69 216.152 170.69 217.376ZM182.295 221V214.256C182.295 212.552 182.127 210.488 181.911 209.072H184.551C184.671 209.624 184.719 210.104 184.767 210.752H184.911C185.559 209.552 186.735 208.88 188.223 208.88C190.719 208.88 192.519 210.248 192.519 213.728V221H189.855V214.136C189.855 212.144 189.135 211.184 187.599 211.184C186.063 211.184 184.935 212.36 184.935 214.304V221H182.295ZM200.249 221.216C197.273 221.216 195.377 219.056 195.377 215.264C195.377 211.304 197.489 208.88 201.065 208.88C201.785 208.88 202.385 208.904 203.297 209.12V203.984H205.937V215.84C205.937 217.544 206.105 219.584 206.321 221H203.681C203.585 220.472 203.513 219.944 203.465 219.32H203.345C202.721 220.496 201.665 221.216 200.249 221.216ZM200.681 218.96C202.241 218.96 203.297 217.784 203.297 215.816V211.448C202.601 211.184 201.929 211.112 201.257 211.112C199.097 211.112 198.041 212.672 198.041 215.24C198.041 217.664 198.977 218.96 200.681 218.96ZM218.273 221.24C216.449 221.24 214.529 220.784 213.641 220.208V217.88H213.737C214.745 218.528 216.713 219.008 218.225 219.008C219.761 219.008 220.481 218.456 220.481 217.664C220.481 216.848 219.905 216.536 217.625 216.032C214.865 215.408 213.665 214.496 213.665 212.432C213.665 210.272 215.417 208.832 218.393 208.832C220.073 208.832 221.681 209.192 222.545 209.672V212.048H222.425C221.441 211.448 219.809 211.064 218.417 211.064C217.025 211.064 216.281 211.616 216.281 212.36C216.281 213.104 216.857 213.416 219.089 213.92C221.969 214.568 223.121 215.552 223.121 217.592C223.121 219.848 221.489 221.24 218.273 221.24ZM231.545 221.24C227.633 221.24 225.353 219.104 225.353 215.12C225.353 211.376 227.345 208.832 230.705 208.832C233.993 208.832 235.649 210.728 235.649 214.088C235.649 214.856 235.577 215.576 235.529 215.96H227.993C228.161 218.048 229.577 219.056 231.737 219.056C232.769 219.056 233.777 218.864 235.025 218.24H235.121V220.472C234.233 220.952 232.961 221.24 231.545 221.24ZM230.681 211.016C229.217 211.016 228.209 212.216 228.017 214.088H233.057C233.057 213.968 233.057 213.872 233.057 213.752C233.057 211.928 232.145 211.016 230.681 211.016ZM238.779 221V214.256C238.779 212.552 238.611 210.488 238.395 209.072H241.035C241.131 209.6 241.203 210.176 241.275 211.016H241.395C241.971 209.6 243.027 208.88 244.635 208.88C245.139 208.88 245.691 208.952 246.051 209.096V211.64H245.931C245.475 211.472 244.875 211.4 244.323 211.4C242.475 211.4 241.419 212.6 241.419 214.592V221H238.779ZM253.741 221.24C249.829 221.24 247.549 219.104 247.549 215.12C247.549 211.376 249.541 208.832 252.901 208.832C256.189 208.832 257.845 210.728 257.845 214.088C257.845 214.856 257.773 215.576 257.725 215.96H250.189C250.357 218.048 251.773 219.056 253.933 219.056C254.965 219.056 255.973 218.864 257.221 218.24H257.317V220.472C256.429 220.952 255.157 221.24 253.741 221.24ZM252.877 211.016C251.413 211.016 250.405 212.216 250.213 214.088H255.253C255.253 213.968 255.253 213.872 255.253 213.752C255.253 211.928 254.341 211.016 252.877 211.016ZM260.975 221V214.256C260.975 212.552 260.807 210.488 260.591 209.072H263.231C263.351 209.624 263.399 210.104 263.447 210.752H263.591C264.239 209.552 265.415 208.88 266.903 208.88C269.399 208.88 271.199 210.248 271.199 213.728V221H268.535V214.136C268.535 212.144 267.815 211.184 266.279 211.184C264.743 211.184 263.615 212.36 263.615 214.304V221H260.975ZM278.929 221.216C275.953 221.216 274.057 219.056 274.057 215.264C274.057 211.304 276.169 208.88 279.745 208.88C280.465 208.88 281.065 208.904 281.977 209.12V203.984H284.617V215.84C284.617 217.544 284.785 219.584 285.001 221H282.361C282.265 220.472 282.193 219.944 282.145 219.32H282.025C281.401 220.496 280.345 221.216 278.929 221.216ZM279.361 218.96C280.921 218.96 281.977 217.784 281.977 215.816V211.448C281.281 211.184 280.609 211.112 279.937 211.112C277.777 211.112 276.721 212.672 276.721 215.24C276.721 217.664 277.657 218.96 279.361 218.96ZM289.739 203.84C290.747 203.84 291.467 204.488 291.467 205.496C291.467 206.456 290.747 207.128 289.739 207.128C288.707 207.128 288.035 206.456 288.035 205.496C288.035 204.488 288.731 203.84 289.739 203.84ZM288.419 221V209.072H291.059V221H288.419ZM294.842 226.088V214.256C294.842 212.552 294.674 210.488 294.458 209.072H297.098C297.218 209.624 297.266 210.128 297.314 210.752H297.458C298.058 209.576 299.114 208.88 300.53 208.88C303.53 208.88 305.402 211.04 305.402 214.808C305.402 218.768 303.314 221.216 299.738 221.216C298.994 221.216 298.394 221.168 297.482 220.952V226.088H294.842ZM297.482 214.28V218.624C298.178 218.888 298.85 218.96 299.522 218.96C301.682 218.96 302.738 217.424 302.738 214.832C302.738 212.408 301.802 211.112 300.098 211.112C298.538 211.112 297.482 212.288 297.482 214.28ZM309.684 203.84C310.692 203.84 311.412 204.488 311.412 205.496C311.412 206.456 310.692 207.128 309.684 207.128C308.652 207.128 307.98 206.456 307.98 205.496C307.98 204.488 308.676 203.84 309.684 203.84ZM308.364 221V209.072H311.004V221H308.364ZM319.616 221.24C316.784 221.24 315.224 219.848 315.224 216.944V211.256H313.256V209.072H315.224V206.144H317.864V209.072H322.304V211.256H317.864V216.728C317.864 218.36 318.656 219.008 320.096 219.008C320.888 219.008 321.608 218.744 322.232 218.408H322.328V220.64C321.632 221.024 320.648 221.24 319.616 221.24ZM327.08 226.088L328.928 221.36L324.104 209.072H327.008L330.56 218.336H330.68L331.472 215.36L333.752 209.072H336.488L329.912 226.088H327.08ZM340.123 217.664C340.219 218.168 340.243 218.84 340.243 219.32C340.243 220.76 339.619 222.608 338.491 224.552H336.691L337.555 220.832V217.664H340.123ZM82.6153 250V243.256C82.6153 241.552 82.4473 239.488 82.2313 238.072H84.8713C84.9913 238.624 85.0393 239.104 85.0873 239.752H85.2313C85.8793 238.552 87.0553 237.88 88.5433 237.88C91.0393 237.88 92.8393 239.248 92.8393 242.728V250H90.1753V243.136C90.1753 241.144 89.4553 240.184 87.9193 240.184C86.3833 240.184 85.2553 241.36 85.2553 243.304V250H82.6153ZM101.361 250.312C97.6412 250.312 95.6972 247.912 95.6972 244C95.6972 240.184 97.8332 237.76 101.409 237.76C105.105 237.76 107.073 240.136 107.073 244C107.073 247.912 104.961 250.312 101.361 250.312ZM101.385 248.08C103.425 248.08 104.385 246.472 104.385 244C104.385 241.6 103.425 240.016 101.385 240.016C99.3212 240.016 98.3612 241.576 98.3612 244C98.3612 246.472 99.3452 248.08 101.385 248.08ZM114.937 250.24C112.105 250.24 110.545 248.848 110.545 245.944V240.256H108.577V238.072H110.545V235.144H113.185V238.072H117.625V240.256H113.185V245.728C113.185 247.36 113.977 248.008 115.417 248.008C116.209 248.008 116.929 247.744 117.553 247.408H117.649V249.64C116.953 250.024 115.969 250.24 114.937 250.24ZM130.6 250.24C126.688 250.24 124.408 248.104 124.408 244.12C124.408 240.376 126.4 237.832 129.76 237.832C133.048 237.832 134.704 239.728 134.704 243.088C134.704 243.856 134.632 244.576 134.584 244.96H127.048C127.216 247.048 128.632 248.056 130.792 248.056C131.824 248.056 132.832 247.864 134.08 247.24H134.176V249.472C133.288 249.952 132.016 250.24 130.6 250.24ZM129.736 240.016C128.272 240.016 127.264 241.216 127.072 243.088H132.112C132.112 242.968 132.112 242.872 132.112 242.752C132.112 240.928 131.2 240.016 129.736 240.016ZM137.834 250V243.256C137.834 241.552 137.666 239.488 137.45 238.072H140.09C140.21 238.624 140.258 239.104 140.306 239.752H140.45C141.098 238.552 142.274 237.88 143.762 237.88C146.258 237.88 148.058 239.248 148.058 242.728V250H145.394V243.136C145.394 241.144 144.674 240.184 143.138 240.184C141.602 240.184 140.474 241.36 140.474 243.304V250H137.834ZM155.788 250.216C152.812 250.216 150.916 248.056 150.916 244.264C150.916 240.304 153.028 237.88 156.604 237.88C157.324 237.88 157.924 237.904 158.836 238.12V232.984H161.476V244.84C161.476 246.544 161.644 248.584 161.86 250H159.22C159.124 249.472 159.052 248.944 159.004 248.32H158.884C158.26 249.496 157.204 250.216 155.788 250.216ZM156.22 247.96C157.78 247.96 158.836 246.784 158.836 244.816V240.448C158.14 240.184 157.468 240.112 156.796 240.112C154.636 240.112 153.58 241.672 153.58 244.24C153.58 246.664 154.516 247.96 156.22 247.96ZM167.918 250H165.278V232.984H167.918V250ZM177.053 250.24C173.141 250.24 170.861 248.104 170.861 244.12C170.861 240.376 172.853 237.832 176.213 237.832C179.501 237.832 181.157 239.728 181.157 243.088C181.157 243.856 181.085 244.576 181.037 244.96H173.501C173.669 247.048 175.085 248.056 177.245 248.056C178.277 248.056 179.285 247.864 180.533 247.24H180.629V249.472C179.741 249.952 178.469 250.24 177.053 250.24ZM176.189 240.016C174.725 240.016 173.717 241.216 173.525 243.088H178.565C178.565 242.968 178.565 242.872 178.565 242.752C178.565 240.928 177.653 240.016 176.189 240.016ZM188.343 250.24C186.519 250.24 184.599 249.784 183.711 249.208V246.88H183.807C184.815 247.528 186.783 248.008 188.295 248.008C189.831 248.008 190.551 247.456 190.551 246.664C190.551 245.848 189.975 245.536 187.695 245.032C184.935 244.408 183.735 243.496 183.735 241.432C183.735 239.272 185.487 237.832 188.463 237.832C190.143 237.832 191.751 238.192 192.615 238.672V241.048H192.495C191.511 240.448 189.879 240.064 188.487 240.064C187.095 240.064 186.351 240.616 186.351 241.36C186.351 242.104 186.927 242.416 189.159 242.92C192.039 243.568 193.191 244.552 193.191 246.592C193.191 248.848 191.559 250.24 188.343 250.24ZM200.085 250.24C198.261 250.24 196.341 249.784 195.453 249.208V246.88H195.549C196.557 247.528 198.525 248.008 200.037 248.008C201.573 248.008 202.293 247.456 202.293 246.664C202.293 245.848 201.717 245.536 199.437 245.032C196.677 244.408 195.477 243.496 195.477 241.432C195.477 239.272 197.229 237.832 200.205 237.832C201.885 237.832 203.493 238.192 204.357 238.672V241.048H204.237C203.253 240.448 201.621 240.064 200.229 240.064C198.837 240.064 198.093 240.616 198.093 241.36C198.093 242.104 198.669 242.416 200.901 242.92C203.781 243.568 204.933 244.552 204.933 246.592C204.933 248.848 203.301 250.24 200.085 250.24ZM216.421 250.24C214.597 250.24 212.677 249.784 211.789 249.208V246.88H211.885C212.893 247.528 214.861 248.008 216.373 248.008C217.909 248.008 218.629 247.456 218.629 246.664C218.629 245.848 218.053 245.536 215.773 245.032C213.013 244.408 211.813 243.496 211.813 241.432C211.813 239.272 213.565 237.832 216.541 237.832C218.221 237.832 219.829 238.192 220.693 238.672V241.048H220.573C219.589 240.448 217.957 240.064 216.565 240.064C215.173 240.064 214.429 240.616 214.429 241.36C214.429 242.104 215.005 242.416 217.237 242.92C220.117 243.568 221.269 244.552 221.269 246.592C221.269 248.848 219.637 250.24 216.421 250.24ZM229.43 250.168C225.662 250.168 223.502 247.912 223.502 244.12C223.502 240.328 225.854 237.904 229.502 237.904C230.654 237.904 231.638 238.072 232.286 238.312V240.616H232.19C231.542 240.352 230.75 240.184 229.766 240.184C227.462 240.184 226.166 241.696 226.166 244.048C226.166 246.472 227.438 247.936 229.766 247.936C230.726 247.936 231.518 247.72 232.19 247.408H232.286V249.664C231.59 250 230.558 250.168 229.43 250.168ZM235.498 250V243.256C235.498 241.552 235.33 239.488 235.114 238.072H237.754C237.85 238.6 237.922 239.176 237.994 240.016H238.114C238.69 238.6 239.746 237.88 241.354 237.88C241.858 237.88 242.41 237.952 242.77 238.096V240.64H242.65C242.194 240.472 241.594 240.4 241.042 240.4C239.194 240.4 238.138 241.6 238.138 243.592V250H235.498ZM249.932 250.312C246.212 250.312 244.268 247.912 244.268 244C244.268 240.184 246.404 237.76 249.98 237.76C253.676 237.76 255.644 240.136 255.644 244C255.644 247.912 253.532 250.312 249.932 250.312ZM249.956 248.08C251.996 248.08 252.956 246.472 252.956 244C252.956 241.6 251.996 240.016 249.956 240.016C247.892 240.016 246.932 241.576 246.932 244C246.932 246.472 247.916 248.08 249.956 248.08ZM261.246 250H258.606V232.984H261.246V250ZM267.621 250H264.981V232.984H267.621V250ZM272.676 232.84C273.684 232.84 274.404 233.488 274.404 234.496C274.404 235.456 273.684 236.128 272.676 236.128C271.644 236.128 270.972 235.456 270.972 234.496C270.972 233.488 271.668 232.84 272.676 232.84ZM271.356 250V238.072H273.996V250H271.356ZM277.779 250V243.256C277.779 241.552 277.611 239.488 277.395 238.072H280.035C280.155 238.624 280.203 239.104 280.251 239.752H280.395C281.043 238.552 282.219 237.88 283.707 237.88C286.203 237.88 288.003 239.248 288.003 242.728V250H285.339V243.136C285.339 241.144 284.619 240.184 283.083 240.184C281.547 240.184 280.419 241.36 280.419 243.304V250H277.779ZM295.829 255.328C294.125 255.328 292.517 254.92 291.509 254.464V252.136H291.629C292.733 252.688 294.341 253.096 295.637 253.096C297.749 253.096 298.781 252.208 298.781 249.592V248.392H298.661C298.109 249.544 297.125 250.216 295.733 250.216C292.757 250.216 290.861 248.056 290.861 244.264C290.861 240.304 293.045 237.88 296.549 237.88C297.269 237.88 297.869 237.904 298.805 238.072H301.421V249.496C301.421 253.192 299.957 255.328 295.829 255.328ZM296.165 247.96C297.725 247.96 298.781 246.784 298.781 244.816V240.376C298.085 240.184 297.365 240.112 296.741 240.112C294.653 240.112 293.525 241.552 293.525 244.24C293.525 246.664 294.461 247.96 296.165 247.96Z" fill="white"/>
</svg>
