<svg width="124" height="135" viewBox="0 0 124 135" fill="none" xmlns="http://www.w3.org/2000/svg">
<path d="M42.086 93.0061C42.086 93.0061 42.0637 100.536 43.1585 101.873C44.2916 103.255 47.9836 104.9 49.75 104.63C53.4038 104.066 66.0554 98.751 67.9968 95.5809C68.6525 94.5147 67.494 90.775 66.4882 89.8742C64.0088 87.6495 53.5407 88.6934 53.5407 88.6934" fill="white"/>
<path d="M41.3584 93.6456C41.438 94.8296 41.5176 96.0072 41.6162 97.188C41.7244 98.3688 41.8263 99.5432 42.0841 100.756C42.1509 101.058 42.2336 101.367 42.3609 101.692C42.3896 101.771 42.4278 101.857 42.4756 101.943C42.5137 102.026 42.5742 102.118 42.6411 102.21C42.7047 102.306 42.7588 102.35 42.8161 102.42C42.8733 102.484 42.9306 102.554 42.9911 102.611C43.4685 103.079 43.9778 103.436 44.5029 103.764C45.5596 104.4 46.6641 104.922 47.8894 105.266C48.5069 105.422 49.1625 105.571 49.9423 105.476C50.5916 105.39 51.1804 105.256 51.7692 105.116C52.9373 104.82 54.0767 104.477 55.2002 104.095C57.4505 103.331 59.6529 102.446 61.8013 101.389C62.823 100.883 63.8255 100.336 64.809 99.731C65.7893 99.1199 66.7537 98.4643 67.6703 97.6336C67.8995 97.4267 68.1255 97.1944 68.3451 96.9525C68.5711 96.6788 68.7684 96.4528 68.988 96.0295C69.0453 95.9022 69.109 95.7558 69.1376 95.6412C69.1631 95.533 69.1853 95.4216 69.2044 95.3102C69.2299 95.1924 69.2235 95.1096 69.233 95.011C69.2362 94.9155 69.2426 94.8169 69.2426 94.7277C69.2298 94.3745 69.1917 94.0466 69.1344 93.7347C69.0166 93.1109 68.8448 92.5316 68.6347 91.9651C68.4183 91.3985 68.1732 90.8511 67.8486 90.3069C67.7722 90.17 67.6703 90.0331 67.5844 89.8995C67.4762 89.7594 67.3838 89.6289 67.2438 89.4857L67.0274 89.2757L66.8046 89.1133C66.655 88.9956 66.5054 88.9319 66.3527 88.846C65.7511 88.5436 65.1591 88.3972 64.5767 88.2795C63.4118 88.0598 62.2723 87.9962 61.1393 87.9707C58.8731 87.9325 56.6389 88.0598 54.4014 88.2221C53.803 88.2667 53.542 88.7123 53.5866 89.1292C53.6279 89.5462 53.9462 89.9313 54.5255 89.8899C56.6993 89.734 58.889 89.6194 61.0374 89.6703C62.1068 89.699 63.1762 89.7721 64.1661 89.9631C64.6562 90.0586 65.1336 90.1923 65.5028 90.3737C65.5824 90.4214 65.6906 90.4628 65.7511 90.5137L65.8593 90.5838C65.8816 90.6092 65.9071 90.6315 65.9325 90.6538C65.958 90.6697 65.9898 90.7142 66.0217 90.7524C66.0535 90.7906 66.0853 90.8257 66.1172 90.8702C66.1776 90.9657 66.2476 91.0516 66.3049 91.1566C66.795 91.9842 67.1802 93.0154 67.3711 93.9925C67.4189 94.2376 67.4444 94.4763 67.4571 94.7054C67.4571 94.8073 67.4571 94.9251 67.4443 95.0078C67.438 95.0492 67.4316 95.0874 67.4252 95.1319C67.4189 95.1669 67.4061 95.1733 67.4029 95.202C67.4125 95.2147 67.3647 95.2752 67.3393 95.3165L67.2533 95.4534L67.0338 95.7335C66.8683 95.9181 66.6932 96.1027 66.4991 96.2777C65.7257 96.9843 64.8186 97.6081 63.8892 98.1874C62.9567 98.7635 61.9891 99.2982 61.0024 99.7947C58.9432 100.829 56.7852 101.701 54.5955 102.455C53.5006 102.831 52.393 103.175 51.2886 103.458C50.7412 103.595 50.181 103.722 49.6686 103.789C49.2803 103.837 48.7711 103.748 48.2682 103.617C47.2529 103.343 46.2312 102.879 45.3082 102.344C44.8499 102.074 44.4139 101.768 44.0829 101.456L43.9778 101.345C43.9428 101.306 43.8982 101.262 43.9014 101.262C43.8951 101.262 43.8759 101.227 43.86 101.192C43.8409 101.166 43.8218 101.112 43.8027 101.071C43.7232 100.883 43.6468 100.638 43.58 100.383C43.3253 99.3523 43.1694 98.2033 43.0102 97.0734C42.8575 95.9276 42.7079 94.785 42.5551 93.6424C42.4501 92.8403 41.3075 92.7735 41.3616 93.6583L41.3584 93.6456Z" fill="#FF7A1C"/>
<path d="M15.0827 87.396C15.0827 87.396 9.18185 92.6157 8.93042 94.4108C8.64397 96.4605 13.0171 100.028 14.8472 100.996C18.4596 102.912 29.176 106.279 31.3753 105.503C32.728 105.025 33.6478 101.543 33.3868 100.133C32.9826 97.9278 26.8749 92.4534 26.8749 92.4534" fill="white"/>
<path d="M14.1577 87.2439C13.3939 88.03 12.6331 88.813 11.8693 89.5959C11.115 90.3853 10.3606 91.1778 9.6477 92.0339C9.29442 92.4668 8.94433 92.9028 8.63561 93.4375C8.59741 93.5012 8.55919 93.5712 8.52418 93.6476C8.48917 93.7208 8.45103 93.7908 8.4192 93.8768C8.35554 94.0263 8.28872 94.2491 8.27918 94.4401C8.24098 94.8316 8.31097 95.1849 8.40646 95.5C8.61015 96.1301 8.92203 96.6394 9.24986 97.1232C9.58405 97.6006 9.94374 98.043 10.3225 98.4631C11.08 99.3034 11.8979 100.067 12.7732 100.78C13.2156 101.137 13.6644 101.477 14.18 101.799C14.7019 102.114 15.1889 102.365 15.695 102.617C17.7033 103.591 19.7466 104.377 21.8473 105.048C23.8492 105.675 25.8799 106.194 28.006 106.503C28.5407 106.576 29.0785 106.64 29.6419 106.665C29.9251 106.678 30.2148 106.681 30.5171 106.665C30.8322 106.643 31.1346 106.627 31.5483 106.5L31.6979 106.452C31.7488 106.43 31.8061 106.401 31.8571 106.375C31.9621 106.321 32.0703 106.264 32.1658 106.204C32.2453 106.14 32.3249 106.076 32.4013 106.009C32.4841 105.943 32.5541 105.876 32.6082 105.809C32.7292 105.672 32.8469 105.535 32.9297 105.398C33.0252 105.261 33.1111 105.125 33.178 104.988C33.4708 104.444 33.6585 103.902 33.8081 103.358C33.9577 102.814 34.0532 102.267 34.1073 101.706C34.1328 101.426 34.1486 101.143 34.1455 100.847C34.1455 100.704 34.1296 100.545 34.12 100.398C34.0978 100.239 34.0818 100.08 34.0309 99.9113C33.9386 99.5612 33.7954 99.3002 33.6522 99.0456C33.509 98.7941 33.3498 98.5682 33.1874 98.3454C32.866 97.9061 32.5223 97.5019 32.1721 97.1073C30.7622 95.5445 29.2536 94.1345 27.7449 92.715C26.927 91.9639 25.8225 93.2147 26.6055 93.9372C28.0759 95.3185 29.5528 96.719 30.8577 98.1862C31.1823 98.5522 31.491 98.9246 31.7616 99.2938C31.8952 99.4784 32.0258 99.6662 32.1276 99.8413C32.2295 100.013 32.3186 100.195 32.3472 100.287C32.3695 100.338 32.3758 100.427 32.3949 100.506C32.3981 100.605 32.4172 100.691 32.414 100.799C32.4172 101.006 32.4077 101.229 32.3886 101.455C32.3441 101.907 32.2613 102.372 32.1404 102.817C32.0194 103.263 31.8635 103.699 31.6661 104.074C31.472 104.444 31.2237 104.752 31.0646 104.784C30.9468 104.835 30.7176 104.861 30.5044 104.876C30.2784 104.886 30.0429 104.886 29.801 104.876C29.3172 104.854 28.8207 104.797 28.3242 104.727C26.3318 104.434 24.3362 103.931 22.382 103.333C20.3482 102.699 18.3303 101.929 16.4206 101.009C15.9496 100.78 15.4722 100.532 15.0488 100.277C14.6319 100.016 14.2118 99.7012 13.8076 99.3798C12.996 98.7273 12.2226 98.0144 11.5288 97.2632C11.1818 96.8877 10.8604 96.4994 10.5771 96.1047C10.3002 95.7132 10.0615 95.3026 9.95013 94.9557C9.89602 94.7838 9.88005 94.6406 9.8896 94.5611C9.88323 94.5324 9.94689 94.3574 10.0487 94.1728C10.2492 93.7972 10.558 93.3803 10.8635 92.9792C11.4905 92.1676 12.1844 91.3655 12.8751 90.5603C13.5689 89.7487 14.266 88.9371 14.9566 88.1287C15.4436 87.5589 14.7274 86.6646 14.1514 87.2471L14.1577 87.2439Z" fill="#FF7A1C"/>
<path d="M17.8535 56.3695C17.6817 56.9583 17.7485 58.6006 16.2081 59.0461C15.3901 59.3453 13.9451 58.8075 13.7891 57.5216C13.4836 54.9563 20.3902 35.0449 20.3902 35.0449L29.3211 36.439C27.1695 43.7657 24.3177 59.5459 24.1459 60.1378C23.974 60.7267 23.382 61.2709 22.9587 61.411C22.1312 61.6815 21.0268 61.6497 20.508 60.4689C20.1515 59.6509 20.352 59.6636 20.352 59.6636" fill="white"/>
<path d="M16.9949 56.9905C16.9217 57.5347 16.7658 57.9421 16.473 58.1872C16.3998 58.2509 16.3138 58.2986 16.2215 58.3527L16.0719 58.4132L16.0337 58.4291L15.9637 58.4514L15.9128 58.4705C15.7505 58.5087 15.5308 58.5055 15.3208 58.4482C14.8943 58.3304 14.5473 58.0312 14.4328 57.6588C14.315 57.3247 14.4328 56.7072 14.5346 56.1343C14.7638 54.9726 15.0916 53.7982 15.4322 52.6365C15.7759 51.4748 16.1483 50.3194 16.5366 49.1672C18.0898 44.5618 19.8371 40.0104 21.5272 35.4432L20.2127 36.2325C21.8646 36.5317 23.5228 36.8181 25.1842 37.0854C26.5018 37.2955 27.8163 37.4928 29.1339 37.6806L28.1282 36.0956C27.4821 38.4604 26.9952 40.822 26.5464 43.19C26.0976 45.558 25.7029 47.9259 25.3178 50.2971L24.1752 57.4011L23.8792 59.1738L23.7264 60.0205C23.6755 60.2178 23.5482 60.4342 23.3827 60.6156C23.2236 60.7971 23.004 60.9658 22.8385 61.0262C22.5966 61.1058 22.3388 61.1599 22.0937 61.1535C21.6004 61.1535 21.1993 60.918 20.9606 60.4851C20.897 60.3578 20.8078 60.2337 20.7219 60.1287C20.636 60.0268 20.5437 59.9536 20.4482 59.89C20.3591 59.8231 20.2541 59.7881 20.184 59.6704C20.1522 59.6099 20.1522 59.5112 20.2063 59.4253C20.235 59.3839 20.2636 59.3457 20.2955 59.3139C20.3146 59.2821 20.3845 59.2566 20.3781 59.2312C20.3781 59.2184 20.3686 59.2057 20.3464 59.193L20.2732 59.1611C20.2191 59.142 20.1522 59.1325 20.0599 59.1484C19.8816 59.177 19.7002 59.3203 19.6048 59.4635C19.417 59.734 19.3693 59.9377 19.3215 60.1223C19.2801 60.3069 19.2706 60.4852 19.2897 60.6698C19.2992 60.7621 19.3183 60.8544 19.3437 60.9467C19.3724 61.0453 19.4361 61.179 19.4966 61.3031C19.7226 61.7169 20.0949 62.1402 20.566 62.4171C21.037 62.7036 21.5686 62.8181 22.0396 62.8245C22.517 62.8372 22.9435 62.7481 23.3477 62.6176C23.6787 62.4999 23.8888 62.363 24.0861 62.223C24.2771 62.0797 24.4425 61.9269 24.5953 61.7614C24.8945 61.4272 25.165 61.039 25.3274 60.4915C25.426 60.0587 25.4611 59.8168 25.5184 59.5017L25.8239 57.7289L27.0111 50.6504C27.4121 48.292 27.8227 45.9335 28.2778 43.5878C28.7361 41.2421 29.2262 38.9028 29.8501 36.608L29.8564 36.5889C29.936 36.2961 29.7641 35.9906 29.4681 35.911C29.4459 35.9046 29.4204 35.9015 29.4013 35.8983C28.0837 35.7137 26.766 35.5195 25.4484 35.3158C23.7901 35.058 22.135 34.778 20.4736 34.4851C20.1999 34.4374 19.939 34.5934 19.8467 34.8448L19.8403 34.8639C18.1598 39.4534 16.4124 44.043 14.9165 48.728C14.5442 49.8993 14.1909 51.0769 13.8662 52.2673C13.5479 53.4608 13.2424 54.6511 13.0387 55.9147C12.9878 56.2298 12.9432 56.5512 12.9209 56.9045L12.9082 57.1751C12.9082 57.2705 12.9146 57.3915 12.9209 57.4997C12.9209 57.6111 12.9465 57.7225 12.9719 57.8307C12.991 57.9421 13.0291 58.0503 13.0673 58.1554C13.2233 58.585 13.5098 58.9606 13.844 59.2312C14.1814 59.5049 14.5633 59.6831 14.9611 59.7754C15.3622 59.8645 15.7791 59.8868 16.2247 59.7626C16.5748 59.6449 16.9631 59.4794 17.2623 59.1993C17.571 58.9288 17.7906 58.5819 17.9242 58.2381C18.0611 57.8912 18.1184 57.5475 18.1502 57.226C18.1757 56.9586 18.112 56.7613 18.0166 56.6181C17.9179 56.478 17.7938 56.373 17.6569 56.3253C17.5201 56.2744 17.3577 56.3189 17.2304 56.4462C17.0999 56.5767 17.0108 56.7645 16.979 56.9968L16.9949 56.9905Z" fill="#FF7A1C"/>
<path d="M21.0596 57.0864C21.0851 57.7007 20.5058 60.1737 19.6337 60.1673C18.8158 60.4665 17.8991 60.1769 17.3994 59.4608L17.1416 59.0884" fill="white"/>
<path d="M20.3241 57.1498C20.3877 57.2166 20.41 57.3535 20.4132 57.4712C20.4132 57.5953 20.3941 57.7163 20.3527 57.8372C20.2764 58.076 20.1331 58.2987 19.9645 58.4929C19.799 58.687 19.6048 58.8621 19.4361 58.9703C19.3947 59.0021 19.3565 59.0244 19.3215 59.0372C19.2865 59.0563 19.2547 59.0753 19.2356 59.069C19.2165 59.069 19.1942 59.0817 19.2069 59.0467C19.2101 59.0371 19.2165 59.0276 19.226 59.0212C19.2356 59.0117 19.2706 58.9767 19.2992 58.964C19.3311 58.9449 19.3534 58.9448 19.4011 58.9257C19.452 58.9066 19.5061 58.8939 19.5602 58.8939C19.5889 58.8939 19.6143 58.8939 19.6398 58.9003C20.0345 58.8334 19.1019 58.9958 19.1974 58.9767L19.1942 58.9798H19.1878C19.1878 58.9798 19.1688 58.9989 19.1592 59.0085C19.121 59.0403 19.0796 59.0817 19.0319 59.1231C18.9364 59.209 18.8027 59.314 18.6276 59.3681C18.4558 59.4254 18.2426 59.4445 18.0484 59.3777C17.9498 59.3491 17.8574 59.2981 17.7779 59.2313C17.6919 59.1549 17.5996 59.0467 17.5264 58.9417C17.4468 58.8271 16.0751 59.7819 16.1547 59.8933C16.1929 59.9474 16.231 59.9983 16.2724 60.0493L16.4188 60.2148C16.562 60.3739 16.7244 60.5171 16.9026 60.6285C17.2559 60.8609 17.6601 60.985 18.0516 61.0232C18.4431 61.0646 18.8218 61.0104 19.1592 60.915C19.3311 60.8672 19.4934 60.8068 19.6494 60.7431L19.7639 60.6922L19.7926 60.6794L19.8053 60.6731H19.8117L19.8149 60.6699C19.8563 60.6636 19.4584 60.7304 19.6271 60.7017H19.6303L19.7321 60.6858C19.799 60.6731 19.8689 60.6572 19.9326 60.6412C19.9963 60.6221 20.0408 60.5935 20.0981 60.5649C20.1522 60.5362 20.2127 60.5076 20.2572 60.4758L20.3813 60.3803C20.4736 60.3166 20.5342 60.253 20.6042 60.1893C20.6774 60.1257 20.7378 60.062 20.7983 60.0015C20.862 59.9378 20.9225 59.8742 20.9766 59.8137C21.2089 59.5623 21.4126 59.3077 21.5749 59.034C21.8868 58.4865 22.0332 57.8723 21.5176 57.1593C21.4221 57.0193 20.2795 57.1147 20.3241 57.1434V57.1498Z" fill="#FF7A1C"/>
<path d="M19.3689 34.1794C20.0946 35.5417 29.226 37.2667 30.6741 35.9236C33.2044 33.5779 35.4897 22.9156 30.3018 21.5184C23.7071 19.7392 18.5318 32.6167 19.3657 34.1794" fill="white"/>
<path d="M19.33 35.1438C19.8679 35.4589 20.3485 35.6085 20.8418 35.7676C21.3319 35.9204 21.8157 36.0445 22.2994 36.1623C23.2702 36.3915 24.2378 36.5824 25.2149 36.7415C26.192 36.8975 27.1723 37.028 28.1876 37.0726C28.6968 37.0948 29.2093 37.098 29.7599 37.0312C30.0336 37.0025 30.3264 36.9389 30.6415 36.8243L30.8897 36.7097C30.9757 36.662 31.0712 36.5919 31.1571 36.5283C31.208 36.4933 31.2303 36.4678 31.2558 36.4424L31.3385 36.366L31.5009 36.21C31.9019 35.7899 32.201 35.3411 32.4747 34.8892C32.7485 34.4341 32.9808 33.9694 33.1877 33.4983C33.6078 32.553 33.9325 31.5823 34.1776 30.5829C34.4226 29.5835 34.5881 28.5586 34.6327 27.502C34.6804 26.4485 34.6136 25.3568 34.3144 24.2524C34.1616 23.7272 33.9706 23.1989 33.6683 22.6896C33.3755 22.1836 32.9967 21.6902 32.5034 21.2987C32.0228 20.9041 31.4531 20.589 30.8675 20.4299C30.2882 20.2548 29.7312 20.2007 29.1488 20.1943C27.9902 20.2102 26.8986 20.6081 25.9979 21.1492C25.0908 21.6966 24.3364 22.3873 23.6808 23.1257C22.3759 24.612 21.4242 26.2798 20.6253 27.9889C20.2275 28.8483 19.8742 29.7235 19.5687 30.6179C19.4223 31.0667 19.2759 31.5154 19.1581 31.9801C19.0403 32.4448 18.9321 32.9095 18.8907 33.4156C18.8843 33.5556 18.9066 33.6797 18.9544 33.7847C19.0116 33.8961 19.0849 33.9757 19.1708 34.0266C19.3745 34.138 19.5686 34.068 19.75 33.9662C19.7596 33.9725 19.9124 33.8166 20.2721 33.7911C20.3039 33.7911 20.3166 33.7784 20.323 33.7784L20.3516 33.7657L20.4025 33.7434C20.428 33.7338 20.4534 33.7243 20.4789 33.7115C20.5267 33.667 20.5553 33.6065 20.5553 33.5397C20.5776 33.2278 20.6699 32.814 20.7718 32.4194C20.8704 32.0183 21.0073 31.6077 21.141 31.2003C21.4242 30.3824 21.7584 29.5676 22.1307 28.7719C22.8819 27.1869 23.7858 25.6496 24.9252 24.3606C25.4949 23.7208 26.1315 23.148 26.8381 22.7183C27.5415 22.295 28.3181 22.0117 29.117 21.9926C29.5116 21.9926 29.9286 22.034 30.3041 22.1422C30.6861 22.2377 31.0266 22.4286 31.329 22.6705C31.9433 23.1543 32.3475 23.9182 32.583 24.7362C32.8249 25.5987 32.8949 26.5281 32.8535 27.4542C32.8154 28.3836 32.6721 29.313 32.4493 30.2201C32.2297 31.1303 31.9337 32.0215 31.5645 32.865C31.3831 33.2851 31.1762 33.6956 30.9503 34.0744C30.7275 34.4531 30.476 34.8128 30.215 35.0833L30.1163 35.1756L30.0686 35.2202L30.0559 35.2329L30.0495 35.2393C29.9699 35.1565 30.1577 35.3634 30.1323 35.3379C30.1068 35.3156 30.0845 35.2902 30.0623 35.2679C30.0304 35.2329 30.0431 35.2457 30.04 35.2425C30.04 35.2425 30.0399 35.2457 30.0272 35.2488C30.0049 35.2552 29.9827 35.2647 29.9636 35.2743C29.8331 35.3125 29.6707 35.3602 29.467 35.3793C29.0756 35.4302 28.6268 35.4398 28.178 35.4302C27.2741 35.4111 26.3384 35.3189 25.409 35.2106C24.4796 35.0993 23.5471 34.9624 22.6273 34.8032C22.169 34.7205 21.7106 34.6346 21.2619 34.5327C20.8195 34.4277 20.3675 34.3131 19.9983 34.1539C19.871 34.0967 19.7564 34.1094 19.6196 34.1412C19.4955 34.173 19.3299 34.2017 19.1994 34.2653C19.0689 34.329 18.9703 34.4436 18.9894 34.6409C19.0053 34.8223 19.1263 35.0197 19.3268 35.1406L19.33 35.1438Z" fill="#FF7A1C"/>
<path d="M38.0532 82.9207C37.5726 85.7597 29.9817 95.5435 26.9103 96.8612C25.9046 97.2909 21.175 97.3896 17.6039 94.6046C13.5714 91.4569 12.7566 88.1022 13.5078 86.7018C14.4785 84.894 20.6944 79.1109 21.3469 75.5844C22.5372 69.1329 19.294 65.8642 20.1438 57.0894" fill="white"/>
<path d="M37.1434 83.4035C36.9334 84.021 36.6183 84.6607 36.2777 85.275C35.934 85.8956 35.5584 86.5003 35.1669 87.0987C34.3808 88.2922 33.5182 89.4412 32.6112 90.552C31.7041 91.6564 30.746 92.7258 29.7339 93.7157C29.2279 94.2122 28.7059 94.6896 28.168 95.1225C27.8975 95.3357 27.6269 95.5426 27.35 95.7208C27.0795 95.9022 26.7899 96.055 26.5639 96.1378C26.3952 96.1855 26.0387 96.2301 25.7268 96.2332C25.5677 96.2396 25.4021 96.2396 25.2366 96.2332C25.0711 96.2332 24.9057 96.2205 24.737 96.2078C24.0686 96.1568 23.4002 96.0454 22.7446 95.8895C22.0921 95.724 21.4556 95.5139 20.8445 95.2529C20.2429 94.976 19.6477 94.6864 19.1162 94.3108C18.8361 94.1422 18.5942 93.9226 18.3332 93.7348C18.0818 93.5152 17.8208 93.2924 17.5726 93.0664C17.0888 92.6017 16.6178 92.1243 16.2167 91.6087C15.8157 91.0963 15.4401 90.5615 15.16 90.0077C14.8768 89.4539 14.6667 88.881 14.5744 88.3463C14.5585 88.2222 14.5458 88.0981 14.5362 87.9803C14.5426 87.8721 14.5267 87.748 14.5458 87.6589C14.5521 87.6143 14.549 87.557 14.5617 87.5188C14.5744 87.4806 14.5839 87.4425 14.5903 87.4043C14.6221 87.3438 14.6094 87.3215 14.6922 87.2006L14.7845 87.051L14.9149 86.8695C15.0072 86.7454 15.0869 86.6276 15.1951 86.4971C15.3924 86.2425 15.6024 85.9815 15.8189 85.7206C16.6814 84.6734 17.5853 83.6104 18.451 82.506C19.3167 81.3984 20.1602 80.2558 20.9017 78.9986C21.2646 78.3588 21.6211 77.7191 21.8821 76.9775C21.9425 76.7897 22.0284 76.6274 22.0698 76.4173L22.2098 75.8158C22.2671 75.4402 22.2958 75.0869 22.3372 74.7241C22.4613 73.2727 22.3785 71.8087 22.143 70.4051C21.9107 68.9983 21.5574 67.652 21.2487 66.3152C20.6153 63.6513 20.2652 60.9395 20.4625 58.2119C20.5643 56.7765 18.9061 56.5664 18.7947 58.1101C18.5815 60.9777 18.9475 63.9154 19.5809 66.643C19.8864 68.0084 20.2206 69.3229 20.4275 70.6215C20.6376 71.9201 20.7076 73.2091 20.593 74.5109C20.5548 74.8291 20.5262 75.1697 20.4784 75.4752C20.4116 75.7489 20.367 76.0258 20.2429 76.3155C20.0456 76.8916 19.7241 77.4708 19.3995 78.0437C18.7247 79.1832 17.9099 80.2812 17.0665 81.357C16.2199 82.4328 15.3287 83.4799 14.4407 84.5557C14.2179 84.823 13.9983 85.0968 13.7819 85.3768C13.6705 85.5105 13.5654 85.6633 13.4572 85.8097C13.4031 85.8829 13.349 85.9529 13.2981 86.0325L13.1421 86.2839C13.0371 86.4335 12.9448 86.6595 12.8748 86.8632C12.8175 87.07 12.7697 87.2769 12.757 87.4775C12.7252 87.6812 12.7443 87.8753 12.7411 88.0758C12.757 88.27 12.7793 88.4609 12.808 88.6519C13.1008 90.221 13.906 91.561 14.8449 92.7386C15.316 93.3306 15.8444 93.8684 16.3918 94.384C16.6687 94.6387 16.9551 94.8774 17.2416 95.1257L17.7031 95.4726L17.9354 95.6476L18.1773 95.8036L18.6643 96.1155L19.1703 96.3924C19.339 96.4879 19.5109 96.5738 19.6859 96.6502C19.861 96.7297 20.0329 96.8125 20.2111 96.8889C20.9209 97.1817 21.6561 97.4172 22.404 97.5986C23.1551 97.7673 23.9158 97.8883 24.6924 97.936C24.8865 97.9488 25.0807 97.9583 25.2781 97.9583C25.4754 97.9615 25.6727 97.9583 25.8764 97.9488C26.2933 97.9201 26.6594 97.9105 27.2164 97.7228C27.6715 97.5382 28.0216 97.3217 28.3589 97.0958C28.6931 96.8698 28.9987 96.6279 29.2947 96.3828C29.8835 95.8895 30.4278 95.3739 30.9498 94.8392C31.9937 93.773 32.9549 92.6494 33.8556 91.4877C34.7531 90.3228 35.5966 89.1197 36.3573 87.8594C36.736 87.2292 37.0988 86.5895 37.4266 85.9243C37.7545 85.2591 38.0537 84.5811 38.2733 83.8427C38.3497 83.5817 38.3274 83.3494 38.2415 83.1839C38.1555 83.0152 38.0219 82.9261 37.8787 82.8974C37.7354 82.8688 37.5826 82.8974 37.4617 82.977C37.4044 83.012 37.3471 83.0661 37.293 83.1393C37.2421 83.2125 37.2039 83.2985 37.1593 83.4131L37.1434 83.4035Z" fill="#FF7A1C"/>
<path d="M47.7034 54.2627C48.4609 57.0826 57.8055 86.0808 56.9048 89.1713C56.3319 91.135 54.4318 93.1083 50.7048 94.5342C46.4812 96.1511 42.0063 95.7501 40.5613 94.3306C39.1163 92.911 36.7929 81.5454 34.8164 76.4116" fill="white"/>
<path d="M47.2322 55.2712C49.2724 61.1116 50.972 66.9998 52.4806 72.942C53.2349 75.9115 53.9447 78.8906 54.5971 81.8697C54.9186 83.3592 55.2305 84.8519 55.4692 86.3255C55.5838 87.0512 55.692 87.8023 55.7079 88.4325V88.6426C55.7047 88.6744 55.7079 88.7221 55.7047 88.7381C55.6984 88.7476 55.6952 88.7603 55.6952 88.7699C55.7143 88.7762 55.6507 88.9545 55.6061 89.085C55.4947 89.3555 55.3642 89.6228 55.1955 89.8775C54.5653 90.8609 53.5405 91.698 52.3979 92.3728C51.825 92.7133 51.2107 93.0157 50.5773 93.2831C50.2622 93.4263 49.944 93.5345 49.6289 93.6586C49.3074 93.7668 48.9859 93.8782 48.6581 93.9705C48.0056 94.1615 47.3341 94.2952 46.6593 94.4034C45.9846 94.4957 45.3035 94.5498 44.6288 94.553C43.9572 94.5466 43.2856 94.4893 42.6586 94.3493L42.423 94.2983L42.2003 94.2315C42.0475 94.1901 41.9107 94.1329 41.777 94.0787C41.6306 94.0278 41.5287 93.9514 41.4046 93.891C41.3441 93.8591 41.3059 93.8177 41.255 93.7827C41.2041 93.7477 41.15 93.7096 41.1373 93.6905C41.115 93.6777 41.0768 93.6236 41.0418 93.5727C41.0036 93.5281 40.9654 93.4581 40.9272 93.3944C40.8476 93.2703 40.7712 93.1176 40.698 92.968C40.5484 92.6656 40.4115 92.341 40.2779 92.0131C40.0105 91.3543 39.7655 90.6732 39.53 89.9857C39.0589 88.6108 38.6229 87.2135 38.1932 85.8131C37.3307 83.0123 36.5381 80.186 35.5928 77.382C35.335 76.6308 34.7972 76.4144 34.4089 76.564C34.0174 76.7199 33.7659 77.2101 34.011 77.923C34.9213 80.6252 35.7042 83.4515 36.5509 86.2555C36.971 87.6623 37.4007 89.0691 37.8718 90.479C38.1073 91.1856 38.3555 91.889 38.6324 92.5988C38.7724 92.952 38.9188 93.3085 39.0907 93.6713C39.1798 93.8559 39.2658 94.0342 39.3804 94.2251C39.4377 94.3206 39.4854 94.4129 39.5617 94.518C39.6318 94.6198 39.6954 94.7185 39.8068 94.8394C40.2047 95.2532 40.593 95.4728 40.9972 95.6574C41.1977 95.7465 41.3982 95.8324 41.5956 95.8897L41.8947 95.9852L42.1939 96.0584C42.9864 96.2462 43.7726 96.3194 44.5492 96.3353C45.3258 96.3417 46.096 96.2844 46.8567 96.1857C47.6142 96.0712 48.3653 95.9248 49.1005 95.7147C49.8325 95.5078 50.5582 95.2564 51.252 94.9572C51.9491 94.6644 52.6302 94.3302 53.2891 93.9419C54.594 93.1685 55.848 92.1882 56.7073 90.8387C56.9333 90.4886 57.1147 90.1098 57.2739 89.7215C57.3375 89.5146 57.4203 89.3428 57.4521 89.0723C57.5062 88.8049 57.4807 88.6171 57.4903 88.3975C57.4616 87.57 57.3407 86.8029 57.2197 86.0295C56.9619 84.4922 56.6405 82.9804 56.3095 81.4686C55.6379 78.4482 54.8996 75.4404 54.107 72.455C52.522 66.481 50.6792 60.5865 48.3749 54.9339C47.9866 53.9504 46.8599 54.1636 47.2322 55.2744V55.2712Z" fill="#FF7A1C"/>
<path d="M23.2574 22.6699C20.517 33.9337 18.0854 55.4333 19.9441 57.7154C24.9793 63.8899 37.5321 65.615 40.7181 65.8091C42.2394 65.9014 44.5978 66.1752 48.2293 63.3966C51.9277 60.5671 48.7131 42.4381 46.0173 22.9532" fill="white"/>
<path d="M22.2671 23.678C21.3983 28.1052 20.7044 32.5229 20.0646 36.947C19.4408 41.3742 18.8743 45.8014 18.5624 50.2796C18.4892 51.3999 18.4351 52.5266 18.4255 53.666C18.4223 54.2358 18.4287 54.8086 18.4638 55.3911C18.502 55.9767 18.5465 56.5624 18.7025 57.2117C18.7916 57.5363 18.8743 57.8959 19.2053 58.3351C19.3994 58.5643 19.5872 58.803 19.7909 59.0258C20.1983 59.4682 20.6248 59.8884 21.0768 60.2735C21.9775 61.0501 22.9514 61.7184 23.9603 62.3072C25.9814 63.4817 28.1298 64.3569 30.3132 65.0571C32.5029 65.751 34.7341 66.2761 36.9938 66.6422C38.0728 66.8172 39.1517 66.9604 40.2625 67.0464L41.0868 67.0973C41.3637 67.1132 41.6629 67.1196 41.9621 67.1196C42.5636 67.1164 43.1842 67.0527 43.7858 66.9254C44.9921 66.674 46.1093 66.1902 47.1023 65.5951C47.3505 65.4455 47.5987 65.2959 47.8343 65.1335C48.073 64.9744 48.3085 64.8121 48.5313 64.637L48.8718 64.3792C48.9037 64.3538 48.9228 64.3442 48.961 64.3092L49.0724 64.2074L49.292 63.9941C49.4479 63.8509 49.5403 63.7013 49.6517 63.5485L49.8108 63.3194C49.8586 63.243 49.8904 63.1666 49.9317 63.0934C50.5492 61.8712 50.702 60.7191 50.8229 59.5955C50.928 58.472 50.9311 57.3772 50.9089 56.2886C50.8548 54.1116 50.651 51.976 50.4091 49.8499C49.9158 45.5977 49.2411 41.3965 48.5759 37.192C47.9075 32.9908 47.2327 28.7927 46.6439 24.5819C46.332 22.3381 44.677 22.564 44.9889 24.8143C45.5777 29.0282 46.2397 33.2263 46.8922 37.4212C47.5383 41.6161 48.1908 45.8046 48.6586 50.0027C48.8878 52.1001 49.0787 54.2008 49.1233 56.2886C49.1424 57.3326 49.1328 58.3734 49.0374 59.3918C48.9387 60.4008 48.7605 61.4225 48.3499 62.2213C48.3053 62.3295 48.2449 62.4155 48.1844 62.4982C48.1239 62.581 48.073 62.6796 47.9998 62.7369L47.898 62.8388C47.8661 62.8738 47.8343 62.9088 47.777 62.947L47.4683 63.1793C47.2646 63.3385 47.0545 63.4817 46.8445 63.6249C46.6344 63.7745 46.418 63.9018 46.2015 64.0323C45.3326 64.5543 44.4001 64.9521 43.4325 65.1558C42.9488 65.2609 42.4554 65.3118 41.9557 65.315C41.7043 65.315 41.4529 65.3118 41.1919 65.2959L40.4057 65.2481C39.3681 65.1686 38.3178 65.0349 37.2802 64.8694C35.1128 64.5225 32.9581 64.026 30.8638 63.3671C28.7695 62.7019 26.723 61.8744 24.8451 60.7859C23.9094 60.2416 23.015 59.6305 22.2066 58.9367C21.7992 58.593 21.4237 58.2206 21.0672 57.8355C20.889 57.6445 20.7298 57.4376 20.5612 57.2403C20.5134 57.183 20.437 56.9889 20.3861 56.7661C20.2779 56.3141 20.2238 55.7794 20.192 55.2511C20.1602 54.7164 20.1506 54.1721 20.1506 53.6279C20.1506 52.5362 20.2015 51.4318 20.2652 50.3273C20.5421 45.9065 21.0609 41.4824 21.6019 37.0807C22.1557 32.6789 22.7382 28.2898 23.432 23.9422C23.6866 22.4208 22.6045 22.0357 22.2671 23.678Z" fill="#FF7A1C"/>
<path d="M52.7221 6.55683C49.2179 5.97757 45.3126 5.43967 41.7607 5.1946C31.9068 4.51348 26.0283 3.98832 24.0295 4.03288C22.3044 1.90043 19.5895 0.62733 16.6486 0.862855C11.9095 1.23842 8.37347 5.38875 8.74903 10.1279C9.1246 14.867 13.2749 18.4031 18.014 18.0275C18.8606 17.9607 20.3566 27.4931 29.5675 28.4447C34.8859 28.9953 39.3481 27.98 45.284 24.3071C51.2198 20.6342 63.4289 8.632 63.4289 8.632C63.4289 8.632 58.6484 7.53712 52.7253 6.55683H52.7221Z" fill="white"/>
<path d="M51.3733 5.59808C49.0976 5.29572 46.8188 5.02201 44.5304 4.80876C43.3909 4.70373 42.2356 4.61777 41.0993 4.54775L37.6906 4.31223C35.4181 4.14673 33.1519 3.96533 30.8826 3.78073L27.4771 3.51017C26.3345 3.4306 25.211 3.33195 24.0143 3.32558L24.5808 3.58655C23.505 2.23387 22.0537 1.1581 20.4082 0.569292C18.7659 -0.0290682 16.9485 -0.169108 15.2266 0.212824C13.4952 0.559745 11.8751 1.43503 10.5893 2.66358C9.94321 3.27785 9.40534 3.99715 8.94066 4.76101C8.50144 5.54079 8.15772 6.37465 7.93175 7.24673C7.87446 7.46316 7.84265 7.68598 7.7981 7.90877L7.73438 8.23975L7.7026 8.57715C7.6835 8.79994 7.66117 9.02591 7.64844 9.25189L7.658 9.92664C7.65481 10.1526 7.67714 10.3754 7.70578 10.6014C7.73443 10.8242 7.75035 11.0501 7.79172 11.2729C7.89039 11.7153 7.96671 12.1641 8.12585 12.5906C8.25316 13.0266 8.44416 13.4404 8.63194 13.8542C8.72742 14.061 8.84838 14.252 8.95977 14.4525L9.12847 14.7485C9.18894 14.844 9.25574 14.9363 9.32258 15.0286C9.81909 15.7925 10.462 16.4577 11.1527 17.0497C11.8465 17.648 12.6486 18.1064 13.4793 18.4915C14.3195 18.8639 15.2171 19.093 16.1274 19.233C16.5857 19.2617 17.044 19.3317 17.5055 19.3031L17.8492 19.2935H18.0211L18.107 19.2872C18.1007 19.2872 18.1357 19.2872 18.0975 19.2872C18.0688 19.2872 18.037 19.2904 18.0084 19.2904C17.9479 19.2904 17.8874 19.284 17.8301 19.2744C17.8015 19.2681 17.7729 19.2617 17.7442 19.2553L17.6837 19.2394C17.6455 19.2267 17.6074 19.214 17.5692 19.198C17.5342 19.1821 17.4928 19.1598 17.4673 19.1439L17.41 19.1089C17.375 19.0866 17.3305 19.0484 17.3145 19.0357C17.2986 19.023 17.2827 19.0103 17.27 18.9943L17.2413 18.9657C17.2159 18.9371 17.2222 18.9402 17.2254 18.9498C17.2413 18.9721 17.2763 19.0421 17.3114 19.1057C17.4578 19.3954 17.6201 19.7773 17.7856 20.1433C17.9511 20.5157 18.1261 20.8976 18.3107 21.2764C19.3356 23.3993 20.7519 25.484 22.7316 27.0276C23.7151 27.7979 24.8227 28.4217 25.9908 28.8577C27.1588 29.2938 28.3906 29.5484 29.5937 29.6439C31.9235 29.8507 34.336 29.7394 36.6467 29.2015C37.802 28.9405 38.9255 28.5649 40.0109 28.1257C41.0962 27.6865 42.1465 27.1836 43.1522 26.6202C44.1675 26.0633 45.1414 25.4745 46.0995 24.8252C46.5801 24.4974 47.0575 24.1663 47.5063 23.8131C47.9646 23.4693 48.4197 23.1192 48.8558 22.7564C50.6254 21.3241 52.3186 19.8282 53.9864 18.31C57.3155 15.2609 60.5492 12.1355 63.7447 8.95588L63.7511 8.94954C63.9229 8.77767 63.9261 8.49756 63.7511 8.32251C63.6874 8.25885 63.611 8.21748 63.5283 8.20156C60.6447 7.59047 57.7579 7.03988 54.8553 6.52428C52.0958 6.05004 51.838 7.70188 54.5657 8.16974C57.4365 8.67898 60.3169 9.23279 63.1528 9.84069L62.5639 7.75919C59.3907 10.9006 56.1538 14.0101 52.8469 17.0179C51.1919 18.5169 49.5114 19.9874 47.7832 21.3782C47.3535 21.7315 46.9174 22.0657 46.475 22.3936C46.039 22.7341 45.5902 23.0396 45.1446 23.3452C44.7054 23.6603 44.2185 23.9372 43.757 24.2332C43.2796 24.5069 42.8117 24.7997 42.3247 25.0512C41.3635 25.5827 40.3769 26.0537 39.3648 26.4611C38.3558 26.8685 37.3214 27.2123 36.2616 27.4478C34.1482 27.9347 31.9521 28.043 29.7592 27.8456C27.6108 27.6833 25.5324 26.9417 23.8456 25.6081C22.146 24.2873 20.8792 22.4604 19.918 20.4839C19.5679 19.7805 19.2783 19.0675 18.9091 18.3068C18.8582 18.2082 18.8104 18.1127 18.7404 18.0045C18.7086 17.9504 18.6704 17.8963 18.6195 17.8326C18.594 17.8008 18.5686 17.769 18.5272 17.7308C18.4954 17.699 18.4413 17.6512 18.3776 17.613C18.3553 17.5971 18.2916 17.5653 18.2503 17.5493C18.2089 17.5303 18.1452 17.5143 18.0752 17.5112C18.0402 17.5112 18.0084 17.508 17.9734 17.5112H17.9511H17.916H17.776L17.496 17.5207C17.1204 17.5494 16.748 17.4921 16.3756 17.4698C14.8925 17.2724 13.4602 16.6741 12.3112 15.7161C11.7383 15.2387 11.2132 14.6976 10.8026 14.0738C10.6944 13.9242 10.5862 13.7714 10.5003 13.6027L10.2265 13.1158C10.0833 12.772 9.90821 12.4442 9.80955 12.0846C9.32259 10.6778 9.29399 9.1405 9.61863 7.70826C9.81278 6.9985 10.0705 6.30465 10.4365 5.66809C10.8153 5.04109 11.2482 4.44275 11.7797 3.93987C12.8301 2.92457 14.1541 2.1989 15.5704 1.90926C16.9835 1.5878 18.4826 1.69283 19.8289 2.17979C21.1848 2.65402 22.3847 3.53565 23.279 4.64644C23.4668 4.87878 23.7406 4.99972 24.0175 4.99972H24.0429C25.1027 4.99972 26.2613 5.08246 27.3911 5.15248C28.5306 5.23205 29.6668 5.30844 30.8031 5.38801C33.0819 5.54714 35.3609 5.69673 37.6397 5.82404C38.7792 5.88133 39.9186 5.94182 41.0548 5.99911C42.1943 6.05004 43.3082 6.10732 44.4349 6.18688C46.6851 6.34602 48.9353 6.55928 51.1823 6.79162C53.0761 6.99531 53.3976 5.89091 51.367 5.61082L51.3733 5.59808Z" fill="#FF7A1C"/>
<path d="M34.1101 22.8483C32.0191 24.2296 29.3455 24.6911 26.7707 23.8795C22.2352 22.4504 19.7177 17.6127 21.1499 13.0804C22.579 8.54496 26.4237 5.77911 30.9591 7.20817C34.3138 8.26485 37.5539 11.4381 37.9199 14.7227" fill="white"/>
<path d="M33.3174 22.4796C31.9042 23.4535 30.0964 23.8641 28.3873 23.619C27.9608 23.5553 27.5375 23.4694 27.1269 23.3293C26.92 23.2721 26.7258 23.1734 26.5253 23.097L26.2294 22.9761C26.1339 22.9283 26.0415 22.8742 25.946 22.8233C25.7614 22.7151 25.5641 22.6323 25.3922 22.505L24.8671 22.1422L24.3833 21.7284C24.2178 21.5947 24.0874 21.4261 23.9378 21.2797C23.3681 20.659 22.9065 19.9524 22.566 19.1981C22.2382 18.4374 22.0345 17.6354 21.9517 16.8302C21.9008 16.4291 21.9135 16.0217 21.9167 15.6207L21.9771 15.0223C21.9931 14.8218 22.0504 14.6277 22.0822 14.4303C22.1045 14.3317 22.114 14.233 22.1427 14.1375L22.2286 13.8511C22.2891 13.6601 22.3273 13.4691 22.4132 13.275L22.636 12.6926L22.8938 12.1324C23.2439 11.4354 23.6545 10.7765 24.1351 10.1909C24.6189 9.60525 25.1886 9.10877 25.8156 8.7141C26.4458 8.31944 27.1428 8.03933 27.8844 7.89293C28.6291 7.7497 29.4153 7.76562 30.1983 7.89293C31.7737 8.15073 33.3428 8.92413 34.6414 9.99354C35.9336 11.063 37.0189 12.4889 37.4072 14.1184C37.4931 14.5417 37.9356 14.7168 38.3525 14.6786C38.7631 14.6404 39.1514 14.3094 39.0336 13.7397C38.7885 12.7021 38.3334 11.7632 37.7701 10.9325C37.2035 10.1018 36.5288 9.37292 35.7904 8.73955C35.0488 8.10618 34.2372 7.56828 33.3683 7.13224C32.4994 6.70257 31.5828 6.35883 30.612 6.18378C29.6477 6.00236 28.6483 5.95464 27.6712 6.12014C26.6972 6.28565 25.7647 6.63892 24.9403 7.13861C24.1128 7.63831 23.3807 8.27167 22.776 8.99734C22.1713 9.72301 21.678 10.5219 21.2706 11.359C20.4462 13.084 19.937 15.0955 20.2044 17.0943C20.3222 18.0905 20.5895 19.0772 21.0159 20.0002C21.4552 20.92 22.0409 21.773 22.7602 22.5146C23.1135 22.8933 23.5176 23.2148 23.925 23.5331L24.5775 23.9563C24.7939 24.0996 25.0358 24.1982 25.2618 24.3192C26.1943 24.7616 27.2001 25.0671 28.2281 25.1531C30.2842 25.3536 32.3784 24.7393 33.9125 23.514C34.4536 23.0652 33.8107 22.1199 33.3142 22.4827L33.3174 22.4796Z" fill="#FF7A1C"/>
<path d="M55.3573 7.01246C55.3573 7.01246 54.9467 8.88711 55.6087 10.157C56.2708 11.427 57.8748 13.4544 57.8748 13.4544L63.4287 8.62933L55.3573 7.00928V7.01246Z" fill="#FF7A1C"/>
<path d="M54.5886 7.15193C54.5695 7.80121 54.5822 8.4282 54.6777 9.07748C54.7286 9.40212 54.7923 9.72679 54.9132 10.0546C54.9705 10.2106 55.0501 10.3952 55.1169 10.5288C55.187 10.6689 55.2601 10.8058 55.3302 10.9394C55.9158 12.0057 56.5046 13.0114 57.1379 14.0331C57.3798 14.4214 57.8891 14.5391 58.2742 14.3004L58.3061 14.2781L58.478 14.1572C59.6874 13.3201 60.8968 12.4799 62.0172 11.5282C62.7715 10.8917 63.478 10.1978 64.1591 9.4817L64.2992 9.3353C64.7097 8.90245 64.6939 8.22132 64.2642 7.81075C64.086 7.64206 63.8664 7.5466 63.6404 7.52114C62.2018 7.35882 60.7886 7.28561 59.4455 7.19649C58.096 7.10419 56.8197 6.98005 55.4957 6.74453C54.9992 6.66496 55.9476 8.04309 56.3646 8.1704C57.5263 8.50459 58.6084 8.73694 59.7415 8.89289C60.8682 9.05203 62.0522 9.14751 63.2903 9.28437L62.9847 8.12584C62.2941 8.83559 61.5875 9.52627 60.8459 10.1756C59.7479 11.1368 58.5384 11.9802 57.3449 12.8491L58.5002 12.9573C57.8955 12.0088 57.2876 11.0572 56.686 10.1119L56.4792 9.7809C56.441 9.72043 56.4219 9.6854 56.3996 9.64402C56.3773 9.60265 56.3487 9.56444 56.3296 9.51352C56.2373 9.33528 56.1609 9.11886 56.0909 8.88652C55.9508 8.42184 55.8522 7.88713 55.763 7.33333C55.7503 7.25376 55.6707 7.18058 55.5625 7.12011C55.5084 7.09146 55.4448 7.05645 55.3748 7.03735C55.3016 7.01189 55.2824 6.9132 55.2474 6.85273C55.2156 6.79544 55.136 6.72863 54.9928 6.84321C54.9609 6.86549 54.926 6.92594 54.9069 6.94504H54.8591C54.8273 6.95141 54.7986 6.95461 54.77 6.96416C54.6618 6.9928 54.5854 7.05645 54.5823 7.15512L54.5886 7.15193Z" fill="#FF7A1C"/>
<path d="M51.9957 5.90132C51.1109 5.443 51.4865 4.189 51.06 3.43786C50.6558 2.71856 49.44 2.52444 48.9976 1.83378C48.9371 1.74148 47.5303 2.64218 47.5908 2.7313C48.0332 3.42196 49.0931 3.71796 49.5482 4.40225C50.0224 5.11519 49.5896 6.42649 50.99 6.54425C51.1141 6.5538 52.0785 5.94588 51.9957 5.90132Z" fill="#FF7A1C"/>
<path d="M55.6005 21.1389C55.0913 19.8562 56.0715 18.5736 56.1097 17.2877C56.1479 16.0623 55.2186 14.8465 55.209 13.6243C55.209 13.462 53.5381 13.4748 53.5381 13.6371C53.5476 14.8593 54.2892 16.0783 54.3147 17.3036C54.3401 18.5799 53.2803 19.888 54.407 21.1516C54.5056 21.263 55.6483 21.263 55.6005 21.142V21.1389Z" fill="#FF7A1C"/>
<path d="M62.0033 19.1262C61.1886 17.99 61.8188 16.4909 61.5323 15.2178C61.2618 14.0051 60.0587 13.0407 59.7436 11.8408C59.7023 11.6817 58.0854 12.105 58.1268 12.2641C58.4419 13.464 59.4667 14.4762 59.7977 15.6729C60.1414 16.9205 59.4444 18.4674 60.8512 19.4285C60.9754 19.5145 62.0797 19.2312 62.0065 19.1262H62.0033Z" fill="#FF7A1C"/>
<path d="M58.0607 8.75525C57.6979 7.42167 58.8182 6.25992 58.9996 4.98363C59.1747 3.771 58.3853 2.4597 58.5158 1.2407C58.5317 1.07838 56.8704 0.903347 56.8544 1.06567C56.7271 2.28149 57.3287 3.57368 57.2141 4.79586C57.0964 6.06579 55.8964 7.24979 56.8736 8.63111C56.9595 8.75206 58.0957 8.87937 58.0607 8.75525Z" fill="#FF7A1C"/>
<path d="M44.313 10.4418L42.3936 10.6313L42.5831 12.5507L44.5025 12.3612L44.313 10.4418Z" fill="#FF7A1C"/>
<path d="M43.0696 11.8875C43.0219 11.7284 43.006 11.4929 43.0283 11.251C43.0506 11.0059 43.1079 10.7577 43.1747 10.5317L42.4809 11.3783C43.1365 11.4993 43.8017 11.7029 44.4478 11.6807L43.0601 10.5444V10.6144C43.1015 11.2351 43.3848 11.8271 43.6744 12.4222L44.4287 11.4993C44.2345 11.6298 44.0118 11.7793 43.754 11.9098C43.4994 12.0403 43.2129 12.1422 42.9487 12.1995C42.8214 12.2408 41.7106 13.4948 41.9493 13.5394C42.3662 13.5967 42.8405 13.6062 43.302 13.5489C43.7667 13.4948 44.2091 13.3803 44.5974 13.2466L45.0271 13.1033C45.3613 12.992 45.5427 12.626 45.4313 12.2918C45.4281 12.279 45.4217 12.2631 45.4154 12.2504C45.1671 11.652 44.9157 11.0536 44.8456 10.4394L44.8393 10.3694C44.8106 10.0861 44.5624 9.87604 44.2759 9.89832H44.2632C43.6266 9.94924 42.9583 9.74554 42.3058 9.69462C41.8889 9.66279 41.526 9.97468 41.4942 10.3884V10.4139L41.4814 10.6972C41.4655 11.111 41.5133 11.5629 41.6565 11.9512C41.7965 12.3395 42.0257 12.6514 42.2739 12.7851C42.3694 12.8392 43.0696 11.9417 43.0601 11.8875H43.0696Z" fill="#FF7A1C"/>
<path d="M27.2934 71.7414C25.8421 72.8745 23.4645 73.8834 21.0647 73.9089C15.7781 73.9598 13.2288 71.2449 12.0129 69.7045C9.79773 66.9005 9.17387 64.8667 6.88228 61.6139C4.87395 58.7621 2.25132 57.0466 0.564453 55.9199L0.640914 54.2681C2.53148 54.8091 5.53913 56.2127 8.29541 59.4305C12.5285 64.3765 13.2797 70.1182 20.9915 69.6822C25.1418 69.4467 25.7306 66.509 27.6307 66.4071C28.3596 66.3689 29.5913 67.3683 29.5022 68.6096C29.4131 69.8509 28.1304 71.0985 27.2997 71.7478L27.2934 71.7414Z" fill="white"/>
<path d="M26.1826 71.6204C25.0845 72.3715 23.7923 72.9031 22.4682 73.1545C21.7999 73.285 21.1443 73.3264 20.4504 73.2945C19.7629 73.285 19.085 73.1959 18.4166 73.0686C17.7546 72.9253 17.1053 72.728 16.4846 72.4606C15.8703 72.1869 15.2847 71.8559 14.7437 71.4613C13.6488 70.6719 12.7927 69.6375 12.0065 68.479C11.2172 67.3396 10.5679 66.1174 9.90268 64.8443C9.24066 63.5712 8.51184 62.2854 7.70341 61.0568C6.86316 59.7901 5.8574 58.6379 4.74661 57.6194C3.63901 56.5977 2.41682 55.7098 1.23601 54.8982L1.77707 55.9676L1.87894 54.3157L0.293924 55.4551C1.14054 55.7161 1.98399 56.079 2.78287 56.5214C4.03051 57.2088 5.19537 58.065 6.2425 59.0612C7.29599 60.0542 8.21262 61.1905 9.09424 62.4127C9.97587 63.6349 10.8034 64.9493 11.7964 66.2352C12.7672 67.5178 14.0339 68.7686 15.603 69.5166C16.3764 69.9049 17.2135 70.1245 18.041 70.2614C18.8717 70.3791 19.6993 70.4141 20.5077 70.3568C21.3129 70.3441 22.1691 70.2041 22.968 69.924C23.77 69.6471 24.5211 69.2047 25.1513 68.6763C25.7815 68.1575 26.3098 67.5433 26.8541 67.1613C27.1183 66.9767 27.4143 66.8685 27.6721 66.8526C27.7612 66.8526 27.9012 66.8876 28.0349 66.9481C28.1686 67.015 28.3022 67.1009 28.4264 67.2027C28.9197 67.626 29.2062 68.2499 29.0343 68.861C28.8847 69.4943 28.4264 70.1054 27.9235 70.6306C27.3793 71.1844 27.3029 71.7414 27.5575 72.0787C27.8025 72.4034 28.4487 72.4766 29.1234 71.7891C29.4354 71.4676 29.7314 71.1143 30.0019 70.7101C30.2692 70.3059 30.5143 69.8381 30.6575 69.262C30.7307 68.9787 30.7625 68.6604 30.753 68.3262C30.7307 67.9984 30.6671 67.6738 30.5525 67.3842C30.3329 66.7922 29.9668 66.3243 29.5371 65.9423C29.3144 65.7546 29.0725 65.5859 28.7924 65.4459C28.5028 65.3122 28.1813 65.1849 27.7102 65.169C27.6561 65.169 27.5861 65.169 27.5415 65.169L27.4206 65.1848L27.1819 65.223C27.0196 65.2453 26.87 65.2931 26.7236 65.3472C26.574 65.3981 26.4276 65.4554 26.3099 65.5286C26.1889 65.5986 26.0456 65.6654 25.947 65.7418C25.495 66.041 25.2023 66.3402 24.9063 66.6107C24.6198 66.8844 24.3652 67.1168 24.1074 67.3396C23.595 67.7693 23.0602 68.0812 22.4555 68.2912C21.8476 68.5013 21.2047 68.6223 20.479 68.6286C19.0468 68.7146 17.64 68.5491 16.4146 67.9539C15.1861 67.3714 14.1389 66.3752 13.2382 65.1817C12.3279 63.9945 11.5005 62.6736 10.5838 61.3942C9.6672 60.1147 8.66457 58.8575 7.50286 57.7595C6.34433 56.6582 5.0458 55.7034 3.63901 54.9364C2.73511 54.4462 1.78347 54.0356 0.784082 53.7333C0.503999 53.6473 0.204794 53.8065 0.122042 54.0897C0.109311 54.1311 0.102923 54.1693 0.0997407 54.2107V54.2266L0.00113395 55.8784C-0.0115971 56.0758 0.0838828 56.2572 0.236656 56.3622L0.249321 56.3718C1.42695 57.177 2.56326 58.0013 3.58493 58.9434C4.60978 59.8824 5.52005 60.9263 6.28073 62.0658C7.0605 63.237 7.75116 64.4496 8.42272 65.7132C9.09429 66.9736 9.81036 68.2817 10.6824 69.4975C11.5195 70.7006 12.5698 71.926 13.8748 72.8076C14.5209 73.2532 15.2211 73.6256 15.9436 73.9216C16.6692 74.2207 17.4267 74.4085 18.1811 74.5581C18.9417 74.6759 19.7056 74.7522 20.4599 74.7363L21.0264 74.7268C21.2174 74.7172 21.4148 74.7013 21.6057 74.6854C21.9908 74.6408 22.3728 74.5836 22.7452 74.4944C24.2379 74.1539 25.6224 73.5141 26.8159 72.6262C27.2965 72.2633 27.3474 71.8145 27.1724 71.5854C26.991 71.3499 26.6313 71.3021 26.1794 71.6172L26.1826 71.6204Z" fill="#FF7A1C"/>
<path d="M58.5525 51.236L42.8896 64.7319L51.7048 74.9624L67.3677 61.4665L58.5525 51.236Z" fill="white"/>
<path d="M42.6645 65.3467C45.6276 68.7428 48.4189 72.0624 51.2039 75.4584C51.433 75.7385 51.8436 75.7799 52.1237 75.5507L52.1491 75.5284C57.4739 71.1617 62.9292 66.9636 68.203 62.4854C68.7345 62.0367 68.7982 61.241 68.3463 60.7127L68.3367 60.6999L67.9293 60.2225C65.138 56.9538 62.2353 53.7901 59.3104 50.6519L59.2563 50.5914C58.8998 50.2095 58.3015 50.1872 57.9195 50.5437L50.6182 57.4089C48.2089 59.6655 45.8091 61.8648 43.3265 64.0418C42.2285 65.0189 43.9026 65.0921 44.9879 64.2296C47.445 62.2435 49.8034 60.2639 52.1268 58.2173C54.4503 56.174 56.7451 54.0575 59.0844 51.8995L57.9704 51.8168C60.8763 54.9741 63.7694 58.1473 66.5766 61.3969L66.9872 61.8743L67.0413 61.1359C61.8407 65.5982 56.3376 69.8249 51.0893 74.2967L52.4515 74.3986C51.1402 72.8549 49.8003 71.3717 48.3776 69.8981C46.9581 68.4245 45.4526 66.9477 43.8644 65.3945C43.1196 64.6752 41.9388 64.5001 42.6708 65.3531L42.6645 65.3467Z" fill="#FF7A1C"/>
<path d="M52.1379 62.5601C52.313 63.1489 53.2583 64.4921 52.2048 65.7015C51.6796 66.3954 50.171 66.7264 49.3467 65.727C47.7012 63.7346 42.7266 43.2566 42.7266 43.2566L50.989 39.5933C53.1501 46.92 59.296 61.7294 59.4711 62.3182C59.6461 62.907 59.4424 63.6868 59.1623 64.0306C58.6117 64.7085 57.6664 65.2782 56.5906 64.5653C55.8491 64.072 56.0241 63.9733 56.0241 63.9733" fill="white"/>
<path d="M51.7496 63.5463C51.9819 64.0428 52.0711 64.4725 51.9565 64.8354C51.9311 64.9277 51.8833 65.0168 51.8355 65.1091L51.74 65.2396L51.7178 65.2746L51.67 65.3319L51.6351 65.3764C51.5205 65.4974 51.3327 65.612 51.1258 65.6756C50.7025 65.8093 50.2474 65.7424 49.9514 65.491C49.6713 65.2746 49.4326 64.6953 49.2129 64.1542C48.7737 63.053 48.4172 61.8881 48.0735 60.7296C47.7329 59.5647 47.421 58.3934 47.1218 57.2158C45.9315 52.5021 44.9353 47.7312 43.885 42.9761L43.2071 44.3543C44.7571 43.7113 46.3039 43.0525 47.8475 42.3777C49.0697 41.843 50.2823 41.2956 51.4918 40.7386L49.789 39.9493C50.5274 42.2886 51.3963 44.5357 52.3002 46.77C53.2041 49.0011 54.1558 51.2067 55.117 53.4092L58.0038 60.0007L58.7135 61.6494L59.0414 62.4419C59.105 62.6361 59.1145 62.8843 59.0763 63.1294C59.0413 63.3681 58.9458 63.6291 58.8408 63.7691C58.6785 63.9697 58.4939 64.1511 58.2838 64.2784C57.8701 64.5457 57.4022 64.5648 56.9694 64.3293C56.8453 64.2561 56.7052 64.1988 56.5747 64.1574C56.4474 64.1192 56.3296 64.1065 56.2182 64.1065C56.1068 64.1001 55.9986 64.1256 55.8776 64.0651C55.8204 64.0333 55.7631 63.9506 55.7631 63.8455C55.7631 63.7946 55.7695 63.7468 55.779 63.7055C55.779 63.6705 55.8235 63.61 55.8044 63.5909C55.7981 63.5782 55.7822 63.5718 55.7567 63.575L55.6772 63.5877C55.6199 63.6036 55.5594 63.6291 55.4925 63.6928C55.3589 63.8137 55.2857 64.0333 55.2793 64.2052C55.2698 64.5362 55.3366 64.7303 55.397 64.9117C55.4639 65.09 55.5498 65.2459 55.6676 65.3892C55.7249 65.4624 55.7917 65.5292 55.8649 65.5929C55.9445 65.6597 56.0686 65.7393 56.1864 65.8093C56.6001 66.0352 57.1413 66.188 57.6887 66.1657C58.2393 66.1498 58.7485 65.9589 59.1495 65.7106C59.5569 65.4624 59.8689 65.1568 60.1362 64.829C60.3527 64.5521 60.4545 64.3229 60.5436 64.0969C60.6296 63.8741 60.6836 63.6545 60.7218 63.4318C60.7918 62.9862 60.8109 62.5151 60.6486 61.9677C60.4958 61.5476 60.394 61.328 60.2762 61.032L59.5729 59.3737L56.7371 52.779C55.795 50.5797 54.8655 48.3773 53.9775 46.1557C53.0927 43.9373 52.2366 41.703 51.5205 39.4369L51.5141 39.4178C51.4218 39.1282 51.1131 38.9658 50.8203 39.0581C50.798 39.0645 50.7757 39.074 50.7566 39.0836C49.5472 39.6406 48.3345 40.1944 47.1187 40.7355C45.5877 41.4166 44.041 42.0786 42.4878 42.7311C42.2332 42.8393 42.0963 43.113 42.1568 43.3739L42.1631 43.3962C43.2357 48.164 44.2542 52.97 45.5305 57.7155C45.8519 58.9027 46.1925 60.0835 46.5649 61.2611C46.9436 62.4387 47.3319 63.6036 47.8443 64.7749C47.9717 65.0677 48.1085 65.3605 48.2804 65.6724L48.4141 65.9048C48.4618 65.9843 48.5382 66.083 48.6019 66.1721C48.6655 66.2644 48.7419 66.344 48.8247 66.4236C48.901 66.5063 48.9902 66.5763 49.0825 66.6463C49.4485 66.9232 49.8909 67.0856 50.3174 67.1301C50.747 67.1779 51.1672 67.1206 51.5523 66.9805C51.9374 66.8373 52.3034 66.6305 52.6089 66.2835C52.8381 65.9939 53.0768 65.647 53.1787 65.2491C53.2901 64.8545 53.2901 64.4439 53.2137 64.0811C53.1405 63.7182 53.0036 63.3967 52.8572 63.1071C52.7331 62.8684 52.574 62.7379 52.418 62.6679C52.2589 62.601 52.0998 62.582 51.9565 62.617C51.8133 62.6488 51.7019 62.7729 51.6637 62.9512C51.6255 63.1326 51.6509 63.3363 51.7496 63.5495V63.5463Z" fill="#FF7A1C"/>
<path d="M55.2233 61.4243C55.5766 61.9272 56.4296 64.3206 55.6943 64.7885C55.1692 65.4823 54.2398 65.737 53.4345 65.4028L53.0176 65.2309" fill="white"/>
<path d="M54.6399 61.8756C54.729 61.8979 54.8213 62.003 54.8881 62.0985C54.955 62.2003 55.0059 62.3149 55.0345 62.439C55.0982 62.6809 55.1014 62.9482 55.0632 63.2029C55.0282 63.4543 54.9613 63.7057 54.8786 63.8872C54.8626 63.9381 54.8404 63.9763 54.8181 64.0081C54.799 64.0431 54.783 64.0781 54.7608 64.0813C54.7448 64.0909 54.7322 64.1163 54.7258 64.0813C54.7258 64.0718 54.7258 64.059 54.7258 64.0495C54.729 64.0368 54.7417 63.989 54.7576 63.9604C54.7735 63.9285 54.7926 63.9158 54.8213 63.8744C54.8531 63.8299 54.8913 63.7917 54.9358 63.763C54.9581 63.7471 54.9836 63.7344 55.0058 63.7248C55.3018 63.4511 54.6048 64.094 54.678 64.0272V64.0336V64.0399C54.678 64.0399 54.6653 64.0622 54.6622 64.0749C54.6462 64.1227 54.6366 64.18 54.6176 64.2404C54.5825 64.3646 54.5285 64.5237 54.4107 64.6669C54.2993 64.8102 54.1274 64.9375 53.9301 64.9884C53.8314 65.017 53.7264 65.0234 53.6246 65.0107C53.51 64.9948 53.3731 64.9502 53.2585 64.9024C53.1312 64.8483 52.4915 66.3952 52.6219 66.4461C52.6824 66.4715 52.7429 66.4939 52.8034 66.5129L53.0166 66.5734C53.2235 66.6307 53.4367 66.6625 53.6468 66.6625C54.0701 66.6657 54.4776 66.5511 54.8245 66.3729C55.1746 66.1947 55.4642 65.9464 55.6997 65.6823C55.8175 65.5518 55.9225 65.4117 56.018 65.2717L56.088 65.1666L56.1039 65.1412L56.1134 65.1285V65.1221L56.1198 65.1189C56.1516 65.0902 55.8525 65.364 55.9798 65.2462L56.0562 65.1762C56.1071 65.1284 56.1548 65.0807 56.1994 65.0298C56.2439 64.9788 56.2662 64.9279 56.2981 64.877C56.3267 64.8229 56.3617 64.7656 56.384 64.7179L56.4381 64.5715C56.4795 64.4664 56.4986 64.3805 56.5208 64.2914C56.5495 64.1959 56.5654 64.1131 56.5813 64.0272C56.6004 63.9413 56.6195 63.8522 56.6291 63.7726C56.6896 63.4352 56.7214 63.1106 56.7087 62.7955C56.6736 62.1653 56.4667 61.5701 55.6456 61.2486C55.4864 61.1818 54.5794 61.882 54.6335 61.882L54.6399 61.8756Z" fill="#FF7A1C"/>
<path d="M42.1269 45.3958C43.4732 46.1469 52.3786 42.7032 52.5759 40.7394C52.8751 37.7699 48.5306 27.5818 44.4631 28.8295C37.932 30.8314 40.5801 44.5332 42.1269 45.3958Z" fill="white"/>
<path d="M42.6063 46.2296C43.2205 46.2105 43.7011 46.08 44.1977 45.9558C44.6878 45.8253 45.1588 45.6821 45.6267 45.523C46.5593 45.2079 47.4728 44.861 48.3735 44.4822C49.2742 44.1003 50.1653 43.6929 51.0406 43.1996C51.4766 42.9481 51.9095 42.6808 52.3328 42.337C52.5461 42.1652 52.7561 41.971 52.9598 41.7132L53.1094 41.5063C53.1571 41.4204 53.2017 41.3313 53.2431 41.2422C53.2876 41.1594 53.3163 41.0257 53.3417 40.9175C53.3736 40.7838 53.3672 40.7393 53.3768 40.6566C53.4277 40.0582 53.3768 39.5394 53.31 39.0238C53.2399 38.5082 53.138 38.0148 53.0203 37.5247C52.7847 36.5444 52.4793 35.5927 52.1132 34.6602C51.7472 33.7276 51.3271 32.811 50.8146 31.9262C50.299 31.0414 49.7197 30.1757 48.9591 29.3864C48.6026 29.0076 48.1921 28.6511 47.7242 28.3329C47.2627 28.0114 46.7057 27.7377 46.066 27.5913C45.4326 27.4417 44.6846 27.4704 44.0576 27.69C43.7935 27.8014 43.5229 27.8936 43.2747 28.0305C43.0296 28.1801 42.7686 28.2979 42.549 28.4825C41.6228 29.1572 40.9608 30.0802 40.5279 31.0223C40.0919 31.9708 39.8595 32.9479 39.7227 33.9123C39.4617 35.8442 39.5795 37.7348 39.8405 39.584C39.9773 40.5102 40.1524 41.4236 40.3815 42.3307C40.6234 43.2378 40.8685 44.1321 41.3236 45.0169C41.3968 45.1379 41.4796 45.227 41.5751 45.2875C41.6833 45.3479 41.7883 45.3766 41.887 45.3702C42.1161 45.3543 42.2402 45.1856 42.3389 45.0042C42.3421 44.9978 42.3581 44.9565 42.4058 44.8737C42.4535 44.7942 42.5362 44.6796 42.6795 44.5777C42.689 44.5713 42.6986 44.565 42.7113 44.5491L42.7209 44.5363L42.7367 44.5109L42.7686 44.4663C42.7845 44.444 42.8004 44.4218 42.8163 44.3963C42.8322 44.339 42.8227 44.2658 42.7877 44.2149C42.6381 43.9443 42.4917 43.5528 42.3644 43.1709C42.2307 42.7858 42.1225 42.3721 42.0175 41.9615C41.8106 41.134 41.6515 40.2778 41.5305 39.4153C41.295 37.6966 41.2091 35.9365 41.4446 34.2496C41.5655 33.4094 41.766 32.585 42.1097 31.8403C42.4471 31.0987 42.9277 30.4398 43.5611 29.9688C43.7075 29.8351 43.8953 29.7587 44.0608 29.6505C44.2327 29.5519 44.4268 29.4914 44.6082 29.4054C44.9424 29.2877 45.2862 29.2654 45.6458 29.3418C46.0055 29.4182 46.3715 29.5805 46.7089 29.816C47.0495 30.0452 47.374 30.3189 47.6732 30.6308C48.3034 31.2706 48.8286 32.0408 49.2965 32.8397C49.7643 33.6417 50.159 34.4915 50.5027 35.3572C50.8465 36.223 51.1361 37.1141 51.3557 38.0085C51.4639 38.4541 51.5626 38.9028 51.6199 39.3389C51.6804 39.7717 51.7154 40.2173 51.6803 40.5547L51.674 40.6184V40.6343C52.11 40.6788 51.7886 40.647 51.8841 40.6566H51.8745H51.8554C51.8331 40.6566 51.8077 40.6534 51.7854 40.647C51.744 40.6406 51.6899 40.6247 51.6644 40.612C51.6708 40.6056 51.6644 40.612 51.658 40.6184C51.6453 40.6311 51.6454 40.6375 51.6326 40.6566C51.6135 40.6788 51.5944 40.7011 51.5785 40.7266C51.4925 40.8316 51.3621 40.9589 51.2093 41.083C50.9038 41.3345 50.5377 41.5764 50.1558 41.8055C49.3887 42.2607 48.5613 42.6776 47.7242 43.0723C46.8871 43.4669 46.0373 43.8393 45.1812 44.1862C44.7547 44.3613 44.325 44.5268 43.8953 44.6764C43.472 44.8228 43.0296 44.966 42.6381 45.0233C42.5013 45.0456 42.4121 45.1156 42.3135 45.2143C42.2275 45.3066 42.1034 45.4212 42.027 45.5453C41.9538 45.6694 41.9315 45.819 42.0493 45.9749C42.1575 46.1214 42.3644 46.22 42.5967 46.2137L42.6063 46.2296Z" fill="#FF7A1C"/>
<path d="M61.6378 83.0388C61.3641 83.6181 61.1732 85.3209 59.4927 85.5309C58.5887 85.706 57.1597 84.923 57.2011 83.5703C57.287 80.8809 67.6692 61.4819 67.6692 61.4819L76.8005 64.3528C73.3886 71.5554 67.9079 87.3483 67.6342 87.9275C67.3605 88.5068 66.6539 88.9715 66.1924 89.0479C65.2821 89.1943 64.1299 88.9843 63.7735 87.6825C63.5284 86.785 63.7353 86.8263 63.7353 86.8263" fill="white"/>
<path d="M60.6809 83.5528C60.5154 84.1002 60.283 84.5044 59.9266 84.7113C59.8375 84.7654 59.7356 84.8036 59.6306 84.8418L59.4619 84.88L59.4206 84.8895L59.3442 84.9023L59.2837 84.915C59.1023 84.9309 58.8667 84.8895 58.6567 84.7972C58.2206 84.6126 57.8896 84.2402 57.8228 83.8328C57.7846 83.6164 57.8069 83.4318 57.8864 83.1358C57.9597 82.8589 58.052 82.5661 58.1602 82.2765C58.5803 81.1116 59.1118 79.9531 59.6529 78.8105C60.1972 77.6679 60.7701 76.5316 61.3525 75.4049C63.7014 70.9013 66.2381 66.4868 68.7302 62.0468L67.317 62.6229C68.9975 63.1926 70.6812 63.7528 72.3776 64.2938C73.7271 64.7235 75.0798 65.1405 76.4356 65.5447L75.6813 63.8196C74.6278 66.1526 73.743 68.5078 72.8901 70.8758C72.0403 73.2438 71.2445 75.6213 70.4616 78.0052L68.1222 85.1473L67.5271 86.9265C67.4252 87.2162 67.3234 87.5344 67.2311 87.7636C67.1388 87.9609 66.9637 88.1614 66.76 88.3206C66.5563 88.4797 66.3113 88.6134 66.1139 88.6452C65.8466 88.6866 65.5697 88.6961 65.3151 88.6516C64.7994 88.5688 64.4111 88.2569 64.2297 87.7731C64.2074 87.6967 64.1756 87.6331 64.1437 87.5631C64.1119 87.4899 64.077 87.4262 64.0419 87.3658C63.9687 87.248 63.8892 87.1557 63.8064 87.0761C63.7269 86.9934 63.6282 86.9393 63.5805 86.8088C63.5582 86.7451 63.5773 86.6433 63.6441 86.5669C63.6791 86.5287 63.7109 86.5 63.7491 86.4714C63.7714 86.4427 63.8446 86.43 63.8414 86.4014C63.8414 86.3886 63.8383 86.3727 63.816 86.3568C63.7905 86.3409 63.7682 86.325 63.7491 86.3122C63.6982 86.2868 63.6345 86.2645 63.5454 86.2677C63.3704 86.2677 63.1603 86.3791 63.0425 86.5096C62.8102 86.7546 62.7338 86.9551 62.6574 87.1334C62.5906 87.3148 62.5555 87.4962 62.5492 87.6872C62.5492 87.7827 62.5524 87.8782 62.5651 87.98C62.581 88.0882 62.6224 88.2314 62.6702 88.3683C62.842 88.8266 63.1571 89.304 63.5899 89.6541C64.0228 90.0106 64.5353 90.2079 65.0095 90.2939C65.4869 90.383 65.9357 90.3639 66.3654 90.3003L66.4067 90.2939L66.4704 90.2811L66.5945 90.2557C66.6677 90.2366 66.7409 90.2143 66.8078 90.192C66.9382 90.1443 67.0592 90.0934 67.1706 90.0392C67.3933 89.9278 67.5875 89.8037 67.7721 89.6637C68.135 89.3773 68.4755 89.0399 68.7365 88.5211C68.9307 88.0659 69.0007 87.8209 69.1121 87.509L69.7168 85.7298L72.0975 78.6195C72.8963 76.2515 73.7048 73.8867 74.5578 71.541C75.414 69.1985 76.302 66.8624 77.3204 64.5994L77.3268 64.5803C77.4509 64.3034 77.3268 63.9756 77.0499 63.8483C77.0276 63.8387 77.0021 63.8292 76.9799 63.8228C75.624 63.4186 74.2713 63.008 72.9187 62.5847C71.2286 62.0564 69.5386 61.5026 67.8517 60.936C67.5907 60.8469 67.3074 60.9647 67.1801 61.197L67.1706 61.2161C64.688 65.6784 62.1418 70.1342 59.8375 74.7238C59.2646 75.8728 58.7044 77.0313 58.1792 78.2057C57.6573 79.3865 57.1481 80.5642 56.7343 81.8341C56.6834 81.9932 56.6292 82.1523 56.5847 82.321C56.5401 82.4897 56.4892 82.6489 56.4542 82.8398L56.3969 83.1167C56.3842 83.2313 56.3714 83.3459 56.3619 83.4605C56.3492 83.6896 56.3714 83.9252 56.4255 84.1575C56.5306 84.619 56.7725 85.0391 57.078 85.3606C57.3836 85.6821 57.7496 85.9112 58.1411 86.064C58.5357 86.2104 58.9559 86.2995 59.4269 86.239C59.7961 86.1754 60.2194 86.0703 60.5727 85.8348C60.9323 85.612 61.2156 85.2938 61.4098 84.9627C61.6071 84.6317 61.7281 84.288 61.8108 83.9602C61.8808 83.6896 61.8522 83.4732 61.7822 83.3141C61.7089 83.1549 61.6039 83.0308 61.4734 82.9608C61.3461 82.8876 61.1775 82.9099 61.0311 83.0245C60.8815 83.139 60.7605 83.3204 60.6873 83.556L60.6809 83.5528Z" fill="#FF7A1C"/>
<path d="M64.8815 84.2896C64.8115 84.9261 63.8121 87.38 62.9018 87.2336C61.9979 87.4087 61.0813 86.9631 60.6739 86.1451L60.4639 85.7218" fill="white"/>
<path d="M64.1507 84.2394C64.2398 84.4431 64.173 84.7391 64.0584 84.9651C63.9407 85.2006 63.756 85.4107 63.5555 85.5889C63.355 85.764 63.1291 85.9136 62.9381 86.0059C62.8458 86.0504 62.7598 86.0854 62.7089 86.0854C62.6643 86.0854 62.6453 86.0536 62.7789 85.9995C62.8426 85.9772 62.9348 85.9645 63.0431 85.974L63.0813 85.9804H63.1004V85.9868C63.1959 85.9868 62.2633 86.0027 62.658 85.9931L62.6388 85.9995C62.6261 86.0059 62.6134 86.0122 62.6007 86.0186C62.5498 86.0409 62.4957 86.0791 62.432 86.1109C62.3079 86.1809 62.1424 86.2573 61.9482 86.2796C61.7572 86.3051 61.5313 86.2796 61.3403 86.1809C61.2417 86.1332 61.1557 86.0631 61.0825 85.9804C61.0061 85.8881 60.9266 85.7608 60.8661 85.643C60.8024 85.5125 59.3065 86.2573 59.3701 86.3878C59.402 86.4483 59.4338 86.5088 59.4688 86.566L59.5962 86.7602C59.7171 86.9448 59.8603 87.1135 60.0258 87.2567C60.3504 87.5463 60.7419 87.7341 61.1302 87.836C61.5217 87.9378 61.91 87.9474 62.2729 87.906C62.4543 87.8869 62.6293 87.8519 62.8012 87.8137L62.9285 87.7787L62.9922 87.7628H62.9985H63.0017C63.1704 87.7596 62.7725 87.766 62.8139 87.7628H62.8394H62.8935C63.0367 87.7723 63.1704 87.7468 63.2881 87.7118C63.5364 87.6355 63.7083 87.5209 63.8706 87.4158C64.0329 87.3076 64.1729 87.1994 64.313 87.088C64.5899 86.8652 64.8413 86.6329 65.0514 86.3782C65.4588 85.8626 65.7135 85.2484 65.3188 84.4399C65.2456 84.2713 64.0997 84.2012 64.1443 84.2299L64.1507 84.2394Z" fill="#FF7A1C"/>
<path d="M66.7323 60.4265C67.2766 61.9447 76.5703 65.1911 78.2985 64.0421C81.319 62.0338 85.3961 51.4193 80.1859 49.1468C73.5594 46.2568 66.1053 58.6855 66.7323 60.4297" fill="white"/>
<path d="M66.5676 61.3972C67.0737 61.8014 67.5479 62.0305 68.0317 62.2756C68.5155 62.508 68.996 62.718 69.4798 62.9154C70.4506 63.3068 71.4245 63.6569 72.4112 63.9752C73.401 64.2903 74.3972 64.58 75.4379 64.7932C75.9599 64.8982 76.4883 64.9873 77.058 65.0128C77.2044 65.0128 77.3445 65.0255 77.5004 65.0128L77.7296 65.0001L77.9779 64.9651C78.0574 64.9587 78.1529 64.93 78.242 64.9046C78.3311 64.8791 78.4203 64.8537 78.5285 64.7996C78.7608 64.6914 78.8499 64.6118 78.9868 64.5227C79.4865 64.163 79.8779 63.7524 80.2408 63.3323C80.6036 62.909 80.9187 62.4666 81.2179 62.0146C81.8099 61.1076 82.3096 60.1527 82.7233 59.1565C83.1403 58.1603 83.4777 57.1259 83.6941 56.0406C83.9137 54.9584 84.0187 53.819 83.8786 52.6287C83.8023 52.0621 83.6877 51.4861 83.4522 50.9163C83.2262 50.3498 82.9111 49.7864 82.4655 49.309C82.0327 48.8316 81.498 48.4274 80.9251 48.1696C80.3586 47.9023 79.7984 47.7527 79.2032 47.6572C78.016 47.4758 76.832 47.7017 75.8104 48.1027C74.7823 48.507 73.8848 49.0894 73.0795 49.7355C71.4754 51.0436 70.1991 52.6032 69.0788 54.2391C68.5218 55.0603 68.0062 55.9069 67.5384 56.7822C67.3092 57.2246 67.0832 57.6638 66.8859 58.1253C66.6886 58.5868 66.4976 59.0515 66.3734 59.5703C66.3448 59.7135 66.348 59.8472 66.3766 59.9586C66.4148 60.0827 66.4785 60.1782 66.5549 60.245C66.7395 60.3914 66.9432 60.3532 67.1373 60.28C67.1723 60.2673 67.1564 60.2737 67.1659 60.2673L67.1914 60.2546C67.2137 60.245 67.2487 60.2291 67.2933 60.2164C67.3824 60.1877 67.5352 60.1527 67.7007 60.175C67.7834 60.1559 67.8534 60.1336 67.8948 60.1209C67.9489 60.0795 67.9871 60.0222 67.9999 59.9459C68.0762 59.6212 68.2354 59.2042 68.4104 58.8096C68.5823 58.4086 68.7923 58.0044 68.9992 57.6033C69.4321 56.8013 69.9159 56.012 70.441 55.2513C71.4913 53.7331 72.6944 52.2945 74.1044 51.155C74.811 50.5917 75.5717 50.1079 76.3833 49.7864C77.1917 49.4682 78.051 49.3058 78.8913 49.4268C79.305 49.4904 79.7347 49.6018 80.1103 49.7801C80.4954 49.9424 80.8232 50.1938 81.1033 50.4962C81.3897 50.7922 81.603 51.1646 81.7685 51.5656C81.9404 51.9634 82.0327 52.4027 82.0932 52.8483C82.2109 53.784 82.1345 54.7611 81.9404 55.7191C81.7526 56.6771 81.4502 57.6192 81.0715 58.5263C80.6959 59.4334 80.2376 60.3119 79.7125 61.1235C79.4483 61.5277 79.1713 61.9223 78.869 62.2724C78.5698 62.6225 78.2483 62.9504 77.9301 63.1764L77.8124 63.2559L77.7964 63.2655L77.79 63.2718H77.7869C77.806 63.3068 77.7359 63.2018 77.8314 63.3514L77.7773 63.275C77.7773 63.275 77.7709 63.275 77.7677 63.275C77.7741 63.2782 77.7328 63.2846 77.7105 63.2909C77.6882 63.2973 77.6595 63.3068 77.615 63.31L77.4973 63.3259L77.354 63.3323C77.2649 63.3419 77.1503 63.3323 77.0484 63.3323C76.6188 63.3164 76.1477 63.2496 75.6798 63.1668C74.7377 62.9981 73.7797 62.753 72.8313 62.4889C71.8828 62.2215 70.9344 61.9319 70.0018 61.6168C69.5371 61.4577 69.0756 61.2921 68.6269 61.1139C68.1844 60.9357 67.7293 60.7415 67.3729 60.5124C67.2487 60.4328 67.1278 60.4233 66.9878 60.4296C66.8573 60.4392 66.6885 60.4392 66.5485 60.4837C66.4116 60.5283 66.297 60.6301 66.2907 60.8306C66.2811 61.0184 66.3798 61.2348 66.5676 61.3908V61.3972Z" fill="#FF7A1C"/>
<path d="M78.7647 111.444C78.7647 111.444 78.7424 118.974 79.8372 120.311C80.9703 121.692 84.6623 123.338 86.4287 123.067C90.0825 122.504 102.734 117.188 104.676 114.018C105.331 112.952 104.173 109.212 103.167 108.312C100.688 106.087 90.2195 107.131 90.2195 107.131" fill="white"/>
<path d="M78.0352 112.083C78.1147 113.267 78.1943 114.445 78.293 115.625C78.4012 116.806 78.503 117.981 78.7608 119.193C78.8277 119.496 78.9104 119.804 79.0377 120.129C79.0663 120.209 79.1046 120.295 79.1523 120.381C79.1905 120.463 79.251 120.556 79.3178 120.648C79.3815 120.743 79.4356 120.788 79.4929 120.858C79.5502 120.922 79.6074 120.992 79.6679 121.049C80.1453 121.517 80.6545 121.873 81.1797 122.201C82.2364 122.838 83.3408 123.36 84.5662 123.703C85.1837 123.859 85.8393 124.009 86.6191 123.913C87.2684 123.827 87.8572 123.694 88.446 123.554C89.614 123.258 90.7535 122.914 91.877 122.532C94.1272 121.768 96.3297 120.883 98.4781 119.827C99.4997 119.321 100.502 118.773 101.486 118.169C102.466 117.557 103.43 116.902 104.347 116.071C104.576 115.864 104.802 115.632 105.022 115.39C105.248 115.116 105.445 114.89 105.665 114.467C105.722 114.34 105.786 114.193 105.814 114.079C105.84 113.97 105.862 113.859 105.881 113.748C105.907 113.63 105.9 113.547 105.91 113.448C105.913 113.353 105.919 113.254 105.919 113.165C105.907 112.812 105.868 112.484 105.811 112.172C105.693 111.548 105.522 110.969 105.311 110.403C105.095 109.836 104.85 109.289 104.525 108.744C104.449 108.607 104.347 108.471 104.261 108.337C104.153 108.197 104.061 108.066 103.921 107.923L103.704 107.713L103.481 107.551C103.332 107.433 103.182 107.369 103.029 107.283C102.428 106.981 101.836 106.835 101.253 106.717C100.089 106.497 98.9491 106.434 97.816 106.408C95.5499 106.37 93.3156 106.497 91.0781 106.66C90.4798 106.704 90.2188 107.15 90.2633 107.567C90.3047 107.984 90.623 108.369 91.2022 108.327C93.3761 108.171 95.5659 108.057 97.7142 108.108C98.7836 108.136 99.853 108.21 100.843 108.401C101.333 108.496 101.81 108.63 102.18 108.811C102.259 108.859 102.367 108.9 102.428 108.951L102.536 109.021C102.558 109.047 102.584 109.069 102.609 109.091C102.635 109.107 102.667 109.152 102.698 109.19C102.73 109.228 102.762 109.263 102.794 109.308C102.854 109.403 102.924 109.489 102.982 109.594C103.472 110.422 103.857 111.453 104.048 112.43C104.096 112.675 104.121 112.914 104.134 113.143C104.134 113.245 104.134 113.363 104.121 113.445C104.115 113.487 104.108 113.525 104.102 113.569C104.096 113.604 104.083 113.611 104.08 113.639C104.089 113.652 104.042 113.713 104.016 113.754L103.93 113.891L103.711 114.171C103.545 114.356 103.37 114.54 103.176 114.715C102.402 115.422 101.495 116.046 100.566 116.625C99.6334 117.201 98.6658 117.736 97.6792 118.232C95.6199 119.267 93.462 120.139 91.2722 120.893C90.1774 121.269 89.0698 121.612 87.9654 121.896C87.4179 122.032 86.8577 122.16 86.3453 122.227C85.957 122.274 85.4478 122.185 84.9449 122.055C83.9296 121.781 82.9079 121.316 81.9849 120.782C81.5266 120.511 81.0906 120.205 80.7596 119.894L80.6546 119.782C80.6196 119.744 80.575 119.699 80.5782 119.699C80.5718 119.699 80.5527 119.664 80.5368 119.629C80.5177 119.604 80.4986 119.55 80.4795 119.508C80.3999 119.321 80.3236 119.076 80.2567 118.821C80.0021 117.79 79.8461 116.641 79.687 115.511C79.5342 114.365 79.3847 113.222 79.2319 112.08C79.1268 111.278 77.9842 111.211 78.0383 112.096L78.0352 112.083Z" fill="#FF7A1C"/>
<path d="M91.4441 96.6053C92.9018 102.013 93.9076 106.494 93.5829 107.608C93.01 109.572 91.1099 111.545 87.3829 112.971C83.1594 114.588 78.6844 114.187 77.2395 112.767C75.7945 111.348 71.1094 95.6505 70.4347 90.192C69.9413 86.1945 69.9414 81.729 69.9414 81.729" fill="white"/>
<path d="M90.9156 97.4719C91.6922 99.9417 92.3797 102.45 92.8062 104.961C92.9048 105.585 92.994 106.218 93.0099 106.807V107.023L93.0003 107.218C93.0003 107.291 92.9844 107.329 92.9749 107.37C92.9685 107.396 92.9717 107.408 92.9589 107.44L92.924 107.539C92.838 107.806 92.7075 108.061 92.5675 108.309C91.9946 109.302 91.0748 110.104 90.0499 110.731C89.0219 111.358 87.8729 111.842 86.7016 112.202C85.5399 112.555 84.3369 112.784 83.1338 112.848C82.5322 112.889 81.9338 112.876 81.345 112.841C80.7594 112.794 80.1834 112.711 79.6423 112.577C79.1139 112.44 78.6079 112.237 78.2896 112.008C78.2451 111.982 78.2259 111.95 78.1941 111.925L78.1463 111.887C78.1304 111.874 78.1114 111.861 78.1209 111.861V111.855C78.1209 111.855 78.1209 111.855 78.1177 111.852L78.0986 111.82L78.019 111.692C77.8981 111.47 77.7708 111.212 77.6499 110.932C77.182 109.878 76.7587 108.723 76.3353 107.587C75.9184 106.441 75.5079 105.289 75.1068 104.13C74.3016 101.813 73.5218 99.4802 72.793 97.1345C72.4301 95.9601 72.0832 94.7825 71.7649 93.6017C71.4498 92.4177 71.1538 91.2305 70.9629 90.0433C70.5905 87.6276 70.4027 85.1673 70.3517 82.7071C70.3358 81.4021 68.6649 81.3894 68.6808 82.7389C68.7317 85.2437 68.91 87.739 69.276 90.247C69.4733 91.5392 69.7661 92.7614 70.0781 93.9741C70.3931 95.1867 70.7337 96.3834 71.0902 97.5769C71.8063 99.9608 72.5797 102.319 73.3817 104.668C73.7859 105.843 74.1966 107.014 74.6262 108.182C75.0623 109.35 75.4919 110.515 76.0139 111.673C76.1507 111.976 76.2972 112.278 76.4691 112.587C76.5677 112.746 76.6504 112.896 76.8128 113.077C76.886 113.172 76.9592 113.214 77.0355 113.284C77.1119 113.344 77.1852 113.414 77.2616 113.469C77.8854 113.898 78.5569 114.134 79.2285 114.306C79.9001 114.468 80.578 114.557 81.2559 114.611C81.9338 114.643 82.6118 114.656 83.2865 114.602C84.6392 114.519 85.9792 114.255 87.2809 113.841C88.5731 113.427 89.8271 112.886 91.0111 112.132C92.1824 111.384 93.3027 110.394 94.0252 109.048C94.2066 108.713 94.3594 108.36 94.4739 107.988C94.4898 107.937 94.5058 107.905 94.5185 107.838L94.5599 107.638C94.5726 107.571 94.5854 107.498 94.5917 107.44L94.6013 107.281C94.6172 107.058 94.6077 106.877 94.6013 106.689C94.5567 105.957 94.4421 105.305 94.3148 104.646C93.7865 102.042 92.9939 99.5757 92.0709 97.1568C91.7431 96.307 90.626 96.5489 90.9188 97.4624L90.9156 97.4719Z" fill="#FF7A1C"/>
<path d="M75.0788 115.146C75.0788 115.146 69.1779 120.366 68.9265 122.161C68.6401 124.211 73.0132 127.779 74.8433 128.746C78.4557 130.662 89.1721 134.03 91.3714 133.253C92.7241 132.776 93.6439 129.294 93.3829 127.884C92.9787 125.678 86.871 120.204 86.871 120.204" fill="white"/>
<path d="M74.1538 114.999C73.3899 115.785 72.6292 116.568 71.8653 117.351C71.111 118.14 70.3567 118.933 69.6438 119.789C69.2905 120.222 68.9404 120.658 68.6317 121.192C68.5935 121.256 68.5553 121.326 68.5202 121.402C68.4852 121.476 68.4471 121.546 68.4153 121.632C68.3516 121.781 68.2848 122.004 68.2752 122.195C68.2371 122.586 68.307 122.94 68.4057 123.255C68.6094 123.885 68.9213 124.394 69.2491 124.878C69.5833 125.355 69.943 125.798 70.3217 126.218C71.0792 127.058 71.8972 127.822 72.7725 128.535C73.2149 128.892 73.6636 129.232 74.1792 129.554C74.7012 129.869 75.1882 130.12 75.6942 130.372C77.7025 131.345 79.7459 132.132 81.8465 132.803C83.8485 133.43 85.8791 133.949 88.0052 134.258C88.5399 134.331 89.0778 134.395 89.6411 134.42C89.9244 134.433 90.214 134.436 90.5164 134.42C90.8315 134.398 91.1338 134.382 91.5476 134.254L91.6972 134.207C91.7481 134.184 91.8054 134.156 91.8563 134.13C91.9613 134.076 92.0695 134.019 92.165 133.958C92.2446 133.895 92.3242 133.831 92.4006 133.764C92.4833 133.697 92.5534 133.631 92.6075 133.564C92.7284 133.427 92.8462 133.29 92.9289 133.153C93.0244 133.016 93.1104 132.88 93.1772 132.743C93.47 132.198 93.6578 131.657 93.8074 131.113C93.957 130.569 94.0524 130.021 94.1066 129.461C94.132 129.181 94.1479 128.898 94.1447 128.602C94.1447 128.459 94.1288 128.3 94.1193 128.153C94.097 127.994 94.0811 127.835 94.0302 127.666C93.9379 127.316 93.7947 127.055 93.6514 126.8C93.5082 126.549 93.349 126.323 93.1867 126.1C92.8652 125.661 92.5215 125.257 92.1714 124.862C90.7614 123.299 89.2528 121.889 87.7442 120.47C86.9262 119.719 85.8218 120.97 86.6047 121.692C88.0752 123.073 89.552 124.474 90.857 125.941C91.1816 126.307 91.4903 126.68 91.7608 127.049C91.8945 127.233 92.025 127.421 92.1269 127.596C92.2287 127.768 92.3178 127.949 92.3465 128.042C92.3687 128.093 92.3751 128.182 92.3942 128.261C92.3974 128.36 92.4165 128.446 92.4133 128.554C92.4165 128.761 92.4069 128.984 92.3878 129.21C92.3433 129.662 92.2606 130.126 92.1396 130.572C92.0187 131.018 91.8627 131.454 91.6654 131.829C91.4712 132.198 91.2229 132.507 91.0638 132.539C90.946 132.59 90.7169 132.615 90.5036 132.631C90.2777 132.641 90.0421 132.641 89.8003 132.631C89.3165 132.609 88.82 132.552 88.3235 132.482C86.3311 132.189 84.3354 131.686 82.3812 131.088C80.3474 130.454 78.3296 129.684 76.4199 128.764C75.9488 128.535 75.4714 128.287 75.0481 128.032C74.6312 127.771 74.2111 127.456 73.8069 127.135C72.9953 126.482 72.2219 125.769 71.528 125.018C71.1811 124.643 70.8596 124.254 70.5764 123.86C70.2995 123.468 70.0607 123.058 69.9493 122.711C69.8952 122.539 69.8793 122.396 69.8889 122.316C69.8825 122.287 69.9461 122.112 70.048 121.928C70.2485 121.552 70.5573 121.135 70.8628 120.734C71.4898 119.922 72.1837 119.12 72.8743 118.315C73.5682 117.504 74.2652 116.692 74.9559 115.884C75.4428 115.314 74.7267 114.419 74.1506 115.002L74.1538 114.999Z" fill="#FF7A1C"/>
<path d="M81.3547 97.515C81.6412 99.3133 81.7494 101.14 81.342 103.336C80.6895 106.866 74.4736 112.646 73.5029 114.454C72.7517 115.854 73.5665 119.209 77.599 122.356C81.1701 125.145 85.8965 125.046 86.9055 124.613C89.98 123.299 99.6525 109.737 100.015 106.879C100.894 99.9371 97.8096 87.3906 97.8096 87.3906" fill="white"/>
<path d="M80.7509 98.4979C81.0119 100.096 81.0182 101.735 80.719 103.31L80.579 103.842L80.3626 104.38C80.2958 104.561 80.1875 104.733 80.1016 104.911C80.0125 105.089 79.9234 105.264 79.812 105.436L79.4968 105.955L79.1531 106.461C78.9303 106.802 78.6725 107.126 78.4306 107.457C77.4281 108.765 76.3141 110.007 75.1938 111.251C74.6304 111.878 74.0639 112.492 73.5069 113.164C73.2364 113.524 72.9404 113.829 72.6985 114.396C72.4852 114.937 72.4534 115.465 72.4693 115.965C72.5362 116.958 72.8385 117.862 73.2395 118.689C73.6469 119.517 74.1625 120.268 74.7322 120.962C75.3051 121.652 75.9322 122.295 76.6069 122.871C76.9284 123.167 77.3071 123.441 77.6763 123.721C78.0614 123.97 78.4434 124.234 78.854 124.441C80.4708 125.322 82.2531 125.828 84.0769 126.013C84.5352 126.061 84.9967 126.077 85.4709 126.073C85.7096 126.07 85.9483 126.057 86.1998 126.032L86.5817 125.984C86.7249 125.956 86.8586 125.933 87.005 125.898C87.3837 125.796 87.6575 125.647 87.9057 125.504L88.2431 125.287C88.3514 125.214 88.4405 125.141 88.5423 125.064C88.9338 124.768 89.268 124.463 89.599 124.151C90.8244 122.967 91.8778 121.719 92.8931 120.437C93.9021 119.157 94.8569 117.843 95.7704 116.503C96.6838 115.163 97.5559 113.794 98.3802 112.394C98.794 111.694 99.1886 110.977 99.5674 110.249C99.9429 109.513 100.306 108.775 100.599 107.935C100.637 107.833 100.669 107.715 100.7 107.604C100.732 107.489 100.767 107.381 100.786 107.238C100.847 106.942 100.834 106.773 100.853 106.557C100.869 106.14 100.914 105.723 100.904 105.312L100.895 104.077L100.828 102.855C100.71 101.232 100.535 99.6246 100.287 98.03C99.8093 94.8409 99.1727 91.6931 98.4821 88.5549C98.2943 87.7178 97.7851 87.3964 97.3809 87.4982C96.9766 87.5969 96.6679 88.0966 96.8525 88.9177C97.5336 92.005 98.1478 95.1146 98.5998 98.2337C98.8353 99.7932 98.9977 101.353 99.1027 102.909L99.16 104.074V105.229C99.1727 105.618 99.1282 105.99 99.1123 106.372C99.0995 106.55 99.0963 106.792 99.0708 106.875C99.0708 106.929 99.0454 107.009 99.0231 107.085C99.0009 107.161 98.9849 107.238 98.9499 107.324C98.7176 107.989 98.3739 108.699 98.0174 109.389C97.6546 110.08 97.2694 110.767 96.8652 111.449C96.0568 112.808 95.2006 114.148 94.2999 115.459C93.4023 116.77 92.4667 118.059 91.4832 119.307C90.4997 120.551 89.4716 121.77 88.3545 122.859C88.0617 123.136 87.7625 123.409 87.4506 123.648C87.1451 123.89 86.8141 124.1 86.5499 124.173C86.2284 124.256 85.8178 124.281 85.4295 124.294C85.0349 124.297 84.6339 124.288 84.236 124.246C82.6414 124.091 81.0596 123.642 79.6687 122.884C79.3154 122.706 78.9908 122.48 78.6566 122.27C78.3447 122.028 78.0264 121.808 77.7273 121.532C77.1098 121.01 76.5496 120.433 76.0436 119.826C75.5375 119.218 75.0919 118.568 74.7577 117.884C74.4235 117.206 74.2008 116.484 74.1594 115.822C74.1467 115.497 74.188 115.188 74.2739 114.988C74.293 114.911 74.414 114.752 74.4935 114.622L74.8405 114.167C75.3434 113.546 75.9035 112.919 76.4542 112.289C77.5586 111.022 78.6757 109.736 79.6878 108.339C79.9393 107.986 80.1907 107.639 80.4231 107.266C80.665 106.907 80.8877 106.525 81.1041 106.137C81.2187 105.949 81.311 105.739 81.4097 105.538C81.5052 105.331 81.6134 105.14 81.6866 104.914C81.7662 104.695 81.8521 104.481 81.9221 104.255L82.0845 103.543C82.3518 101.798 82.2722 100.029 81.9253 98.3578C81.8044 97.769 81.4416 97.508 81.1551 97.5462C80.8623 97.5844 80.6427 97.9091 80.7413 98.501L80.7509 98.4979Z" fill="#FF7A1C"/>
<path d="M87.5 96.2031L76 86.2031L91 85.2031L94 92.2031L87.5 96.2031Z" fill="white"/>
<path d="M72.1402 47.3047C69.3998 58.5685 66.9682 80.0681 68.827 82.3502C73.8621 88.5247 86.4148 90.2498 89.6008 90.4439C91.1222 90.5362 93.4806 90.81 97.1122 88.0314C100.811 85.2019 97.596 67.0729 94.9002 47.588" fill="white"/>
<path d="M71.1518 48.3167C70.2829 52.7439 69.5891 57.1616 68.9494 61.5856C68.3256 66.0129 67.759 70.4401 67.4471 74.9182C67.3739 76.0386 67.3198 77.1653 67.3103 78.3047C67.3071 78.8744 67.3134 79.4473 67.3484 80.0298C67.3866 80.6154 67.4312 81.201 67.5872 81.8503C67.6763 82.1749 67.7591 82.5346 68.0901 82.9738C68.2842 83.203 68.4719 83.4417 68.6756 83.6645C69.083 84.1069 69.5095 84.527 69.9615 84.9121C70.8622 85.6887 71.8362 86.3571 72.8451 86.9459C74.8662 88.1204 77.0145 88.9956 79.1979 89.6958C81.3876 90.3897 83.6187 90.9148 85.8785 91.2808C86.9575 91.4559 88.0364 91.5991 89.1472 91.6851L89.9716 91.736C90.2485 91.7519 90.5477 91.7583 90.8468 91.7583C91.4484 91.7551 92.069 91.6914 92.6706 91.5641C93.8768 91.3127 94.994 90.8289 95.987 90.2337C96.2352 90.0841 96.4835 89.9345 96.719 89.7722C96.9577 89.6131 97.1932 89.4508 97.416 89.2757L97.7566 89.0179C97.7884 88.9924 97.8075 88.9829 97.8457 88.9479L97.9571 88.846L98.1768 88.6328C98.3327 88.4896 98.425 88.34 98.5364 88.1872L98.6955 87.9581C98.7433 87.8817 98.7751 87.8053 98.8165 87.7321C99.434 86.5099 99.5867 85.3577 99.7076 84.2342C99.8126 83.1107 99.8158 82.0158 99.7936 80.9273C99.7394 78.7503 99.5358 76.6147 99.2939 74.4886C98.8006 70.2364 98.1258 66.0351 97.4606 61.8307C96.7923 57.6294 96.1175 53.4314 95.5287 49.2206C95.2168 46.9767 93.5617 47.2027 93.8737 49.4529C94.4625 53.6669 95.1245 57.865 95.7769 62.0599C96.423 66.2548 97.0755 70.4433 97.5434 74.6413C97.7726 76.7388 97.9635 78.8394 98.0081 80.9273C98.0272 81.9712 98.0176 83.012 97.9221 84.0305C97.8235 85.0394 97.6453 86.0611 97.2347 86.86C97.1901 86.9682 97.1296 87.0541 97.0692 87.1369C97.0087 87.2196 96.9577 87.3183 96.8845 87.3756L96.7827 87.4775C96.7508 87.5125 96.7191 87.5475 96.6618 87.5857L96.353 87.818C96.1493 87.9771 95.9392 88.1204 95.7292 88.2636C95.5191 88.4132 95.3027 88.5405 95.0831 88.671C94.2142 89.193 93.2816 89.5908 92.3141 89.7945C91.8303 89.8995 91.337 89.9505 90.8373 89.9537C90.5858 89.9537 90.3344 89.9505 90.0735 89.9345L89.2872 89.8868C88.2497 89.8072 87.1994 89.6736 86.1618 89.5081C83.9944 89.1611 81.8428 88.6646 79.7453 88.0058C77.651 87.3406 75.6046 86.5131 73.7267 85.4245C72.791 84.8803 71.8966 84.2692 71.0882 83.5754C70.6808 83.2316 70.3052 82.8593 69.9487 82.4742C69.7705 82.2832 69.6114 82.0763 69.4427 81.879C69.395 81.8217 69.3186 81.6275 69.2677 81.4047C69.1595 80.9528 69.1053 80.4181 69.0735 79.8897C69.0417 79.355 69.0321 78.8108 69.0321 78.2665C69.0321 77.1748 69.0831 76.0704 69.1468 74.966C69.4237 70.5451 69.9424 66.1211 70.4835 61.7193C71.0373 57.3175 71.6198 52.9285 72.3136 48.5808C72.5682 47.0595 71.486 46.6744 71.1487 48.3167H71.1518Z" fill="#FF7A1C"/>
<path d="M118.391 48.9076C118.938 48.6275 120.32 47.7332 121.469 48.271C122.258 48.6402 122.847 50.0852 122.013 51.0783C120.355 53.0579 101.936 61.1358 101.936 61.1358L96.834 53.6754C103.645 50.2221 117.095 41.4886 117.643 41.2117C118.19 40.9316 118.992 40.9921 119.381 41.2053C120.145 41.6223 120.88 42.4498 120.374 43.637C120.024 44.4581 119.406 44.9546 119.406 44.9546" fill="white"/>
<path d="M119.392 49.2047C119.857 48.9469 120.331 48.7687 120.735 48.7687C120.834 48.7687 120.933 48.7814 121.022 48.8005C121.111 48.8228 121.206 48.8578 121.254 48.8865C121.381 48.9628 121.525 49.1156 121.623 49.297C121.83 49.663 121.865 50.115 121.703 50.4523C121.662 50.5383 121.607 50.6179 121.547 50.6974C121.474 50.7674 121.413 50.8375 121.302 50.9202C121.206 50.9998 121.098 51.0826 120.984 51.159C120.872 51.2385 120.758 51.3181 120.637 51.3913C119.682 52.0056 118.638 52.5466 117.6 53.0718C116.556 53.597 115.496 54.0966 114.433 54.5804C110.169 56.5155 105.805 58.2661 101.464 60.0516L102.905 60.4654C101.83 58.7976 100.738 57.1394 99.6209 55.4907C99.0448 54.6409 98.4624 53.7943 97.8736 52.954L97.4025 54.7905C99.6304 53.616 101.741 52.3207 103.832 50.9934C105.916 49.663 107.969 48.2913 110.013 46.9068L116.13 42.7533L117.661 41.7348L117.83 41.6265C117.887 41.5915 117.925 41.5756 117.979 41.5533C118.084 41.512 118.202 41.4833 118.323 41.4674C118.565 41.4356 118.838 41.4515 119.055 41.5151C119.112 41.5311 119.147 41.547 119.195 41.5725C119.252 41.6043 119.309 41.6361 119.367 41.6711C119.478 41.7411 119.58 41.8207 119.676 41.9066C119.863 42.0785 120.006 42.279 120.08 42.4954C120.242 42.9251 120.08 43.4312 119.781 43.9022C119.434 44.4337 119.443 44.9271 119.685 45.2803C119.825 45.4363 120.057 45.5191 120.331 45.465C120.605 45.4109 120.926 45.2135 121.19 44.7998C121.41 44.4497 121.598 44.0805 121.725 43.5776C121.849 43.0906 121.849 42.4986 121.665 41.9703C121.49 41.4388 121.168 41.0123 120.828 40.694C120.656 40.5349 120.478 40.3948 120.29 40.277C120.197 40.2166 120.102 40.1625 120.006 40.1084C119.962 40.0829 119.86 40.032 119.793 40.0033C119.723 39.9747 119.647 39.946 119.583 39.927C119.055 39.7678 118.625 39.7519 118.151 39.7964C117.915 39.8251 117.674 39.8728 117.422 39.9651C117.304 40.0065 117.152 40.0765 117.053 40.1307L116.789 40.2898L115.226 41.3178L109.096 45.4204C107.049 46.7826 104.997 48.1353 102.921 49.4466C100.843 50.7547 98.7456 52.0342 96.5877 53.1768L96.575 53.1832C96.3108 53.3232 96.209 53.651 96.349 53.9184C96.3586 53.9375 96.3713 53.9566 96.384 53.9757L98.1409 56.506C99.2612 58.1387 100.359 59.797 101.445 61.4679C101.601 61.7066 101.9 61.7926 102.154 61.6875L102.177 61.678C106.534 59.8702 110.92 58.0878 115.204 56.0572C116.273 55.548 117.336 55.0196 118.387 54.4595C119.437 53.8961 120.474 53.32 121.496 52.6166C121.623 52.5339 121.754 52.432 121.881 52.3366C122.008 52.2474 122.142 52.1329 122.276 52.0183L122.375 51.9323L122.486 51.8178C122.559 51.7382 122.636 51.665 122.699 51.5791C122.763 51.4899 122.826 51.4008 122.881 51.3085C122.931 51.2099 122.982 51.1144 123.027 51.0125C123.196 50.6051 123.247 50.1627 123.199 49.7553C123.151 49.3448 123.017 48.966 122.814 48.6254C122.604 48.2881 122.339 47.9762 121.938 47.7534C121.837 47.6993 121.732 47.6484 121.636 47.6229C121.541 47.5911 121.445 47.5561 121.346 47.5401C121.152 47.4988 120.955 47.4828 120.767 47.4892C120.007 47.5179 119.395 47.817 118.867 48.1353C118.415 48.4186 118.358 48.8132 118.476 49.0774C118.597 49.3479 118.982 49.4403 119.392 49.2079V49.2047Z" fill="#FF7A1C"/>
<path d="M116.9 46.1597C117.33 45.7205 118.982 44.5524 120.121 45.0871C120.911 45.4563 121.318 46.3475 121.137 47.1973L121.041 47.6397" fill="white"/>
<path d="M117.46 46.639C117.517 46.413 117.715 46.2252 117.928 46.117C118.144 46.0056 118.396 45.9579 118.638 45.9579C118.88 45.9547 119.112 46.0025 119.277 46.0693C119.446 46.133 119.538 46.2157 119.564 46.2348C119.589 46.2666 119.917 46.1839 120.239 46.3621C120.398 46.448 120.554 46.5945 120.64 46.7823C120.684 46.8746 120.71 46.9764 120.716 47.0814C120.719 47.196 120.703 47.3392 120.678 47.4602C120.649 47.5939 122.282 47.944 122.314 47.8071C122.326 47.7434 122.339 47.6798 122.346 47.6161L122.368 47.3965C122.387 47.1833 122.381 46.97 122.342 46.7663C122.272 46.3526 122.091 45.9738 121.852 45.6619C121.617 45.3468 121.321 45.1018 121.012 44.9172C120.7 44.7294 120.398 44.6084 120.044 44.5066C119.688 44.4143 119.338 44.3601 118.988 44.3379C118.634 44.3156 118.281 44.3315 117.956 44.4079C117.307 44.5607 116.738 44.9362 116.642 45.7829C116.62 45.9388 117.457 46.7186 117.466 46.6454L117.46 46.639Z" fill="#FF7A1C"/>
<path d="M104.146 61.3319C104.64 59.871 99.6396 51.739 97.6727 51.9013C94.6968 52.1464 85.47 58.2669 87.4338 62.0416C90.5879 68.1016 103.58 63.0124 104.146 61.335" fill="white"/>
<path d="M104.883 60.7101C104.752 60.1086 104.536 59.6598 104.326 59.1951C104.109 58.7368 103.88 58.2975 103.641 57.8679C103.164 57.0053 102.658 56.1714 102.12 55.3535C101.582 54.5355 101.019 53.7334 100.376 52.9632C100.051 52.5781 99.7074 52.2025 99.2937 51.8461C99.0836 51.6678 98.8576 51.496 98.5648 51.3432L98.3325 51.235C98.2402 51.2032 98.1447 51.1745 98.0492 51.1522C97.9601 51.1236 97.8232 51.1204 97.7119 51.114C97.575 51.1077 97.5336 51.1204 97.4477 51.1267C96.8493 51.184 96.3496 51.3304 95.8531 51.4896C95.3598 51.6487 94.8919 51.8429 94.4304 52.0466C93.5106 52.4571 92.6289 52.9282 91.7791 53.4597C90.9293 53.9913 90.105 54.5705 89.3252 55.2325C88.5486 55.9009 87.8039 56.6266 87.1641 57.5178C86.8554 57.9347 86.5817 58.4058 86.3525 58.9214C86.1202 59.4338 85.9515 60.0321 85.9229 60.6878C85.891 61.3371 86.0534 62.0691 86.3844 62.6452C86.5403 62.8839 86.6804 63.1322 86.8618 63.355C87.0527 63.5682 87.2183 63.8037 87.4379 63.9883C88.2686 64.7776 89.2966 65.2614 90.3024 65.5161C91.3145 65.7739 92.3202 65.8248 93.2909 65.7834C95.2388 65.6879 97.0784 65.2328 98.848 64.6408C99.7329 64.3384 100.602 64.0011 101.452 63.6096C102.298 63.2086 103.135 62.8043 103.925 62.1964C104.03 62.1041 104.103 62.0055 104.144 61.8973C104.186 61.7795 104.192 61.6713 104.17 61.5758C104.112 61.353 103.925 61.2607 103.727 61.197C103.721 61.197 103.676 61.1875 103.587 61.1557C103.501 61.1238 103.374 61.0634 103.247 60.9392C103.24 60.9329 103.231 60.9233 103.215 60.9138L103.199 60.9074L103.17 60.8947L103.119 60.8724C103.094 60.8629 103.068 60.8501 103.043 60.8374C102.986 60.831 102.912 60.8533 102.871 60.8979C102.632 61.092 102.273 61.3085 101.923 61.5026C101.566 61.7031 101.181 61.8845 100.796 62.066C100.019 62.4224 99.2045 62.7343 98.3834 63.008C96.7347 63.5523 95.0224 63.9533 93.3164 64.0297C92.4666 64.0647 91.62 64.0138 90.8275 63.8133C90.035 63.616 89.303 63.2627 88.7237 62.728C88.5646 62.607 88.4564 62.4383 88.3195 62.2951C88.1922 62.1423 88.0967 61.9641 87.9821 61.8018C87.8039 61.493 87.7211 61.162 87.7307 60.7928C87.7402 60.4268 87.8357 60.0353 88.0044 59.6598C88.1667 59.2842 88.3768 58.9118 88.6314 58.5649C89.147 57.8297 89.809 57.1708 90.5092 56.5661C91.2126 55.9614 91.9765 55.4203 92.769 54.9238C93.5583 54.4273 94.3827 53.9849 95.2197 53.6029C95.6398 53.4152 96.06 53.2401 96.4801 53.1001C96.8938 52.96 97.3267 52.8455 97.6673 52.82L97.7309 52.8136H97.7468C97.7118 52.3744 97.7373 52.6959 97.7309 52.6004V52.6099L97.7341 52.629C97.7341 52.6513 97.7373 52.6768 97.7373 52.6991C97.7373 52.7404 97.7309 52.7977 97.7245 52.8232C97.7182 52.8168 97.7245 52.8232 97.7309 52.8296C97.7436 52.8391 97.7532 52.8359 97.7755 52.8454C97.801 52.8614 97.8264 52.8741 97.8551 52.8868C97.9728 52.9537 98.1224 53.0587 98.272 53.186C98.5744 53.4406 98.8799 53.7589 99.1727 54.0899C99.7615 54.7615 100.319 55.4999 100.86 56.251C101.397 57.0022 101.919 57.7724 102.416 58.549C102.664 58.9373 102.906 59.3287 103.129 59.7234C103.348 60.1149 103.568 60.5223 103.699 60.8947C103.743 61.0252 103.832 61.1016 103.947 61.178C104.055 61.248 104.189 61.3466 104.326 61.3975C104.462 61.4485 104.612 61.4421 104.743 61.2957C104.867 61.162 104.927 60.9424 104.879 60.7164L104.883 60.7101Z" fill="#FF7A1C"/>
<path d="M89.8732 52.9708C80.8373 55.4852 73.8702 49.1101 72.8517 40.1156C72.4157 36.2549 74.058 21.0317 74.8442 21.0508C77.1167 21.0985 88.2723 28.5813 93.8835 34.0142C95.3539 35.4401 98.804 39.3613 97.8269 44.2596C97.2063 47.3818 95.147 51.5035 89.87 52.9708H89.8732Z" fill="white"/>
<path d="M88.7295 52.4945C86.979 52.9337 85.1394 52.9974 83.3825 52.6282C81.6256 52.259 79.9738 51.441 78.5988 50.2857C77.2207 49.1335 76.1067 47.6662 75.3078 46.0494C74.5057 44.4325 73.9997 42.6725 73.7578 40.8837L73.6846 40.2122C73.656 39.983 73.6496 39.7857 73.64 39.5597C73.6273 39.1173 73.6337 38.659 73.6496 38.2007C73.6814 37.2808 73.7451 36.3515 73.8215 35.4253C73.9774 33.5666 74.1843 31.7046 74.4166 29.8491C74.6521 27.9935 74.9131 26.1348 75.2314 24.3142C75.311 23.8591 75.3969 23.4072 75.4892 22.9679C75.537 22.7483 75.5847 22.5319 75.6388 22.3282C75.6897 22.1277 75.7502 21.9208 75.7948 21.8126C75.8011 21.7967 75.8043 21.7935 75.8043 21.7903C75.8043 21.784 75.8075 21.7808 75.798 21.8031C75.7948 21.8094 75.7884 21.819 75.7852 21.8253C75.7725 21.8476 75.7502 21.8826 75.7279 21.9081L75.6929 21.9463C75.6706 21.9717 75.6261 22.0163 75.5879 22.0481C75.5497 22.0831 75.5051 22.1118 75.4606 22.1372C75.4415 22.15 75.3173 22.2232 75.2027 22.2582C75.0882 22.2964 74.9641 22.3155 74.8495 22.3123C74.7795 22.3123 74.8304 22.3123 74.8145 22.3123L74.824 22.3155C74.8304 22.3155 74.8336 22.3187 74.8399 22.3187H74.8559L74.9068 22.3314C74.9704 22.3473 75.0372 22.3632 75.1295 22.3951C75.2123 22.4237 75.2983 22.4491 75.3969 22.4905C75.7693 22.6337 76.1703 22.8247 76.5682 23.0252C78.0895 23.805 79.6109 24.7376 81.11 25.6828C82.6059 26.6377 84.089 27.6244 85.5467 28.646C87.0076 29.6645 88.4462 30.7148 89.8498 31.8033C90.5532 32.3476 91.2439 32.9014 91.9218 33.4711C92.5934 34.0408 93.2777 34.6232 93.8665 35.2184C95.0601 36.4374 96.0785 37.8442 96.7215 39.4069C97.0366 40.1899 97.253 41.0079 97.3516 41.8386C97.4662 42.6756 97.3866 43.5159 97.2498 44.3562C96.9251 46.0462 96.2345 47.6821 95.1778 49.0476C94.6558 49.735 94.0257 50.3365 93.335 50.8553C92.6444 51.3741 91.8868 51.8102 91.0752 52.1253C90.6519 52.313 90.3495 52.4976 90.1681 52.7268C89.9899 52.9496 89.9263 53.1883 89.9836 53.3888C90.0409 53.5894 90.2159 53.7549 90.5087 53.8249C90.8015 53.8917 91.2185 53.8885 91.7086 53.6721C92.6348 53.3061 93.5196 52.8064 94.328 52.2016C95.1364 51.6001 95.8749 50.8935 96.4859 50.0947C97.724 48.5033 98.5229 46.6382 98.9049 44.719C99.0799 43.7387 99.1818 42.7011 99.0545 41.7017C98.9462 40.6991 98.698 39.722 98.3383 38.8054C97.6031 36.9721 96.4669 35.3903 95.1556 34.0249C94.4808 33.3342 93.7934 32.7486 93.0995 32.1502C92.4057 31.5582 91.6959 30.9853 90.9797 30.4252C89.5507 29.3017 88.0898 28.2291 86.6066 27.1883C85.1235 26.1475 83.6212 25.1386 82.0903 24.1647C80.5562 23.1971 79.0094 22.2518 77.3702 21.4179C76.9406 21.2015 76.5045 20.9946 76.0367 20.8164C75.9221 20.7686 75.8011 20.7273 75.677 20.6891C75.5592 20.6477 75.4255 20.6127 75.2887 20.5809C75.2218 20.5649 75.155 20.549 75.0723 20.5395L74.9546 20.5268L74.894 20.5204H74.8654C74.8654 20.5204 74.8654 20.514 74.7859 20.5204C74.6745 20.5268 74.5185 20.5968 74.493 20.6222C74.4453 20.6541 74.3816 20.7114 74.3562 20.74C74.3116 20.7909 74.2606 20.8609 74.2447 20.896C74.1906 20.9883 74.1652 21.0551 74.1334 21.1251C73.9329 21.6503 73.8469 22.1054 73.7387 22.5828C73.6401 23.0539 73.5541 23.5217 73.4713 23.9928C73.1499 25.8706 72.8921 27.7485 72.6565 29.6327C72.4242 31.5201 72.2237 33.4106 72.0741 35.3139C72.0009 36.2655 71.9405 37.2204 71.915 38.1911C71.9055 38.6781 71.8991 39.1618 71.9214 39.6679C71.9405 40.1899 72.0137 40.6801 72.0741 41.167C72.3606 43.1276 72.9494 45.0627 73.8724 46.8451C74.7922 48.6242 76.0717 50.2474 77.6631 51.5078C79.2481 52.7714 81.1482 53.6434 83.1215 53.9904C85.0948 54.3436 87.1127 54.1909 88.965 53.653C90.2763 53.2392 89.9899 52.1316 88.72 52.4849L88.7295 52.4945Z" fill="#FF7A1C"/>
<path d="M73.4971 26.6505C73.4971 26.6505 74.1941 24.6772 76.2374 24.2793C78.5863 23.821 81.2376 24.1743 81.263 24.4003C81.263 24.4003 76.0051 20.4887 74.2482 21.1252C72.9942 21.5804 73.4971 26.6537 73.4971 26.6537V26.6505Z" fill="#FF7A1C"/>
<path d="M74.2579 26.7353C74.4298 26.1592 74.8181 25.6213 75.3114 25.2871C75.5565 25.1153 75.8366 25.0071 76.1231 24.937L76.3395 24.8957L76.5877 24.8639C76.7564 24.8479 76.9251 24.8352 77.0938 24.8288C77.7718 24.8002 78.4624 24.8511 79.134 24.9498C79.4681 24.9975 79.8024 25.0612 80.1175 25.1376C80.2734 25.1758 80.4293 25.2171 80.563 25.2617C80.6267 25.284 80.6935 25.3062 80.7253 25.3253C80.7349 25.3285 80.7444 25.3349 80.7413 25.3381C80.7413 25.3381 80.7476 25.3444 80.7221 25.3381L80.6967 25.3285C80.668 25.3158 80.6426 25.3031 80.6139 25.2871C80.6139 25.2871 80.493 25.2108 80.4357 25.1439L80.3879 25.0898L80.3402 25.0293C80.3211 25.0007 80.2989 24.9721 80.283 24.9402C80.2098 24.8129 80.162 24.6665 80.1492 24.5296L81.9252 23.508C81.2314 22.9001 80.5376 22.3558 79.7705 21.8657C78.9875 21.366 78.1473 20.9395 77.2307 20.6053C76.7692 20.4398 76.2949 20.2934 75.7634 20.2043C75.496 20.1597 75.216 20.1279 74.9072 20.1311C74.7449 20.1406 74.5889 20.1438 74.4043 20.1852C74.3184 20.2011 74.2293 20.2202 74.1275 20.2584C74.032 20.2902 73.946 20.3157 73.8092 20.3952C73.5546 20.5321 73.4081 20.7167 73.2904 20.8822C73.2426 20.9618 73.1949 21.0445 73.1567 21.1241C73.1249 21.2005 73.0899 21.2769 73.0644 21.3501C72.9657 21.6429 72.9275 21.9039 72.8989 22.1585C72.8448 22.6646 72.8544 23.1356 72.8735 23.6003C72.9117 24.5296 73.0007 25.4272 73.0644 26.3343C73.0739 26.4552 73.1854 26.538 73.3477 26.5825C73.4273 26.6048 73.5227 26.6207 73.6214 26.6239H73.6596H73.6787C73.6851 26.6175 73.6882 26.6048 73.6914 26.5921C73.7073 26.5411 73.6851 26.4679 73.6532 26.4202C73.5864 26.3215 73.5386 26.277 73.545 26.2229C73.5514 26.1815 73.6023 26.0924 73.8315 26.1656C73.9429 26.2038 74.0829 26.3343 74.1402 26.4807C74.1561 26.5125 74.1688 26.5539 74.1752 26.5793H74.1943L74.2293 26.5666C74.3248 26.5443 74.4139 26.5157 74.4903 26.4807C74.6399 26.4107 74.7385 26.3215 74.729 26.207C74.6685 25.3635 74.5953 24.5074 74.5667 23.6894C74.5539 23.282 74.5539 22.8746 74.5858 22.5213C74.6017 22.3462 74.6271 22.1744 74.6526 22.063L74.6685 21.9898C74.6717 21.9707 74.6749 21.9643 74.6749 21.9452C74.6653 21.9389 74.6908 21.9643 74.6336 21.9134C74.5954 21.8816 74.5508 21.8243 74.5317 21.8116C74.4839 21.767 74.4425 21.6874 74.433 21.6779C74.4298 21.6715 74.4266 21.662 74.4234 21.6556V21.6429C74.6621 22.3145 74.4871 21.8307 74.5412 21.9802C74.5412 21.9802 74.5508 21.9739 74.554 21.9707C74.5572 21.9611 74.5762 21.9516 74.6017 21.9452C74.6367 21.923 74.7099 21.9198 74.7768 21.907C74.9232 21.8975 75.1045 21.907 75.2923 21.9357C75.6711 21.9898 76.0753 22.1107 76.4731 22.254C77.2752 22.5436 78.0645 22.9414 78.8093 23.3997C79.5318 23.8453 80.2224 24.3801 80.859 24.9339C81.12 25.163 81.5178 25.1344 81.7438 24.8734C81.8647 24.7333 81.9157 24.5551 81.8934 24.3864L81.887 24.3419C81.8775 24.2559 81.8457 24.1604 81.8012 24.0777C81.7821 24.0427 81.7438 23.9886 81.7342 23.979L81.6961 23.9377C81.6484 23.8867 81.5688 23.8263 81.5529 23.8167C81.5242 23.7976 81.4924 23.7785 81.4606 23.7626L81.3969 23.7308C81.3142 23.6926 81.2537 23.6703 81.1964 23.648C81.0786 23.6066 80.9799 23.578 80.8781 23.5494C80.6776 23.4953 80.4866 23.4507 80.2956 23.4125C79.9137 23.3361 79.5382 23.2788 79.1563 23.2374C78.3956 23.1547 77.6285 23.1356 76.8551 23.2152C76.661 23.2343 76.47 23.2629 76.2758 23.2947C76.1772 23.3138 76.0881 23.3265 75.9799 23.3552L75.6488 23.4443C75.2128 23.5875 74.7958 23.7976 74.4457 24.0841C73.7424 24.6538 73.3063 25.4304 73.1535 26.2356C73.1344 26.3279 73.1886 26.4298 73.2841 26.5189C73.3318 26.5603 73.3827 26.6112 73.4527 26.6335C73.5227 26.6876 73.4559 26.7926 73.4464 26.8562C73.44 26.8912 73.44 26.9295 73.475 26.9613C73.5068 26.9931 73.5959 27.0249 73.7264 26.9645C73.7901 26.9358 73.8474 26.8817 73.8888 26.8276C73.9142 26.7862 73.9111 26.8149 73.9206 26.8085H73.9428C73.9715 26.8181 74.0001 26.8212 74.0288 26.8244C74.1338 26.834 74.2102 26.8149 74.2325 26.748L74.2579 26.7353Z" fill="#FF7A1C"/>
<path d="M65.8382 25.1251C67.3341 24.5363 68.9 25.437 70.4245 25.3924C71.879 25.3542 73.27 24.3485 74.7181 24.2626C74.9123 24.2498 74.8136 22.5821 74.6194 22.5948C73.1713 22.6807 71.7677 23.4987 70.3195 23.6005C68.8077 23.7056 67.2068 22.7285 65.7681 23.9315C65.6408 24.0366 65.7013 25.1792 65.8382 25.1219V25.1251Z" fill="#FF7A1C"/>
<path d="M74.8878 24.8545C74.1939 25.8889 72.7139 25.6566 71.7241 26.2263C70.7852 26.7674 70.3651 28.1232 69.4516 28.7057C69.3307 28.7821 70.225 30.192 70.3491 30.1157C71.2626 29.5364 71.7814 28.3365 72.6885 27.7413C73.6338 27.1206 75.1774 27.4071 75.5275 25.8603C75.5593 25.7234 74.9514 24.7559 74.8878 24.8513V24.8545Z" fill="#FF7A1C"/>
<path d="M77.3892 22.8208C77.8793 21.7736 79.3052 21.8882 80.1454 21.2644C80.9443 20.6724 81.1289 19.3324 81.8959 18.7054C81.9978 18.6227 80.9412 17.3273 80.8393 17.4101C80.0723 18.0371 79.7699 19.2306 79.0092 19.8703C78.2199 20.5387 76.7271 20.3764 76.6348 21.8914C76.6284 22.025 77.3446 22.913 77.3892 22.8144V22.8208Z" fill="#FF7A1C"/>
<path d="M79.0093 24.7635C80.6644 24.006 82.5231 24.7253 84.2577 24.5089C85.9096 24.3052 87.4118 23.1435 89.0573 22.892C89.2769 22.8602 89.0254 21.2084 88.8058 21.2402C87.1635 21.4916 85.6326 22.4655 83.9871 22.7329C82.2748 23.0098 80.3683 22.2205 78.8279 23.5827C78.691 23.7037 78.8534 24.8335 79.0061 24.7635H79.0093Z" fill="#FF7A1C"/>
<path d="M80.222 49.7861C79.0189 50.6009 77.5644 51.0751 76.0017 51.0751C71.8322 51.0751 68.4521 47.6951 68.4521 43.5256C68.4521 39.3562 71.8322 35.9761 76.0017 35.9761C77.1857 35.9761 78.3028 36.2466 79.299 36.7336" fill="white"/>
<path d="M79.5438 49.3497C78.5954 50.0786 77.3827 50.4733 76.1733 50.4701C74.9606 50.4828 73.7767 50.0881 72.79 49.4643C71.8193 48.8055 71.0204 47.927 70.5239 46.9149C70.2533 46.4216 70.0879 45.8837 69.9415 45.3585C69.8969 45.0848 69.8141 44.8239 69.7982 44.547C69.7854 44.4101 69.7632 44.2764 69.7505 44.1396L69.7377 43.729C69.7027 42.6818 69.8969 41.6443 70.2947 40.6608C70.683 39.671 71.345 38.7734 72.1789 38.035C73.0223 37.303 74.0822 36.7905 75.2248 36.5677C76.3674 36.3481 77.596 36.4532 78.6941 36.9019C78.9805 37.0197 79.3052 36.7173 79.4929 36.3418C79.6775 35.9694 79.6903 35.5047 79.3243 35.3519C77.9684 34.7981 76.4629 34.6422 75.0402 34.8745C73.6175 35.1132 72.268 35.7084 71.1763 36.59C68.9707 38.3501 67.8185 41.1159 67.9427 43.7831L67.9681 44.3051C67.984 44.4801 68.0127 44.652 68.035 44.8239C68.0668 45.174 68.1654 45.5113 68.2355 45.8583C68.4296 46.533 68.6619 47.2109 69.0184 47.8316C69.6868 49.1015 70.7276 50.1868 71.9848 50.9602C73.2547 51.6986 74.7601 52.1124 76.2337 52.0042C77.7042 51.915 79.1333 51.3263 80.1645 50.3651C80.5305 50.015 79.878 49.0792 79.5438 49.3466V49.3497Z" fill="#FF7A1C"/>
<path d="M96.9235 45.2403C101.414 45.6159 105.358 42.2835 105.733 37.7927C106.109 33.3018 102.777 29.3583 98.2857 28.9827C94.8038 28.6899 91.6529 30.6314 90.2334 33.6105" fill="white"/>
<path d="M97.2913 45.9856C98.9081 45.9346 100.461 45.4954 101.862 44.7634C103.243 43.9995 104.478 42.9333 105.36 41.5711C105.601 41.2432 105.767 40.8708 105.967 40.5144L106.206 39.951L106.324 39.6677L106.416 39.3749L106.594 38.783L106.715 38.175L106.773 37.8695L106.801 37.5607L106.855 36.9369C106.9 35.2692 106.493 33.5409 105.573 32.0928C104.729 30.6987 103.44 29.6038 101.999 28.9036C100.541 28.2225 98.9208 27.9615 97.3772 28.1111C95.824 28.2448 94.3567 28.8241 93.1186 29.6611C91.8773 30.5046 90.878 31.6408 90.146 32.9171C89.7672 33.6396 91.3235 34.273 91.6004 33.7383C92.1892 32.7134 92.9913 31.7968 93.9939 31.1188C94.9933 30.4473 96.1677 29.9762 97.4185 29.868C98.6662 29.7471 99.9711 29.954 101.146 30.495C102.307 31.0552 103.361 31.9273 104.051 33.054C104.806 34.2093 105.127 35.6097 105.089 36.9624L105.041 37.4685L105.019 37.7199C105.006 37.8026 104.987 37.8854 104.971 37.9682L104.873 38.4647L104.726 38.9453L104.653 39.184L104.558 39.4163L104.367 39.8746C104.201 40.1643 104.074 40.4666 103.876 40.734C103.173 41.848 102.19 42.7391 101.088 43.433C99.9679 44.0982 98.7203 44.582 97.3294 44.7984C96.852 44.8811 96.6738 46.0174 97.2881 45.9919L97.2913 45.9856Z" fill="#FF7A1C"/>
<path d="M79.1683 91.1869C76.848 89.4204 75.0879 93.453 68.8784 93.5548C62.3091 93.6599 60.6223 89.5923 54.7437 89.1626C48.1427 88.682 45.2113 91.015 45.3578 91.3524C45.4882 91.6547 50.0555 90.6808 54.1008 91.5656C61.0106 93.0774 60.6255 96.6739 69.3494 97.0431C73.4138 97.215 79.0155 95.6619 79.8748 93.5771C80.1995 92.791 79.8112 91.677 79.1683 91.1869Z" fill="white"/>
<path d="M78.6143 90.0976C78.0701 89.9544 77.513 90.0403 77.0706 90.1835C76.6219 90.33 76.2463 90.5241 75.8867 90.715C75.1737 91.1033 74.5213 91.4917 73.8402 91.8099C72.4875 92.4624 71.0361 92.8412 69.5434 92.9239C68.0507 92.9907 66.5484 92.8475 65.148 92.3924C63.7349 91.9595 62.449 91.1829 61.0868 90.4031C60.4025 90.0117 59.6927 89.6234 58.9416 89.2828C58.1841 88.955 57.398 88.6558 56.5768 88.4712C54.9123 88.0893 53.3081 87.997 51.6594 88.0415C50.0139 88.102 48.343 88.3343 46.7007 88.9677C46.2901 89.13 45.8827 89.3178 45.4689 89.5629C45.2621 89.687 45.0552 89.8239 44.8292 90.0117C44.7146 90.1071 44.6001 90.2122 44.4473 90.4L44.3868 90.4795C44.3677 90.505 44.3486 90.5305 44.32 90.5814C44.2945 90.6259 44.2691 90.6737 44.2436 90.7214C44.2309 90.7501 44.2245 90.7564 44.2054 90.8074C44.1863 90.8551 44.1704 90.906 44.1577 90.9537C44.1449 91.0047 44.1322 91.0556 44.1226 91.1066L44.1099 91.1829C44.1067 91.2243 44.1035 91.2848 44.1035 91.3389C44.1035 91.4503 44.1195 91.5617 44.1481 91.6699C44.1608 91.724 44.1799 91.7749 44.199 91.8259C44.2181 91.8736 44.2563 91.9468 44.2913 92.0073C44.3677 92.1346 44.4727 92.2523 44.5905 92.3478C44.6478 92.3955 44.7083 92.4369 44.7687 92.4687L44.8324 92.5006C44.9151 92.542 45.0043 92.5738 45.0934 92.5993C45.1475 92.6152 45.1634 92.6184 45.1825 92.6216L45.2398 92.6311L45.3544 92.6502C45.4244 92.6597 45.4531 92.6597 45.504 92.6629C45.6058 92.6693 45.6536 92.6661 45.7299 92.6693C45.8573 92.6693 45.9718 92.6629 46.08 92.6597L46.6943 92.6216L47.8528 92.542C49.301 92.4497 50.7269 92.4115 52.1146 92.5229C52.8116 92.5833 53.48 92.6661 54.1547 92.8252C54.4921 92.908 54.8422 92.9684 55.17 93.0703C55.4978 93.1753 55.8384 93.2549 56.1599 93.3759C57.468 93.8215 58.6647 94.4834 59.9601 95.2537C60.6062 95.6356 61.3 96.0112 62.0193 96.3454C62.3853 96.5013 62.7545 96.6573 63.1269 96.7878L63.6935 96.9692C63.8812 97.0328 64.0722 97.0901 64.2632 97.1283C65.7941 97.5134 67.3441 97.679 68.8623 97.6949C70.4059 97.7585 71.9496 97.5771 73.4391 97.2779C74.9318 96.966 76.4023 96.5363 77.7963 95.8584C78.487 95.5115 79.1744 95.1105 79.7441 94.4898C79.8874 94.3371 80.0147 94.1556 80.1261 93.9647C80.2312 93.7673 80.3203 93.5382 80.3553 93.309C80.4253 92.8539 80.3553 92.4115 80.2089 92.0073C80.0466 91.5744 79.7378 91.3389 79.48 91.2911C79.2158 91.2402 79.0185 91.3675 78.8944 91.5298C78.7702 91.7017 78.6906 91.899 78.6334 92.0677C78.5792 92.2396 78.5697 92.4019 78.6397 92.5833C78.7066 92.7552 78.7193 92.9398 78.7065 93.0289C78.7002 93.0735 78.6939 93.0767 78.6684 93.1403C78.6302 93.2008 78.5856 93.274 78.5093 93.3536C78.2101 93.6878 77.6595 94.0474 77.0802 94.3307C75.893 94.91 74.5244 95.311 73.1494 95.5942C71.7618 95.8648 70.3677 96.0271 68.9673 95.9635C67.5287 95.9444 66.1156 95.7757 64.7661 95.4351C64.5942 95.4001 64.4287 95.3492 64.2632 95.2919L63.7667 95.1327C63.4388 95.015 63.1205 94.8813 62.7991 94.7444C62.1625 94.4484 61.5387 94.1079 60.9022 93.7292C59.6386 92.9717 58.2573 92.1823 56.7901 91.6762C56.4272 91.5394 56.0517 91.4439 55.6825 91.3261C55.3133 91.2116 54.9345 91.1447 54.5621 91.0524C53.8142 90.871 53.0376 90.7724 52.2769 90.7087C50.7492 90.5846 49.2246 90.6291 47.7255 90.7342L46.5574 90.8201L45.9878 90.8583L45.7172 90.8678H45.6026L45.5581 90.8615C45.5517 90.8615 45.5549 90.8615 45.5517 90.8615L45.5262 90.9761L45.5104 91.0429V91.0843C45.5008 91.1129 45.4944 91.1415 45.4849 91.167C45.469 91.2179 45.4212 91.2848 45.4244 91.2943C45.418 91.3039 45.4117 91.3134 45.3989 91.3198C45.3766 91.3293 45.4085 91.3166 45.4117 91.3134C45.4148 91.3134 45.4212 91.3103 45.4244 91.3071C45.4467 91.3039 45.4467 91.3134 45.4944 91.3134C45.5326 91.3198 45.5676 91.3325 45.5963 91.3516C45.6409 91.3675 45.6918 91.3898 45.7363 91.4153C45.7586 91.428 45.7809 91.4407 45.8 91.4567C45.8191 91.4694 45.8508 91.4948 45.8413 91.4885L45.8477 91.4821C45.8636 91.463 45.9177 91.4057 45.9718 91.3612C46.0864 91.2657 46.2297 91.167 46.3792 91.0779C46.6784 90.8965 47.0094 90.7437 47.3499 90.61C48.7217 90.0753 50.2335 89.8462 51.739 89.7921C53.2412 89.7475 54.8008 89.8398 56.2076 90.1644C56.9205 90.3236 57.608 90.5814 58.2859 90.871C58.9607 91.1734 59.6227 91.5298 60.2975 91.9086C61.6438 92.6597 63.0855 93.5064 64.7215 93.9679L65.3326 94.1365C65.5363 94.1906 65.7464 94.2193 65.9533 94.2638C66.1601 94.2988 66.367 94.3498 66.5771 94.3721L67.2041 94.4357C67.621 94.4898 68.0379 94.4835 68.4549 94.4898C68.8718 94.5026 69.2856 94.4803 69.7026 94.4453C70.5333 94.3721 71.3608 94.2193 72.1628 93.9837C72.9617 93.745 73.7351 93.4268 74.4576 93.048C75.1833 92.6757 75.8548 92.2396 76.4945 91.8545C77.1375 91.4726 77.7391 91.1479 78.2992 91.2402C78.6907 91.2943 79.0885 91.2593 79.2826 91.0238C79.3749 90.9124 79.4036 90.7564 79.3177 90.575C79.2349 90.4 79.0122 90.1867 78.6143 90.088V90.0976Z" fill="#FF7A1C"/>
</svg>
