<svg width="169" height="251" viewBox="0 0 169 251" fill="none" xmlns="http://www.w3.org/2000/svg">
<path d="M168.175 141.443C167.654 141.046 166.972 140.897 166.325 141.046C162.486 141.924 154.976 144.504 147.735 151.951C144.95 154.813 142.808 157.779 140.734 160.647C135.372 168.077 131.493 173.447 120.402 172.005C114.53 171.243 110.091 168.828 106.837 164.613L106.361 164.95C106.235 161.221 105.874 157.415 105.267 152.592C104.895 149.592 103.881 145.156 103.101 142.941C103.629 142.471 103.926 142.035 104.127 141.637C107.117 135.615 103.583 118.439 101.211 108.738C100.483 105.777 99.3033 101.496 96.9315 92.9217C95.9691 89.4358 94.9093 85.2813 93.9755 81.6186C93.2536 78.8066 92.6177 76.3206 92.1308 74.5251C92.5203 73.9948 92.8927 73.4036 93.2479 72.7241C94.451 70.3983 95.5795 66.5311 92.1652 59.3548C104.499 53.7529 112.084 47.4108 114.811 40.3892C118.185 31.7102 113.98 20.0976 105.805 15.5399C105.708 15.4847 95.5222 9.93255 85.8291 15.5344C83.4745 16.8934 78.7196 20.4125 77.0812 27.274L72.544 24.7714C74.2454 20.7164 74.4402 16.2692 73.0653 12.054C71.5815 7.50729 68.3276 3.71195 64.1341 1.64578C60.1182 -0.331989 55.4034 -0.536397 50.8604 1.08228C46.031 2.79488 41.9808 6.31399 40.2908 10.264C37.6039 16.5454 39.9871 22.7107 41.4308 25.5172C31.1017 34.9144 22.8408 44.1458 16.499 52.1122L13.583 48.9245L10.3176 51.7034L13.8236 55.5374C12.1737 57.703 10.6728 59.7526 9.32652 61.6585L2.68681 57.04L0.137486 60.4431L6.90895 65.1555C2.45766 71.7684 0.217695 76.0167 0 76.4366L2.1483 79.4695C2.2858 79.4585 9.58432 78.79 20.3545 77.2708L21.9012 85.8669L22.9496 85.6901C21.3226 96.9822 17.5359 104.915 14.7345 110.782L14.4825 111.307C13.2851 113.81 11.6238 116.694 10.0197 119.484C5.64288 127.074 3.41438 131.157 4.59452 133.786C5.02991 134.753 5.74027 135.665 6.62251 136.516C5.80902 138.311 4.80648 140.449 3.47739 143.2C2.22851 145.797 1.3119 147.962 0.750473 149.647C0.108846 151.57 0.458301 153.691 1.67854 155.316C2.94461 157 4.94395 157.94 7.00633 157.94C7.68233 157.94 8.35834 157.835 9.02288 157.63C9.17756 157.934 9.35517 158.232 9.57859 158.503C10.8447 160.155 12.8268 161.072 14.872 161.072C15.6626 161.072 16.4704 160.934 17.2437 160.641L17.4385 160.569C17.4729 160.614 17.5015 160.652 17.5359 160.696C18.5556 162.006 20.3659 162.884 22.2794 162.989C22.4169 162.995 22.5543 163 22.6918 163C23.6084 163 24.485 162.823 25.2813 162.486V162.575C25.3042 167.646 25.5964 171.292 25.9 175.16C26.1864 178.75 26.4843 182.463 26.5588 187.557C26.6275 192.192 26.4213 196.948 25.9573 201.705C25.4703 203.207 25.5677 205.042 25.6479 206.461C25.6766 207.041 25.7167 207.82 25.6823 208.108C25.1667 209.362 21.42 211.92 18.4009 213.975C15.3188 216.074 11.8472 218.45 8.77655 221.157C8.69061 221.228 8.61041 221.295 8.53021 221.367C8.5073 221.389 8.48439 221.405 8.4672 221.422C8.45575 221.433 8.44429 221.444 8.43283 221.449C7.98598 221.853 7.12663 222.632 6.25585 223.775C5.38507 224.913 4.5143 226.416 4.04454 228.25C3.74664 229.416 3.70656 230.344 3.67219 231.09C3.55761 233.78 4.09611 235.708 4.84085 238.376L5.04135 239.1C5.89494 242.199 6.12983 243.365 6.23295 243.857C6.33607 244.376 6.40482 244.669 6.70272 245.183C9.34943 249.702 15.949 251 22.2278 251C27.6186 251 32.7746 250.044 34.9916 249.343C36.3665 248.912 37.7013 248.37 37.7586 248.348C38.3372 248.111 41.3792 246.84 44.3181 244.884C47.3085 242.896 49.7376 240.498 51.502 238.47C51.9374 241.139 52.2983 243.249 53.278 244.547C55.432 247.398 63.1544 249.956 71.3867 249.956C74.7667 249.956 78.2384 249.525 81.4408 248.503C84.7922 247.431 87.9315 245.934 90.7616 244.045C95.505 240.874 98.4325 237.233 100.226 234.769C100.821 233.946 102.637 231.443 103.995 228.438C106.396 223.123 105.674 214.864 105.032 207.572C104.918 206.224 104.797 204.903 104.706 203.644C104.671 203.174 104.62 202.423 104.316 201.71C104.362 195.981 104.683 190.269 105.273 184.722C105.404 183.474 105.525 182.297 105.634 181.17C109.174 183.065 113.958 184.943 119.388 185.231C120.042 185.264 120.683 185.286 121.308 185.286C133.676 185.286 139.64 178.646 141.668 176.397C144.595 173.138 146.4 170.364 148.319 167.425C149.9 165 151.533 162.497 153.95 159.492C158.344 154.023 163.976 150.747 167.7 148.576L167.952 148.432C168.605 148.051 169 147.371 169 146.637V143.09C169 142.449 168.696 141.841 168.175 141.443ZM92.738 94.0432C95.0811 102.534 96.2613 106.799 96.9716 109.7C101.377 127.715 101.48 137.145 100.22 139.781C100.094 139.93 99.0569 140.941 93.9468 142.322C94.7718 139.029 95.2645 134.693 95.8602 129.439C96.1982 126.489 96.542 123.439 96.9888 120.235L92.675 119.677C92.2167 122.931 91.873 126.008 91.535 128.986C90.733 136.068 89.8221 144.095 87.9315 145.244C83.9156 147.681 76.537 146.178 74.784 145.642C73.747 145.327 72.7101 145.034 71.6961 144.753C69.628 144.167 66.6261 143.327 65.5834 142.631C65.5605 142.604 65.509 142.559 65.4402 142.493C66.0246 140.14 66.8438 137.394 67.7088 134.499C69.2843 129.229 71.0717 123.224 72.3205 116.848L72.7158 116.721C72.6986 116.672 72.6127 116.423 72.4752 116.036C73.3288 111.512 73.896 106.81 73.9017 102.059H69.5478C69.5478 103.838 69.4504 105.628 69.2957 107.407C69.0666 106.843 68.8489 106.313 68.6426 105.827C67.5771 103.352 66.1392 100.965 65.1996 99.5069C66.0876 98.2694 66.4714 96.7391 66.1621 95.3414C65.7324 93.4023 64.22 92.2809 62.656 91.6179C64.7127 90.5683 67.0615 89.0711 69.6509 87.4082C72.9794 85.2813 76.4109 83.077 79.493 81.6904C81.0684 80.9833 82.4319 80.4032 83.6349 79.8894C85.5827 79.0607 87.1524 78.3923 88.4701 77.652C88.8482 79.0994 89.2778 80.7899 89.7476 82.624C90.6871 86.3034 91.7527 90.4744 92.738 94.0432ZM92.5318 171.712C92.6292 172.834 92.7151 173.878 92.7896 174.85L92.8813 176.049C93.1161 179.071 93.5114 184.131 93.5401 190.849C93.5515 194.948 93.4255 199.07 93.1677 203.119C91.5006 203.638 89.5185 204.086 87.1353 204.312C87.0264 203.312 86.929 202.312 86.8431 201.318C86.1843 193.479 86.4535 187.706 86.7342 181.59C86.7744 180.761 86.8087 179.927 86.8488 179.082C87.1181 172.933 87.2556 166.563 87.2785 160.149C87.3816 159.868 87.4904 159.558 87.605 159.205C87.8284 158.619 89.6445 153.719 90.71 148.465C91.1741 148.106 91.598 147.67 91.9704 147.145C92.0563 147.123 92.1422 147.106 92.2282 147.084C91.2829 157.172 91.999 165.514 92.5318 171.712ZM82.5006 201.661C82.5808 202.589 82.6725 203.528 82.7756 204.462C81.4179 204.434 79.9742 204.346 78.416 204.163C77.866 204.102 77.3275 204.014 76.8062 203.909C76.6515 201.837 76.5369 199.733 76.4797 197.639C76.3651 193.584 76.5255 190.451 76.663 187.689C76.7718 185.612 76.8692 183.651 76.852 181.557C76.7948 176.226 76.4052 168.442 76.0271 163.149L76.199 163.061C76.2391 163.1 76.2734 163.138 76.3135 163.171C77.402 164.282 79.1264 164.945 80.908 164.945C81.0398 164.945 81.1658 164.939 81.2976 164.934C81.8533 164.901 82.3861 164.807 82.8902 164.657C82.8329 169.48 82.7012 174.259 82.5006 178.911C82.4605 179.75 82.4204 180.579 82.3861 181.402C82.0939 187.65 81.8189 193.556 82.5006 201.661ZM82.6324 159.945C82.1741 160.558 81.521 160.713 81.0512 160.741C80.3008 160.774 79.6764 160.497 79.4701 160.282L79.367 160.183C78.3645 159.26 78.4848 158.249 79.1436 156.338C79.2811 155.934 79.4128 155.553 79.4873 155.183L75.2193 154.36C75.1907 154.481 75.0933 154.769 75.0073 155.023C74.6751 155.995 74.1423 157.564 74.3142 159.271L73.9934 159.437C73.0997 159.89 71.9997 159.702 71.318 158.984C71.2893 158.951 71.255 158.917 71.2206 158.884C70.3727 158.105 70.8139 154.421 71.3753 153.382L67.6 151.294C67.0959 152.144 66.3798 154.492 66.3912 156.89L65.8126 157.183C64.9189 157.641 63.819 157.453 63.1373 156.735C62.6618 156.233 62.467 155.531 62.6045 154.857C62.9253 153.294 63.5383 151.205 64.4148 148.658C64.5924 148.156 64.7814 147.609 64.9934 147.023C66.586 147.686 68.5109 148.228 70.4816 148.78C71.4612 149.056 72.4695 149.338 73.472 149.647C73.5293 149.664 77.339 150.802 81.7673 150.802C83.085 150.802 84.4542 150.691 85.7947 150.432C84.775 154.448 83.5204 157.763 83.5032 157.802C83.4917 157.835 83.4803 157.868 83.4688 157.901C82.9418 159.525 82.6496 159.928 82.6324 159.945ZM72.1258 197.755C72.1716 199.407 72.2575 201.058 72.3606 202.705C71.1404 202.329 69.9488 201.981 68.8431 201.876C68.5968 199.125 68.3161 196.561 68.0068 194.23C68.0068 191.529 68.1213 189.302 68.2302 187.148C68.339 185.071 68.4364 183.109 68.4135 181.016C68.3505 175.137 67.8922 166.276 67.474 161.055H67.4854C67.6802 161.343 67.8922 161.619 68.15 161.868C69.1239 162.868 70.3785 163.514 71.7076 163.762C72.0685 168.928 72.4408 176.53 72.4981 181.601C72.5153 183.568 72.4179 185.468 72.3148 187.485C72.1716 190.324 72.0055 193.54 72.1258 197.755ZM64.0997 209.925C64.2315 210.765 64.369 211.638 64.3231 212.146C64.2315 213.174 63.882 213.571 61.9571 214.975C62.5128 210.804 61.9743 204.268 61.1666 201.6C61.7222 196.849 62.2607 192.258 62.7362 188.744C63.0399 190.302 63.3492 192.197 63.6528 194.479V195.004H63.7216C64.0424 197.456 64.3518 200.346 64.6325 203.716C63.4294 205.533 63.7961 207.936 64.0997 209.925ZM50.0183 192.23C49.9552 185.733 49.7777 181.17 49.6115 176.756C49.4454 172.447 49.2907 168.381 49.2563 162.917C49.2334 159.089 49.2793 155.183 49.3881 151.272C50.236 151.288 51.0953 151.299 51.9775 151.299C52.9972 151.299 54.0514 151.283 55.1169 151.261V199.418C54.6701 199.512 54.2175 199.617 53.7649 199.722C52.6765 199.981 51.4161 200.268 50.024 200.506C50.0412 197.76 50.0469 194.993 50.0183 192.23ZM31.1132 143.416C30.5002 141.852 31.3767 137.897 32.1501 134.405C32.5282 132.704 32.9063 130.958 33.187 129.267C33.4162 129.284 33.6511 129.301 33.8859 129.312V135.659H38.2341V129.428C39.0189 129.4 39.8038 129.339 40.5715 129.262V135.245H44.9253V128.588C45.7503 128.417 46.4263 128.256 46.9018 128.14V134.333H51.2557V132.842C51.7656 133.472 52.2181 134.063 52.602 134.593C55.4034 138.482 59.3161 142.482 61.3098 144.443C60.989 145.333 60.7025 146.145 60.4447 146.88C40.3366 147.863 31.8808 145.366 31.1132 143.416ZM38.7325 171.06C38.5721 169.044 38.4002 166.945 38.2284 164.729C38.0909 162.884 38.1825 160.089 38.2742 157.387C38.3544 154.979 38.4346 152.515 38.3659 150.471C38.7955 150.537 39.2367 150.598 39.695 150.653C41.322 150.852 43.115 151.006 45.0399 151.117C44.9311 155.083 44.8795 159.056 44.9024 162.939C44.9368 168.469 45.0972 172.569 45.2576 176.911C45.4295 181.297 45.6014 185.827 45.6644 192.269C45.693 195.153 45.693 198.059 45.6644 200.915C44.7879 200.931 43.8885 200.915 42.9489 200.826C41.7917 200.716 40.7319 200.589 39.7408 200.456C40.285 190.413 39.5919 181.811 38.7268 171.06H38.7325ZM30.9127 187.496C30.8382 182.27 30.5346 178.491 30.2424 174.834C29.9388 171.049 29.6581 167.48 29.6351 162.558C29.618 158.21 29.9674 153.371 30.6434 148.377C31.5772 148.835 32.6772 149.233 33.9547 149.581C34.1094 151.564 34.012 154.448 33.9203 157.249C33.8229 160.194 33.7313 162.972 33.8917 165.039C34.0578 167.26 34.2297 169.364 34.3901 171.386C35.2666 182.214 35.9082 190.23 35.427 199.766C34.9572 199.683 34.5047 199.6 34.0922 199.523C32.6542 199.252 31.5257 199.042 30.5689 198.97C30.8497 195.114 30.97 191.263 30.9127 187.496ZM36.8306 74.6687C38.9731 74.2931 41.1673 73.8898 43.3958 73.4589L43.0406 74.2544C45.8821 75.4422 50.8261 77.0277 56.9502 77.0277C59.4708 77.0277 62.192 76.757 65.045 76.083C70.3327 74.8345 77.9921 71.4314 84.9239 62.3601C86.041 61.9347 87.1238 61.5038 88.1836 61.0674C91.1741 67.3101 89.8679 69.8458 89.3523 70.8458C88.0519 73.3484 86.8316 73.9395 81.8762 76.0499C80.656 76.5692 79.2696 77.1603 77.6541 77.8895C74.2741 79.4088 70.6993 81.6959 67.2448 83.9112C64.4893 85.6791 61.8597 87.3641 59.889 88.2701C60.3302 85.9166 59.7744 83.3422 57.672 81.8285C55.7986 80.4916 53.192 80.2982 51.3359 81.3644C48.9355 82.74 48.6606 85.4471 48.7866 87.4304C46.3003 86.1376 43.0234 85.889 40.7892 87.8557C40.0559 88.4966 39.5116 89.3087 39.1851 90.176C38.32 90.176 37.4664 90.0932 36.63 89.9053C33.061 89.1153 30.9241 86.8669 30.1737 85.9332C29.3143 84.8725 27.3093 82.392 27.7847 79.1767C27.9795 77.8398 28.5524 76.7515 29.1196 75.9615C30.0648 75.8123 31.0273 75.6576 31.9954 75.4974L38.744 83.9886L42.1985 81.4307L36.8306 74.6687ZM50.1787 72.0943C51.3359 71.8512 52.4988 71.5971 53.6618 71.3375C62.1003 69.4702 69.6796 67.4537 76.4166 65.3047C71.8451 69.3928 67.3651 71.2159 64.0138 72.0059C58.6802 73.2655 53.8852 72.9009 50.1787 72.0943ZM32.2704 110.617C33.0323 112.92 34.814 114.97 37.4435 115.329C37.7242 115.368 37.9992 115.384 38.2742 115.384C38.9731 115.384 39.6549 115.263 40.2965 115.047L39.0247 116.114C38.5778 116.484 38.3086 117.02 38.2799 117.589C38.2513 118.158 38.4633 118.716 38.8643 119.13C38.9101 119.18 41.173 121.511 43.9285 124.489C42.0781 124.859 39.483 125.268 37.117 125.24C34.9572 125.212 32.1787 124.997 30.294 124.831L31.4856 111.307C31.7663 111.081 32.0241 110.849 32.2704 110.617ZM30.5174 98.6727C28.2316 96.5237 28.4149 95.7282 28.4722 95.5956C28.6269 95.242 29.28 94.9161 29.8242 94.9161H29.8299C30.9241 94.9216 31.8465 96.474 32.0699 97.5402C32.2532 98.4241 32.0871 99.3467 31.8866 99.8218C31.4455 99.5456 30.821 98.96 30.5174 98.6727ZM37.8961 107.357C39.8611 109.788 39.5689 110.545 39.4944 110.677C39.2939 111.003 38.595 111.247 38.0565 111.169C36.9738 111.026 36.2748 109.368 36.2004 108.285C36.1431 107.385 36.4353 106.49 36.6988 106.048C37.0998 106.379 37.6383 107.037 37.8961 107.357ZM37.6211 100.987C37.8159 100.512 38.2914 99.8108 38.5263 99.4738C40.2793 96.8938 41.1214 96.9215 41.2704 96.9491C41.66 97.0319 42.1182 97.5899 42.2214 98.1092C42.4219 99.1423 41.0183 100.314 39.9757 100.722C39.1106 101.065 38.1367 101.087 37.6211 100.987ZM36.0343 95.6342C35.8166 95.021 35.5186 94.4299 35.1635 93.8719C35.3239 93.9161 35.4843 93.9603 35.6561 93.999C36.2233 94.1261 36.7962 94.22 37.3748 94.2807C36.8592 94.7116 36.4124 95.1812 36.0343 95.6342ZM45.3607 101.8C45.567 103.186 46.1971 104.49 47.4002 105.44C48.2309 106.103 49.2277 106.523 50.2474 106.694L47.7668 108.777L42.8286 104.02C43.8082 103.451 44.6962 102.695 45.3607 101.8ZM43.7223 90.955C43.9973 90.7174 44.3754 90.618 44.7993 90.618C45.6243 90.618 46.6096 90.9937 47.2112 91.419C47.9674 91.9494 48.5001 92.7394 48.6834 93.2145C48.1621 93.3029 47.2914 93.2808 46.8732 93.2698C43.6765 93.1814 43.2526 92.4798 43.201 92.3416C43.0692 91.9825 43.3213 91.3085 43.7223 90.955ZM50.1558 98.8053C50.5911 98.0098 51.3245 97.391 51.7885 97.148C51.9546 97.6341 52.052 98.4683 52.0978 98.8716C52.4645 101.932 51.7999 102.435 51.6682 102.507C51.313 102.684 50.5912 102.534 50.173 102.203C49.3308 101.534 49.6287 99.7721 50.1558 98.8053ZM44.4728 111.539L43.4588 112.39C43.6879 111.92 43.8254 111.445 43.8827 110.97L44.4728 111.539ZM43.5791 117.859L61.9514 102.44C62.7763 103.766 63.8304 105.595 64.621 107.44C65.7095 109.965 67.1818 114.053 67.9896 116.346C66.775 122.45 65.045 128.245 63.5268 133.333C62.9425 135.289 62.3811 137.173 61.8941 138.93C60.0552 136.991 57.8667 134.543 56.1767 132.201C53.2321 128.113 46.5924 121.025 43.5791 117.859ZM53.5644 84.9719C53.679 84.9057 53.8337 84.8725 54.0113 84.8725C54.3607 84.8725 54.7846 84.994 55.0711 85.1984C55.9476 85.8282 55.7414 87.6016 55.2659 88.5905C54.8706 89.4081 54.1659 90.06 53.7134 90.3252C53.53 89.8501 53.3868 89.0214 53.3181 88.6181C52.7967 85.5796 53.4269 85.0438 53.5644 84.9719ZM61.9056 96.2198C61.9915 96.59 61.642 97.2253 61.1952 97.5236C60.3015 98.1203 58.623 97.3634 57.8037 96.6121C57.1277 95.9933 56.7152 95.1426 56.6007 94.6454C57.1334 94.6288 57.9813 94.7614 58.3995 94.8277C61.5561 95.3249 61.8712 96.0762 61.9056 96.2198ZM59.0469 90.6732C59.0813 90.6125 59.1156 90.5517 59.1443 90.4909L59.213 90.7009C59.1786 90.6953 59.1328 90.6898 59.1042 90.6843C59.087 90.6788 59.0641 90.6788 59.0469 90.6732ZM56.9272 101.087L56.5205 101.429C56.5377 101.253 56.5491 101.076 56.5549 100.899C56.6752 100.965 56.8012 101.026 56.9272 101.087ZM29.0222 90.7727C27.9967 90.9108 27.04 91.303 26.238 91.8665C26.4671 90.8335 26.6848 89.7727 26.8739 88.6789C27.3207 89.2092 28.0368 89.9771 29.0222 90.7727ZM29.0336 104.893C29.5435 104.722 30.0763 104.656 30.5403 104.656C30.884 104.656 31.1819 104.689 31.4054 104.744C31.1819 105.208 30.6664 105.882 30.42 106.214C28.5352 108.7 27.6931 108.633 27.5441 108.595C27.166 108.501 26.7364 107.915 26.6619 107.401C26.513 106.357 27.9681 105.252 29.0336 104.893ZM59.4708 159.022C59.6083 159.21 59.763 159.393 59.9234 159.564C60.8114 160.497 61.9342 161.122 63.1373 161.42C63.5039 166.061 63.9278 173.955 64.0367 179.623C63.5555 179.192 63.0227 178.994 62.3925 178.982H62.341C60.6911 178.982 59.9406 180.209 59.4708 181.966V159.022ZM19.1343 70.4535L19.6155 73.1329C19.0712 73.2103 18.5384 73.2876 18.0171 73.3539C17.7822 71.6247 17.238 69.9232 16.4131 68.3818C15.548 66.7632 14.3564 65.2936 12.9414 64.0727C14.1158 62.4154 15.3991 60.6531 16.8026 58.7913L18.8764 61.0563L22.1419 58.2775L19.4608 55.3551C26.0203 47.0351 34.7052 37.2733 45.6357 27.4729L45.9795 24.7935C45.9394 24.7327 41.6313 18.1364 44.3181 11.8661C45.5383 9.00995 48.6949 6.32504 52.3614 5.02126C53.6217 4.57377 55.22 4.18706 56.996 4.18706C58.6115 4.18706 60.3702 4.50748 62.1519 5.38588C65.3142 6.94379 67.7776 9.83311 68.9119 13.3135C70.1436 17.0978 69.7483 21.1197 67.8005 24.6498L68.6426 27.4618L76.5198 31.7985C76.5083 32.4394 76.5198 33.1079 76.5599 33.7929L76.6859 35.8867L81.0341 35.6491L80.908 33.5498C80.3924 24.904 85.1703 20.8048 88.0633 19.1364C95.465 14.8604 103.548 19.1309 103.629 19.175C109.987 22.7163 113.373 32.13 110.738 38.9141C107.902 46.212 98.2033 52.9519 82.2715 58.8465L82.2085 58.8023L82.1455 58.8907C73.9533 61.9126 64.1226 64.708 52.728 67.2383C46.2487 68.6802 39.8325 69.9011 33.8516 70.9231L30.8267 67.1167L27.3723 69.6691L28.9993 71.7242C27.252 72.0059 25.5562 72.2656 23.9178 72.5087L23.4194 69.7409L19.1343 70.4535ZM13.8236 121.522C15.4735 118.666 17.175 115.71 18.4353 113.064L18.6874 112.539C20.4404 108.876 22.7319 104.07 24.611 97.9987C25.2182 99.3357 26.2265 100.457 26.9541 101.175C24.2501 102.335 21.9127 104.915 22.3481 107.97C22.6632 110.197 24.3417 112.125 26.4328 112.655C26.6218 112.705 26.8051 112.738 26.9884 112.76L25.7739 126.538C25.6765 127.671 26.5301 128.676 27.7045 128.803C27.7675 128.803 28.1915 128.853 28.8389 128.914C28.5753 130.411 28.2316 131.986 27.8936 133.527C27.2921 136.223 26.7478 138.703 26.5989 140.847C24.7084 140.56 22.8408 140.129 21.0362 139.543C16.7797 138.173 9.95668 134.908 8.63333 132.212C8.54167 130.693 11.7154 125.185 13.8236 121.522ZM25.4761 156.332L25.2641 156.244C24.5537 157.796 24.21 158.166 24.1985 158.183C23.6657 158.735 23.0012 158.824 22.5314 158.796C21.7752 158.757 21.1909 158.404 21.0133 158.172C20.9846 158.133 20.956 158.094 20.9216 158.056C20.0337 157.034 20.2743 156.045 21.1508 154.216C21.3341 153.829 21.5117 153.465 21.632 153.1L17.4844 151.818C17.45 151.935 17.3182 152.211 17.1979 152.454C16.7511 153.382 16.035 154.885 16.0063 156.603L15.6683 156.73C14.7288 157.078 13.6575 156.774 13.0674 155.99C13.0388 155.951 13.0102 155.912 12.9815 155.879C12.231 155.012 13.0961 151.41 13.7835 150.432L10.2775 147.94C9.67597 148.725 8.69062 150.984 8.42136 153.365L7.80838 153.597C6.86885 153.945 5.79757 153.642 5.20751 152.857C4.79503 152.305 4.67473 151.586 4.89243 150.929C5.40229 149.415 6.25015 147.41 7.42455 144.974C8.53022 142.681 9.41816 140.803 10.1572 139.195C14.385 141.803 19.329 143.421 19.6498 143.526C21.9413 144.266 24.3188 144.791 26.7249 145.112C26.1234 148.946 25.7052 152.73 25.4761 156.332ZM27.2176 212.787L28.0655 214.135C27.3551 213.958 26.6733 213.842 26.0203 213.776C26.4499 213.439 26.851 213.113 27.2176 212.787ZM8.02607 231.261C8.05472 230.62 8.07763 230.012 8.27241 229.25C8.83956 227.018 10.3462 225.471 11.429 224.499C11.4462 224.482 11.4691 224.466 11.4863 224.449C13.4054 222.698 20.2399 220.831 26.089 223.621C30.758 225.847 33.7599 231.045 33.9375 237.051C29.2685 238.763 22.6403 240.012 15.9032 237.769C12.9529 236.785 9.58431 234.929 8.2094 233.924C8.05472 233.051 7.98597 232.217 8.02607 231.261ZM50.2188 233.2C48.8324 235.111 45.905 238.725 41.8433 241.426C39.2596 243.15 36.5785 244.271 36.0686 244.476C36.0572 244.481 34.8427 244.973 33.6396 245.348C31.6632 245.973 26.5588 246.917 21.2711 246.801C15.7141 246.68 11.9102 245.404 10.5296 243.172C10.5238 243.139 10.5124 243.1 10.5067 243.056C10.4093 242.586 10.2317 241.713 9.70461 239.708C11.2399 240.481 12.9242 241.216 14.4825 241.735C27.7046 246.138 40.2277 239.249 42.8573 237.161C44.2379 236.067 46.9534 233.913 50.1099 230.907C50.1386 231.78 50.2818 232.509 50.4823 233.377L50.2188 233.2ZM40.096 233.918C39.7179 234.217 39.0533 234.653 38.1596 235.145C37.4149 228.35 33.6453 222.543 28.0196 219.858C25.413 218.615 22.6632 218.063 20.0566 217.991C20.343 217.798 20.6295 217.599 20.9102 217.405C21.3685 217.096 21.8096 216.792 22.245 216.494L22.5658 218.079C23.809 217.842 25.7396 217.72 27.8764 218.461C29.7497 219.113 31.0387 220.179 31.7949 220.958L34.9801 218.096C33.4276 216.494 31.4856 215.251 29.3544 214.511C29.1883 214.455 29.0279 214.417 28.8675 214.367C29.7096 213.975 31.1705 213.505 32.9407 213.864C34.9114 214.262 36.1202 215.499 36.5441 216.008L39.9356 213.378C39.0419 212.306 37.0597 210.411 33.8401 209.754C32.2991 209.439 30.8898 209.5 29.6924 209.721C29.744 209.61 29.7956 209.494 29.8299 209.384C30.1164 208.555 30.0648 207.533 29.9961 206.246C29.9502 205.434 29.8643 203.859 30.0419 203.141C30.7064 203.163 32.0527 203.417 33.2615 203.644C35.4671 204.058 38.4919 204.627 42.5364 205.003C47.6294 205.484 51.9374 204.473 54.7961 203.804C55.5924 203.616 56.5319 203.395 57.1507 203.307C57.9069 206.318 58.1073 214.323 57.3912 215.781C51.3187 225.018 42.8687 231.719 40.096 233.918ZM54.819 232.841C54.5555 231.708 54.4352 231.195 54.4638 230.416C54.4925 229.709 54.5268 229.112 54.7044 228.432C55.3575 225.963 57.1278 224.339 57.884 223.643C57.8897 223.637 57.8954 223.637 57.9011 223.632C59.7859 221.869 66.6548 219.98 72.5268 222.781C77.1958 225.013 80.1977 230.206 80.3752 236.211C75.7063 237.923 69.078 239.172 62.341 236.929C59.5682 236.006 56.4345 234.316 54.9221 233.277C54.8878 233.123 54.8534 232.979 54.819 232.841ZM100.002 226.758C98.822 229.383 97.1951 231.62 96.6566 232.36C95.0582 234.559 92.4516 237.807 88.281 240.592C85.7947 242.255 83.0334 243.575 80.0716 244.514C70.6477 247.52 58.4454 244.249 56.7955 242.072C56.4918 241.675 56.2054 240.194 55.959 238.774C57.5459 239.586 59.299 240.36 60.9202 240.896C64.0138 241.929 67.0672 242.338 69.966 242.338C79.4586 242.338 87.2842 237.923 89.295 236.321C94.9894 231.813 98.1747 227.792 100.804 224.184C100.604 225.129 100.346 226.002 100.002 226.758ZM98.2606 220.367C95.5681 224.101 92.5203 228.333 86.5337 233.078C86.1556 233.377 85.4911 233.813 84.5974 234.305C83.8584 227.515 80.0831 221.704 74.4574 219.019C71.719 217.715 68.826 217.173 66.0991 217.151C67.1417 216.262 67.9323 215.328 68.3505 214.041L69.0036 217.24C70.2467 217.008 72.1773 216.881 74.3199 217.626C76.1875 218.273 77.4822 219.339 78.2327 220.124L81.4179 217.262C79.8654 215.654 77.9233 214.417 75.7922 213.676C75.6261 213.616 75.4657 213.577 75.3053 213.527C76.1474 213.135 77.6082 212.66 79.3784 213.025C81.3492 213.428 82.558 214.66 82.9819 215.174L86.3733 212.538C85.4796 211.467 83.5032 209.572 80.2779 208.914C76.5713 208.163 73.6439 209.555 72.5554 210.185L74.5032 213.295C72.1716 212.721 70.0977 212.809 68.5911 213.052C68.6197 212.875 68.6427 212.693 68.6599 212.505C68.7458 211.505 68.5796 210.439 68.4078 209.307C68.276 208.467 67.9838 206.572 68.2646 206.03C68.826 206.003 70.2639 206.461 71.318 206.793C73.1111 207.345 75.3396 208.041 77.9004 208.334C90.2173 209.748 97.0003 206.356 100.26 204.727C100.312 204.705 100.363 204.677 100.42 204.649C100.501 205.71 100.598 206.809 100.695 207.931C100.936 210.688 101.188 213.594 101.274 216.367C100.226 217.643 99.2632 218.969 98.2606 220.367ZM100.942 184.297C100.386 189.496 100.077 194.838 99.9907 200.202C99.435 200.412 98.8621 200.699 98.2606 201.003C98.0601 201.097 97.8539 201.202 97.6304 201.313C97.8138 197.838 97.9054 194.33 97.894 190.838C97.8653 183.966 97.4643 178.811 97.2237 175.734L97.132 174.552C97.0575 173.563 96.9659 172.502 96.8685 171.364C96.3243 165.011 95.5853 156.332 96.7253 145.907C97.6763 145.62 98.507 145.333 99.2288 145.057C99.8131 146.996 100.615 150.454 100.947 153.095C102.42 164.851 102.42 170.392 100.942 184.297ZM150.507 156.918C147.958 160.089 146.268 162.68 144.635 165.188C142.808 167.989 141.084 170.629 138.374 173.646C135.286 177.082 129.975 181.59 119.629 181.038C114.061 180.739 109.214 178.458 106.046 176.519C106.212 174.298 106.327 172.281 106.378 170.359C109.959 173.519 114.462 175.474 119.818 176.165C133.55 177.938 138.775 170.707 144.309 163.044C146.291 160.299 148.342 157.459 150.908 154.824C155.027 150.587 159.204 148.128 162.561 146.697C158.854 148.979 154.329 152.167 150.507 156.918Z" fill="black"/>
<path d="M44.473 111.539L43.459 112.39C43.6881 111.921 43.8257 111.446 43.8829 110.97L44.473 111.539Z" fill="#FC750C"/>
<path d="M37.3754 94.2806C36.8598 94.7115 36.413 95.1811 36.0349 95.6341C35.8172 95.0209 35.5192 94.4298 35.1641 93.8718C35.3245 93.916 35.4849 93.9602 35.6567 93.9989C36.2239 94.126 36.7968 94.2199 37.3754 94.2806Z" fill="#FC750C"/>
<path d="M50.2469 106.694L47.7664 108.777L42.8281 104.02C43.8078 103.451 44.6957 102.695 45.3603 101.8C45.5665 103.186 46.1967 104.49 47.3997 105.44C48.2304 106.103 49.2272 106.523 50.2469 106.694Z" fill="#FC750C"/>
<path d="M100.943 184.303C100.387 189.501 100.078 194.843 99.9919 200.208C99.4362 200.418 98.8633 200.705 98.2618 201.009C98.0613 201.103 97.855 201.208 97.6316 201.318C97.8149 197.843 97.9066 194.335 97.8951 190.844C97.8665 183.971 97.4655 178.817 97.2249 175.74L97.1332 174.557C97.0587 173.568 96.9671 172.508 96.8697 171.37C96.3255 165.017 95.5864 156.338 96.7265 145.913C97.6775 145.625 98.5081 145.338 99.23 145.062C99.8143 147.001 100.616 150.459 100.949 153.1C102.421 164.856 102.421 170.397 100.943 184.303Z" fill="#FC750C"/>
<path d="M93.5398 190.855C93.5513 194.954 93.4252 199.075 93.1674 203.124C91.5004 203.644 89.5182 204.091 87.135 204.318C87.0262 203.318 86.9288 202.318 86.8428 201.323C86.184 193.484 86.4533 187.711 86.734 181.595C86.7741 180.767 86.8085 179.933 86.8486 179.087C87.1178 172.939 87.2553 166.569 87.2782 160.155C87.3814 159.873 87.4902 159.564 87.6047 159.21C87.8282 158.625 89.6442 153.724 90.7098 148.47C91.1738 148.111 91.5978 147.675 91.9701 147.15C92.0561 147.128 92.142 147.111 92.2279 147.089C91.2826 157.177 91.9988 165.519 92.5315 171.718C92.6289 172.839 92.7149 173.883 92.7894 174.856L92.881 176.054C93.1159 179.076 93.5112 184.137 93.5398 190.855Z" fill="#FC750C"/>
<path d="M82.5009 201.666C82.5811 202.594 82.6727 203.533 82.7759 204.467C81.4181 204.439 79.9745 204.351 78.4162 204.169C77.8663 204.108 77.3278 204.02 76.8065 203.915C76.6518 201.843 76.5372 199.738 76.4799 197.644C76.3653 193.589 76.5257 190.457 76.6632 187.695C76.7721 185.617 76.8695 183.656 76.8523 181.562C76.795 176.231 76.4054 168.447 76.0273 163.155L76.1992 163.066C76.2393 163.105 76.2737 163.144 76.3138 163.177C77.4023 164.287 79.1266 164.95 80.9083 164.95C81.04 164.95 81.1661 164.945 81.2979 164.939C81.8536 164.906 82.3863 164.812 82.8905 164.663C82.8332 169.486 82.7014 174.265 82.5009 178.916C82.4608 179.756 82.4207 180.585 82.3863 181.408C82.0941 187.656 81.8192 193.562 82.5009 201.666Z" fill="#FC750C"/>
<path d="M72.1264 197.76C72.1722 199.412 72.2582 201.064 72.3613 202.71C71.141 202.335 69.9494 201.987 68.8438 201.882C68.5974 199.13 68.3167 196.567 68.0074 194.236C68.0074 191.534 68.122 189.308 68.2308 187.153C68.3397 185.076 68.437 183.115 68.4141 181.021C68.3511 175.143 67.8928 166.282 67.4746 161.061H67.486C67.6808 161.348 67.8928 161.625 68.1506 161.873C69.1245 162.873 70.3791 163.519 71.7082 163.768C72.0691 168.933 72.4415 176.535 72.4988 181.607C72.5159 183.573 72.4185 185.474 72.3154 187.49C72.1722 190.33 72.0061 193.545 72.1264 197.76Z" fill="#FC750C"/>
<path d="M35.4263 199.771C34.9565 199.688 34.5039 199.606 34.0914 199.528C32.6535 199.258 31.5249 199.048 30.5682 198.976C30.8489 195.12 30.9692 191.269 30.9119 187.501C30.8375 182.275 30.5339 178.496 30.2417 174.839C29.9381 171.055 29.6573 167.486 29.6344 162.564C29.6172 158.216 29.9667 153.376 30.6427 148.382C31.5765 148.841 32.6764 149.239 33.9539 149.587C34.1086 151.57 34.0112 154.454 33.9196 157.255C33.8222 160.199 33.7305 162.978 33.8909 165.044C34.0571 167.265 34.2289 169.37 34.3893 171.392C35.2658 182.22 35.9075 190.236 35.4263 199.771Z" fill="#FC750C"/>
<path d="M55.1165 151.266V199.423C54.6696 199.517 54.2171 199.622 53.7645 199.727C52.676 199.987 51.4157 200.274 50.0236 200.512C50.0407 197.766 50.0465 194.998 50.0236 192.236C49.9605 185.739 49.7829 181.176 49.6168 176.762C49.4507 172.453 49.296 168.387 49.2616 162.923C49.2387 159.094 49.2846 155.189 49.3934 151.277C50.2413 151.294 51.1006 151.305 51.9828 151.305C53.0025 151.305 54.0567 151.288 55.1222 151.266H55.1165Z" fill="#FC750C"/>
<path d="M64.0366 179.629C63.5554 179.198 63.0226 178.999 62.3924 178.988H62.3408C60.6909 178.988 59.9405 180.215 59.4707 181.971V159.028C59.6082 159.216 59.7629 159.398 59.9233 159.569C60.8113 160.503 61.9341 161.127 63.1372 161.426C63.5038 166.066 63.9277 173.961 64.0366 179.629Z" fill="#FC750C"/>
<path d="M45.671 200.92C44.7945 200.937 43.8951 200.92 42.9556 200.832C41.7983 200.721 40.7385 200.594 39.7474 200.462C40.2917 190.418 39.5985 181.817 38.7334 171.066C38.573 169.049 38.4012 166.95 38.2293 164.735C38.0918 162.89 38.1835 160.094 38.2751 157.393C38.3553 154.984 38.4356 152.52 38.3668 150.476C38.7965 150.542 39.2376 150.603 39.6959 150.658C41.3229 150.857 43.116 151.012 45.0409 151.122C44.932 155.089 44.8805 159.061 44.9034 162.945C44.9377 168.475 45.0981 172.574 45.2586 176.916C45.4304 181.303 45.6023 185.833 45.6653 192.275C45.694 195.158 45.694 198.064 45.671 200.92Z" fill="#FC750C"/>
<path d="M43.9275 124.494C42.0771 124.864 39.482 125.273 37.116 125.246C34.9562 125.218 32.1777 125.003 30.293 124.837L31.4846 111.313C31.7653 111.086 32.0231 110.854 32.2694 110.622C33.0313 112.926 34.813 114.976 37.4425 115.335C37.7232 115.373 37.9982 115.39 38.2732 115.39C38.9721 115.39 39.6539 115.268 40.2955 115.053L39.0237 116.119C38.5768 116.489 38.3076 117.025 38.2789 117.594C38.2503 118.163 38.4623 118.721 38.8633 119.136C38.9091 119.185 41.172 121.517 43.9275 124.494Z" fill="#FC750C"/>
<path d="M88.1827 61.0674C87.1229 61.5038 86.0402 61.9347 84.923 62.3601C77.9912 71.4314 70.3318 74.8345 65.0441 76.083C62.1911 76.757 59.4699 77.0277 56.9493 77.0277C50.8252 77.0277 45.8812 75.4422 43.0397 74.2544L43.3949 73.4589C41.1664 73.8898 38.9723 74.2931 36.8297 74.6687L42.1976 81.4307L38.7431 83.9886L31.9946 75.4974C31.0264 75.6576 30.0639 75.8123 29.1187 75.9615C28.5515 76.7515 27.9786 77.8398 27.7839 79.1767C27.3084 82.392 29.3134 84.8725 30.1728 85.9332C30.9232 86.8668 33.0601 89.1153 36.6291 89.9053C37.4656 90.0931 38.3192 90.176 39.1842 90.176C39.5108 89.3087 40.055 88.4966 40.7883 87.8557C43.0225 85.889 46.2994 86.1376 48.7857 87.4303C48.6597 85.447 48.9346 82.74 51.335 81.3644C53.1911 80.2982 55.7977 80.4916 57.6711 81.8285C59.7735 83.3422 60.3293 85.9166 59.8882 88.2701C61.8589 87.364 64.4884 85.6791 67.2439 83.9112C70.6984 81.6959 74.2732 79.4087 77.6532 77.8895C79.2687 77.1603 80.6551 76.5692 81.8753 76.0498C86.8307 73.9395 88.051 73.3484 89.3514 70.8458C89.867 69.8458 91.1732 67.3101 88.1827 61.0674ZM70.9104 81.265C67.7481 82.6185 64.3681 83.414 60.862 83.6295L60.5871 79.4364C63.5775 79.2541 66.4591 78.5801 69.1459 77.431C74.8174 75.0002 78.3177 71.0446 80.2483 68.1498L83.9091 70.4259C81.6519 73.8014 77.5673 78.4199 70.9104 81.265Z" fill="#FC750C"/>
<path d="M49.4969 41.1517L50.9234 40.4169L52.1093 36.6879L51.3473 35.3067L47.4746 34.1687L46.0424 34.8979L44.8623 38.6325L45.6242 40.0136L49.4969 41.1517Z" fill="black"/>
<path d="M60.4793 48.6594L64.5296 48.6428L65.6696 47.5379L65.6582 43.6321L64.5067 42.5327L60.4622 42.5438L59.3164 43.6542L59.3336 47.5545L60.4793 48.6594Z" fill="black"/>
<path d="M83.9099 70.4314C81.6528 73.8068 77.5681 78.4253 70.9112 81.2705C67.7489 82.624 64.3689 83.4195 60.8629 83.6349L60.5879 79.4418C63.5783 79.2595 66.4599 78.5855 69.1467 77.4365C74.8183 75.0057 78.3186 71.0501 80.2492 68.1553L83.9099 70.4314Z" fill="black"/>
<path d="M36.916 219.952C35.5239 219.952 34.3896 221.046 34.3896 222.388C34.3896 223.731 35.5239 224.825 36.916 224.825C38.3081 224.825 39.4367 223.731 39.4367 222.388C39.4367 221.046 38.3081 219.952 36.916 219.952Z" fill="black"/>
<path d="M41.8781 215.566C40.486 215.566 39.3574 216.66 39.3574 218.002C39.3574 219.345 40.486 220.439 41.8781 220.439C43.2702 220.439 44.4045 219.345 44.4045 218.002C44.4045 216.66 43.2702 215.566 41.8781 215.566Z" fill="black"/>
<path d="M82.924 218.449C81.5319 218.449 80.4033 219.543 80.4033 220.886C80.4033 222.228 81.5319 223.322 82.924 223.322C84.3161 223.322 85.4504 222.228 85.4504 220.886C85.4504 219.543 84.3161 218.449 82.924 218.449Z" fill="black"/>
<path d="M87.8916 214.063C86.4995 214.063 85.3652 215.157 85.3652 216.499C85.3652 217.842 86.4995 218.936 87.8916 218.936C89.2837 218.936 90.4181 217.842 90.4181 216.499C90.4181 215.157 89.2837 214.063 87.8916 214.063Z" fill="black"/>
</svg>
