<svg width="907" height="705" viewBox="0 0 907 705" fill="none" xmlns="http://www.w3.org/2000/svg">
    <rect x="3" y="200.766" width="197" height="115" fill="white"/>
    <rect x="617" y="359.766" width="179" height="145" fill="white"/>
    <path d="M297.336 9.33025L143.288 53.8968L150.194 233.667L626.781 263.172L774.501 328.925L863.402 244.256L871.095 119.994L667.66 80.2858L419.46 92.0342L297.336 9.33025Z"
          fill="white" stroke="white"/>
    <path d="M208.88 496.342L97.8635 613.855L102.637 691.709L220.416 684.488L458.734 682.401L875.165 635.83L896.695 496.752L793.283 460.512L513.892 511.705L370.078 486.459L310.753 515.644L208.88 496.342Z"
          fill="white" stroke="white"/>
    <path d="M132 383.766L185 283.766L295 273.766L313.5 309.266L393.5 297.766L657 332.266L617 446.766L185 468.266L132 383.766Z"
          fill="white" stroke="white"/>
    <path d="M866.72 532.267C867.468 544.466 860.58 557.316 847.356 568.179C834.998 578.257 817.605 583.71 805.517 586.278C805.15 589.225 804.964 592.161 805.165 595.438C805.645 603.267 808.417 606.752 812.241 606.518C815.336 606.328 820.163 604.57 827.512 596.261L841.039 608.225C830.784 619.819 821.369 624.234 813.357 624.726C799.155 625.596 788.063 614.58 786.957 596.554C785.406 571.246 801.582 545.947 822.133 526.411C831.976 517.035 839.819 513.813 846.556 513.4C859.119 512.63 866.084 521.889 866.72 532.267ZM848.513 533.384C848.468 532.655 848.401 531.563 847.672 531.607C836.93 532.266 817.874 558.29 812.732 566.829C828.178 562.41 849.439 548.496 848.513 533.384Z"
          fill="#1F1D1D"/>
    <path d="M795.153 514.538L805.013 529.285C787.293 541.337 767.742 562.274 762.325 572.292C758.101 583.882 751.693 604.562 745.288 622.316L728.113 616.425C732.419 603.185 737.204 588.819 743.508 569.425C748.419 554.138 756.023 532.106 761.767 515.488L779.707 518.957C778.622 522.131 773.967 532.651 772.426 537.314C776.278 531.595 789.015 518.752 795.153 514.538Z"
          fill="#1F1D1D"/>
    <path d="M723.112 527.18L739.99 534.186C735.528 544.877 729.993 558.924 721.574 576.619C717.525 585.092 713.884 594.27 712.457 597.83C708.178 608.51 704.715 620.601 703.798 626.506L686.437 623.549C686.965 620.227 690.643 608.671 691.386 605.884C676.085 621.625 663.638 630.247 659.268 630.515C652.167 630.95 646.563 625.994 646.299 618.7C646.112 612.68 652.959 596.178 658.985 581.187C667.704 559.453 678.315 535.774 682.056 528.235L698.614 535.992C690.857 552.55 684.229 566.664 675.841 587.83C673.935 592.516 671.743 598.498 668.834 604.708L669.391 604.856C677.194 597.981 694.494 585.041 699.554 578.152C701.252 576.037 702.735 573.388 704.503 569.441C707.561 562.675 717.372 540.873 723.112 527.18Z"
          fill="#1F1D1D"/>
    <path d="M655.382 532.8L659.047 550.851C646.038 553.293 634.828 555.26 621.659 558.078C617.138 570.782 610.142 587.842 605.116 604.233C613.944 596.199 625.258 583.992 632.99 578.949L643.054 594.049C631.792 601.136 608.179 621.408 596.818 635.811L580.987 628.009C586.032 605.952 592.087 585.477 601.058 561.899C598.543 562.602 594.946 563.553 592.066 564.278L588.23 546.42C593.102 545.39 603.561 543.104 608.251 542.086C612.497 530.86 615.428 525.015 620.106 514.859L636.664 522.616C635.055 526.187 632.808 531.259 629.91 537.651C637.137 536.294 646.891 534.417 655.382 532.8Z"
          fill="#1F1D1D"/>
    <path d="M583.151 547.638C578.299 560.912 570.739 583.672 564.937 602.304C560.962 614.975 557.258 629.092 555.977 635.019L538.185 630.992C540.484 620.8 544.359 606.49 547.42 596.798C549.258 591.02 554.158 575.551 560.244 558.546L560.05 558.376C550.275 568.844 540.741 577.287 533.117 587.075C525.492 596.863 520.291 607.417 515.77 620.122C514.217 624.603 512.493 629.278 511.338 634.283L493.684 629.517C496.117 621.509 498.732 613.49 500.868 606.597C503.153 599.147 510.676 578.765 514.365 567.39C517.288 558.439 521.137 546.689 522.247 540.955L540.359 544.231C539.98 546.996 535.619 559.325 533.78 565.103C542.838 554.862 552.216 543.87 563.924 535.11C570.393 530.327 576.401 529.959 579.868 532.853C583.904 536.078 585.331 541.474 583.151 547.638Z"
          fill="#1F1D1D"/>
    <path d="M505.236 554.431C505.983 566.63 499.095 579.48 485.872 590.343C473.514 600.421 456.12 605.874 444.033 608.442C443.665 611.389 443.48 614.325 443.681 617.602C444.161 625.431 446.933 628.916 450.757 628.682C453.852 628.492 458.678 626.734 466.028 618.425L479.554 630.389C469.3 641.983 459.884 646.398 451.873 646.89C437.671 647.76 426.578 636.744 425.473 618.718C423.921 593.41 440.098 568.111 460.649 548.575C470.491 539.199 478.335 535.977 485.072 535.564C497.635 534.794 504.599 544.053 505.236 554.431ZM487.028 555.548C486.983 554.819 486.916 553.727 486.188 553.771C475.446 554.43 456.389 580.454 451.247 588.993C466.694 584.574 487.955 570.66 487.028 555.548Z"
          fill="#1F1D1D"/>
    <path d="M428.329 546.901L442.22 558.842C427.715 575.632 389.42 627.69 378.575 647.545L361.456 642.563C363.393 611.558 363.423 576.284 360.888 555.787L379.028 553.579C380.82 567.907 380.797 597.333 379.193 615.89L379.557 615.867C394.058 593.047 416.559 560.599 428.329 546.901Z"
          fill="#1F1D1D"/>
    <path d="M348.809 516.503L366.315 521.827C360.624 542.279 356.318 555.519 351.764 567.678C346.113 582.828 344.423 588.049 340.883 598.866C334.727 617.702 326.573 642.691 321.944 659.606L305.724 654.387L311.687 635.38C306.065 645.045 293.057 656.443 283.76 656.83C274.281 657.229 267.168 648.527 266.365 635.417C265.483 621.033 273.481 602.45 287.715 584.215C302.622 565.025 321.575 549.242 339.41 545.042C341.272 539.628 346.331 523.783 348.809 516.503ZM332.021 567.609C322.331 573.503 311.623 583.663 302.29 595.383C289.572 611.515 284.047 625.743 284.572 634.301C284.784 637.76 285.353 638.091 285.899 638.058C291.725 637.7 302.638 627.893 317.703 599.373C325.071 585.397 330.012 573.58 332.021 567.609Z"
          fill="#1F1D1D"/>
    <path d="M257.433 597.22L258.516 614.881C255.068 615.275 251.79 615.476 248.171 616.064C248.492 633.223 249.233 642.316 250.032 649.395L231.869 651.239C230.824 640.155 230.407 627.387 229.838 618.102C209.501 620.262 192.977 622.006 178.433 623.263C164.838 639.997 157.489 648.306 144.808 662.06L131.623 649.709C138.322 642.719 145.489 634.421 153.158 625.361L141.141 626.098L140.025 607.891C152.77 607.109 158.767 606.559 169.499 605.718C188.86 581.686 209.978 553.526 231.167 523.533L247.751 528.73C247.694 557.61 247.956 576.784 247.783 597.812L257.433 597.22ZM229.568 557.076C221.465 567.99 206.968 587.886 194.398 603.46C206.018 602.2 219.458 600.828 229.632 599.838C229.634 587.959 229.536 574.44 229.568 557.076Z"
          fill="#1F1D1D"/>
    <path d="M770.892 396.443L759.433 396.901C759.204 391.401 757.829 389.339 757.141 389.339C755.423 389.339 751.527 392.089 744.995 403.203C744.193 404.578 743.85 405.266 743.047 406.526C745.683 406.183 747.745 405.953 750.61 405.61L751.985 417.068C746.829 417.641 742.704 418.443 736.974 418.787C729.068 435.173 719.328 458.662 709.13 488.798L698.359 485.132C709.703 451.673 721.047 425.891 723.453 420.506C720.818 420.964 718.985 421.308 716.808 421.537L714.516 410.308C720.474 409.506 724.141 408.818 729.412 408.131C731.36 404.349 733.308 400.683 735.141 397.474C742.36 384.412 750.037 377.766 757.256 377.766C763.673 377.766 770.204 382.693 770.892 396.443Z"
          fill="#1F1D1D"/>
    <path d="M706.782 412.365C706.782 423.021 700.709 437.917 693.834 448.803C686.615 460.261 679.511 465.761 672.636 465.761C663.812 465.761 659 458.084 659 448.803C659 433.448 674.927 396.438 693.834 396.438C699.219 396.438 706.782 399.875 706.782 412.365ZM695.323 412.365C695.323 408.698 694.407 407.896 693.834 407.896C690.969 407.896 686.729 411.104 681.688 418.782C675.729 427.834 670.458 440.553 670.458 448.803C670.458 453.272 671.833 454.303 672.636 454.303C674.354 454.303 678.136 452.126 684.209 442.615C690.052 433.563 695.323 420.042 695.323 412.365Z"
          fill="#1F1D1D"/>
    <path d="M626.473 351.425C626.473 363.647 618.811 376.052 604.948 386.084C591.996 395.388 574.302 399.766 562.08 401.59C561.532 404.509 561.167 407.427 561.167 410.711C561.167 418.555 563.721 422.203 567.552 422.203C570.653 422.203 575.578 420.744 583.422 412.9L596.192 425.669C585.247 436.614 575.579 440.445 567.552 440.445C553.324 440.445 542.926 428.77 542.926 410.711C542.926 385.355 560.62 361.093 582.328 342.852C592.726 334.096 600.752 331.359 607.501 331.359C620.088 331.359 626.473 341.027 626.473 351.425ZM608.231 351.425C608.231 350.696 608.231 349.601 607.501 349.601C596.739 349.601 576.126 374.41 570.471 382.619C586.159 379.153 608.231 366.566 608.231 351.425Z"
          fill="#1F1D1D"/>
    <path d="M556.13 329.352L565.068 344.675C546.644 355.62 525.849 375.321 519.829 384.99C514.904 396.299 507.242 416.548 499.763 433.877L482.98 426.945C488.088 413.994 493.743 399.948 501.222 380.976C507.06 366.018 515.998 344.493 522.747 328.258L540.442 332.818C539.165 335.919 533.875 346.135 532.051 350.695C536.246 345.223 549.745 333.183 556.13 329.352Z"
          fill="#1F1D1D"/>
    <path d="M483.45 337.561L499.868 345.587C494.76 355.985 488.376 369.666 478.89 386.813C474.33 395.022 470.134 403.961 468.492 407.427C463.567 417.824 459.371 429.682 458.095 435.519L440.947 431.506C441.677 428.222 446.055 416.912 446.967 414.176C430.732 428.952 417.78 436.796 413.402 436.796C406.288 436.796 400.998 431.506 401.18 424.209C401.363 418.189 409.207 402.137 416.139 387.543C426.172 366.383 438.211 343.398 442.407 336.102L458.459 344.858C449.703 360.91 442.224 374.592 432.556 395.205C430.367 399.765 427.813 405.602 424.53 411.622L425.077 411.805C433.286 405.42 451.345 393.563 456.818 386.996C458.642 384.989 460.284 382.435 462.29 378.605C465.756 372.038 476.883 350.877 483.45 337.561Z"
          fill="#1F1D1D"/>
    <path d="M415.503 339.027L418.057 357.269C404.923 358.91 393.613 360.187 380.296 362.194C375.006 374.598 366.98 391.198 360.96 407.251C370.263 399.772 382.303 388.279 390.329 383.719L399.45 399.407C387.776 405.791 362.967 424.58 350.745 438.262L335.422 429.506C341.806 407.798 349.103 387.732 359.501 364.748C356.947 365.295 353.299 366.025 350.38 366.572L347.644 348.513C352.569 347.783 363.149 346.141 367.892 345.411C372.817 334.466 376.101 328.811 381.391 318.961L397.444 327.717C395.619 331.183 393.066 336.108 389.782 342.31C397.079 341.398 406.929 340.121 415.503 339.027Z"
          fill="#1F1D1D"/>
    <path d="M330.782 337.561L347.2 345.587C342.092 355.985 335.708 369.666 326.222 386.813C321.662 395.022 317.466 403.961 315.824 407.427C310.899 417.824 306.703 429.682 305.426 435.519L288.279 431.506C289.009 428.222 293.387 416.912 294.299 414.176C278.064 428.952 265.112 436.796 260.734 436.796C253.62 436.796 248.33 431.506 248.512 424.209C248.695 418.189 256.539 402.137 263.471 387.543C273.504 366.383 285.543 343.398 289.739 336.102L305.791 344.858C297.035 360.91 289.556 374.592 279.888 395.205C277.699 399.765 275.145 405.602 271.862 411.622L272.409 411.805C280.618 405.42 298.677 393.563 304.15 386.996C305.974 384.989 307.615 382.435 309.622 378.605C313.088 372.038 324.215 350.877 330.782 337.561Z"
          fill="#1F1D1D"/>
    <path d="M286.187 304.36L285.822 322.602C275.424 322.602 258.277 321.872 240.947 321.872L231.279 343.762C240.035 343.762 250.615 343.58 263.202 343.397L263.567 361.639C246.602 362.004 233.468 362.004 223.253 362.004L190.782 436.065L174 428.769L203.369 361.821C201.545 361.821 199.903 361.821 198.262 361.821L199.538 344.127C204.099 343.945 207.93 343.762 211.213 343.762L221.064 321.69C218.692 321.507 216.138 321.507 212.672 321.507V303.266C239.853 303.63 262.107 303.995 286.187 304.36Z"
          fill="#1F1D1D"/>
    <path d="M838.023 158.431L847.903 164.16C831.59 191.479 825.886 203.92 815.579 228.686C809.796 242.401 802.829 257.505 799.068 265.131C792.18 278.96 775.622 295.481 759.782 294.5C753.956 294.14 750.895 293.402 747.492 292.277L753.672 275.114C755.277 275.762 755.811 275.978 758.725 276.158C767.464 276.699 776.472 269.946 785.053 252.383C787.564 247.239 794.883 232.34 796.804 227.889C788.162 237.589 776.357 248.19 766.343 247.57C756.147 246.939 749.623 240.138 750.57 224.844C753.05 184.789 800.757 158.134 834.511 147.248L838.023 158.431ZM823.147 171.4C809.814 177.155 798.235 184.114 789.739 191.447C773.328 205.601 769.432 218.336 769.105 223.616C768.925 226.529 768.972 228.725 770.44 228.633C776.846 228.481 783.419 222.674 796.371 208.306C806.572 197.058 814.996 184.969 823.147 171.4Z"
          fill="#1F1D1D"/>
    <path d="M763.613 158.205C757.169 170.783 746.872 192.443 738.826 210.221C733.326 222.309 727.918 235.864 725.918 241.589L708.756 235.409C712.289 225.576 717.89 211.849 722.118 202.607C724.652 197.098 731.414 182.347 739.54 166.219L739.369 166.025C728.383 175.215 717.884 182.424 709.116 191.202C700.348 199.98 693.891 209.815 687.845 221.869C685.753 226.126 683.469 230.554 681.708 235.379L664.772 228.482C668.17 220.834 671.75 213.197 674.716 206.618C677.898 199.504 687.865 180.2 692.923 169.364C696.923 160.839 702.185 149.65 703.991 144.096L721.563 149.571C720.848 152.268 715.006 163.969 712.472 169.478C722.719 160.425 733.375 150.667 746.069 143.412C753.076 139.459 759.085 139.831 762.17 143.129C765.78 146.825 766.534 152.355 763.613 158.205Z"
          fill="#1F1D1D"/>
    <path d="M681.699 114.215L697.611 122.876L691.815 133.848L675.902 125.187L681.699 114.215ZM666.287 144.696L682.177 153.722C669.253 176.498 651.774 213.797 645.605 230.778L628.442 224.598C634.611 207.617 654.158 166.426 666.287 144.696Z"
          fill="#1F1D1D"/>
    <path d="M650.747 131.12L658.721 146.966C639.656 156.752 617.683 175.13 611.077 184.408C605.462 195.392 596.564 215.128 588.029 231.962L571.707 224.007C577.605 211.396 584.117 197.726 592.754 179.253C599.505 164.684 609.756 143.752 617.496 127.965L634.874 133.61C633.408 136.626 627.497 146.495 625.395 150.934C629.92 145.731 644.137 134.549 650.747 131.12Z"
          fill="#1F1D1D"/>
    <path d="M592.284 149.612C591.529 161.81 583.116 173.718 568.659 182.875C555.157 191.36 537.226 194.636 524.914 195.702C524.188 198.581 523.643 201.472 523.44 204.749C522.956 212.578 525.279 216.377 529.103 216.614C532.198 216.805 537.204 215.653 545.518 208.309L557.473 221.843C545.873 232.09 535.987 235.316 527.976 234.82C513.774 233.941 504.118 221.646 505.234 203.622C506.8 178.314 525.96 155.192 548.753 138.327C559.672 130.23 567.852 127.995 574.589 128.412C587.152 129.19 592.927 139.234 592.284 149.612ZM574.077 148.485C574.122 147.756 574.19 146.664 573.462 146.619C562.72 145.954 540.613 169.441 534.462 177.285C550.334 174.795 573.142 163.596 574.077 148.485Z"
          fill="#1F1D1D"/>
    <path d="M511.015 134.347L524.131 146.856C507.926 163.581 479.281 195.254 456.348 226.184L439.97 219.139C443.133 200.51 446.331 181.334 450.223 162.75L449.859 162.728C436.328 180.532 417.236 202.562 404.603 217.68L388.623 210.111C393.299 190.662 399.353 151.925 402.911 126.923L421.028 129.507C418.228 148.159 413.745 167.437 410.638 185.156L410.82 185.167C421.326 171.927 440.075 146.587 458.086 124.308L474.259 131.706C470.628 149.027 463.911 180.778 461.358 192.499L461.54 192.511C469.703 181.685 494.446 151.05 511.015 134.347Z"
          fill="#1F1D1D"/>
    <path d="M390.438 140.953C389.39 157.885 378.275 180.957 366.28 197.577C353.682 215.074 341.853 223.114 330.929 222.438C316.91 221.57 310.018 208.898 310.931 194.151C312.441 169.753 341.39 112.512 371.431 114.372C379.988 114.902 391.666 121.108 390.438 140.953ZM372.231 139.826C372.592 134 371.214 132.635 370.304 132.579C365.752 132.297 358.7 136.978 349.934 148.68C339.576 162.478 329.949 182.169 329.138 195.278C328.698 202.378 330.782 204.152 332.056 204.231C334.787 204.4 341.01 201.313 351.595 186.799C361.771 172.99 371.476 152.024 372.231 139.826Z"
          fill="#1F1D1D"/>
    <path d="M350.967 81.7141C349.462 106.017 329.247 124.132 307.23 134.841C283.914 146.225 252.431 151.57 225.966 152.949L198.78 210.623L176.344 199.676L242.529 59.9103C234.693 60.6828 226.857 61.4552 218.755 62.4627L216.271 37.661C241.593 34.4499 267.149 31.5049 292.927 33.1008C328.216 35.2854 352.766 52.6504 350.967 81.7141ZM325.94 80.1647C326.607 69.3911 317.154 59.7515 291.376 58.1557C285.12 57.7683 278.331 57.8511 271.027 58.1534L238.387 126.807C259.596 125.102 276.925 121.144 296.081 112.018C313.423 103.786 325.211 91.9405 325.94 80.1647Z"
          fill="#1F1D1D"/>
    <path d="M168.589 246.307C168.589 253.985 163.777 261.776 155.068 268.079C146.933 273.922 135.818 276.672 128.141 277.818C127.797 279.652 127.568 281.485 127.568 283.547C127.568 288.475 129.172 290.766 131.578 290.766C133.526 290.766 136.62 289.85 141.547 284.923L149.568 292.943C142.693 299.819 136.62 302.225 131.578 302.225C122.641 302.225 116.109 294.891 116.109 283.547C116.109 267.62 127.224 252.38 140.86 240.922C147.391 235.422 152.433 233.703 156.672 233.703C164.579 233.703 168.589 239.776 168.589 246.307ZM157.131 246.307C157.131 245.849 157.131 245.162 156.672 245.162C149.912 245.162 136.964 260.745 133.412 265.901C143.266 263.724 157.131 255.818 157.131 246.307Z"
          fill="#1F1D1D"/>
    <path d="M119.774 246.422C115.191 256.047 113.014 262.12 109.576 271.173C105.107 282.975 101.555 294.433 100.982 297.527L89.753 295.006C90.6696 291.225 94.2218 279.079 98.8052 267.048C100.982 261.433 101.899 259.6 104.993 253.756L104.764 253.641C97.201 261.777 91.128 267.964 86.6592 272.891C79.4403 281.027 74.5132 289.048 71.4194 296.381L60.6484 292.485C65.6902 278.621 74.284 257.995 81.732 241.495C85.8571 232.443 91.3572 220.412 94.2218 213.766L104.764 218.349C100.18 228.776 98.3468 232.558 94.4509 241.495C92.503 245.849 87.9196 255.589 85.2842 261.547C92.0447 254.443 98.6906 245.964 102.816 242.068C107.399 237.828 110.149 235.537 113.587 235.193C115.535 234.964 117.712 235.995 119.087 237.714C120.805 239.776 121.493 242.87 119.774 246.422Z"
          fill="#1F1D1D"/>
    <path d="M69.3027 238.518L70.9069 249.977C62.6568 251.008 55.5525 251.81 47.1878 253.071C43.8649 260.862 38.8231 271.29 35.0418 281.373C40.8857 276.675 48.4483 269.456 53.49 266.592L59.2192 276.446C51.8858 280.456 36.3023 292.259 28.6251 300.852L19 295.352C23.0105 281.717 27.5939 269.113 34.1252 254.675C32.521 255.019 30.2293 255.477 28.3959 255.821L26.6772 244.477C29.7709 244.018 36.4169 242.987 39.3961 242.529C42.4899 235.654 44.5524 232.102 47.8754 225.914L57.9588 231.414C56.8129 233.591 55.2088 236.685 53.1462 240.581C57.7296 240.008 63.9172 239.206 69.3027 238.518Z"
          fill="#1F1D1D"/>
    <mask id="path-34-outside-1_743_5508" maskUnits="userSpaceOnUse" x="0" y="6.76758" width="900" height="689"
          fill="black">
        <rect fill="white" y="6.76758" width="900" height="689"/>
        <path d="M419.461 92.4717L667.661 80.7236L871.096 120.432L863.403 244.693L774.502 329.362L626.782 263.609L200 237.188V282.831L295 274.195L313.5 309.695L393.5 298.195L657 332.695L647.543 359.766H796V461.901L896.696 497.189L875.167 636.268L458.736 682.838L220.417 684.926L102.639 692.146L97.8652 614.293L208.883 496.779L310.755 516.081L370.08 486.896L513.895 512.143L617 493.25V447.195L185 468.695L132 384.195L168.04 316.195H3V201.195H148.931L143.289 54.334L297.338 9.76758L419.461 92.4717Z"/>
    </mask>
    <path d="M419.461 92.4717L417.779 94.9557L419.603 95.4683L419.461 92.4717ZM667.661 80.7236L668.236 77.7792L667.519 77.727L667.661 80.7236ZM871.096 120.432L874.09 120.617L871.67 117.487L871.096 120.432ZM863.403 244.693L865.472 246.866L866.398 244.879L863.403 244.693ZM774.502 329.362L773.282 332.103L776.571 331.535L774.502 329.362ZM626.782 263.609L628.002 260.869L626.968 260.615L626.782 263.609ZM200 237.188L200.185 234.193L197 237.188H200ZM200 282.831H197L200.272 285.819L200 282.831ZM295 274.195L297.66 272.809L294.728 271.208L295 274.195ZM313.5 309.695L310.84 311.082L313.927 312.665L313.5 309.695ZM393.5 298.195L393.889 295.221L393.073 295.226L393.5 298.195ZM657 332.695L659.832 333.685L657.389 329.721L657 332.695ZM647.543 359.766L644.711 358.776L647.543 362.766V359.766ZM796 359.766H799L796 356.766V359.766ZM796 461.901H793L795.008 464.733L796 461.901ZM896.696 497.189L899.661 497.648L897.688 494.358L896.696 497.189ZM875.167 636.268L875.5 639.249L878.132 636.727L875.167 636.268ZM458.736 682.838L458.763 685.838L459.07 685.819L458.736 682.838ZM220.417 684.926L220.391 681.926L220.233 681.931L220.417 684.926ZM102.639 692.146L99.6443 692.33L102.822 695.141L102.639 692.146ZM97.8652 614.293L95.6845 612.233L94.8709 614.477L97.8652 614.293ZM208.883 496.779L209.441 493.832L206.702 494.719L208.883 496.779ZM310.755 516.081L310.196 519.029L312.079 518.773L310.755 516.081ZM370.08 486.896L370.599 483.942L368.756 484.205L370.08 486.896ZM513.895 512.143L513.376 515.097L514.435 515.093L513.895 512.143ZM617 493.25L617.541 496.201L620 493.25H617ZM617 447.195H620L616.851 444.199L617 447.195ZM185 468.695L182.459 470.289L185.149 471.692L185 468.695ZM132 384.195L129.349 382.79L129.459 385.789L132 384.195ZM168.04 316.195L170.691 317.6L168.04 313.195V316.195ZM3 316.195H0L3 319.195V316.195ZM3 201.195V198.195L0 201.195H3ZM148.931 201.195V204.195L151.928 201.08L148.931 201.195ZM143.289 54.334L142.455 51.4522L140.291 54.4491L143.289 54.334ZM297.338 9.76758L299.02 7.28359L296.504 6.88575L297.338 9.76758ZM419.461 92.4717L419.603 95.4683L667.803 83.7203L667.661 80.7236L667.519 77.727L419.319 89.475L419.461 92.4717ZM667.661 80.7236L667.086 83.6681L870.521 123.376L871.096 120.432L871.67 117.487L668.236 77.7792L667.661 80.7236ZM871.096 120.432L868.101 120.246L860.409 244.508L863.403 244.693L866.398 244.879L874.09 120.617L871.096 120.432ZM863.403 244.693L861.334 242.521L772.433 327.19L774.502 329.362L776.571 331.535L865.472 246.866L863.403 244.693ZM774.502 329.362L775.722 326.622L628.002 260.869L626.782 263.609L625.562 266.35L773.282 332.103L774.502 329.362ZM626.782 263.609L626.968 260.615L200.185 234.193L200 237.188L199.815 240.182L626.597 266.604L626.782 263.609ZM200 237.188H197V282.831H200H203V237.188H200ZM200 282.831L200.272 285.819L295.272 277.183L295 274.195L294.728 271.208L199.728 279.843L200 282.831ZM295 274.195L292.34 275.582L310.84 311.082L313.5 309.695L316.16 308.309L297.66 272.809L295 274.195ZM313.5 309.695L313.927 312.665L393.927 301.165L393.5 298.195L393.073 295.226L313.073 306.726L313.5 309.695ZM393.5 298.195L393.111 301.17L656.611 335.67L657 332.695L657.389 329.721L393.889 295.221L393.5 298.195ZM657 332.695L654.168 331.706L644.711 358.776L647.543 359.766L650.375 360.755L659.832 333.685L657 332.695ZM647.543 359.766V362.766H796V359.766V356.766H647.543V359.766ZM796 359.766H793V461.901H796H799V359.766H796ZM796 461.901L795.008 464.733L895.704 500.021L896.696 497.189L897.688 494.358L796.992 459.07L796 461.901ZM896.696 497.189L893.732 496.731L872.202 635.809L875.167 636.268L878.132 636.727L899.661 497.648L896.696 497.189ZM875.167 636.268L874.834 633.286L458.403 679.857L458.736 682.838L459.07 685.819L875.5 639.249L875.167 636.268ZM458.736 682.838L458.71 679.838L220.391 681.926L220.417 684.926L220.443 687.926L458.763 685.838L458.736 682.838ZM220.417 684.926L220.233 681.931L102.455 689.152L102.639 692.146L102.822 695.141L220.601 687.92L220.417 684.926ZM102.639 692.146L105.633 691.963L100.86 614.109L97.8652 614.293L94.8709 614.477L99.6443 692.33L102.639 692.146ZM97.8652 614.293L100.046 616.353L211.064 498.839L208.883 496.779L206.702 494.719L95.6845 612.233L97.8652 614.293ZM208.883 496.779L208.324 499.727L310.196 519.029L310.755 516.081L311.313 513.133L209.441 493.832L208.883 496.779ZM310.755 516.081L312.079 518.773L371.404 489.588L370.08 486.896L368.756 484.205L309.431 513.389L310.755 516.081ZM370.08 486.896L369.561 489.851L513.376 515.097L513.895 512.143L514.413 509.188L370.599 483.942L370.08 486.896ZM513.895 512.143L514.435 515.093L617.541 496.201L617 493.25L616.459 490.299L513.354 509.192L513.895 512.143ZM617 493.25H620V447.195H617H614V493.25H617ZM617 447.195L616.851 444.199L184.851 465.699L185 468.695L185.149 471.692L617.149 450.192L617 447.195ZM185 468.695L187.541 467.101L134.541 382.601L132 384.195L129.459 385.789L182.459 470.289L185 468.695ZM132 384.195L134.651 385.6L170.691 317.6L168.04 316.195L165.389 314.79L129.349 382.79L132 384.195ZM168.04 316.195V313.195H3V316.195V319.195H168.04V316.195ZM3 316.195H6V201.195H3H0V316.195H3ZM3 201.195V204.195H148.931V201.195V198.195H3V201.195ZM148.931 201.195L151.928 201.08L146.287 54.2188L143.289 54.334L140.291 54.4491L145.933 201.31L148.931 201.195ZM143.289 54.334L144.123 57.2158L298.172 12.6494L297.338 9.76758L296.504 6.88575L142.455 51.4522L143.289 54.334ZM297.338 9.76758L295.656 12.2516L417.779 94.9557L419.461 92.4717L421.143 89.9877L299.02 7.28359L297.338 9.76758Z"
          fill="#FC750C" mask="url(#path-34-outside-1_743_5508)"/>
</svg>
